<?xml version="1.0" encoding="utf-8"?>
<!-- Generator: Adobe Illustrator 25.0.0, SVG Export Plug-In . SVG Version: 6.00 Build 0)  -->
<svg version="1.1" id="Layer_1" xmlns="http://www.w3.org/2000/svg" xmlns:xlink="http://www.w3.org/1999/xlink" x="0px" y="0px"
	 viewBox="0 0 622.09 286.68" style="enable-background:new 0 0 622.09 286.68;" xml:space="preserve">
<style type="text/css">
	.st0{fill:#F4C75D;}
	.st1{fill:#181818;}
</style>
<g id="logo-05" transform="translate(6.315 80.651)">
	<g id="Group_5" transform="translate(0 0)">
		<g id="Group_3" transform="translate(8.951 157.776)">
			<g id="Path_9">
				<path class="st0" d="M37.76-58.91c6.69-7.42,12.59-13.61,20.4-17.52c11.83-5.92,23.99-7.96,36.61-2.68
					c6.98,2.92,11.22,8.37,13.57,15.42c0.47,1.4,0.13,3.6,1.73,4.01c1.95,0.5,2.58-1.75,3.6-2.97
					c11.51-13.88,26.26-20.93,44.31-18.99c15.65,1.68,24.97,13.71,25.24,30.81c0.2,12.69-2.4,25.07-4.71,37.46
					c-3.28,17.68-6.87,35.3-10.13,52.96c-0.58,3.18-1.78,4.26-5.09,4.11c-6.95-0.29-13.92-0.19-20.87-0.04
					c-2.94,0.06-3.59-0.67-2.99-3.7c4.4-22.93,8.66-45.88,12.77-68.86c0.99-4.97,1.32-10.05,1.01-15.11
					c-1.04-13.39-14.3-17.43-24.88-10.68c-12.83,8.18-18.79,21.05-21.85,35.12c-4.27,19.66-7.74,39.5-11.32,59.3
					c-0.57,3.1-1.72,4.04-4.77,3.95c-6.79-0.19-13.61-0.29-20.4,0.03c-4.15,0.19-4.26-1.27-3.58-4.77c4.65-23.97,9.15-47.97,13.5-72
					c0.99-4.69,0.89-9.55-0.29-14.2c-2.51-8.8-10.03-12.72-18.71-9.71c-10.34,3.6-16.34,11.73-21.37,20.74
					C32.33-23.29,31.22-8.69,28.45,5.44c-2.27,11.6-4.42,23.23-6.34,34.89c-0.47,2.86-1.68,3.41-4.26,3.35
					c-6.95-0.15-13.92-0.2-20.87,0.02c-3.35,0.12-4.37-0.93-3.76-4.2C-3.36,21.4-0.03,3.27,3.33-14.85
					c3.73-20.07,8.04-40.05,10.35-60.37c0.35-3.08,1.59-4.21,4.72-4.11c5.87,0.2,11.75,0.19,17.62,0.02
					c2.84-0.09,3.75,0.83,3.67,3.67C39.51-70.48,38.61-65.4,37.76-58.91z"/>
			</g>
			<g id="Path_10">
				<path class="st0" d="M216.02-12.54c1.2-21.38,11.32-45.55,37.05-60.35c20-11.51,41.29-13.61,62.12-1.63
					c12.61,7.26,19.46,18.87,21.45,33.26c3.06,21.89-1.97,41.76-14.92,59.68c-16,22.15-45.52,32.59-71.27,25.81
					C230.92,39.09,215.22,20.48,216.02-12.54z M306.76-30.02c0.12-1.84,0.1-3.7-0.04-5.54c-1.22-8.47-3.89-16.19-11.97-20.73
					c-10.08-5.67-24.09-2.59-32.25,7.04c-11.02,13.02-16.06,28.16-15.87,45.05c0.07,6.65,1.25,13.09,5.48,18.64
					c9.07,11.91,26.79,13.1,39.48-1.89C301.84,0.44,306.41-14.17,306.76-30.02L306.76-30.02z"/>
			</g>
			<g id="Path_11">
				<path class="st0" d="M534.49-6.56h-0.47c-9.28-0.02-9.91,0.82-7.67,10.06c2.59,10.62,10.23,17.4,21.31,18.92
					c12.45,1.7,24.25-0.73,35.68-5.51c4.85-2.03,5.14-1.97,5.47,3.21c0.12,4.15,0.65,8.28,1.6,12.33c0.77,2.83-0.23,4.59-3.06,5.73
					c-19.69,8.02-40.02,10.99-60.59,4.94c-13.54-3.98-22.47-13.55-27.15-27.34c-10.64-31.32,6.06-73,34.32-88.88
					c18.51-10.39,37.94-13.45,57.22-2.26c14.16,8.21,17.29,22.93,13.63,37.91c-3.69,15.13-15.94,21.45-29.53,25.71
					C561.99-7.62,548.22-7.2,534.49-6.56z M537.84-28.68c2.29-0.17,6.3-0.44,10.29-0.8c8-0.74,15.96-1.62,23.09-5.9
					c4.6-2.48,7.26-7.49,6.72-12.69c-0.29-5.19-3-8.47-7.74-10.43c-4.78-1.88-10.07-2.04-14.95-0.44
					c-11.66,3.38-18.95,11.56-23.93,22.2C527.86-29.4,528.25-28.65,537.84-28.68z"/>
			</g>
			<g id="Path_12">
				<path class="st0" d="M409.82,12.22c6.53-13.45,12.2-26.88,18.8-39.89c7.84-15.49,15.53-31.06,23.06-46.7
					c1.75-3.61,3.82-5.22,8.09-5.01c8.77,0.41,17.59,0.12,26.66,0.12c-0.28,2.54-1.56,4.27-2.57,6.08
					c-18.6,33.3-37.21,66.6-55.82,99.88c-2.68,4.81-5.46,9.56-8.05,14.41c-0.88,1.66-1.76,2.59-3.82,2.57
					c-8.19-0.12-16.38-0.09-24.57-0.02c-2,0.02-2.89-0.45-3.27-2.7c-6.62-38.9-13.32-77.79-20.1-116.67
					c-0.45-2.59,0.29-3.66,3.06-3.61c7.89,0.12,15.77,0.16,23.65,0.02c2.87-0.06,3.6,1.17,3.92,3.76
					c2.01,16.31,4.21,32.6,6.27,48.91C406.77-13.7,408.26-0.74,409.82,12.22z"/>
			</g>
		</g>
		<g id="Group_4">
			<g id="Path_13">
				<path class="st1" d="M178.71,14.19c1.92-4.21,3.44-7.43,4.87-10.7c11.69-26.8,23.42-53.59,34.95-80.45
					c1.27-2.94,2.84-3.86,5.84-3.7c4.02,0.22,8.06,0.06,12.58,0.06c-0.6,1.76-0.92,2.99-1.43,4.13
					c-15.81,36.06-31.7,72.08-47.4,108.19c-1.5,3.45-3.43,4.23-7.05,4.71c-7.91,1.05-11.28-2.26-14.15-9.33
					c-9.65-23.73-20.11-47.12-30.27-70.64c-0.54-1.27-1.18-2.49-1.78-3.73c-0.38,0.06-0.76,0.13-1.14,0.19v83.26
					c-5.57,0-10.45,0.09-15.32-0.1c-0.7-0.03-1.54-1.33-1.94-2.21c-0.19-0.85-0.22-1.72-0.09-2.58c0-35.66,0.07-71.33-0.1-106.99
					c-0.01-4.13,1.25-5.29,5.17-4.97c3.78,0.29,7.57,0.29,11.35,0c3.13-0.23,4.61,0.98,5.83,3.8C151-48.32,163.47-19.8,176.03,8.68
					C176.73,10.21,177.5,11.7,178.71,14.19z"/>
			</g>
			<g id="Path_14">
				<path class="st1" d="M85.77-46.47c-5.12,0-10.01,0.15-14.9-0.13c-0.93-0.06-2.2-1.57-2.61-2.68
					c-4.84-13.18-12.3-18.74-26.51-18.74c-5.64-0.04-11.27,0.61-16.76,1.92c-6.06,1.52-10.73,5.35-11.38,12.2
					c-0.73,7.49,1.81,12.43,9.21,15.48c8.56,3.53,17.52,6.06,26.28,9.12c6.83,2.39,13.77,4.62,20.4,7.49
					c11.94,5.15,19.27,13.96,19.12,27.4c-0.15,13.39-7.08,22.55-19.22,27.97c-11.53,5.14-23.76,5.1-35.97,4.37
					C23.08,37.32,13.36,34.52,5.4,27.5C-2.15,20.82-5.54,12.07-6.87,2.32C-7.28-0.7-6.2-1.92-3.08-1.75
					c3.77,0.2,8.25-1.11,11.13,0.51c2.39,1.33,2.93,5.95,4.24,9.14c2.7,7.22,8.93,12.55,16.48,14.11
					c10.58,2.48,21.13,2.48,31.18-1.79c3.82-1.67,7.15-4.27,9.71-7.56c3.75-4.97,2.26-12.02-2.38-17.07s-10.98-6.88-17.16-8.95
					c-12.1-4.05-24.28-7.87-36.32-12.11C4.49-28.75-1.75-35.29-3.24-45.16c-1.68-11.13,1.11-21,10.7-28.08
					c9.91-7.33,21.29-9.97,33.3-9.2c7.74,0.5,15.8,1.24,22.98,3.88C78.06-73.33,84.53-61.8,85.77-46.47z"/>
			</g>
			<g id="Path_15">
				<path class="st1" d="M469.81-17.86c0.84,0.61,1.73,1.14,2.67,1.59c9.71,3.18,13.71,10.46,14.76,19.98
					c0.63,5.74,0.98,11.56,2.19,17.18c1.09,5.13,3.18,10.04,4.91,15.32c-4.75,0-10.07,0.2-15.36-0.15c-1.6-0.41-2.9-1.59-3.47-3.15
					c-1.66-6.98-2.94-14.05-4.31-21.1c-0.5-2.55-0.61-5.19-1.27-7.68c-2.3-8.79-8.25-13.25-19.31-13.67
					c-10.17-0.39-20.38-0.04-30.56-0.13c-2.9-0.03-3.69,1.24-3.67,3.96c0.1,12.61-0.06,25.21,0.12,37.82
					c0.04,3.24-0.9,4.47-4.2,4.15c-4.14-0.39-9.63,0.99-12.07-1.15c-2.1-1.85-0.89-7.59-0.9-11.62c-0.06-14.34,0.07-28.7-0.1-43.04
					c-0.04-3.57,1.01-4.72,4.68-4.68c15.29,0.2,30.58-0.06,45.85,0.19c20.73,0.32,25.4-15.4,21.83-29.82
					c-1.91-7.68-8.26-11.08-15.36-11.44c-13.32-0.68-26.71-0.32-40.07-0.38c-2.19-0.01-4.37,0.16-6.54,0.07
					c-3.28-0.15-8.83,0.51-9.4-0.86c-1.47-3.47-0.87-7.88-0.73-11.91c0.03-0.77,1.85-2.14,2.83-2.13
					c19.63,0.16,39.38-0.8,58.85,1.09c23.09,2.24,30.62,19.15,28.27,38.05C487.97-29.58,481.83-21.68,469.81-17.86z"/>
			</g>
			<g id="Path_16">
				<path class="st1" d="M559.19-14.8c0-15.07,0-30.14,0-45.22c0-6.09-0.04-6.14-6-6.15c-9.9-0.01-19.81-0.1-29.7,0.04
					c-3.18,0.04-4.28-0.9-4.28-4.2c0.03-10.26-0.12-10.26,10.25-10.26c26.95,0,53.88,0.09,80.83-0.09c3.98-0.03,4.95,1.25,4.84,4.96
					c-0.35,11.18,1.4,9.41-9.4,9.55c-7.72,0.09-15.43,0.01-23.16,0.01c-6.81,0-6.82,0.01-6.82,6.6c-0.02,30.15-0.1,60.31,0.06,90.46
					c0.02,4.07-0.9,5.95-5.28,5.36c-2.32-0.29-4.66-0.29-6.98,0c-3.67,0.44-4.39-1.3-4.37-4.52c0.12-15.51,0.04-31.03,0.04-46.54
					C559.21-14.8,559.21-14.8,559.19-14.8z"/>
			</g>
			<g id="Path_17">
				<path class="st1" d="M376.07,36.21c-4.85,0-8.95-0.31-12.97,0.09c-4.05,0.41-5.83-1.12-7.2-4.85
					c-12.77-34.56-25.72-69.04-38.62-103.54c-0.99-2.65-1.97-5.32-3.15-8.51c5.35,0,10.01-0.29,14.59,0.18
					c1.4,0.15,3.18,2.16,3.79,3.7c9.72,24.75,19.27,49.55,28.87,74.34c4.27,11.05,8.56,22.09,12.87,33.13
					C374.84,32.32,375.32,33.97,376.07,36.21z"/>
			</g>
			<g id="Path_18">
				<path class="st1" d="M266.2,36.21c2.42-6.38,4.56-12.17,6.79-17.91c5.06-13.06,10.23-26.07,15.19-39.16
					c0.92-2.43,2.14-3.35,4.75-3.28c6.38,0.16,12.8-0.1,19.18,0.18c1.68,0.24,3.17,1.21,4.07,2.65c1.72,3.29,2.87,6.88,4.69,11.49
					c-5.06,0-9.47,0.32-13.82-0.09c-4.4-0.41-6.37,1.3-7.78,5.39c-4.26,12.42-9.04,24.66-13.44,37.03c-0.96,2.71-2.2,3.96-5.26,3.79
					C276.01,36.01,271.4,36.21,266.2,36.21z"/>
			</g>
			<g id="Path_19">
				<path class="st1" d="M223.34-25.56h17.93v62.29h-17.93L223.34-25.56L223.34-25.56z"/>
			</g>
		</g>
	</g>
</g>
<g>
</g>
<g>
</g>
<g>
</g>
<g>
</g>
<g>
</g>
<g>
</g>
</svg>
