<svg xmlns="http://www.w3.org/2000/svg" xmlns:xlink="http://www.w3.org/1999/xlink" width="201.423" height="52.363" viewBox="0 0 201.423 52.363"><defs><style>.a{fill:none;}.b{clip-path:url(#a);}.c{fill:#de3737;}</style><clipPath id="a"><rect class="a" width="201.423" height="52.363"/></clipPath></defs><g transform="translate(0 0)"><g class="b" transform="translate(0 0)"><path class="c" d="M160,15.349a.423.423,0,0,0-.1-.3c-.1-.1-.2-.2-.3-.2s-.2.1-.3.2c-.1,0-.1.1-.1.3v2.767h-2.568V15.349c0-.2,0-.3-.1-.3-.1-.1-.194-.2-.3-.2a.212.212,0,0,0-.2.2c-.1,0-.2.1-.2.3V21.97c0,.1.1.2.2.3a.343.343,0,0,0,.2.1c.1,0,.2-.1.3-.1a.358.358,0,0,0,.1-.3V18.906h2.568V21.97a.363.363,0,0,0,.1.3c.1,0,.2.1.3.1s.2-.1.3-.1c0-.1.1-.2.1-.3Zm-6.923,5.239a.894.894,0,0,1-.3.69c-.1.2-.393.2-.592.2h-.1c-.2,0-.5,0-.6-.2a.6.6,0,0,1-.3-.592V18.71a.849.849,0,0,1,.3-.594,1.054,1.054,0,0,1,.6-.2h.1a1.051,1.051,0,0,1,.889.891Zm.793-1.78a1.653,1.653,0,0,0-.1-.692.964.964,0,0,0-.4-.5.983.983,0,0,0-.5-.393,1.638,1.638,0,0,0-.69-.1h-.1a.876.876,0,0,0-.5.1.516.516,0,0,0-.4.2V15.349a.439.439,0,0,0-.1-.3c-.1-.1-.2-.2-.3-.2s-.2.1-.3.2c-.1,0-.1.1-.1.3V21.97a.358.358,0,0,0,.1.3c.1,0,.2.1.3.1a.343.343,0,0,0,.2-.1c.1-.1.2-.1.2-.3.1.1.2.2.3.3.2,0,.4.1.6.1h.1a1.809,1.809,0,0,0,.69-.2,2.138,2.138,0,0,0,.5-.3,1.994,1.994,0,0,0,.4-.594,1.442,1.442,0,0,0,.1-.69Zm-5.438,0a1.949,1.949,0,0,0-.1-.793,2.156,2.156,0,0,0-.4-.491c-.2-.1-.4-.2-.592-.3a1.243,1.243,0,0,0-.594-.1h-.1a1.18,1.18,0,0,0-.788.2.994.994,0,0,0-.5.393,2.144,2.144,0,0,0-.592-.393,1.183,1.183,0,0,0-.791-.2h-.1a.876.876,0,0,0-.493.1.519.519,0,0,0-.4.2.343.343,0,0,0-.1-.2.4.4,0,0,0-.692.3V21.97a.363.363,0,0,0,.1.3c.1,0,.2.1.3.1s.2-.1.3-.1a.363.363,0,0,0,.1-.3V18.71a.863.863,0,0,1,.295-.594,1.4,1.4,0,0,1,.594-.2h.1a.9.9,0,0,1,.692.3c.2.1.2.3.2.594v3.064a.512.512,0,0,0,.2.4c.1,0,.2.1.3.1s.1-.1.2-.1a.512.512,0,0,0,.2-.4V18.808c0-.2,0-.5.2-.594a.894.894,0,0,1,.69-.3h.1a1.059,1.059,0,0,1,.594.2.9.9,0,0,1,.3.692V21.97a.363.363,0,0,0,.1.3c.1,0,.2.1.295.1s.2-.1.3-.1a.363.363,0,0,0,.1-.3Zm-8.2-.1a.363.363,0,0,0-.1-.3.356.356,0,0,0-.295-.1h-1.483a.351.351,0,0,0-.4.4.368.368,0,0,0,.1.3c.1,0,.2.1.3.1h1.088v1.186a.757.757,0,0,1-.1.494.522.522,0,0,1-.2.4.743.743,0,0,1-.4.2.88.88,0,0,1-.494.1h-.1a.884.884,0,0,1-.5-.1c-.1,0-.2-.1-.393-.2a.509.509,0,0,1-.2-.4.743.743,0,0,1-.1-.494V16.93a.9.9,0,0,1,.1-.5.729.729,0,0,1,.2-.4c.194-.1.295-.2.393-.2a.9.9,0,0,1,.5-.1h.1a.977.977,0,0,1,.791.295,1.007,1.007,0,0,1,.4.692c0,.1.1.2.2.3.1,0,.1.1.2.1s.2-.1.295-.1a.363.363,0,0,0,.1-.3v-.1a1.415,1.415,0,0,0-.2-.69c-.1-.2-.295-.4-.4-.594a4.509,4.509,0,0,0-.692-.3,1.406,1.406,0,0,0-.69-.2h-.1a2.3,2.3,0,0,0-.793.2,2.945,2.945,0,0,0-.592.4,1.769,1.769,0,0,0-.494.69,1.909,1.909,0,0,0-.1.793v3.361a1.881,1.881,0,0,0,.1.788,1.768,1.768,0,0,0,.494.694c.1.2.393.3.592.4a2.348,2.348,0,0,0,.793.2h.1a1.853,1.853,0,0,0,.788-.2c.2-.1.5-.2.594-.4a1.768,1.768,0,0,0,.494-.694,1.921,1.921,0,0,0,.1-.788Zm-8.3-1.286a6.344,6.344,0,0,0-.4-1.286,4.491,4.491,0,0,0-.5-.987,2.751,2.751,0,0,0-.59-.791c-.1-.1-.2-.2-.3-.2s-.2.1-.3.1c0,.1-.1.2-.1.295s.1.2.1.3a4.448,4.448,0,0,1,.594.692,8.319,8.319,0,0,1,.393.889c.1.4.2.692.3,1.09a6.093,6.093,0,0,1,.1,1.284,5.246,5.246,0,0,1-.1,1.284q-.147.593-.3,1.186a4.034,4.034,0,0,1-.494.891,1.792,1.792,0,0,1-.493.69.285.285,0,0,0-.1.2.351.351,0,0,0,.4.4.368.368,0,0,0,.3-.1,5.714,5.714,0,0,0,.59-.793,3.532,3.532,0,0,0,.5-1.085,4.85,4.85,0,0,0,.4-1.286,5.97,5.97,0,0,0,.1-1.382,6.417,6.417,0,0,0-.1-1.385m-3.656,4.151a.368.368,0,0,0-.3-.1h-2.669l2.965-5.732a.365.365,0,0,0,.1-.3c0-.1,0-.3-.1-.3a.522.522,0,0,0-.4-.2h-2.963c-.2,0-.3.1-.4.1,0,.1-.1.2-.1.3s.1.2.1.3c.1.1.2.1.4.1h2.47l-2.966,5.732a.363.363,0,0,0-.1.3.368.368,0,0,0,.1.3c.1.2.2.2.4.2h3.164a.422.422,0,0,0,.3-.692m-5.831-6.226c0-.2-.1-.3-.2-.3-.1-.1-.2-.2-.3-.2s-.1.1-.2.2c-.1,0-.2.1-.2.3V21.97c0,.1.1.2.2.3.1,0,.1.1.2.1s.2-.1.3-.1c.1-.1.2-.2.2-.3Zm-2.968,3.361c0-.1-.1-.2-.1-.3a.356.356,0,0,0-.295-.1H117.6c-.2,0-.3,0-.4.1,0,.1-.1.2-.1.3s.1.2.1.3c.1,0,.2.1.4.1h1.085v1.186a4.312,4.312,0,0,1-.1.494,1.4,1.4,0,0,1-.3.4.512.512,0,0,1-.4.2.584.584,0,0,1-.4.1h-.1a.726.726,0,0,1-.494-.1.524.524,0,0,1-.4-.2,1.448,1.448,0,0,1-.3-.4,4.4,4.4,0,0,1-.1-.494V16.93c0-.2.1-.3.1-.5.1-.1.2-.3.3-.4a.531.531,0,0,1,.4-.2.74.74,0,0,1,.494-.1h.1a1.127,1.127,0,0,1,.791.295,1.581,1.581,0,0,1,.4.692c0,.1.1.2.1.3.1,0,.2.1.3.1s.2-.1.295-.1c0-.1.1-.2.1-.3v-.1a1.414,1.414,0,0,0-.2-.69c-.2-.2-.3-.4-.493-.594l-.592-.3a1.828,1.828,0,0,0-.694-.2h-.1a1.812,1.812,0,0,0-.788.2,4.263,4.263,0,0,0-.694.4,1.609,1.609,0,0,0-.4.69,1.882,1.882,0,0,0-.2.793v3.361a1.852,1.852,0,0,0,.2.788,1.509,1.509,0,0,0,1.09,1.09,1.844,1.844,0,0,0,.788.2h.1a3.063,3.063,0,0,0,.791-.2,2.083,2.083,0,0,0,.594-.4,1.59,1.59,0,0,0,.4-.694,1.853,1.853,0,0,0,.2-.788Zm-6.027,3.459a3.471,3.471,0,0,1-.4-.891,5.591,5.591,0,0,1-.393-1.186c0-.4-.1-.791-.1-1.284,0-.4.1-.793.1-1.284.1-.4.2-.692.3-1.09a6.661,6.661,0,0,1,.493-.889,3.967,3.967,0,0,1,.5-.692.371.371,0,0,0,.1-.3.366.366,0,0,0-.1-.295c-.1,0-.2-.1-.3-.1s-.2.1-.3.2a5.391,5.391,0,0,0-.592.791,11.661,11.661,0,0,0-.5,1.088c-.1.3-.2.791-.3,1.186a6.851,6.851,0,0,0-.2,1.385,5.975,5.975,0,0,0,.2,1.382c.1.5.2.889.3,1.286a11.343,11.343,0,0,0,.5,1.085,2.658,2.658,0,0,0,.692.793.29.29,0,0,0,.2.1.372.372,0,0,0,.3-.1c.1-.1.2-.1.2-.3l-.2-.2c-.1-.2-.3-.4-.5-.69m-5.931-.5c-.1-.1-.2-.1-.3-.2-.2,0-.3,0-.4-.1-.2-.1-.2-.3-.2-.494V17.917h.494c.2,0,.3,0,.3-.1a.495.495,0,0,0,0-.592.435.435,0,0,0-.3-.1h-.494V15.349c0-.2-.1-.3-.2-.3a.212.212,0,0,0-.2-.2c-.1,0-.2.1-.3.2-.1,0-.1.1-.1.3v1.778h-.4a.435.435,0,0,0-.3.1.5.5,0,0,0,0,.592c0,.1.1.1.3.1h.4v3.064a1.089,1.089,0,0,0,.1.5c0,.2.1.3.3.494a1.3,1.3,0,0,0,.4.3c.2,0,.393.1.592.1.1,0,.2-.1.3-.2,0-.1.1-.1.1-.2s-.1-.2-.1-.3m-4.25-4.149a.351.351,0,0,0-.4-.4c-.1,0-.2,0-.2.1-.1.1-.2.2-.2.3V21.97c0,.1.1.2.2.3a.353.353,0,0,0,.2.1c.1,0,.2-.1.3-.1a.363.363,0,0,0,.1-.3Zm0-2.175c0-.2,0-.3-.1-.3-.1-.1-.2-.2-.3-.2a.214.214,0,0,0-.2.2c-.1,0-.2.1-.2.3v.2c0,.1.1.2.2.3,0,.1.1.1.2.1a.351.351,0,0,0,.4-.4ZM99.91,19.4H98.032v-.592a1.047,1.047,0,0,1,.2-.594.891.891,0,0,1,.69-.3h.1a.849.849,0,0,1,.594.3.7.7,0,0,1,.3.594Zm.791-.592a1.688,1.688,0,0,0-.1-.692,1,1,0,0,0-.4-.5,1.732,1.732,0,0,0-.494-.393,1.952,1.952,0,0,0-.694-.1h-.1a1.467,1.467,0,0,0-.69.1.983.983,0,0,0-.5.393.986.986,0,0,0-.4.5,1.688,1.688,0,0,0-.1.692v1.78a1.471,1.471,0,0,0,.1.69,2.083,2.083,0,0,0,.4.594,2.138,2.138,0,0,0,.5.3,1.429,1.429,0,0,0,.69.2h.1a1.386,1.386,0,0,0,.891-.295,1.536,1.536,0,0,0,.592-.793.1.1,0,0,0,.1-.1.433.433,0,0,0-.1-.3c-.1-.1-.2-.2-.295-.2a.343.343,0,0,0-.2.1c-.1,0-.1.1-.2.2s-.2.3-.3.4a.733.733,0,0,1-.5.1h-.1a.828.828,0,0,1-.69-.2,1.413,1.413,0,0,1-.2-.69v-.5H100.3a.351.351,0,0,0,.4-.4Zm-6.029,1.78a.894.894,0,0,1-.3.69.721.721,0,0,1-.592.2h-.1a.723.723,0,0,1-.891-.791V18.71a1.378,1.378,0,0,1,.2-.594,1.407,1.407,0,0,1,.692-.2h.1a.848.848,0,0,1,.592.3.7.7,0,0,1,.3.594Zm.793-1.78a1.653,1.653,0,0,0-.1-.692.975.975,0,0,0-.4-.5,1.574,1.574,0,0,0-1.186-.491h-.1a.75.75,0,0,0-.5.1.515.515,0,0,0-.4.2V15.349c0-.2-.1-.3-.2-.3-.1-.1-.1-.2-.2-.2s-.2.1-.295.2c-.1,0-.2.1-.2.3V21.97c0,.1.1.2.2.3.1,0,.2.1.295.1a.343.343,0,0,1,.2-.1,1.067,1.067,0,0,0,.2-.3c0,.1.1.2.3.3.2,0,.3.1.594.1h.1a1.405,1.405,0,0,0,.592-.2c.2-.1.4-.2.594-.3.1-.2.3-.4.4-.594a1.442,1.442,0,0,0,.1-.69ZM90.225,17.62a.992.992,0,0,0-.5-.393,1.255,1.255,0,0,0-.592-.1h-.4a.344.344,0,0,1-.2.1c-.1,0-.1.1-.2.1,0-.1-.1-.1-.1-.2h-.2a.363.363,0,0,0-.3.1.358.358,0,0,0-.1.3v4.348c0,.2,0,.3.1.4.1,0,.2.1.3.1a.343.343,0,0,0,.2-.1.506.506,0,0,0,.2-.4V18.413a.363.363,0,0,1,.1-.3.35.35,0,0,1,.2-.1c.1-.1.2-.1.4-.1a.361.361,0,0,1,.295.1c.1,0,.1.1.2.1.1.1.2.2.3.2s.2-.1.3-.1a.5.5,0,0,0,0-.594m-5.636,2.968a.9.9,0,0,1-.295.69c-.1.2-.4.2-.592.2h-.1a.832.832,0,0,1-.692-.2.768.768,0,0,1-.2-.494v-.1c0-.2,0-.3.2-.4a1.333,1.333,0,0,1,.4-.3c.2,0,.4-.1.694-.1.2,0,.4-.1.59-.1Zm1.387,1.085a.365.365,0,0,0-.3-.1c-.2-.1-.3-.2-.3-.4V18.71a1.26,1.26,0,0,0-.1-.594.99.99,0,0,0-.4-.5.99.99,0,0,0-.491-.393,1.476,1.476,0,0,0-.692-.1h-.5c-.1.1-.3.1-.393.2a1.428,1.428,0,0,0-.4.295,2.219,2.219,0,0,0-.3.5c-.1,0-.1.1-.1.2a.212.212,0,0,0,.2.2c0,.1.1.1.2.1h.2a.213.213,0,0,0,.2-.2c.1-.1.194-.3.295-.4a1.076,1.076,0,0,1,.594-.1.833.833,0,0,1,.594.2c.194.1.293.3.293.692v.1c-.1.1-.194.1-.293.2a1.48,1.48,0,0,0-.594.1c-.2,0-.4.1-.594.1-.2.1-.4.2-.592.3a1.711,1.711,0,0,0-.5.4,1.472,1.472,0,0,0-.1.692v.1a1.481,1.481,0,0,0,.1.692,1.743,1.743,0,0,0,.4.494l.592.3c.2,0,.4.1.594.1h.1a1.581,1.581,0,0,0,1.085-.494l.3.3a.747.747,0,0,0,.5.1v.1c.2,0,.3-.1.3-.2.1,0,.1-.1.1-.2v-.3m-5.735-2.865a2.2,2.2,0,0,0-.1-.793,2.1,2.1,0,0,0-.4-.491c-.2-.1-.4-.2-.592-.3a1.239,1.239,0,0,0-.594-.1h-.1a.726.726,0,0,0-.494.1.512.512,0,0,0-.4.2c-.1-.1-.1-.2-.2-.2a.281.281,0,0,0-.2-.1.362.362,0,0,0-.3.1c-.1.1-.2.2-.2.3V21.97c0,.1.1.2.2.3.1,0,.2.1.3.1s.1-.1.2-.1c.1-.1.2-.2.2-.3V18.808c0-.2,0-.5.2-.594a.9.9,0,0,1,.692-.3h.1a.853.853,0,0,1,.594.3.707.707,0,0,1,.3.594V21.97a.363.363,0,0,0,.1.3c.1,0,.2.1.295.1s.2-.1.3-.1a.363.363,0,0,0,.1-.3Zm-6.027.592H72.235v-.592a.708.708,0,0,1,.3-.594.9.9,0,0,1,.694-.3h.1a.853.853,0,0,1,.594.3.707.707,0,0,1,.3.594ZM75,18.808a1.868,1.868,0,0,0-.194-.692.843.843,0,0,0-.3-.5,2.1,2.1,0,0,0-.594-.393,1.239,1.239,0,0,0-.594-.1h-.1a1.456,1.456,0,0,0-.694.1,2.1,2.1,0,0,0-.594.393,2.142,2.142,0,0,0-.295.5,1.831,1.831,0,0,0-.2.692v1.78a1.437,1.437,0,0,0,.2.69l.295.594c.2.1.4.2.594.3a1.447,1.447,0,0,0,.694.2h.1a1.6,1.6,0,0,0,.891-.295,1.552,1.552,0,0,0,.594-.793.1.1,0,0,0,.1-.1c0-.2-.1-.3-.2-.3,0-.1-.1-.2-.3-.2a.343.343,0,0,1-.2.1.341.341,0,0,0-.1.2c-.1.1-.2.3-.3.4a.873.873,0,0,1-.494.1h-.1a.837.837,0,0,1-.694-.2.9.9,0,0,1-.3-.69v-.5h2.374a.359.359,0,0,0,.295-.1c0-.1.1-.2.1-.3Zm-5.335,0a1.949,1.949,0,0,0-.1-.793.979.979,0,0,0-.4-.491,2.089,2.089,0,0,0-.494-.3,1.437,1.437,0,0,0-.69-.1h-.1a.941.941,0,0,0-.692.2,2.111,2.111,0,0,0-.592.393,2.12,2.12,0,0,0-.594-.393.938.938,0,0,0-.69-.2h-.1a.73.73,0,0,0-.494.1.512.512,0,0,0-.4.2c-.1-.1-.1-.2-.2-.2a.3.3,0,0,0-.2-.1.358.358,0,0,0-.295.1c-.1.1-.2.2-.2.3V21.97c0,.1.1.2.2.3.1,0,.2.1.295.1s.1-.1.2-.1c.1-.1.2-.2.2-.3V18.71a1.4,1.4,0,0,1,.2-.594,1.423,1.423,0,0,1,.694-.2h.1a.856.856,0,0,1,.592.3.6.6,0,0,1,.3.594v3.064c0,.2,0,.3.1.4.1,0,.2.1.3.1s.2-.1.3-.1c.1-.1.1-.2.1-.4V18.808a.708.708,0,0,1,.3-.594.857.857,0,0,1,.594-.3h.1a1.407,1.407,0,0,1,.692.2,1.431,1.431,0,0,1,.2.692V21.97c0,.1.1.2.2.3a.344.344,0,0,0,.2.1c.1,0,.2-.1.3-.1a.363.363,0,0,0,.1-.3Zm-8.006,0a1.85,1.85,0,0,0-.2-.793.964.964,0,0,0-.4-.491,2.089,2.089,0,0,0-.494-.3,1.442,1.442,0,0,0-.692-.1h-.1a.936.936,0,0,0-.692.2,2.111,2.111,0,0,0-.592.393,1.283,1.283,0,0,0-.594-.393.835.835,0,0,0-.692-.2h-.1a.726.726,0,0,0-.494.1.52.52,0,0,0-.4.2c-.1-.1-.1-.2-.2-.2a.285.285,0,0,0-.2-.1.351.351,0,0,0-.4.4V21.97a.363.363,0,0,0,.1.3c.1,0,.2.1.3.1a.352.352,0,0,0,.2-.1c.1-.1.2-.2.2-.3V18.71a1.409,1.409,0,0,1,.2-.594,1.414,1.414,0,0,1,.692-.2h.1a.7.7,0,0,1,.592.3.6.6,0,0,1,.3.594v3.064c0,.2,0,.3.1.4.1,0,.2.1.3.1s.2-.1.3-.1c.1-.1.1-.2.1-.4V18.808a.705.705,0,0,1,.295-.594.853.853,0,0,1,.594-.3h.1a1.407,1.407,0,0,1,.692.2.836.836,0,0,1,.2.692V21.97c0,.1.1.2.2.3.1,0,.1.1.2.1s.2-.1.3-.1c.1-.1.2-.2.2-.3Zm-9.29,1.78a.9.9,0,0,1-.3.69.726.726,0,0,1-.594.2h-.1a.832.832,0,0,1-.692-.2c-.2-.1-.2-.3-.2-.494v-.1c0-.2,0-.3.1-.4.2-.1.3-.2.494-.3.2,0,.4-.1.592-.1.3,0,.5-.1.694-.1Zm1.284,1.085c0-.1-.1-.1-.2-.1-.2-.1-.3-.2-.3-.4V18.71c0-.2-.1-.4-.1-.594a.986.986,0,0,0-.4-.5.977.977,0,0,0-.494-.393,1.663,1.663,0,0,0-.692-.1h-.494c-.2.1-.3.1-.4.2a1.38,1.38,0,0,0-.4.295.99.99,0,0,0-.4.5v.2c0,.1,0,.2.1.2a.363.363,0,0,0,.3.1h.2c.1,0,.1-.1.2-.2s.2-.3.3-.4a.74.74,0,0,1,.494-.1h.1a1.052,1.052,0,0,1,.594.2c.2.1.3.3.3.692v.1h-.1c0,.1-.1.1-.2.2a1.26,1.26,0,0,0-.594.1c-.2,0-.4.1-.592.1-.2.1-.4.2-.594.3a.984.984,0,0,0-.5.4,1.431,1.431,0,0,0-.2.692v.1a1.446,1.446,0,0,0,.2.692,1.755,1.755,0,0,0,.4.494,2.089,2.089,0,0,0,.494.3c.2,0,.4.1.692.1h.1a1.586,1.586,0,0,0,1.088-.494l.295.3a.6.6,0,0,0,.4.1.1.1,0,0,0,.1.1c.1,0,.2-.1.3-.2.1,0,.1-.1.1-.2a.368.368,0,0,0-.1-.3m-5.536-.889a1.831,1.831,0,0,0-.2-.791c-.194-.2-.295-.4-.491-.5a1.853,1.853,0,0,0-.694-.2c-.2-.1-.491-.1-.69-.2-.2,0-.3-.1-.493-.2a.506.506,0,0,1-.2-.4c0-.2.1-.3.3-.4a.829.829,0,0,1,.594-.2h.1a.75.75,0,0,1,.5.1c.2.1.3.1.4.2h.3c.1,0,.2,0,.2-.1.1,0,.1-.1.1-.2,0-.2,0-.3-.1-.3-.069-.065-.134-.13-.2-.2-.1,0-.2-.1-.3-.1-.1-.1-.3-.1-.4-.2h-.592a1.085,1.085,0,0,0-.5.1,1.425,1.425,0,0,0-.594.2.776.776,0,0,0-.4.4,1.436,1.436,0,0,0-.2.594,1.557,1.557,0,0,0,.2.791,1,1,0,0,0,.5.4,5,5,0,0,0,.692.3c.2,0,.393.1.69.1.2.1.3.2.5.3a.757.757,0,0,1,.2.494.542.542,0,0,1-.3.494c-.2.2-.4.2-.788.2a.726.726,0,0,1-.594-.2,2.181,2.181,0,0,1-.5-.4c-.065-.065-.13-.132-.2-.2h-.2a.347.347,0,0,0-.393.393v.2a.763.763,0,0,0,.393.4c.1.2.3.3.4.4.2.1.4.1.5.2.2,0,.4.1.594.1.295,0,.491-.1.69-.1.2-.1.4-.2.594-.3a.964.964,0,0,0,.393-.494,1.4,1.4,0,0,0,.2-.594Zm-5.435-3.26a.4.4,0,1,0-.791,0v3.064a.9.9,0,0,1-.3.69c-.1.2-.4.2-.592.2h-.1a.835.835,0,0,1-.692-.2,1.437,1.437,0,0,1-.2-.69V17.524c0-.1-.1-.2-.2-.3,0-.1-.1-.1-.2-.1a.351.351,0,0,0-.4.4v3.064a1.927,1.927,0,0,0,.1.788.99.99,0,0,0,.4.5.973.973,0,0,0,.491.4c.2,0,.5.1.692.1h.1c.2,0,.3-.1.494-.1a1.364,1.364,0,0,0,.4-.3c0,.2.1.2.1.3.1,0,.2.1.3.1s.2-.1.3-.1a.363.363,0,0,0,.1-.3Zm-5.138,4.051a.368.368,0,0,0-.3-.1H34.581l2.966-5.732a.365.365,0,0,0,.1-.3c0-.1-.1-.3-.2-.3-.1-.1-.2-.2-.3-.2H34.086c-.1,0-.2.1-.3.1,0,.1-.1.2-.1.3s.1.2.1.3a.368.368,0,0,0,.3.1h2.572l-3.066,5.732v.3a.368.368,0,0,0,.1.3c.1.2.2.2.3.2H37.25a.368.368,0,0,0,.3-.1c0-.1.1-.2.1-.3s-.1-.2-.1-.3" transform="translate(41.421 17.464)"/><path class="c" d="M111.473,13.785H109.6v-.592a1.457,1.457,0,0,1,.2-.594.9.9,0,0,1,.692-.3h.1a1.045,1.045,0,0,1,.889.891Zm.79-.592a1.947,1.947,0,0,0-.1-.692.981.981,0,0,0-.4-.494,1.8,1.8,0,0,0-.491-.4,1.952,1.952,0,0,0-.694-.1h-.1a1.472,1.472,0,0,0-.692.1.99.99,0,0,0-.494.4,1.256,1.256,0,0,0-.4.592,1.269,1.269,0,0,0-.1.594v1.876a1.26,1.26,0,0,0,.1.594,2.063,2.063,0,0,0,.4.594,2.089,2.089,0,0,0,.494.3,1.431,1.431,0,0,0,.692.2h.1a1.375,1.375,0,0,0,.889-.295,1.339,1.339,0,0,0,.594-.692.312.312,0,0,0,.1-.2c0-.1-.1-.2-.1-.3a.365.365,0,0,0-.3-.1h-.2l-.194.2a1.387,1.387,0,0,1-.3.4.758.758,0,0,1-.5.2h-.1a.892.892,0,0,1-.692-.3,1.436,1.436,0,0,1-.2-.594v-.59h2.273a.358.358,0,0,0,.295-.1.363.363,0,0,0,.1-.3Zm-5.04,2.867a.36.36,0,0,0-.3-.1c-.2-.1-.295-.1-.393-.2a.4.4,0,0,1-.2-.4V9.734a.433.433,0,0,0-.1-.3.5.5,0,0,0-.594,0c-.1,0-.1.1-.1.3v5.632a.9.9,0,0,0,.1.5,1.3,1.3,0,0,0,.3.5c.1.1.3.2.4.295.2,0,.393.1.592.1.1,0,.2-.1.3-.2a.343.343,0,0,0,.1-.2c0-.1-.1-.2-.1-.3m-4.743-1.088a.9.9,0,0,1-.3.69.7.7,0,0,1-.592.3h-.1a1.446,1.446,0,0,1-.692-.2,1.425,1.425,0,0,1-.2-.594v-.1a.514.514,0,0,1,.2-.393.763.763,0,0,1,.5-.2c.1-.1.4-.1.592-.2a1.269,1.269,0,0,0,.594-.1Zm1.382,1.088a.358.358,0,0,0-.3-.1c-.194-.1-.295-.2-.295-.4V13.1a1.264,1.264,0,0,0-.1-.594.981.981,0,0,0-.4-.494,1,1,0,0,0-.5-.4,1.26,1.26,0,0,0-.592-.1H101.1c-.1.1-.3.1-.4.2s-.3.194-.4.295a2.121,2.121,0,0,0-.295.494.342.342,0,0,0-.1.2c0,.1.1.2.2.3.1,0,.1.1.2.1a.343.343,0,0,0,.2-.1.214.214,0,0,0,.2-.2c.1-.1.2-.3.4-.4a4.284,4.284,0,0,1,.5-.1h.1a1.42,1.42,0,0,1,.592.2,1.154,1.154,0,0,1,.2.692v.2c-.1,0-.2.1-.3.1-.2,0-.3.1-.494.1s-.4.1-.692.1c-.2.1-.4.2-.594.3a.771.771,0,0,0-.393.4.832.832,0,0,0-.2.69v.1a1.476,1.476,0,0,0,.1.692,2.244,2.244,0,0,0,.4.5l.594.295c.2,0,.4.1.592.1h.1a2.84,2.84,0,0,0,1.186-.393c0,.1.1.1.2.2s.3.1.493.2h.1c.1,0,.2-.1.3-.2a.343.343,0,0,0,.1-.2c0-.1-.1-.2-.1-.3M98.13,13.193a1.476,1.476,0,0,0-.1-.692,1.254,1.254,0,0,0-.4-.594c-.2-.1-.3-.194-.5-.295a1.923,1.923,0,0,0-.69-.1h-.1a.747.747,0,0,0-.5.1.51.51,0,0,0-.393.2.213.213,0,0,0-.2-.2c0-.1-.1-.1-.2-.1a.363.363,0,0,0-.3.1.358.358,0,0,0-.1.295v4.451a.356.356,0,0,0,.1.295c.1,0,.2.1.3.1a.343.343,0,0,0,.2-.1c.1-.1.2-.2.2-.295V13.193a1.074,1.074,0,0,1,.194-.594.908.908,0,0,1,.694-.3h.1a.708.708,0,0,1,.594.3.862.862,0,0,1,.295.594v3.164a.361.361,0,0,0,.1.295c.1,0,.2.1.3.1s.2-.1.3-.1a.361.361,0,0,0,.1-.295ZM92,15.069a1.05,1.05,0,0,1-.891.891h-.1a.894.894,0,0,1-.69-.3,1.409,1.409,0,0,1-.2-.594V13.193a1.429,1.429,0,0,1,.2-.594.9.9,0,0,1,.69-.3h.1a1.05,1.05,0,0,1,.891.891Zm.788-1.876a1.269,1.269,0,0,0-.1-.594,1.283,1.283,0,0,0-.393-.594,1.778,1.778,0,0,0-.5-.393,1.947,1.947,0,0,0-.692-.1h-.1a1.471,1.471,0,0,0-.69.1,1,1,0,0,0-.5.393,1.3,1.3,0,0,0-.4.594,1.269,1.269,0,0,0-.1.594v1.876a1.26,1.26,0,0,0,.1.594,2.149,2.149,0,0,0,.4.594,2.109,2.109,0,0,0,.5.3,1.437,1.437,0,0,0,.69.2h.1a2.544,2.544,0,0,0,.692-.2c.2-.1.3-.2.5-.3a2.137,2.137,0,0,0,.393-.594,1.26,1.26,0,0,0,.1-.594Zm-5.435-1.286a.348.348,0,0,0-.4-.393c-.1,0-.2,0-.2.1-.1.1-.2.2-.2.295v4.451c0,.1.1.2.2.295a.343.343,0,0,0,.2.1c.1,0,.2-.1.3-.1a.361.361,0,0,0,.1-.295Zm0-2.173c0-.2,0-.3-.1-.3a.363.363,0,0,0-.3-.1c-.1,0-.2,0-.2.1-.1,0-.2.1-.2.3v.2c0,.1.1.2.2.295,0,.1.1.1.2.1a.348.348,0,0,0,.4-.393Zm-2.57,6.326a.4.4,0,0,0-.3-.1c-.1-.1-.295-.1-.393-.2a.764.764,0,0,1-.2-.5V12.3h.592a.365.365,0,0,0,.3-.1.36.36,0,0,0,.1-.3c0-.1,0-.194-.1-.194-.1-.1-.2-.2-.3-.2H83.9V9.734c0-.2,0-.3-.1-.3a.5.5,0,0,0-.594,0c-.1,0-.1.1-.1.3v1.78h-.4c-.1,0-.2.1-.3.2-.1,0-.1.1-.1.194a.348.348,0,0,0,.4.4h.4v3.064a.9.9,0,0,0,.1.5c.1.2.2.3.3.5.1.1.3.2.4.295.2,0,.4.1.592.1.1,0,.2-.1.3-.2.1,0,.1-.1.1-.2a.358.358,0,0,0-.1-.3m-4.942-1.088a1.405,1.405,0,0,1-.2.69.885.885,0,0,1-.69.3h-.1a.839.839,0,0,1-.594-.2.853.853,0,0,1-.295-.594v-.1a.507.507,0,0,1,.2-.393.757.757,0,0,1,.493-.2c.2-.1.4-.1.594-.2a1.255,1.255,0,0,0,.592-.1Zm1.384,1.088a.356.356,0,0,0-.295-.1c-.2-.1-.3-.2-.3-.4V13.1a1.239,1.239,0,0,0-.1-.594,2.043,2.043,0,0,0-.3-.494,2.053,2.053,0,0,0-.594-.4,1.246,1.246,0,0,0-.592-.1h-.494c-.2.1-.3.1-.5.2-.1.1-.295.194-.393.295a2.117,2.117,0,0,0-.3.494v.2a.368.368,0,0,0,.1.3c.1,0,.2.1.3.1a.353.353,0,0,1,.2-.1.355.355,0,0,0,.1-.2c.1-.1.2-.3.4-.4a4.228,4.228,0,0,1,.494-.1h.1a1.39,1.39,0,0,1,.592.2,1.139,1.139,0,0,1,.2.692v.2a.436.436,0,0,1-.295.1,4.228,4.228,0,0,1-.494.1c-.2,0-.4.1-.694.1-.2.1-.393.2-.592.3a.776.776,0,0,0-.4.4,1.444,1.444,0,0,0-.2.69v.1a1.447,1.447,0,0,0,.1.692,2.181,2.181,0,0,0,.4.5l.592.295c.2,0,.4.1.594.1h.1a2.424,2.424,0,0,0,1.186-.393c0,.1.1.1.2.2.2.1.3.1.494.2h.1c.1,0,.2-.1.295-.2a.343.343,0,0,0,.1-.2c0-.1-.1-.2-.1-.3M75.5,13.193a1.476,1.476,0,0,0-.1-.692,1.274,1.274,0,0,0-.4-.594,2.231,2.231,0,0,0-.491-.295,1.7,1.7,0,0,0-.694-.1h-.1a.882.882,0,0,0-.491.1.527.527,0,0,0-.4.2.213.213,0,0,0-.2-.2c0-.1-.1-.1-.2-.1a.348.348,0,0,0-.4.393v4.451a.361.361,0,0,0,.1.295c.1,0,.2.1.3.1s.2-.1.3-.1c0-.1.1-.2.1-.295V13.193a.713.713,0,0,1,.3-.594.706.706,0,0,1,.592-.3h.1a.707.707,0,0,1,.594.3.857.857,0,0,1,.3.594v3.164c0,.1.1.2.1.295.1,0,.194.1.295.1s.2-.1.3-.1a.361.361,0,0,0,.1-.295Zm-4.942-1.186a.99.99,0,0,0-.494-.4,1.26,1.26,0,0,0-.594-.1h-.4a.307.307,0,0,1-.2.1.341.341,0,0,0-.2.1c0-.1-.1-.1-.1-.2h-.194a.363.363,0,0,0-.3.1c-.1.1-.2.2-.2.295v4.451c0,.1.1.2.2.295a.343.343,0,0,0,.2.1c.1,0,.2-.1.295-.1a.356.356,0,0,0,.1-.295V13c0-.1.1-.1.1-.2a.365.365,0,0,1,.1-.3.353.353,0,0,1,.2-.1c.1-.1.2-.1.4-.1a.358.358,0,0,1,.3.1c.1,0,.1.1.2.1.1.1.2.2.295.2s.2-.1.3-.1c0-.1.1-.2.1-.3s-.1-.2-.1-.295m-5.141,1.778H63.54v-.592a1.4,1.4,0,0,1,.2-.594.892.892,0,0,1,.69-.3h.1a1.045,1.045,0,0,1,.889.891Zm.793-.592a1.906,1.906,0,0,0-.1-.692.97.97,0,0,0-.4-.494,1.275,1.275,0,0,0-.592-.4,1.26,1.26,0,0,0-.594-.1h-.1a1.457,1.457,0,0,0-.69.1.987.987,0,0,0-.5.4,1.236,1.236,0,0,0-.4.592,1.243,1.243,0,0,0-.1.594v1.876a1.235,1.235,0,0,0,.1.594,2.008,2.008,0,0,0,.4.594,2.063,2.063,0,0,0,.5.3,1.414,1.414,0,0,0,.69.2h.1a1.375,1.375,0,0,0,.889-.295,1.329,1.329,0,0,0,.594-.692.312.312,0,0,0,.1-.2c0-.1-.1-.2-.1-.3a.365.365,0,0,0-.3-.1h-.2c-.1.1-.194.1-.194.2a1.387,1.387,0,0,1-.3.4.758.758,0,0,1-.5.2h-.1a.885.885,0,0,1-.69-.3,1.379,1.379,0,0,1-.2-.594v-.59h2.271a.354.354,0,0,0,.4-.4Zm-5.042,2.867a.358.358,0,0,0-.3-.1c-.2-.1-.295-.1-.393-.2-.2-.1-.2-.3-.2-.5V12.3h.592a.363.363,0,0,0,.3-.1c0-.1.1-.2.1-.3a.332.332,0,0,0-.1-.194c-.1-.1-.2-.2-.3-.2h-.592V9.734c0-.2-.1-.3-.2-.3,0-.1-.1-.1-.2-.1a.365.365,0,0,0-.3.1c-.1,0-.1.1-.1.3v1.78h-.4c-.1,0-.2.1-.295.2-.1,0-.1.1-.1.194a.351.351,0,0,0,.4.4h.4v3.064a.9.9,0,0,0,.1.5c0,.2.1.3.3.5a1.371,1.371,0,0,0,.4.295c.2,0,.4.1.592.1.1,0,.2-.1.3-.2a.341.341,0,0,0,.1-.2c0-.1-.1-.2-.1-.3m-3.953-2.867a1.438,1.438,0,0,0-.2-.692,3.478,3.478,0,0,0-.3-.594c-.2-.1-.4-.194-.594-.295a1.255,1.255,0,0,0-.592-.1h-.1a1.26,1.26,0,0,0-.594.1.774.774,0,0,0-.4.2c0-.1,0-.2-.1-.2a.361.361,0,0,0-.295-.1c-.1,0-.2,0-.2.1-.1.1-.2.2-.2.295v4.451c0,.1.1.2.2.295a.343.343,0,0,0,.2.1c.1,0,.2-.1.295-.1a.361.361,0,0,0,.1-.295V13.193a.713.713,0,0,1,.3-.594.908.908,0,0,1,.694-.3.9.9,0,0,1,.69.3.857.857,0,0,1,.3.594v3.164a.361.361,0,0,0,.1.295c.1,0,.2.1.3.1s.2-.1.3-.1c0-.1.1-.2.1-.295ZM51.579,9.734c0-.2-.1-.3-.2-.3,0-.1-.1-.1-.2-.1a.361.361,0,0,0-.295.1c-.1,0-.1.1-.1.3v6.623a.361.361,0,0,0,.1.295c.1,0,.2.1.295.1a.353.353,0,0,0,.2-.1c.1-.1.2-.2.2-.295Zm-6.027,2.273a1.75,1.75,0,0,0-.5-.4,1.255,1.255,0,0,0-.592-.1h-.4a.312.312,0,0,1-.2.1.35.35,0,0,0-.2.1c-.065-.069-.13-.134-.2-.2h-.2c-.1,0-.194,0-.194.1-.1.1-.2.2-.2.295v4.451c0,.1.1.2.1.295.1,0,.2.1.295.1s.2-.1.3-.1a.361.361,0,0,0,.1-.295V12.8a.36.36,0,0,0,.1-.3c.1,0,.2-.1.3-.1a.358.358,0,0,1,.3-.1c.2,0,.3,0,.393.1l.1.1a.522.522,0,0,0,.4.2.341.341,0,0,0,.2-.1c.1-.1.2-.2.2-.3s-.1-.2-.1-.295m-4.547-.1a.358.358,0,0,0-.1-.295.495.495,0,0,0-.592,0,.358.358,0,0,0-.1.295v3.162a.854.854,0,0,1-.295.594.7.7,0,0,1-.594.3h-.1a.893.893,0,0,1-.692-.3,1.379,1.379,0,0,1-.2-.594V11.907c0-.1-.1-.194-.2-.295,0-.1-.1-.1-.2-.1a.348.348,0,0,0-.4.393v3.162a1.486,1.486,0,0,0,.1.694,2.067,2.067,0,0,0,.4.594,2.12,2.12,0,0,0,.494.295c.2,0,.494.1.692.1h.1c.2,0,.3-.1.5-.1.2-.1.295-.1.393-.2,0,.1.1.1.1.2.1,0,.2.1.295.1s.2-.1.3-.1a.356.356,0,0,0,.1-.295ZM38.632,9.734c0-.2,0-.3-.1-.3a.365.365,0,0,0-.295-.1c-.1,0-.2,0-.2.1-.1,0-.2.1-.2.3v.2c0,.1.1.2.2.295,0,.1.1.1.2.1a.365.365,0,0,0,.295-.1.361.361,0,0,0,.1-.295Zm1.976,0c0-.2,0-.3-.1-.3a.495.495,0,0,0-.592,0c-.1,0-.1.1-.1.3v.2a.4.4,0,1,0,.788,0Zm-4.645-.3c-.1-.1-.2-.1-.4-.1a.89.89,0,0,0-.494.1c-.2,0-.295.1-.4.3-.2.1-.3.2-.3.4a1.255,1.255,0,0,0-.1.592v.793h-.3c-.1,0-.2.1-.3.2a.334.334,0,0,0-.1.194c0,.1.1.2.1.3a.365.365,0,0,0,.3.1h.3v4.055a.361.361,0,0,0,.1.295c.1,0,.2.1.3.1s.2-.1.3-.1c0-.1.1-.2.1-.295V12.3h.494a.348.348,0,0,0,.4-.4c0-.1,0-.194-.1-.194-.1-.1-.2-.2-.3-.2h-.494v-.793c0-.2,0-.3.1-.4a.4.4,0,0,1,.4-.2.512.512,0,0,0,.4-.2.35.35,0,0,0,.1-.2c0-.1-.1-.2-.1-.3" transform="translate(41.421 11.516)"/><path class="c" d="M133.637,10.882a.368.368,0,0,0-.3-.1.513.513,0,0,1-.4-.2.741.741,0,0,1-.2-.393V7.224h.594c.1,0,.2-.1.3-.2,0-.1.1-.2.1-.295s-.1-.1-.1-.2c-.1-.1-.2-.2-.3-.2h-.594V4.557c0-.2,0-.3-.1-.3a.486.486,0,0,0-.592,0c-.1,0-.1.1-.1.3V6.335h-.4c-.1,0-.2.1-.3.2a.282.282,0,0,0-.1.2.361.361,0,0,0,.1.295c.1.1.2.2.3.2h.4v2.968a.726.726,0,0,0,.1.491c.1.2.2.3.3.5.1.1.295.2.393.3.2,0,.4.1.594.1.1,0,.2-.1.3-.1a.5.5,0,0,0,0-.594M130.178,4.26a.363.363,0,0,0-.3-.1,1.222,1.222,0,0,0-.592.1c-.1.1-.3.2-.4.3s-.2.295-.3.4a1.255,1.255,0,0,0-.1.592v.791h-.2c-.2,0-.295.1-.295.2a.277.277,0,0,0-.1.2.356.356,0,0,0,.1.295c0,.1.1.2.295.2h.2v3.955c0,.1.1.2.1.3.1,0,.2.1.3.1s.2-.1.3-.1a.36.36,0,0,0,.1-.3V7.224h.491c.2,0,.3-.1.3-.2a.356.356,0,0,0,.1-.295.286.286,0,0,0-.1-.2c0-.1-.1-.2-.3-.2h-.491V5.545a.517.517,0,0,1,.194-.4c.1-.2.2-.2.4-.2.1,0,.2-.1.3-.1a.361.361,0,0,0,.1-.295.363.363,0,0,0-.1-.3m-4.844,5.634a.857.857,0,0,1-.3.592.9.9,0,0,1-.69.3h-.1a1.076,1.076,0,0,1-.594-.2.857.857,0,0,1-.3-.592v-.1a.513.513,0,0,1,.2-.4.748.748,0,0,1,.5-.2c.2-.1.4-.1.592-.2a1.7,1.7,0,0,0,.692-.1Zm1.284.987a.433.433,0,0,0-.3-.1c-.1,0-.2-.2-.2-.4V8.017a1.431,1.431,0,0,0-.2-.692c0-.2-.2-.4-.3-.494a1.711,1.711,0,0,0-.5-.4c-.3,0-.494-.1-.69-.1h-.1a.592.592,0,0,0-.4.1.893.893,0,0,0-.493.1,1.387,1.387,0,0,1-.4.3c-.1.2-.194.295-.295.494v.2a.36.36,0,0,0,.1.3c.1,0,.194.1.295.1a.282.282,0,0,0,.2-.1l.1-.1c.1-.2.3-.4.4-.4a.748.748,0,0,1,.5-.2h.1a1.389,1.389,0,0,1,.592.2.772.772,0,0,1,.3.692l-.1.1v.1a.428.428,0,0,1-.3.1,4.257,4.257,0,0,1-.491.1c-.2,0-.4.1-.594.1a1.61,1.61,0,0,0-.594.295,2.166,2.166,0,0,0-.493.4,1.431,1.431,0,0,0-.2.692v.2a1.406,1.406,0,0,0,.2.59,1,1,0,0,0,.4.5,2.166,2.166,0,0,0,.494.3c.2,0,.4.1.594.1h.1a2.112,2.112,0,0,0,1.184-.4c.1.1.2.2.3.2.1.1.2.1.4.2h.1c.1,0,.2-.1.3-.1a.5.5,0,0,0,0-.594m-5.632-2.865a1.419,1.419,0,0,0-.2-.594c-.1-.2-.2-.4-.3-.592-.2-.1-.4-.3-.594-.4-.2,0-.393-.1-.69-.1a1.239,1.239,0,0,0-.594.1c-.1.1-.3.1-.4.2V4.557c0-.2,0-.3-.1-.3a.358.358,0,0,0-.3-.1.362.362,0,0,0-.3.1.433.433,0,0,0-.1.3v6.621c0,.1.1.2.1.3.1,0,.2.1.3.1s.2-.1.3-.1a.365.365,0,0,0,.1-.3V8.017c0-.2.1-.3.1-.4.1-.1.1-.2.2-.3.1,0,.2-.1.3-.1a.749.749,0,0,1,.4-.1.365.365,0,0,1,.3.1c.2,0,.295.1.393.1,0,.1.1.2.2.3,0,.1.1.295.1.4v3.162a.365.365,0,0,0,.1.3c.1,0,.2.1.3.1a.344.344,0,0,0,.2-.1c.1-.1.2-.2.2-.3ZM115.647,9.5c-.1,0-.2-.1-.3-.1s-.2.1-.3.1c-.1.1-.1.2-.1.4a.848.848,0,0,1-.3.592.862.862,0,0,1-.594.3h-.1a.892.892,0,0,1-.69-.3,1.379,1.379,0,0,1-.2-.592V8.017a1.388,1.388,0,0,1,.2-.594.885.885,0,0,1,.69-.3h.1a.853.853,0,0,1,.594.3.853.853,0,0,1,.3.594c0,.2,0,.3.1.3a.368.368,0,0,0,.3.1.363.363,0,0,0,.3-.1c.1,0,.1-.1.1-.3a1.239,1.239,0,0,0-.1-.594,2,2,0,0,0-.4-.592c-.2-.1-.295-.3-.493-.4-.3,0-.493-.1-.692-.1h-.1c-.3,0-.5.1-.69.1a2.132,2.132,0,0,0-.5.4,1.236,1.236,0,0,0-.4.592,1.239,1.239,0,0,0-.1.594V9.895a1.23,1.23,0,0,0,.1.592,1.254,1.254,0,0,0,.4.594.843.843,0,0,0,.5.3,1.414,1.414,0,0,0,.69.2h.1a2.522,2.522,0,0,0,.692-.2c.2,0,.4-.2.493-.3a2.066,2.066,0,0,0,.4-.594,1.23,1.23,0,0,0,.1-.592c0-.2,0-.3-.1-.4m-5.04.494a1.831,1.831,0,0,0-.2-.791.989.989,0,0,0-.491-.4,4.909,4.909,0,0,0-.694-.295c-.2,0-.4-.1-.592-.1l-.592-.3c-.1,0-.2-.2-.2-.4s.1-.3.3-.4a1.136,1.136,0,0,1,.69-.2c.3,0,.4.1.594.1a.51.51,0,0,0,.4.2c0,.1.1.1.2.1s.2-.1.295-.1c0-.1.1-.2.1-.3s-.1-.2-.194-.295c0-.1-.1-.1-.2-.2a.433.433,0,0,0-.3-.1c-.1-.1-.2-.1-.4-.1a.736.736,0,0,0-.5-.1,1.235,1.235,0,0,0-.592.1.757.757,0,0,0-.494.2,2.192,2.192,0,0,0-.5.4,1.431,1.431,0,0,0-.2.692,1.156,1.156,0,0,0,.2.692c.2.2.3.393.5.494s.494.1.692.2a1.437,1.437,0,0,1,.69.2.675.675,0,0,1,.692.692v.1a.528.528,0,0,1-.3.393.772.772,0,0,1-.692.3h-.1a1.42,1.42,0,0,1-.592-.2c-.2-.2-.4-.3-.5-.491,0-.1-.1-.1-.2-.1,0-.1-.1-.1-.2-.1a.361.361,0,0,0-.295.1c0,.1-.1.2-.1.295a.312.312,0,0,0,.1.2c.1.2.2.3.295.494a2.064,2.064,0,0,0,.5.3.747.747,0,0,0,.494.2.9.9,0,0,0,.494.1h.1c.2,0,.4-.1.594-.1a1.606,1.606,0,0,0,.594-.3c.2-.1.295-.3.493-.5.1-.1.1-.4.1-.59Zm-5.237.889c0-.1-.1-.1-.3-.1a.756.756,0,0,1-.4-.2.741.741,0,0,1-.2-.393V4.557c0-.2,0-.3-.1-.3a.362.362,0,0,0-.3-.1c-.1,0-.2,0-.2.1-.1,0-.2.1-.2.3v5.634a4.273,4.273,0,0,0,.1.491c.1.2.194.3.295.5.2.1.3.2.493.3.2,0,.3.1.5.1a.433.433,0,0,0,.3-.1.5.5,0,0,0,0-.594m-3.263,0a.363.363,0,0,0-.3-.1.517.517,0,0,1-.4-.2.392.392,0,0,1-.2-.393V4.557a.433.433,0,0,0-.1-.3.36.36,0,0,0-.3-.1.356.356,0,0,0-.295.1c-.1,0-.1.1-.1.3v5.634a.739.739,0,0,0,.1.491c0,.2.1.3.295.5.1.1.3.2.4.3.2,0,.4.1.594.1.1,0,.2-.1.3-.1,0-.1.1-.2.1-.3s-.1-.2-.1-.3m-4.35-2.273H95.882V8.017a.845.845,0,0,1,.295-.594.853.853,0,0,1,.594-.3h.1a.892.892,0,0,1,.692.3,1.4,1.4,0,0,1,.2.594Zm.793-.592a1.235,1.235,0,0,0-.1-.594,1.236,1.236,0,0,0-.4-.592.979.979,0,0,0-.494-.4c-.2,0-.4-.1-.692-.1h-.1c-.2,0-.4.1-.692.1-.2.1-.295.3-.493.4a2,2,0,0,0-.4.592,1.26,1.26,0,0,0-.1.594V9.895a1.255,1.255,0,0,0,.1.592,1.254,1.254,0,0,0,.4.594c.2.1.3.3.493.3a2.522,2.522,0,0,0,.692.2h.1a1.65,1.65,0,0,0,.987-.3,1.321,1.321,0,0,0,.594-.692v-.2a.356.356,0,0,0-.1-.293.36.36,0,0,0-.3-.1h-.2a.286.286,0,0,0-.1.2.775.775,0,0,1-.393.393.759.759,0,0,1-.5.2h-.1a.862.862,0,0,1-.594-.3.845.845,0,0,1-.295-.592V9.3h2.271c.2,0,.3,0,.3-.1a.362.362,0,0,0,.1-.3ZM93.508,9.993a1.863,1.863,0,0,0-.2-.791,2.149,2.149,0,0,0-.592-.4l-.594-.295c-.3,0-.5-.1-.692-.1a2.117,2.117,0,0,1-.494-.3c-.2,0-.2-.2-.2-.4a.513.513,0,0,1,.2-.4,1.406,1.406,0,0,1,.69-.2h.1a4.312,4.312,0,0,1,.493.1c.2.1.3.2.4.2a.3.3,0,0,0,.194.1c.1,0,.2-.1.3-.1a.365.365,0,0,0,.1-.3.361.361,0,0,0-.1-.295c-.065-.067-.13-.134-.2-.2-.1,0-.194-.1-.293-.1a.6.6,0,0,0-.4-.1,1.056,1.056,0,0,0-.493-.1h-.1a1.043,1.043,0,0,0-.491.1,1.4,1.4,0,0,0-.594.2c-.2.1-.3.3-.5.4a1.472,1.472,0,0,0-.1.692c0,.3,0,.594.2.692a1.213,1.213,0,0,0,.5.494,6.467,6.467,0,0,0,.69.2,1.409,1.409,0,0,1,.594.2.748.748,0,0,1,.5.2c.2.1.2.3.2.494v.1a.756.756,0,0,1-.2.4,1.134,1.134,0,0,1-.793.3,1.41,1.41,0,0,1-.592-.2c-.2-.2-.4-.3-.594-.494a.1.1,0,0,0-.1-.1.3.3,0,0,0-.2-.1.363.363,0,0,0-.3.1.358.358,0,0,0-.1.295v.2c.1.2.2.3.3.494.2.1.3.2.5.3s.3.2.493.2a1.077,1.077,0,0,0,.494.1h.1c.2,0,.5-.1.694-.1l.592-.3a1,1,0,0,0,.4-.5,1.061,1.061,0,0,0,.2-.592ZM87.381,8.608H85.5V8.017a.858.858,0,0,1,.3-.594.707.707,0,0,1,.594-.3h.1a.593.593,0,0,1,.592.3.849.849,0,0,1,.3.594Zm.79-.592a1.26,1.26,0,0,0-.1-.594,1.236,1.236,0,0,0-.4-.592.979.979,0,0,0-.494-.4c-.2,0-.5-.1-.692-.1h-.1c-.2,0-.494.1-.692.1a2.181,2.181,0,0,0-.5.4,1.99,1.99,0,0,0-.393.592,1.26,1.26,0,0,0-.1.594V9.895a1.255,1.255,0,0,0,.1.592,1.25,1.25,0,0,0,.393.594c.1.1.3.3.5.3a1.854,1.854,0,0,0,.692.2h.1a1.667,1.667,0,0,0,.989-.3,4.23,4.23,0,0,0,.592-.692v-.2a.35.35,0,0,0-.4-.393h-.2l-.2.2c0,.194-.1.295-.3.393a.758.758,0,0,1-.493.2h-.1a.713.713,0,0,1-.594-.3.857.857,0,0,1-.3-.592V9.3h2.275a.361.361,0,0,0,.295-.1.368.368,0,0,0,.1-.3Zm-5.335-.1a.351.351,0,0,0-.4-.4H80.959c-.2,0-.3,0-.3.1a.362.362,0,0,0-.1.3.358.358,0,0,0,.1.3c0,.1.1.1.3.1h1.085V9.6a.6.6,0,0,1-.1.4,1.366,1.366,0,0,1-.3.393,1.319,1.319,0,0,1-.393.3c-.1,0-.3.1-.4.1h-.1a4.284,4.284,0,0,1-.5-.1,1.319,1.319,0,0,1-.393-.3,1.327,1.327,0,0,1-.3-.393c0-.1-.1-.3-.1-.4V6.138c0-.2.1-.3.1-.5a1.357,1.357,0,0,0,.3-.393.505.505,0,0,1,.393-.2.75.75,0,0,1,.5-.1h.1a1.115,1.115,0,0,1,.791.3,1.582,1.582,0,0,1,.4.69c0,.2.1.2.1.3a.368.368,0,0,0,.3.1c.1,0,.2-.1.3-.1a.36.36,0,0,0,.1-.3v-.1a1.847,1.847,0,0,0-.2-.692,1.187,1.187,0,0,0-.5-.494,2.029,2.029,0,0,0-.592-.4,1.653,1.653,0,0,0-.692-.1h-.1a1.893,1.893,0,0,0-.791.1,1.783,1.783,0,0,0-.692.494c-.2.1-.3.4-.4.594a2.277,2.277,0,0,0-.2.791V9.6a2.937,2.937,0,0,0,.2.788,2.008,2.008,0,0,0,.4.594,1.607,1.607,0,0,0,.692.4,1.863,1.863,0,0,0,.791.2h.1a3.042,3.042,0,0,0,.791-.2,2.125,2.125,0,0,0,.594-.4,2.053,2.053,0,0,0,.4-.594,3.025,3.025,0,0,0,.2-.788Zm-10.181.692h-1.88V8.017a.858.858,0,0,1,.3-.594.857.857,0,0,1,.594-.3h.1a.891.891,0,0,1,.69.3,1.409,1.409,0,0,1,.2.594Zm.791-.592a1.26,1.26,0,0,0-.1-.594,1.252,1.252,0,0,0-.4-.592.984.984,0,0,0-.5-.4c-.2,0-.393-.1-.69-.1h-.1c-.2,0-.4.1-.692.1a2.115,2.115,0,0,0-.494.4,2.091,2.091,0,0,0-.4.592,1.26,1.26,0,0,0-.1.594V9.895a1.26,1.26,0,0,0,.1.592,1.287,1.287,0,0,0,.4.594c.1.1.295.3.494.3a2.543,2.543,0,0,0,.692.2h.1a1.664,1.664,0,0,0,.987-.3c.2-.2.5-.4.594-.692v-.2a.356.356,0,0,0-.1-.293.362.362,0,0,0-.3-.1h-.2a.286.286,0,0,0-.1.2.784.784,0,0,1-.4.393.752.752,0,0,1-.491.2h-.1a.713.713,0,0,1-.594-.3.861.861,0,0,1-.3-.592V9.3h2.275a.348.348,0,0,0,.4-.4Zm-5.239,0a1.26,1.26,0,0,0-.1-.594,2.091,2.091,0,0,0-.4-.592,2.214,2.214,0,0,0-.494-.4c-.2,0-.4-.1-.692-.1h-.1a.876.876,0,0,0-.493.1c-.2.1-.295.1-.4.2V4.557c0-.2,0-.3-.1-.3a.489.489,0,0,0-.594,0c-.1,0-.1.1-.1.3v6.621a.365.365,0,0,0,.1.3c.1,0,.2.1.3.1s.2-.1.3-.1a.365.365,0,0,0,.1-.3V8.017c0-.2,0-.3.1-.4,0-.1.1-.2.194-.295.1,0,.2-.1.3-.1a.6.6,0,0,1,.4-.1.368.368,0,0,1,.3.1c.1,0,.2.1.3.1.1.1.2.2.2.295a.6.6,0,0,1,.1.4v3.162c0,.1.1.2.2.3a.353.353,0,0,0,.2.1c.1,0,.2-.1.3-.1a.365.365,0,0,0,.1-.3ZM62.77,9.5a.34.34,0,0,0-.194-.1c-.1,0-.2.1-.3.1-.1.1-.1.2-.1.4-.1.2-.1.393-.3.592a.866.866,0,0,1-.594.3h-.1a.9.9,0,0,1-.69-.3.848.848,0,0,1-.3-.592V8.017a.849.849,0,0,1,.3-.594.852.852,0,0,1,.592-.3h.2a.857.857,0,0,1,.594.3c.2.2.2.4.3.594,0,.2,0,.3.1.3a.363.363,0,0,0,.3.1c.1,0,.194,0,.194-.1.1,0,.2-.1.2-.3a1.378,1.378,0,0,0-.2-.594c-.1-.2-.194-.4-.295-.592-.2-.1-.4-.3-.592-.4-.2,0-.4-.1-.594-.1h-.2c-.2,0-.393.1-.592.1-.2.1-.4.3-.594.4a3.217,3.217,0,0,0-.3.592,1.4,1.4,0,0,0-.2.594V9.895a1.416,1.416,0,0,0,.2.592c0,.3.2.4.3.594.2.1.4.3.594.3a1.416,1.416,0,0,0,.592.2h.2a1.425,1.425,0,0,0,.594-.2c.2,0,.4-.2.592-.3.1-.2.2-.4.295-.594a1.379,1.379,0,0,0,.2-.592.506.506,0,0,0-.2-.4m-4.94.494a1.863,1.863,0,0,0-.2-.791,1.761,1.761,0,0,0-.5-.4c-.2-.1-.494-.2-.692-.295-.295,0-.494-.1-.69-.1a2.139,2.139,0,0,1-.5-.3c-.1,0-.2-.2-.2-.4a.513.513,0,0,1,.2-.4,1.414,1.414,0,0,1,.692-.2h.1a4.255,4.255,0,0,1,.491.1c.2.1.3.2.4.2a.368.368,0,0,0,.3.1.344.344,0,0,0,.2-.1.365.365,0,0,0,.1-.3.361.361,0,0,0-.1-.295c-.067-.067-.132-.134-.2-.2-.1,0-.2-.1-.3-.1a.594.594,0,0,0-.4-.1.869.869,0,0,0-.491-.1h-.1a1.056,1.056,0,0,0-.494.1,1.4,1.4,0,0,0-.594.2c-.2.1-.295.3-.4.4a.837.837,0,0,0-.2.692,1.156,1.156,0,0,0,.2.692,1.208,1.208,0,0,0,.494.494,6.376,6.376,0,0,0,.692.2,1.409,1.409,0,0,1,.594.2,1.379,1.379,0,0,1,.592.2.747.747,0,0,1,.2.494v.1a.528.528,0,0,1-.3.4.978.978,0,0,1-.791.3,1.429,1.429,0,0,1-.594-.2c-.2-.2-.4-.3-.494-.494a.278.278,0,0,0-.2-.1.273.273,0,0,0-.2-.1.35.35,0,0,0-.4.393v.2a1.783,1.783,0,0,0,.4.494c.1.1.295.2.4.3a1.626,1.626,0,0,0,.494.2,1.269,1.269,0,0,0,.594.1c.3,0,.494-.1.692-.1l.592-.3a.99.99,0,0,0,.4-.5,1.061,1.061,0,0,0,.2-.592Zm-5.239.889a.4.4,0,0,0-.3-.1.705.705,0,0,1-.594-.592V7.224h.594c.1,0,.2-.1.3-.2a.356.356,0,0,0,.1-.295.277.277,0,0,0-.1-.2c-.1-.1-.2-.2-.3-.2H51.7V4.557c0-.2,0-.3-.1-.3a.354.354,0,0,0-.295-.1.362.362,0,0,0-.3.1c-.1,0-.1.1-.1.3V6.335h-.4c-.1,0-.2.1-.3.2a.277.277,0,0,0-.1.2.356.356,0,0,0,.1.295c.1.1.2.2.3.2h.4v2.968a.739.739,0,0,0,.1.491c.1.2.2.3.3.5.1.1.295.2.393.3.2,0,.4.1.594.1.1,0,.2-.1.3-.1a.489.489,0,0,0,0-.594M48.539,6.732c0-.1-.1-.2-.2-.3a.285.285,0,0,0-.2-.1.36.36,0,0,0-.3.1c-.1.1-.2.2-.2.3V9.895a.726.726,0,0,1-.2.592.908.908,0,0,1-.694.3h-.1a.862.862,0,0,1-.594-.3.848.848,0,0,1-.3-.592V6.732a.351.351,0,0,0-.4-.4.354.354,0,0,0-.295.1c0,.1-.1.2-.1.3V9.895c0,.3.1.491.1.69.1.3.295.4.393.594.2.1.4.2.594.3.2,0,.4.1.594.1h.1a1.26,1.26,0,0,0,.594-.1c.1-.1.2-.1.3-.2.1.1.1.2.2.2a.365.365,0,0,0,.3.1c.1,0,.1-.1.2-.1.1-.1.2-.2.2-.3ZM42.512,8.608h-1.88V8.017a1.409,1.409,0,0,1,.2-.594.9.9,0,0,1,.692-.3h.1a.852.852,0,0,1,.592.3.858.858,0,0,1,.3.594Zm.791-.592a1.26,1.26,0,0,0-.1-.594,1.252,1.252,0,0,0-.4-.592,1.254,1.254,0,0,0-.594-.4c-.2,0-.4-.1-.592-.1h-.1c-.3,0-.494.1-.692.1a2.115,2.115,0,0,0-.494.4,2.091,2.091,0,0,0-.4.592,1.26,1.26,0,0,0-.1.594V9.895a1.255,1.255,0,0,0,.1.592,1.287,1.287,0,0,0,.4.594c.1.1.295.3.494.3a1.438,1.438,0,0,0,.692.2h.1a1.373,1.373,0,0,0,.889-.3,1.331,1.331,0,0,0,.594-.692.282.282,0,0,0,.1-.2c0-.1-.1-.194-.1-.293a.362.362,0,0,0-.3-.1h-.2c-.1.1-.2.1-.2.2a1.349,1.349,0,0,1-.3.393.752.752,0,0,1-.491.2h-.1a.9.9,0,0,1-.692-.3,1.41,1.41,0,0,1-.2-.592V9.3h2.276a.348.348,0,0,0,.4-.4ZM37.175,9.5c0,.2-.1.3-.1.494a1.423,1.423,0,0,0-.3.393.51.51,0,0,1-.4.2.75.75,0,0,1-.5.1H34.6V5.051h1.78a1.372,1.372,0,0,1,.4.3,1.358,1.358,0,0,1,.3.393,4.37,4.37,0,0,1,.1.5Zm.791-3.263a1.863,1.863,0,0,0-.2-.791,1.581,1.581,0,0,0-.4-.692,4.2,4.2,0,0,0-.69-.4,1.882,1.882,0,0,0-.793-.2H34.209c-.1,0-.2.1-.295.2-.1,0-.1.1-.1.2V11.08a.362.362,0,0,0,.1.3.357.357,0,0,0,.295.1h1.679a1.949,1.949,0,0,0,.793-.1,1.764,1.764,0,0,0,.69-.5c.2-.1.3-.4.4-.594a2.316,2.316,0,0,0,.2-.788Z" transform="translate(41.695 5.13)"/><path class="c" d="M15.616,32.832a2.115,2.115,0,0,1-.494.4l-.1.1-.1.1-.1.1h-.1a.1.1,0,0,1-.1.1c-.1,0-.1.1-.2.1l-.1.1h-.1a.269.269,0,0,1-.2.1l-.1.1h-.2a.1.1,0,0,1-.1.1.277.277,0,0,0-.2.1h-.1c-.1,0-.1.1-.2.1h-.2a.286.286,0,0,1-.2.1h-.3a8.528,8.528,0,0,1-1.679.2h-.494a10.757,10.757,0,0,1-7.316-2.865A9.9,9.9,0,0,1,0,24.826V13.855A9.888,9.888,0,0,1,2.963,6.937a11.242,11.242,0,0,1,7.316-2.865h.592c.5.1,1.09.1,1.483.2h.5a.1.1,0,0,0,.1.1h.2l.1.1h.2l.1.1h.2l.1.1h.194a.1.1,0,0,0,.1.1c.1,0,.1.1.2.1l.1.1h.2v.1h.1v.1h.1l.1.1h.1v.1h.1l.1.1.1.1.1.1.1.1h.494l.1-.1.1-.1a.1.1,0,0,1,.1-.1v-.2c0-.393,0-.887.4-.987.2-.1.494,0,.791,0h3.658c.4,0,.987-.1,1.085.3a7.373,7.373,0,0,1,.1,1.483V29.274c0,2.075,0,4.151-.2,6.226-.69,5.732-3.557,10.576-9.587,11.663A12.793,12.793,0,0,1,2.374,44.2c-.3-.3-1.09-.793-.991-1.284,0-.2.1-.3.2-.5,0,0,2.374-2.47,2.472-2.666.2-.2.393-.5.69-.5.4,0,.793.4,1.483.791A9.853,9.853,0,0,0,9.884,41.53a5.322,5.322,0,0,0,2.47-.3c3.066-.989,3.955-4.841,4.154-7.905v-.2h-.1v-.2h-.1a.087.087,0,0,0-.1-.1h-.1l-.1-.1h-.2v.1h-.2m.692-7.907V13.956a3.976,3.976,0,0,0-1.581-3.164,4.624,4.624,0,0,0-3.361-1.284h-.594A4.847,4.847,0,0,0,7.316,10.99a4.163,4.163,0,0,0-1.583,3.263V24.431a4.161,4.161,0,0,0,1.583,3.26,4.468,4.468,0,0,0,3.457,1.483h.594a4.978,4.978,0,0,0,3.361-1.186,4.086,4.086,0,0,0,1.581-3.064" transform="translate(0 5.021)"/><path class="c" d="M40.76,33.711V29.658a.757.757,0,0,0-.2-.494.435.435,0,0,0-.5-.1H29.1c-.295-.1-.494-.1-.592-.2a.51.51,0,0,1-.2-.4,1.6,1.6,0,0,1,.2-.494L40.564,5.247a.365.365,0,0,1,.1-.3v-.2c0-.4-.2-.491-.692-.491H20.1c-.4-.1-.594.2-.594.592V8.9c0,.393.2.69.594.69H30.481a1.239,1.239,0,0,1,.594.1c.1.1.1.2.1.4v.2c0,.1-.1.2-.1.3L18.919,33.314a.368.368,0,0,0-.1.3.3.3,0,0,0-.1.2c0,.4.3.5.788.594H40.068a.581.581,0,0,0,.5-.2.757.757,0,0,0,.2-.494" transform="translate(23.086 5.229)"/><path class="c" d="M13.333,5.535c0,.3,0,.4.2.5.1.2.3.2.592.295h4.151c.3-.1.5-.1.6-.295a.594.594,0,0,0,.194-.5V.792A1.079,1.079,0,0,0,18.869.2a.839.839,0,0,0-.6-.2h-.4a1.294,1.294,0,0,0-.69.3L13.729,4.251l-.2.2a.862.862,0,0,0-.3.594v.4Z" transform="translate(16.317 -0.001)"/><path class="c" d="M19.065,4.9a.753.753,0,0,0-.2-.5.837.837,0,0,0-.592-.2h-4.35a.746.746,0,0,0-.491.2c-.1.2-.2.3-.2.5v28.76a.829.829,0,0,0,.2.594.746.746,0,0,0,.491.2h4.35c.295-.1.494-.1.592-.295a.748.748,0,0,0,.2-.5Z" transform="translate(16.318 5.185)"/></g></g></svg>