<svg id="Layer_1" data-name="Layer 1" xmlns="http://www.w3.org/2000/svg" viewBox="0 0 910.843 401.095"><path d="M935.4,611.693c12.061,8.925,18.814,22.675,20.5,41.494H929.851c-2.413-11.1-6.755-19.3-13.51-24.125-6.755-5.067-16.4-7.479-29.43-7.479q-17.01,0-26.055,5.066c-7.477,3.861-11.1,10.132-11.1,18.816,0,7.722,4.1,13.751,12.786,18.338,3.861,2.168,13.75,5.786,29.913,10.611,23.159,7.239,38.36,12.788,45.113,16.888,14.717,8.924,22.194,21.229,22.194,37.152,0,15.439-6.031,27.5-18.093,36.428q-18.093,13.026-50.662,13.026c-20.986,0-37.39-4.342-49.213-12.543-14.232-10.132-21.952-26.055-23.4-47.768h26.055c1.93,13.51,6.753,23.4,14.475,29.19,7,5.306,17.611,7.962,32.083,7.962,13.027,0,23.4-2.413,31.121-6.755S933.71,737.621,933.71,729.9c0-9.649-5.548-17.128-16.4-22.678-3.863-1.932-15.2-5.79-34.258-11.58-21.229-6.753-34.256-11.338-39.565-14.234-13.267-7.958-19.781-19.541-19.781-34.5,0-15.2,6.274-27.02,19.06-35.7q18.092-12.3,45.593-12.305c20.024,0,35.7,4.1,47.044,12.788" transform="translate(-818.397 -598.905)" style="fill:#6e6f72"/><polygon points="910.843 3.376 910.843 25.814 853.427 25.814 853.427 175.627 827.372 175.627 827.372 25.814 769.717 25.814 769.717 3.376 910.843 3.376" style="fill:#6e6f72"/><path d="M1545.039,749.2l-2.894-23.374c-1.929-16.885-10.375-27.015-25.814-30.395v-.483a38.543,38.543,0,0,0,22.437-15.2c4.823-6.993,7.236-19.087,7.236-28.252,0-16.406-5.307-28.708-15.92-37.4-10.133-7.96-24.126-11.821-41.494-11.821h-76.234v22.533h26.3v-.1h46.317c12.064,0,20.749,2.172,26.539,6.757,5.307,4.34,8.2,11.338,8.2,20.987,0,9.167-2.893,20.294-8.443,25.12-5.79,4.823-14.475,7.474-26.053,7.474h-46.56v-.4h-26.3v89.876h26.3V707.494h46.56c9.89,0,17.369,1.929,22.675,6.274,5.067,4.342,8.2,11.1,9.168,20.746l2.172,17.338c.965,9.654,3.378,17.371,7.479,22.68h28.466q-8.685-9.411-10.133-25.331" transform="translate(-818.397 -598.905)" style="fill:#6e6f72"/><rect x="337.398" y="84.282" width="26.296" height="91.441" style="fill:#6e6f72"/><polygon points="332.542 3.376 272.714 141.371 271.99 141.371 211.92 3.376 180.799 3.376 180.799 175.627 207.095 175.627 207.095 52.592 208.062 52.592 260.893 175.627 283.569 175.627 358.856 3.376 332.542 3.376" style="fill:#6e6f72"/><polygon points="495.576 3.379 469.441 3.379 533.692 175.624 561.915 175.624 495.576 3.379" style="fill:#6e6f72"/><polygon points="472.369 86.15 460.053 86.15 460.062 86.141 433.789 86.141 399.334 175.614 427.319 175.614 451.866 108.542 481.202 108.542 472.369 86.15" style="fill:#6e6f72"/><path d="M847.248,996.174,868.812,879.32c3.824-20.171,6.608-37.908,8.347-52.516h35.124l-3.478,29.563h.351c16-22.606,36.861-33.387,58.773-33.387,26.431,0,38.605,16.693,39.993,34.778,14.954-23.3,36.52-34.429,59.821-34.778,23.3,0,41.384,14.953,41.384,45.211,0,7.3-1.391,19.825-2.782,28.866l-18.78,99.117h-39.3l17.737-94.6c1.043-6.954,2.434-14.607,2.434-21.561,0-14.26-5.912-24-20.867-24-18.432,0-38.951,23.3-45.559,59.122l-15.3,81.033H947.756l18.086-95.987a101.3,101.3,0,0,0,2.087-19.824c0-12.866-3.827-24.344-20.173-24.344-18.778,0-40.342,25.388-46.6,59.818l-14.607,80.337Z" transform="translate(-818.397 -598.905)" style="fill:#fbb042"/><path d="M1321.614,893.232c0,57.383-40.342,106.768-98.075,106.768-42.775,0-69.208-29.561-69.208-69.9,0-57.385,40-107.119,97.729-107.119,45.557,0,69.554,32.693,69.554,70.253m-125.548,35.821c0,23.3,12.52,39.647,33.039,39.647,30.257,0,50.428-41.735,50.428-75.468,0-17.389-7.651-38.951-32.342-38.951-32.345,0-51.125,43.124-51.125,74.772" transform="translate(-818.397 -598.905)" style="fill:#fbb042"/><path d="M1405.078,826.805l10.781,84.162c2.085,20.173,4.173,33.039,4.869,44.168h1.043c4.172-10.781,9.042-22.953,18.432-43.123l42.083-85.207h44.862L1432.9,996.175H1392.21l-28.866-169.37Z" transform="translate(-818.397 -598.905)" style="fill:#fbb042"/><path d="M1669.74,986.435c-16.695,8.7-39.3,13.217-59.821,13.217-46.95,0-69.554-28.519-69.554-69.9,0-51.124,37.558-106.77,95.985-106.77,33.39,0,54.6,19.477,54.6,47.647,0,43.473-45.557,57.384-110.941,55.991-.694,5.914.7,17.389,4.521,24,6.608,11.477,18.78,17.389,34.778,17.389a100.139,100.139,0,0,0,46.6-11.127Zm-38.605-133.2c-25.388,0-42.081,22.607-46.95,43.126,41.732.7,68.512-5.217,68.512-25.388,0-11.129-8.7-17.738-21.562-17.738" transform="translate(-818.397 -598.905)" style="fill:#fbb042"/></svg>