<svg id="Layer_1" data-name="Layer 1" xmlns="http://www.w3.org/2000/svg" viewBox="0 0 3783 2780"><defs><style>.cls-1{font-size:45.36177px;font-family:Montserrat-Medium, Montserrat;font-weight:500;}.cls-2{font-size:76.03165px;}.cls-2,.cls-4{fill:#da4351;}.cls-14,.cls-2{font-family:Montserrat-ExtraBold, Montserrat;font-weight:800;}.cls-3{fill:#a7323c;}.cls-5{fill:#414243;}.cls-14,.cls-6{fill:#6c6d6f;}.cls-7{fill:#49888a;}.cls-8{fill:#fd4996;}.cls-9{fill:#68bdc1;}.cls-10{fill:#b58141;}.cls-11{fill:#f1ad59;}.cls-12{fill:#fff;}.cls-13{fill:none;stroke:#b8b8b8;stroke-miterlimit:10;stroke-width:7px;stroke-dasharray:27;}.cls-14{font-size:233.48756px;}</style></defs><title>GET SET  go03</title><text class="cls-1" transform="translate(101.96582 849.11523)">Form multi-disciplinary teams of students<tspan x="0" y="54.43457">and research scholars with a maximum </tspan><tspan x="0" y="108.86816">of four members from one or multiple </tspan><tspan x="0" y="163.30273">institutions. Ensure that at least one team </tspan><tspan x="0" y="217.73633">member is of Indian nationality and has</tspan><tspan x="0" y="272.1709">a clear understanding of the local context</tspan><tspan x="0" y="326.60449">of Indian mobility sector.</tspan></text><text class="cls-1" transform="translate(282.96582 2164.11536)">Shortlisted teams will have the opportunity <tspan x="0" y="54.43457">to pitch their solution to interested partner </tspan><tspan x="0" y="108.86816">cities.Once you have convinced them to </tspan><tspan x="0" y="163.30273">buy-in to your out-of-the-box idea, urban</tspan><tspan x="0" y="217.73633">mobility experts and offcials from the city</tspan><tspan x="0" y="272.1709">administration will provide the essential </tspan><tspan x="0" y="326.60449">mentoring and support to your team to </tspan><tspan x="0" y="381.03906">help you ace the SMART MOVE Challenge.</tspan></text><text class="cls-1" transform="translate(2731.9668 2164.11536)">Refne your solution based on the inputs<tspan x="0" y="54.43457">from your mentors and city partners and</tspan><tspan x="0" y="108.86816">develop a holistic and viable solution that</tspan><tspan x="0" y="163.30273">can be implemented on-ground to create</tspan><tspan x="0" y="217.73633">value for the city and for its citizens.</tspan></text><text class="cls-1" transform="translate(2766.0813 879.63379)">Propose a solution meeting at least one<tspan x="0" y="54.43457">of the challenge themes and submit a </tspan><tspan x="0" y="108.86816">concept note detailing out the team </tspan><tspan x="0" y="163.30273">composition, proposed idea, data sets</tspan><tspan x="0" y="217.73633">required and work plan.</tspan></text><text class="cls-2" transform="translate(533.44141 762.1543)">FORM TEAMS</text><text class="cls-2" transform="translate(2765.4397 773.89648)">CONCEPT NOTE</text><text class="cls-2" transform="translate(671.43945 2077.32031)">COLLABORATE</text><text class="cls-2" transform="translate(2732.44043 2077.32031)">FINAL SOLUTION</text><path class="cls-3" d="M1912.73981,1047.86332a67.28693,67.28693,0,0,1-64.43148,67.11862c-.418.02985-.836.02985-1.254.02985V1237.4555H1710.18968c.02986-.50787.02986-.98528.02986-1.49285a67.17833,67.17833,0,1,0-134.35666,0c0,.50757,0,.985.02985,1.49285H1437.77409c0-226.31633,183.1132-409.84754,409.28024-410.53425v153.7936c.418,0,.836,0,1.254.02955A67.16729,67.16729,0,0,1,1912.73981,1047.86332Z"/><path class="cls-4" d="M1912.73981,1034.22134a67.28691,67.28691,0,0,1-64.43148,67.11862c-.418.02986-.836.02986-1.254.02986v122.4437H1710.18968c.02986-.50787.02986-.98528.02986-1.49285a67.17833,67.17833,0,1,0-134.35666,0c0,.50757,0,.985.02985,1.49285H1437.77409c0-226.31633,183.1132-409.84754,409.28024-410.53425v153.7936c.418,0,.836,0,1.254.02956A67.16727,67.16727,0,0,1,1912.73981,1034.22134Z"/><path class="cls-5" d="M2325.17445,1309.72326a409.73746,409.73746,0,0,1-17.884,120.20473c-42.90456,140.38748-159.07829,248.79838-303.94463,280.71556a411.77551,411.77551,0,0,1-87.45126,9.614V1581.36258c-.418.02986-.836.02986-1.25432.02986-.50725.02985-.985.02985-1.49285.02985a67.17833,67.17833,0,0,1,0-134.35666c.50789,0,.9856,0,1.49285.03015.41832,0,.83632,0,1.25432.02956V1309.72326h136.11823a67.16477,67.16477,0,0,0,134.29695,0Z"/><path class="cls-6" d="M2325.17445,1294.84162a409.73746,409.73746,0,0,1-17.884,120.20473c-42.90456,140.38748-159.07829,248.79838-303.94463,280.71555a411.77486,411.77486,0,0,1-87.45126,9.614V1566.48094c-.418.02985-.836.02985-1.25432.02985-.50725.02986-.985.02986-1.49285.02986a67.17833,67.17833,0,0,1,0-134.35666c.50789,0,.9856,0,1.49285.03015.41832,0,.83632,0,1.25432.02956V1294.84162h136.11823a67.16477,67.16477,0,0,0,134.29695,0Z"/><path class="cls-7" d="M2332.44076,1259.836H2193.576a67.16476,67.16476,0,0,1-134.29694,0H1923.16081V1137.36217a67.17466,67.17466,0,0,0,0-134.23723V849.30179a410.47143,410.47143,0,0,1,133.04295,22.48205c131.25153,45.41255,232.28774,155.49544,264.98119,292.18125A410.6502,410.6502,0,0,1,2332.44076,1259.836Z"/><path class="cls-8" d="M2332.44076,1239.22692H2193.576a67.16476,67.16476,0,0,1-134.29694,0H1923.16081V1116.75306a67.17467,67.17467,0,0,0,0-134.23724V828.69267a410.4717,410.4717,0,0,1,133.04295,22.482c131.25153,45.41255,232.28774,155.49544,264.98119,292.18125A410.65026,410.65026,0,0,1,2332.44076,1239.22692Z"/><path class="cls-9" d="M2332.44076,1239.22692H2193.576a67.16476,67.16476,0,0,1-134.29694,0H1923.16081V1116.75306a67.17467,67.17467,0,0,0,0-134.23724V828.69267a410.4717,410.4717,0,0,1,133.04295,22.482c131.25153,45.41255,232.28774,155.49544,264.98119,292.18125A410.65026,410.65026,0,0,1,2332.44076,1239.22692Z"/><path class="cls-10" d="M1795.6238,1468.81827a67.18552,67.18552,0,0,0,53.77222,107.45547c.50757,0,.98528,0,1.49285-.02985V1715.109a410.549,410.549,0,0,1-409.28024-410.53425h138.11864c-.02985-.50756-.02985-.98528-.02985-1.49285a67.17833,67.17833,0,0,1,134.35666,0c0,.50757,0,.98529-.02986,1.49285h136.86465v137.37223c-.50757-.02986-.98528-.02986-1.49285-.02986A67.09173,67.09173,0,0,0,1795.6238,1468.81827Z"/><path class="cls-11" d="M1795.6238,1446.56851A67.18552,67.18552,0,0,0,1849.396,1554.024c.50757,0,.98528,0,1.49285-.02985V1692.8592A410.549,410.549,0,0,1,1441.60863,1282.325h138.11864c-.02985-.50757-.02985-.98528-.02985-1.49285a67.17833,67.17833,0,0,1,134.35666,0c0,.50757,0,.98528-.02986,1.49285h136.86465v137.37223c-.50757-.02986-.98528-.02986-1.49285-.02986A67.09173,67.09173,0,0,0,1795.6238,1446.56851Z"/><path class="cls-12" d="M1587.797,1039.49412c.26822-1.18163.51134-2.36962.80853-3.54392a27.03855,27.03855,0,0,1,26.31514-20.80749c6.08331-.07647,12.16839-.01294,18.25266-.01282h1.85412a26.81155,26.81155,0,0,0,8.0782,18.20572,32.99987,32.99987,0,0,0-18.51793,14.48146c-4.34526,7.08743-4.938,14.8964-4.44342,23.10195a130.00269,130.00269,0,0,1-32.3473-6.226Z"/><path class="cls-12" d="M1697.60616,1073.52909c0,3.72574-.065,7.45326.03625,11.17624a2.13166,2.13166,0,0,1-1.50087,2.31514,65.7865,65.7865,0,0,1-16.92309,4.844c-17.48514,2.77259-34.56249.69962-51.38419-4.36647-2.70093-.81343-2.70607-.80477-2.703-3.62594.00728-6.79109-.09747-13.58469.04989-20.37278a26.82552,26.82552,0,0,1,25.4827-26.27855c7.43282-.32813,14.90389-.27561,22.33875.04471,10.57236.45551,20.751,9.162,23.53507,19.527,1.1569,4.30707,1.06594,8.67711,1.06843,13.058Q1697.60711,1071.68981,1697.60616,1073.52909Z"/><path class="cls-12" d="M1702.55809,1071.48808c0-3.41931.14347-6.29271-.02456-9.14779a32.08258,32.08258,0,0,0-21.68224-28.5347c-.34579-.12059-.68405-.26273-1.22918-.4734a26.63933,26.63933,0,0,0,8.00587-18.11315c.40753-.04009.68174-.09072.95594-.09058,5.94357.00306,11.88932-.0888,17.83028.0396a27.00038,27.00038,0,0,1,26.22789,25.458c.33485,7.62768.11141,15.28051.08066,22.92176a1.59543,1.59543,0,0,1-.86252,1.1771c-4.07121,1.44971-8.08848,3.19137-12.2828,4.11984C1714.12544,1070.05162,1708.52649,1070.59459,1702.55809,1071.48808Z"/><path class="cls-12" d="M1640.123,1014.33665a21.248,21.248,0,1,1,21.17739,21.232A21.24756,21.24756,0,0,1,1640.123,1014.33665Z"/><path class="cls-12" d="M1602.79955,992.42273c-.01292-10.84041,8.35783-20.19678,18.92455-21.15282a21.30914,21.30914,0,0,1,23.19418,17.1061c.12156.64752.2045,1.30265.29318,1.9559a4.898,4.898,0,0,1-1.7566,4.91429,24.0178,24.0178,0,0,0-7.82855,13.89687,2.51094,2.51094,0,0,1-1.44494,1.885A21.22192,21.22192,0,0,1,1602.79955,992.42273Z"/><path class="cls-12" d="M1717.76405,992.40336c-.01257,15.06-15.48058,25.47224-29.19329,19.61945a2.12423,2.12423,0,0,1-1.12846-1.32505,26.26988,26.26988,0,0,0-11.44945-18.08979c-.82855-.56642-.70171-1.23014-.6424-1.96087a21.24339,21.24339,0,0,1,42.4136,1.75626Z"/><path class="cls-12" d="M2093.83914,1087.579a26.39575,26.39575,0,0,1-4.5584-2.29c-2.34121-1.78649-3.252-4.47092-3.45323-7.32489-.15037-2.13277-.02966-4.28473-.02966-6.51073h32.43731c-.14462,3.01814.047,6.08986-.51862,9.01451-.6911,3.57313-3.23391,5.7966-6.74557,6.82052-.31936.09311-.63658.19359-.95479.29063Z"/><path class="cls-12" d="M2118.32757,1063.21525H2085.4c-.16277-.63537-.29823-1.24467-.47515-1.84163a17.06878,17.06878,0,0,0-6.09912-8.76553,37.50361,37.50361,0,0,1-13.937-22.50563c-4.30229-20.4507,9.70271-41.08082,30.29394-44.57149,20.13179-3.41279,38.95627,8.76255,43.42906,28.64631,3.36314,14.95082-1.14643,27.65969-12.71489,37.72048-3.17762,2.76349-5.95079,5.71372-7.16457,9.85781C2118.59117,1062.23723,2118.46371,1062.72288,2118.32757,1063.21525Zm7.89839-42.56373c-.08843-.7957-.17281-1.59187-.26588-2.387-1.289-11.01273-11.47557-19.978-22.53171-19.83139a4.05248,4.05248,0,1,0-.08687,8.10153c8.44491.33785,14.44288,6.34336,14.79,14.736a5.136,5.136,0,0,0,.72233,2.36187,3.8656,3.8656,0,0,0,4.52735,1.61239C2125.22973,1024.64448,2126.22879,1023.0082,2126.226,1020.65152Z"/><path class="cls-12" d="M2185.57792,1085.6399c-1.88434-.76571-2.40187-2.21895-1.43371-4.02576.094-.1754.19219-.34871.28086-.52675a1.421,1.421,0,0,0-.12917-1.67312,1.44833,1.44833,0,0,0-1.62937-.42583q-3.44457.981-6.88814,1.96546-10.78585,3.06754-21.57232,6.13293c-2.07783.591-4.15347,1.18974-6.23146,1.78019a2.4323,2.4323,0,0,1-2.63978-.31867,2.1586,2.1586,0,0,1,.9557-3.70406c1.43778-.44858,2.89456-.83638,4.34364-1.24858q11.97488-3.40635,23.95015-6.81132,7.25909-2.06413,14.51942-4.12391a2.22937,2.22937,0,0,1,2.40218.69907,2.12566,2.12566,0,0,1,.368,2.45629c-.22089.49279-.445.98425-.67708,1.47188a1.46046,1.46046,0,0,0,.12055,1.67836,1.443,1.443,0,0,0,1.626.42883q4.37467-1.13866,8.74935-2.27731,6.72466-1.76013,13.44776-3.52624a5.449,5.449,0,0,1,.83767-.15766,2.1217,2.1217,0,0,1,.87745,4.14072c-1.91423.54269-3.84861,1.01439-5.77466,1.51535q-9.57524,2.49054-19.14979,4.98372c-1.72769.45162-3.44533.94174-5.16758,1.41419Z"/><path class="cls-12" d="M2152.78742,1076.11554,2135.2078,1065.403l34.22569-56.18616,20.76756,12.6819c.569-.8899,1.07192-1.778,1.6742-2.59266a3.04671,3.04671,0,0,1,5.40521,1.08518,3.39865,3.39865,0,0,1-.61467,2.74334q-4.6724,7.64762-9.32676,15.30627-2.4636,4.046-4.92187,8.09524a3.13286,3.13286,0,0,1-2.6696,1.72128,3.036,3.036,0,0,1-2.68265-4.69121c1.38845-2.3844,2.85858-4.72127,4.29407-7.07828,1.87915-3.08548,3.75926-6.17037,5.69171-9.34208l-3.22375-1.96527Z"/><path class="cls-12" d="M2171.145,1006.46243c1.70011-2.84407,3.103-5.7899,6.23374-7.32883a10.37981,10.37981,0,0,1,12.07356,2.143,10.13341,10.13341,0,0,1,1.63608,11.90245c-.71792,1.32089-1.53431,2.58829-2.3726,3.99218Z"/><path class="cls-12" d="M2150.4779,1078.83643c-2.89282,1.79358-5.61638,3.48169-8.33938,5.17068q-3.58269,2.22223-7.16355,4.44743a1.6817,1.6817,0,0,1-1.84011.19906,1.59788,1.59788,0,0,1-.7321-1.694q.6873-8.74527,1.39329-17.48906c.0158-.197.06383-.39132.12061-.72781Z"/><path class="cls-12" d="M1563.621,1437.75906c1.19661-1.92492,2.45-2.05669,4.06993-.42277q11.04993,11.14519,22.08753,22.30258a.98233.98233,0,0,0,1.423.22631,7.703,7.703,0,0,1,9.23337,1.2698,8.051,8.051,0,0,1,1.47522,9.41125c-.14355.27786-.27843.56019-.54289,1.09378,3.8172-2.15927,7.30869-2.114,10.26386.883,2.97087,3.01285,3.00836,6.54614.89018,10.37625,4.14351-2.24583,7.83586-2.02945,10.7739,1.52263,2.4386,2.94826,2.29355,6.248.36654,9.64326,3.90244-2.12774,7.54438-1.95917,10.52418,1.2969,2.7511,3.00618,2.65493,6.46588.59781,10.08211,2.42506,2.3826,4.79813,4.85958,7.33222,7.15906a5.57548,5.57548,0,0,0,7.62148-.49157,5.79045,5.79045,0,0,0,.10286-8.02068c-2.18233-2.32482-4.46-4.56022-6.69883-6.83185q-4.45689-4.52209-8.918-9.04c-.16745-.16975-.33792-.33734-.49458-.51677a2.17951,2.17951,0,0,1,.01795-3.06277,2.0641,2.0641,0,0,1,3.0283.1162c2.59065,2.59441,5.15875,5.21133,7.73729,7.81784,2.74626,2.776,5.457,5.58859,8.252,8.31473a5.70553,5.70553,0,0,0,9.148-1.52162,5.928,5.928,0,0,0-1.21815-6.91353c-3.1285-3.19456-6.28264-6.364-9.42422-9.54572-2.13622-2.16356-4.28408-4.31593-6.39689-6.50214a2.10239,2.10239,0,0,1-.02857-2.98393,2.07873,2.07873,0,0,1,2.96842-.04341c.27148.23173.52319.48769.77444.74195q6.34852,6.4245,12.69449,12.85151,1.194,1.20888,2.3906,2.41522a5.74808,5.74808,0,0,0,8.24576.28166,5.82133,5.82133,0,0,0,.0054-8.41035q-7.67154-7.82-15.38988-15.594a5.44622,5.44622,0,0,1-.80243-.95318,2.1486,2.1486,0,0,1,.46552-2.75177,2.08345,2.08345,0,0,1,2.84062.19428c1.57436,1.54462,3.11143,3.12729,4.66226,4.69585,3.77235,3.81547,7.52154,7.65416,11.32308,11.44031a5.66459,5.66459,0,0,0,8.78841-.80922,5.88494,5.88494,0,0,0-.8389-7.59762q-5.94453-6.00619-11.89617-12.00537-14.30216-14.4686-28.59612-28.94531c-2.8574-2.89347-7.95356-3.05044-11.48507-.33184a11.13187,11.13187,0,0,0-3.50139,4.55706q-2.337,5.51373-4.68594,11.0224a9.56345,9.56345,0,0,1-10.4211,5.93761,9.68075,9.68075,0,0,1-8.03259-9.03064,10.61236,10.61236,0,0,1,1.027-5.0275q5.45832-12.686,10.88872-25.3839c.4227-.98569.83051-1.97865,1.28441-2.94993a16.61726,16.61726,0,0,1,21.23214-8.45421c3.69374,1.40287,7.56534,2.339,11.36033,3.47322q9.9729,2.98058,19.94721,5.9564a2.60733,2.60733,0,0,1,1.05123.61977q15.73816,15.68952,31.45256,31.4029c.10454.10443.19895.219.35349.39025l-21.68141,21.47063c.859.70181,1.53093,1.18981,2.13034,1.75483.91051.85826,1.77813,1.76268,2.65084,2.66027a10.13871,10.13871,0,0,1,2.03985,11.40569,9.87237,9.87237,0,0,1-9.986,5.81357,1.673,1.673,0,0,0-.27675.04948,10.06477,10.06477,0,0,1-11.17353,11.21355,10.21283,10.21283,0,0,1-2.78879,8.38761,9.81122,9.81122,0,0,1-8.29965,2.93116c0,.2727-.011.496.00163.718a10.03073,10.03073,0,0,1-5.68216,9.65285,9.72158,9.72158,0,0,1-10.96762-1.675c-2.13122-1.99462-4.13117-4.12989-6.17783-6.21405a7.8936,7.8936,0,0,1-.67379-.931c-.41671.38645-.65674.59317-.879.81755-2.16048,2.18154-4.30658,4.37745-6.47953,6.5465a7.51473,7.51473,0,0,1-7.86863,2.09582,7.6865,7.6865,0,0,1-5.54524-6.09686,8.14475,8.14475,0,0,1,1.23824-6.26586c-4.21435,2.28467-7.90857,1.953-10.91139-1.70867-2.17267-2.64936-2.12882-5.96975-.02962-9.78383a8.06616,8.06616,0,0,1-5.64576,1.61978,7.67989,7.67989,0,0,1-5.05848-2.57573c-1.95136-2.15373-3.20132-5.99169-.48039-10.23665-.29394.15683-.46171.23467-.61779.33135a7.81181,7.81181,0,0,1-10.1987-1.5566,7.94792,7.94792,0,0,1,.06354-10.41716c2.20681-2.42187,4.56915-4.70237,6.87731-7.03091a6.12178,6.12178,0,0,1,.96412-.64716c-1.78415-1.81272-3.345-3.40373-4.91151-4.98924q-8.8619-8.96961-17.72122-17.94176c-.45388-.4605-.82919-.99845-1.241-1.5004Z"/><path class="cls-12" d="M1688.64125,1387.67382a7.01324,7.01324,0,0,1,3.69722,2.327q15.14182,15.39082,30.3275,30.7385,3.54025,3.58519.01368,7.16406-3.45484,3.49883-6.9142,6.9932a4.33824,4.33824,0,0,1-6.62392.00515q-15.65259-15.82845-31.29971-31.66236a4.44555,4.44555,0,0,1,.00018-6.72373c2.10954-2.147,4.25513-4.25913,6.33672-6.43272a7.02944,7.02944,0,0,1,3.74711-2.4091Z"/><path class="cls-12" d="M2147.75478,1382.84318c0,5.74015-.01334,11.10746.00335,16.47466.02145,6.90015,4.31122,11.17764,11.22844,11.198,5.36521.01577,10.73051.00316,16.45306.00316v2.2967q-.00006,20.72225-.00277,41.44449c-.0018,3.71806-1.02874,4.726-4.80946,4.72732q-22.90959.0079-45.81917-.00142c-3.76122-.00175-4.75069-.99958-4.75136-4.77331q-.00588-33.1556.001-66.31118c.001-4.21061.87461-5.05591,5.159-5.05745q9.90063-.00355,19.80126-.00092C2145.84441,1382.84317,2146.67065,1382.84318,2147.75478,1382.84318Z"/><path class="cls-12" d="M2050.88084,1496.98448v-37.885c.75353-.05058,1.35105-.12513,1.94863-.12563q13.00915-.01089,26.01833-.00455a14.82806,14.82806,0,0,1,11.30031,4.80039q15.81535,16.88888,31.61773,33.78988c2.73016,2.9236,2.95232,5.89329.69584,8.09124-2.3617,2.30046-5.67591,1.91394-8.47126-1.10406-9.75158-10.52837-19.45768-21.09892-29.23246-31.60562a5.97539,5.97539,0,0,0-3.1291-2.055,4.31094,4.31094,0,0,0-3.47324,1.31891c-.61245.86679-.332,2.50723-.12168,3.75428.11024.65383.88391,1.2147,1.40084,1.77824q14.9388,16.28635,29.9011,32.55106a12.8747,12.8747,0,0,0,9.87,4.18175q24.40659-.01187,48.81315-.0001c.92051.0002,1.845-.016,2.76082.05872,2.95726.24139,4.65653,1.96564,4.63933,4.6535a5.05337,5.05337,0,0,1-4.64386,5.10267,17.75325,17.75325,0,0,1-1.84071.02884q-33.84686.00166-67.69363.031a12.79963,12.79963,0,0,1-7.9132-2.55654c-8.35522-6.118-16.75607-12.17358-25.1368-18.25672C2060.37268,1497.85683,2060.37424,1497.85468,2050.88084,1496.98448Z"/><path class="cls-12" d="M2043.69763,1459.00771v38.00174a68.41568,68.41568,0,0,1-7.68672-.07562c-1.64946-.18753-2.54415-1.61073-2.545-3.36677q-.00726-15.53588.01361-31.0717a3.23919,3.23919,0,0,1,3.29075-3.44941C2038.96985,1458.8785,2041.192,1459.00771,2043.69763,1459.00771Z"/><path class="cls-12" d="M2130.16539,1507.43378v-10.3113c.64162,0,1.74144-.0002,2.84126,0,6.58321.00143,13.16716-.05661,19.74934.02585,4.24827.05321,6.82877,4.24964,4.62147,7.68217a5.648,5.648,0,0,1-3.7767,2.48887C2145.745,1507.55,2137.87906,1507.43378,2130.16539,1507.43378Z"/><path class="cls-12" d="M2170.01128,1403.56705c-4.11152,0-8.20712.09357-12.29488-.04482a2.98083,2.98083,0,0,1-2.96971-2.98509c-.13529-4.08939-.04382-8.18628-.04382-12.175Z"/><polyline class="cls-13" points="1654.286 879.034 1654.286 598.102 1055.441 598.102"/><polyline class="cls-13" points="2133.596 908.102 2133.596 598.102 2732.441 598.102"/><polyline class="cls-13" points="1654.286 1632.102 1654.286 1930.102 1055.441 1930.102"/><polyline class="cls-13" points="2133.596 1624.102 2133.596 1930.102 2732.441 1930.102"/><text class="cls-14" transform="translate(735.73633 676.71094)">01</text><text class="cls-14" transform="translate(736.98085 1977.32748) rotate(-1.03252)">03</text><text class="cls-14" transform="translate(2731.98085 1977.55307) rotate(-1.03252)">04</text><text class="cls-14" transform="translate(2765.73535 676.71094)">02</text></svg>