<svg xmlns="http://www.w3.org/2000/svg" width="316.799" height="55.422" viewBox="0 0 316.799 55.422"><defs><style>.a{fill:#41228e;}.b{fill:#f99d2e;}</style></defs><g transform="translate(-17.8 -13.938)"><g transform="translate(17.8 21.396)"><path class="a" d="M17.8,57.2V23.9h7.1a8.252,8.252,0,0,1,6.239,2.262c1.4,1.482,2.106,3.588,2.106,6.4v15.6c0,3.12-.78,5.459-2.262,6.941s-3.666,2.184-6.551,2.184H17.8Zm4.835-28.857V52.679h2.184A3.617,3.617,0,0,0,27.7,51.665a4.96,4.96,0,0,0,.858-3.12V32.479a4.878,4.878,0,0,0-.78-3.042A3.431,3.431,0,0,0,24.9,28.345H22.635Z" transform="translate(-17.8 -23.588)"/><path class="a" d="M51.849,59.887V57.469h-.078A9.589,9.589,0,0,1,49.9,59.5a4.457,4.457,0,0,1-2.652.7,6.5,6.5,0,0,1-1.716-.234,3.885,3.885,0,0,1-1.638-.936,5.743,5.743,0,0,1-1.326-1.872,9.233,9.233,0,0,1-.468-3.2,15.863,15.863,0,0,1,.312-3.51,5.687,5.687,0,0,1,1.248-2.574,5.214,5.214,0,0,1,2.262-1.482,11.971,11.971,0,0,1,3.666-.468h.546a1.156,1.156,0,0,1,.546.078c.156,0,.312.078.546.078a2.159,2.159,0,0,1,.7.078v-2.5a3.437,3.437,0,0,0-.546-2.028,1.953,1.953,0,0,0-1.872-.78,2.9,2.9,0,0,0-1.716.624,2.756,2.756,0,0,0-1.014,1.794h-4.6a7.794,7.794,0,0,1,2.184-5.147,7.582,7.582,0,0,1,2.262-1.482,7.177,7.177,0,0,1,2.964-.546,8.158,8.158,0,0,1,2.808.468,6.153,6.153,0,0,1,2.262,1.4,7.071,7.071,0,0,1,1.482,2.34,8.489,8.489,0,0,1,.546,3.276V60.121H51.849Zm0-10.217a9.955,9.955,0,0,0-1.326-.156,4.8,4.8,0,0,0-2.652.7,3.039,3.039,0,0,0-1.092,2.652,3.63,3.63,0,0,0,.624,2.184,2.46,2.46,0,0,0,3.666.078,3.274,3.274,0,0,0,.7-2.262v-3.2Z" transform="translate(-23.148 -26.273)"/><path class="a" d="M64.54,34.175V27H69.3v7.175h2.964v3.744H69.3V51.1a5.6,5.6,0,0,0,.156,1.326,1.245,1.245,0,0,0,.546.7,2.631,2.631,0,0,0,.936.312c.39,0,.78.078,1.326.078V58.04h-1.95a5.678,5.678,0,0,1-2.73-.546,4.235,4.235,0,0,1-1.716-1.326,3.978,3.978,0,0,1-.936-1.794,5.972,5.972,0,0,1-.312-1.95V37.919H62.2V34.175Z" transform="translate(-27.572 -24.27)"/><path class="a" d="M86.349,59.887V57.469h-.078A9.589,9.589,0,0,1,84.4,59.5a4.457,4.457,0,0,1-2.652.7,6.5,6.5,0,0,1-1.716-.234,3.885,3.885,0,0,1-1.638-.936,5.743,5.743,0,0,1-1.326-1.872,9.233,9.233,0,0,1-.468-3.2,15.863,15.863,0,0,1,.312-3.51,5.687,5.687,0,0,1,1.248-2.574,5.214,5.214,0,0,1,2.262-1.482,11.971,11.971,0,0,1,3.666-.468h.546a1.156,1.156,0,0,1,.546.078c.156,0,.312.078.546.078a2.159,2.159,0,0,1,.7.078v-2.5a3.437,3.437,0,0,0-.546-2.028,1.953,1.953,0,0,0-1.872-.78,2.9,2.9,0,0,0-1.716.624,2.756,2.756,0,0,0-1.014,1.794h-4.6a7.794,7.794,0,0,1,2.184-5.147,7.582,7.582,0,0,1,2.262-1.482,7.177,7.177,0,0,1,2.964-.546,8.158,8.158,0,0,1,2.808.468,6.153,6.153,0,0,1,2.262,1.4,7.071,7.071,0,0,1,1.482,2.34,8.489,8.489,0,0,1,.546,3.276V60.121H86.349Zm0-10.217a9.955,9.955,0,0,0-1.326-.156,4.8,4.8,0,0,0-2.652.7,3.039,3.039,0,0,0-1.092,2.652,3.63,3.63,0,0,0,.624,2.184,2.46,2.46,0,0,0,3.666.078,3.274,3.274,0,0,0,.7-2.262v-3.2Z" transform="translate(-30.741 -26.273)"/><path class="a" d="M115.2,33.4h-4.757V32.313a4.751,4.751,0,0,0-.78-2.808,2.923,2.923,0,0,0-2.574-1.17,3.072,3.072,0,0,0-1.56.39,3.817,3.817,0,0,0-1.014.936,5.857,5.857,0,0,0-.546,1.4,10.615,10.615,0,0,0-.156,1.638,10.469,10.469,0,0,0,.078,1.638,2.6,2.6,0,0,0,.39,1.17,2.7,2.7,0,0,0,.78.858c.39.234.858.468,1.482.78l3.666,1.482a7.946,7.946,0,0,1,2.574,1.4,7.129,7.129,0,0,1,1.56,1.872,12.41,12.41,0,0,1,.7,2.574,20.938,20.938,0,0,1,.156,3.276,20.006,20.006,0,0,1-.39,3.9,9,9,0,0,1-1.326,3.042,6.112,6.112,0,0,1-2.574,2.028,9.632,9.632,0,0,1-3.9.78,8.345,8.345,0,0,1-3.2-.624,7.106,7.106,0,0,1-2.574-1.716,7.722,7.722,0,0,1-2.34-5.615V47.755h4.757v1.482a3.68,3.68,0,0,0,.78,2.34,3.078,3.078,0,0,0,2.574,1.092,4.177,4.177,0,0,0,1.872-.39,2.133,2.133,0,0,0,1.014-1.014,4.577,4.577,0,0,0,.468-1.56,16.963,16.963,0,0,0,.078-2.028,18.346,18.346,0,0,0-.078-2.184,2.673,2.673,0,0,0-.39-1.326,4.469,4.469,0,0,0-.858-.858,11.732,11.732,0,0,0-1.4-.7l-3.432-1.4a7.67,7.67,0,0,1-4.134-3.354,11.527,11.527,0,0,1-1.092-5.225,11.124,11.124,0,0,1,.546-3.588,7.388,7.388,0,0,1,1.56-2.886,6.967,6.967,0,0,1,2.5-1.95,8.411,8.411,0,0,1,3.588-.7,9.065,9.065,0,0,1,3.276.624,9.888,9.888,0,0,1,2.574,1.716,7.34,7.34,0,0,1,2.184,5.147V33.4Z" transform="translate(-35.649 -23.5)"/><path class="a" d="M124,69.436v-33.3h4.757v2.184a12.15,12.15,0,0,1,1.794-1.716,4.553,4.553,0,0,1,2.73-.7,4.316,4.316,0,0,1,4.134,2.262,6.369,6.369,0,0,1,.624,1.95,17.505,17.505,0,0,1,.156,3.12v9.047c0,1.716-.078,3.042-.156,3.822a4.5,4.5,0,0,1-2.184,3.51,5.231,5.231,0,0,1-2.73.624,5.031,5.031,0,0,1-4.367-2.418h-.078V69.592H124Zm9.515-25.581a4.336,4.336,0,0,0-.546-2.34,1.862,1.862,0,0,0-1.794-.858,2.235,2.235,0,0,0-1.716.78,3.084,3.084,0,0,0-.624,2.106v9.2a2.53,2.53,0,0,0,.7,1.872,2.293,2.293,0,0,0,1.716.7,2.072,2.072,0,0,0,1.872-.858,4.005,4.005,0,0,0,.468-1.95V43.855Z" transform="translate(-41.174 -26.229)"/><path class="a" d="M156.249,59.887V57.469h-.078A9.589,9.589,0,0,1,154.3,59.5a4.553,4.553,0,0,1-2.73.7,6.5,6.5,0,0,1-1.716-.234,3.885,3.885,0,0,1-1.638-.936,4.648,4.648,0,0,1-1.248-1.872,9.233,9.233,0,0,1-.468-3.2,15.863,15.863,0,0,1,.312-3.51,5.687,5.687,0,0,1,1.248-2.574,5.214,5.214,0,0,1,2.262-1.482,11.971,11.971,0,0,1,3.666-.468h.546a1.327,1.327,0,0,1,.546.078c.156,0,.312.078.546.078a2.159,2.159,0,0,1,.7.078v-2.5a3.437,3.437,0,0,0-.546-2.028,1.953,1.953,0,0,0-1.872-.78,2.9,2.9,0,0,0-1.716.624,2.756,2.756,0,0,0-1.014,1.794h-4.6a7.794,7.794,0,0,1,2.184-5.147,7.582,7.582,0,0,1,2.262-1.482,7.177,7.177,0,0,1,2.964-.546,8.158,8.158,0,0,1,2.808.468,6.153,6.153,0,0,1,2.262,1.4,7.071,7.071,0,0,1,1.482,2.34,8.489,8.489,0,0,1,.546,3.276V60.121h-4.835Zm0-10.217a9.955,9.955,0,0,0-1.326-.156,4.8,4.8,0,0,0-2.652.7,3.039,3.039,0,0,0-1.092,2.652,3.63,3.63,0,0,0,.624,2.184,2.219,2.219,0,0,0,1.794.858,2.312,2.312,0,0,0,1.872-.78,3.274,3.274,0,0,0,.7-2.262v-3.2Z" transform="translate(-46.126 -26.273)"/><path class="a" d="M174.735,52.958a2.3,2.3,0,0,0,.624,1.716,2.428,2.428,0,0,0,1.716.624c.936,0,1.482-.234,1.794-.78a4.682,4.682,0,0,0,.546-1.56h4.757a6.758,6.758,0,0,1-1.95,5.069,7.791,7.791,0,0,1-2.262,1.56,7.177,7.177,0,0,1-2.964.546,7.5,7.5,0,0,1-3.822-.936,6.739,6.739,0,0,1-2.418-2.5,7.984,7.984,0,0,1-.7-2.184,14.272,14.272,0,0,1-.156-2.652v-7.8c0-.936.078-1.872.156-2.652a8.965,8.965,0,0,1,.7-2.184,6.188,6.188,0,0,1,2.418-2.5A7.3,7.3,0,0,1,177,35.8a7.177,7.177,0,0,1,2.964.546,6.531,6.531,0,0,1,2.262,1.56,7.865,7.865,0,0,1,1.872,5.459h-4.757a3.082,3.082,0,0,0-.624-2.106,2.178,2.178,0,0,0-1.716-.7,2.293,2.293,0,0,0-1.716.7,3.146,3.146,0,0,0-.624,2.028v9.671Z" transform="translate(-51.276 -26.207)"/><path class="a" d="M205.472,49.76h-9.437v3.2a2.3,2.3,0,0,0,.624,1.716,2.428,2.428,0,0,0,1.716.624c.936,0,1.482-.234,1.794-.78a4.682,4.682,0,0,0,.546-1.56h4.757a6.758,6.758,0,0,1-1.95,5.069,7.791,7.791,0,0,1-2.262,1.56,7.177,7.177,0,0,1-2.964.546,7.5,7.5,0,0,1-3.822-.936,6.739,6.739,0,0,1-2.418-2.5,7.984,7.984,0,0,1-.7-2.184,14.271,14.271,0,0,1-.156-2.652v-7.8c0-.936.078-1.872.156-2.652a8.965,8.965,0,0,1,.7-2.184,6.188,6.188,0,0,1,2.418-2.5A7.3,7.3,0,0,1,198.3,35.8a7.177,7.177,0,0,1,2.964.546,6.53,6.53,0,0,1,2.262,1.56,7.733,7.733,0,0,1,1.872,5.3V49.76Zm-9.437-3.744h4.679v-2.73a3,3,0,0,0-.624-2.028,2.178,2.178,0,0,0-1.716-.7,2.293,2.293,0,0,0-1.716.7,3.146,3.146,0,0,0-.624,2.028Z" transform="translate(-55.964 -26.207)"/></g><g transform="translate(211.373 22.721)"><path class="a" d="M288.383,57.488h-3.432v-24.8L278.323,50h-2.262l-6.629-17.158V57.488H266V25.2h3.432l7.8,19.966L284.952,25.2h3.432Z" transform="translate(-266 -25.2)"/><path class="a" d="M301.3,51.812V43.389c0-2.808.624-4.913,1.95-6.239a7.016,7.016,0,0,1,5.381-1.95,7.11,7.11,0,0,1,5.3,2.028c1.248,1.326,1.872,3.432,1.872,6.239v8.5c0,2.808-.624,4.913-1.872,6.239a8.051,8.051,0,0,1-10.685,0C301.924,56.725,301.3,54.7,301.3,51.812Zm11.231-.39V43.7a7.49,7.49,0,0,0-1.014-4.445,3.678,3.678,0,0,0-2.964-1.326,3.729,3.729,0,0,0-3.042,1.326A7.118,7.118,0,0,0,304.42,43.7v7.721a7.118,7.118,0,0,0,1.092,4.445,3.729,3.729,0,0,0,3.042,1.326,3.472,3.472,0,0,0,2.964-1.326C312.219,55.01,312.531,53.528,312.531,51.422Z" transform="translate(-273.769 -27.401)"/><path class="a" d="M329.5,57.488h-3.2V25.2h3.2V35.651a5.1,5.1,0,0,1,4.6-2.73,5.961,5.961,0,0,1,4.679,2.028c1.17,1.326,1.716,3.432,1.716,6.161v8.5a9.921,9.921,0,0,1-1.716,6.239,5.568,5.568,0,0,1-4.6,2.028,5.024,5.024,0,0,1-4.6-2.574v2.184Zm7.877-8.267V41.5c0-3.822-1.248-5.771-3.822-5.771a3.223,3.223,0,0,0-2.964,1.482,8.093,8.093,0,0,0-1.014,4.289v7.721a7.428,7.428,0,0,0,1.014,4.289,3.587,3.587,0,0,0,2.964,1.482,3.273,3.273,0,0,0,2.808-1.326A7.754,7.754,0,0,0,337.375,49.221Z" transform="translate(-279.272 -25.2)"/><path class="a" d="M354.676,25.3v4.212h-3.2V25.3Zm-.078,8.033V57.51h-3.2V33.333Z" transform="translate(-284.796 -25.222)"/><path class="a" d="M363,51.093V25.2h3.2V50.937c0,2.5,1.092,3.666,3.354,3.666h.7v2.886h-.78a6.4,6.4,0,0,1-4.757-1.638A6.137,6.137,0,0,1,363,51.093Z" transform="translate(-287.349 -25.2)"/><path class="a" d="M380.676,25.3v4.212h-3.2V25.3Zm-.078,8.033V57.51h-3.2V33.333Z" transform="translate(-290.518 -25.222)"/><path class="a" d="M393.017,51.455a4.163,4.163,0,0,0,.858,2.808,3.618,3.618,0,0,0,2.73.936h.624v2.808h-.78c-4.445,0-6.629-2.106-6.629-6.4V36.247H386.7v-2.5h3.12V28.682l3.2-1.482v6.473h4.6v2.5h-4.6Z" transform="translate(-292.565 -25.64)"/><path class="a" d="M412.569,62.017a5.968,5.968,0,0,1-2.418,3.822,8.535,8.535,0,0,1-4.6,1.092h-.468V64.045h.78a4.655,4.655,0,0,0,2.808-.7A3.815,3.815,0,0,0,410,61l.156-.78L403.6,35.5h3.432l4.6,18.484L416.079,35.5h3.432Z" transform="translate(-296.285 -27.467)"/></g><g transform="translate(172.69 13.938)"><g transform="translate(25.503)"><path class="b" d="M250.27,17.574a.7.7,0,0,1-.39-.078c-.624-.156-.936-.624-.7-1.092l.936-1.872a1.285,1.285,0,0,1,1.482-.546c.624.156.936.624.7,1.092l-.936,1.872A1.245,1.245,0,0,1,250.27,17.574Z" transform="translate(-249.1 -13.938)"/></g><g transform="translate(2.808 5.693)"><path class="b" d="M221.17,65.273a.7.7,0,0,1-.39-.078c-.624-.156-.936-.624-.7-1.092l1.872-3.822a1.285,1.285,0,0,1,1.482-.546c.624.156.936.624.7,1.092l-1.872,3.822A1.085,1.085,0,0,1,221.17,65.273Zm3.822-7.721a.7.7,0,0,1-.39-.078c-.624-.156-.936-.624-.7-1.092l1.872-3.822a1.285,1.285,0,0,1,1.482-.546c.624.156.936.624.7,1.092l-1.872,3.822A1.159,1.159,0,0,1,224.992,57.552Zm3.744-7.643a.7.7,0,0,1-.39-.078c-.624-.156-.936-.624-.7-1.092l1.872-3.822A1.285,1.285,0,0,1,231,44.372c.624.156.936.624.7,1.092l-1.872,3.822A1.159,1.159,0,0,1,228.735,49.909Zm3.744-7.721a.7.7,0,0,1-.39-.078c-.624-.156-.936-.624-.7-1.092l1.872-3.822a1.285,1.285,0,0,1,1.482-.546c.624.156.936.624.7,1.092l-1.872,3.822A1.085,1.085,0,0,1,232.479,42.188Zm3.822-7.643a.7.7,0,0,1-.39-.078c-.624-.156-.936-.624-.7-1.092l1.872-3.822a1.285,1.285,0,0,1,1.482-.546c.624.156.936.624.7,1.092l-1.872,3.822A1.159,1.159,0,0,1,236.3,34.545Zm3.744-7.721a.7.7,0,0,1-.39-.078c-.624-.156-.936-.624-.7-1.092l1.872-3.822a1.285,1.285,0,0,1,1.482-.546c.624.156.936.624.7,1.092L241.136,26.2A1.159,1.159,0,0,1,240.044,26.824Z" transform="translate(-220 -21.238)"/></g><g transform="translate(0 51.786)"><path class="b" d="M217.57,83.974a.7.7,0,0,1-.39-.078c-.624-.156-.936-.624-.7-1.092l.936-1.872a1.285,1.285,0,0,1,1.482-.546c.624.156.936.624.7,1.092l-.936,1.872A1.159,1.159,0,0,1,217.57,83.974Z" transform="translate(-216.4 -80.338)"/></g></g></g></svg>