<svg xmlns="http://www.w3.org/2000/svg" xmlns:xlink="http://www.w3.org/1999/xlink" width="557.086" height="341.8" viewBox="0 0 557.086 341.8"><defs><style>.a{fill:none;}.b{clip-path:url(#a);}.c{clip-path:url(#b);}.d{fill:#ebf2f9;}.e{fill:#d5e7f7;}.f{fill:#c4d9ed;}.g{fill:#1c2948;}.h{fill:#2d3a62;}.i{fill:#98bdf4;}.j{fill:#a8d29f;}.k{fill:#82b378;}.l{fill:#b64c41;}.m{fill:#f1a34f;}.n{fill:#163560;}.o{clip-path:url(#c);}.p{clip-path:url(#d);}.q{clip-path:url(#e);}.r{clip-path:url(#f);}.s{clip-path:url(#g);}.t{fill:#d9935c;}.u{fill:#fff;}.v{fill:#466aa5;}.w{fill:#2b478b;}.x{fill:#233862;}.y{fill:#cb7d45;}.z{fill:#aa413e;}.aa{fill:#d86713;}.ab{opacity:0.4;}.ac{clip-path:url(#i);}.ad{fill:#cb8757;}.ae{fill:#e7f0fd;}.af{fill:#da935b;}.ag{fill:#739af0;}.ah{fill:#4a75cb;}.ai{fill:#ffa412;}.aj{fill:#ed6058;}.ak{clip-path:url(#j);}.al{fill:#ab7041;}.am{fill:#9c5f33;}.an{fill:#74acbe;}.ao{fill:#9ed9f0;}.ap{clip-path:url(#k);}.aq{fill:#d6716b;}.ar{fill:#a05f32;}.as{fill:#af7041;}.at{fill:#283250;}</style><clipPath id="a"><rect class="a" width="557.086" height="341.8"/></clipPath><clipPath id="b"><rect class="a" width="557.086" height="341.799"/></clipPath><clipPath id="c"><path class="a" d="M20,0h92.5a20,20,0,0,1,20,20V47.918a20,20,0,0,1-20,20H20a20,20,0,0,1-20-20V20A20,20,0,0,1,20,0Z"/></clipPath><clipPath id="d"><path class="a" d="M20,0H34.169a20,20,0,0,1,20,20V47.919a20,20,0,0,1-20,20H20a20,20,0,0,1-20-20V20A20,20,0,0,1,20,0Z"/></clipPath><clipPath id="e"><path class="a" d="M2218.55,797a4.392,4.392,0,0,0-4.279,4.5v33.427c0,16.565,12.777,29.993,28.538,29.993h11.1V801.5a4.392,4.392,0,0,0-4.279-4.5Z" transform="translate(-2214.271 -797.003)"/></clipPath><clipPath id="f"><rect class="a" width="132.496" height="67.918" rx="20"/></clipPath><clipPath id="g"><path class="a" d="M1646.044,797h-25.32a4.392,4.392,0,0,0-4.279,4.5V932.838h65.892V801.5a4.392,4.392,0,0,0-4.279-4.5Z" transform="translate(-1616.445 -797.003)"/></clipPath><clipPath id="i"><rect class="a" width="8.557" height="23.312"/></clipPath><clipPath id="j"><rect class="a" width="25.873" height="6.122"/></clipPath><clipPath id="k"><rect class="a" width="16.609" height="43.86"/></clipPath></defs><g class="b"><g transform="translate(0 0.001)"><g class="c"><path class="d" d="M149.462,321.824c84.709,15.367,35.042-154.572,150.44-82.438,45.892,28.686,111.972-6.028,175.254,12.946,58.117,17.425,43.8,74.6,38.177,93.309-11.359,37.789,45.213,22.717,78,38.953,51.436,25.468,46.018,128.371-2.574,128.8s-434.6-1.079-434.6-1.079S132.96,497.891,121.7,468.165c-23.082-60.939-46.83-159.872,27.761-146.341" transform="translate(-77.772 -171.67)"/><path class="e" d="M699.982,118.724V93.242h-7.36V49.427H653.16V93.242H616.266V33.184l-40.713-16.2v51.2h-9.284V0L525.556,14.184V116.605H474.067v60.5H454.828v15.241h-44.19V166.1H385.267V94.786H353.925v246.19h377.5V118.724Z" transform="translate(-278.208 -0.004)"/><rect class="f" width="27.464" height="10.57" transform="translate(253.432 19.366)"/><rect class="f" width="27.464" height="10.57" transform="translate(253.432 39.224)"/><rect class="f" width="27.464" height="10.57" transform="translate(253.432 57.09)"/><rect class="f" width="31.922" height="16.316" transform="translate(75.717 142.827)"/><rect class="f" width="31.617" height="16.316" transform="translate(75.717 192.911)"/><rect class="f" width="31.617" height="16.316" transform="translate(75.717 217.558)"/><rect class="f" width="31.617" height="16.316" transform="translate(75.202 243.345)"/><rect class="f" width="31.617" height="16.316" transform="translate(75.202 268.599)"/><rect class="f" width="31.617" height="16.316" transform="translate(75.202 294.385)"/><rect class="f" width="28.886" height="10.57" transform="translate(302.706 57.09)"/><rect class="f" width="28.886" height="10.57" transform="translate(302.706 39.385)"/><rect class="f" width="78.86" height="10.571" transform="translate(252.733 74.412)"/><rect class="f" width="78.86" height="10.57" transform="translate(252.733 90.306)"/><rect class="f" width="78.86" height="10.166" transform="translate(252.733 106.093)"/><rect class="f" width="31.617" height="16.316" transform="translate(75.717 168.263)"/><rect class="f" width="6.902" height="10.224" transform="translate(203.743 126.517)"/><rect class="f" width="6.902" height="10.224" transform="translate(216.649 126.517)"/><rect class="f" width="6.902" height="10.224" transform="translate(229.267 126.517)"/><rect class="f" width="6.902" height="10.224" transform="translate(241.23 126.517)"/><rect class="f" width="6.902" height="10.224" transform="translate(253.423 126.517)"/><rect class="f" width="6.902" height="10.224" transform="translate(265.755 126.517)"/><rect class="f" width="6.902" height="10.224" transform="translate(278.662 126.517)"/><rect class="f" width="6.902" height="10.224" transform="translate(291.279 126.517)"/><rect class="f" width="6.902" height="10.224" transform="translate(303.243 126.517)"/><rect class="f" width="6.902" height="10.224" transform="translate(315.435 126.517)"/><rect class="f" width="6.902" height="10.224" transform="translate(328.141 126.517)"/><rect class="f" width="6.902" height="10.224" transform="translate(341.048 126.517)"/><rect class="f" width="6.902" height="10.224" transform="translate(353.665 126.517)"/><rect class="f" width="6.902" height="10.224" transform="translate(365.628 126.517)"/><rect class="f" width="6.902" height="10.224" transform="translate(377.821 126.517)"/><rect class="f" width="6.902" height="10.224" transform="translate(390.154 126.517)"/><rect class="f" width="6.902" height="10.224" transform="translate(403.06 126.517)"/><rect class="f" width="6.902" height="10.224" transform="translate(415.678 126.517)"/><rect class="f" width="6.902" height="10.224" transform="translate(427.641 126.517)"/><rect class="f" width="6.902" height="10.224" transform="translate(439.834 126.517)"/><rect class="f" width="6.902" height="10.224" transform="translate(203.743 144.559)"/><rect class="f" width="6.902" height="10.224" transform="translate(216.649 144.559)"/><rect class="f" width="6.902" height="10.224" transform="translate(229.267 144.559)"/><rect class="f" width="6.902" height="10.224" transform="translate(241.23 144.559)"/><rect class="f" width="6.902" height="10.224" transform="translate(253.423 144.559)"/><rect class="f" width="6.902" height="10.224" transform="translate(265.755 144.559)"/><rect class="f" width="6.902" height="10.224" transform="translate(278.662 144.559)"/><rect class="f" width="6.902" height="10.224" transform="translate(291.279 144.559)"/><rect class="f" width="6.902" height="10.224" transform="translate(303.243 144.559)"/><rect class="f" width="6.902" height="10.224" transform="translate(315.435 144.559)"/><rect class="f" width="6.902" height="10.224" transform="translate(328.141 144.559)"/><rect class="f" width="6.902" height="10.224" transform="translate(341.048 144.559)"/><rect class="f" width="6.902" height="10.224" transform="translate(353.665 144.559)"/><rect class="f" width="6.902" height="10.224" transform="translate(365.628 144.559)"/><rect class="f" width="6.902" height="10.224" transform="translate(377.821 144.559)"/><rect class="f" width="6.902" height="10.224" transform="translate(390.154 144.559)"/><rect class="f" width="6.902" height="10.224" transform="translate(403.06 144.559)"/><rect class="f" width="6.902" height="10.224" transform="translate(415.678 144.559)"/><rect class="f" width="6.902" height="10.224" transform="translate(427.641 144.559)"/><rect class="f" width="6.902" height="10.224" transform="translate(439.834 144.559)"/><rect class="f" width="6.902" height="10.224" transform="translate(203.743 162.324)"/><rect class="f" width="6.902" height="10.224" transform="translate(216.649 162.324)"/><rect class="f" width="6.902" height="10.224" transform="translate(229.267 162.324)"/><rect class="f" width="6.902" height="10.224" transform="translate(241.23 162.324)"/><rect class="f" width="6.902" height="10.224" transform="translate(253.423 162.324)"/><rect class="f" width="6.902" height="10.224" transform="translate(265.755 162.324)"/><rect class="f" width="6.902" height="10.224" transform="translate(278.662 162.324)"/><rect class="f" width="6.902" height="10.224" transform="translate(291.279 162.324)"/><rect class="f" width="6.902" height="10.224" transform="translate(303.243 162.324)"/><rect class="f" width="6.902" height="10.224" transform="translate(315.435 162.324)"/><rect class="f" width="6.902" height="10.224" transform="translate(328.141 162.324)"/><rect class="f" width="6.902" height="10.224" transform="translate(341.048 162.324)"/><rect class="f" width="6.902" height="10.224" transform="translate(353.665 162.324)"/><rect class="f" width="6.902" height="10.224" transform="translate(365.628 162.324)"/><rect class="f" width="6.902" height="10.224" transform="translate(377.821 162.324)"/><rect class="f" width="6.902" height="10.224" transform="translate(390.154 162.324)"/><rect class="f" width="6.902" height="10.224" transform="translate(403.06 162.324)"/><rect class="f" width="6.902" height="10.224" transform="translate(415.678 162.324)"/><rect class="f" width="6.902" height="10.224" transform="translate(427.641 162.324)"/><rect class="f" width="6.902" height="10.224" transform="translate(439.834 162.324)"/><rect class="f" width="6.902" height="10.224" transform="translate(203.743 181.2)"/><rect class="f" width="6.902" height="10.224" transform="translate(216.649 181.2)"/><rect class="f" width="6.902" height="10.224" transform="translate(229.267 181.2)"/><rect class="f" width="6.902" height="10.224" transform="translate(241.23 181.2)"/><rect class="f" width="6.902" height="10.224" transform="translate(253.423 181.2)"/><rect class="f" width="6.902" height="10.224" transform="translate(265.755 181.2)"/><rect class="f" width="6.902" height="10.224" transform="translate(278.662 181.2)"/><rect class="f" width="6.902" height="10.224" transform="translate(291.279 181.2)"/><rect class="f" width="6.902" height="10.224" transform="translate(303.243 181.2)"/><rect class="f" width="6.902" height="10.224" transform="translate(315.435 181.2)"/><rect class="f" width="6.902" height="10.224" transform="translate(328.141 181.2)"/><rect class="f" width="6.902" height="10.224" transform="translate(341.048 181.2)"/><rect class="f" width="6.902" height="10.224" transform="translate(353.665 181.2)"/><rect class="f" width="6.902" height="10.224" transform="translate(365.628 181.2)"/><rect class="f" width="6.902" height="10.224" transform="translate(377.821 181.2)"/><rect class="f" width="6.902" height="10.224" transform="translate(390.154 181.2)"/><rect class="f" width="6.902" height="10.224" transform="translate(403.06 181.2)"/><rect class="f" width="6.902" height="10.224" transform="translate(415.678 181.2)"/><rect class="f" width="6.902" height="10.224" transform="translate(427.641 181.2)"/><rect class="f" width="6.902" height="10.224" transform="translate(439.834 181.2)"/><rect class="f" width="6.902" height="10.224" transform="translate(203.743 199.242)"/><rect class="f" width="6.902" height="10.224" transform="translate(216.649 199.242)"/><rect class="f" width="6.902" height="10.224" transform="translate(229.267 199.242)"/><rect class="f" width="6.902" height="10.224" transform="translate(241.23 199.242)"/><rect class="f" width="6.902" height="10.224" transform="translate(253.423 199.242)"/><rect class="f" width="6.902" height="10.224" transform="translate(265.755 199.242)"/><rect class="f" width="6.902" height="10.224" transform="translate(278.662 199.242)"/><rect class="f" width="6.902" height="10.224" transform="translate(291.279 199.242)"/><rect class="f" width="6.902" height="10.224" transform="translate(303.243 199.242)"/><rect class="f" width="6.902" height="10.224" transform="translate(315.435 199.242)"/><rect class="f" width="6.902" height="10.224" transform="translate(328.141 199.242)"/><rect class="f" width="6.902" height="10.224" transform="translate(341.048 199.242)"/><rect class="f" width="6.902" height="10.224" transform="translate(353.665 199.242)"/><rect class="f" width="6.902" height="10.224" transform="translate(365.628 199.242)"/><rect class="f" width="6.902" height="10.224" transform="translate(377.821 199.242)"/><rect class="f" width="6.902" height="10.224" transform="translate(390.154 199.242)"/><rect class="f" width="6.902" height="10.224" transform="translate(403.06 199.242)"/><rect class="f" width="6.902" height="10.224" transform="translate(427.641 199.242)"/><rect class="f" width="6.902" height="10.224" transform="translate(415.678 199.242)"/><rect class="f" width="6.902" height="10.224" transform="translate(439.834 199.242)"/><rect class="f" width="6.902" height="10.224" transform="translate(203.743 217.007)"/><rect class="f" width="6.902" height="10.224" transform="translate(216.649 217.007)"/><rect class="f" width="6.902" height="10.224" transform="translate(229.267 217.007)"/><rect class="f" width="6.902" height="10.224" transform="translate(241.23 217.007)"/><rect class="f" width="6.902" height="10.224" transform="translate(253.423 217.007)"/><rect class="f" width="6.902" height="10.224" transform="translate(265.755 217.007)"/><rect class="f" width="6.902" height="10.224" transform="translate(278.662 217.007)"/><rect class="f" width="6.902" height="10.224" transform="translate(291.279 217.007)"/><rect class="f" width="6.902" height="10.224" transform="translate(303.243 217.007)"/><rect class="f" width="6.902" height="10.224" transform="translate(315.435 217.007)"/><rect class="f" width="6.902" height="10.224" transform="translate(328.141 217.007)"/><rect class="f" width="6.902" height="10.224" transform="translate(341.048 217.007)"/><rect class="f" width="6.902" height="10.224" transform="translate(353.665 217.007)"/><rect class="f" width="6.902" height="10.224" transform="translate(365.628 217.007)"/><rect class="f" width="6.902" height="10.224" transform="translate(377.821 217.007)"/><rect class="f" width="6.902" height="10.224" transform="translate(390.154 217.007)"/><rect class="f" width="6.902" height="10.224" transform="translate(403.06 217.007)"/><rect class="f" width="6.902" height="10.224" transform="translate(427.641 217.007)"/><rect class="f" width="6.902" height="10.224" transform="translate(439.834 217.007)"/><path class="f" d="M630.231,495.186V473.919h.832v21.267h11.387V521.43H619V495.186Z" transform="translate(-486.574 -367.361)"/><path class="f" d="M353.926,413.519V397.2h6.6v-7.1h.832v7.1H390.4v-7.1h.832v7.1h5.837v71.3H385.408V437.784H353.926V421.468h31.483v-7.949Z" transform="translate(-278.209 -302.39)"/><rect class="e" width="1.627" height="21.881" transform="translate(497.06 179.466)"/><rect class="f" width="158.067" height="97.177" transform="translate(124.046 243.345)"/><rect class="e" width="8.428" height="13.524" transform="translate(267.485 253.307)"/><rect class="e" width="8.428" height="13.524" transform="translate(252.624 253.307)"/><rect class="e" width="8.428" height="13.524" transform="translate(237.663 253.307)"/><rect class="e" width="8.428" height="13.524" transform="translate(222.802 253.307)"/><rect class="e" width="8.428" height="13.524" transform="translate(207.497 253.307)"/><rect class="e" width="8.428" height="13.524" transform="translate(192.635 253.307)"/><rect class="e" width="8.428" height="13.524" transform="translate(177.675 253.307)"/><rect class="e" width="8.428" height="13.524" transform="translate(162.814 253.307)"/><rect class="e" width="8.428" height="13.524" transform="translate(147.228 253.307)"/><rect class="e" width="8.428" height="13.524" transform="translate(132.367 253.307)"/><rect class="e" width="8.428" height="13.524" transform="translate(267.485 273.307)"/><rect class="e" width="8.428" height="13.524" transform="translate(252.624 273.307)"/><rect class="e" width="8.428" height="13.524" transform="translate(237.663 273.307)"/><rect class="e" width="8.428" height="13.524" transform="translate(222.802 273.307)"/><rect class="e" width="8.428" height="13.524" transform="translate(207.497 273.307)"/><rect class="e" width="8.428" height="13.524" transform="translate(192.635 273.307)"/><rect class="e" width="8.428" height="13.524" transform="translate(177.675 273.307)"/><rect class="e" width="8.428" height="13.524" transform="translate(162.814 273.307)"/><rect class="e" width="8.428" height="13.524" transform="translate(147.228 273.307)"/><rect class="e" width="8.428" height="13.524" transform="translate(132.367 273.307)"/><rect class="e" width="8.428" height="13.524" transform="translate(267.485 294.791)"/><rect class="e" width="8.428" height="13.524" transform="translate(252.624 294.791)"/><rect class="e" width="8.428" height="13.524" transform="translate(237.663 294.791)"/><rect class="e" width="8.428" height="13.524" transform="translate(222.802 294.791)"/><rect class="e" width="8.428" height="13.524" transform="translate(207.497 294.791)"/><rect class="e" width="8.428" height="13.524" transform="translate(192.635 294.791)"/><rect class="e" width="8.428" height="13.524" transform="translate(177.675 294.791)"/><rect class="e" width="8.428" height="13.524" transform="translate(162.814 294.791)"/><rect class="e" width="8.428" height="13.524" transform="translate(147.228 294.791)"/><rect class="e" width="8.428" height="13.524" transform="translate(132.367 294.791)"/><rect class="e" width="8.428" height="13.524" transform="translate(267.485 314.791)"/><rect class="e" width="8.428" height="13.524" transform="translate(252.624 314.791)"/><rect class="e" width="8.428" height="13.524" transform="translate(237.663 314.791)"/><rect class="e" width="8.428" height="13.524" transform="translate(222.802 314.791)"/><rect class="e" width="8.428" height="13.524" transform="translate(207.497 314.791)"/><rect class="e" width="8.428" height="13.524" transform="translate(192.635 314.791)"/><rect class="e" width="8.428" height="13.524" transform="translate(177.675 314.791)"/><rect class="e" width="8.428" height="13.524" transform="translate(162.814 314.791)"/><rect class="e" width="8.428" height="13.524" transform="translate(147.228 314.791)"/><rect class="e" width="8.428" height="13.524" transform="translate(132.367 314.791)"/><path class="f" d="M713.17,997.814H680.186V967.59l32.984,13.272Z" transform="translate(-534.671 -750.032)"/><path class="f" d="M1594.249,1216.957h75.484v-86.3l-75.484,27.464Z" transform="translate(-1253.184 -876.435)"/><rect class="e" width="71.496" height="2.666" transform="translate(343.059 284.545)"/><rect class="e" width="71.496" height="2.666" transform="translate(343.059 293.116)"/><rect class="e" width="71.496" height="2.667" transform="translate(343.059 301.687)"/><rect class="e" width="71.496" height="2.667" transform="translate(343.059 310.259)"/><rect class="e" width="71.496" height="2.667" transform="translate(343.059 318.83)"/><rect class="e" width="71.496" height="2.666" transform="translate(343.059 327.402)"/><rect class="f" width="6.343" height="25.787" transform="translate(139.172 217.558)"/><rect class="e" width="12.867" height="8.858" transform="translate(152.484 230.497)"/><rect class="f" width="4.374" height="39" transform="translate(405.424 53.021)"/><rect class="f" width="4.374" height="39" transform="translate(396.725 53.021)"/><rect class="f" width="4.374" height="39" transform="translate(388.143 53.021)"/><rect class="f" width="4.374" height="39" transform="translate(379.261 53.021)"/><rect class="g" width="359.579" height="29.508" transform="translate(135.171 282.084)"/><path class="h" d="M2065.239,1322.278c0,13.573-10.47,24.576-23.384,24.576s-23.383-11-23.383-24.576,10.469-24.576,23.383-24.576,23.384,11,23.384,24.576" transform="translate(-1586.65 -1005.919)"/><path class="i" d="M2074.542,1339.284c-8,0-14.488,6.817-14.488,15.227s6.487,15.227,14.488,15.227,14.488-6.817,14.488-15.227-6.487-15.227-14.488-15.227m1.984,1.669a12.883,12.883,0,0,1,7.923,4.635l-5.021,3.259a7.175,7.175,0,0,0-2.9-1.691Zm-3.969,0v6.2a7.172,7.172,0,0,0-2.9,1.691l-5.021-3.259a12.88,12.88,0,0,1,7.922-4.635m-10.048,18.876a14.395,14.395,0,0,1,.026-10.7l5.019,3.258a8.009,8.009,0,0,0-.019,4.18Zm10.048,8.24a12.886,12.886,0,0,1-7.966-4.688l5.015-3.255a7.171,7.171,0,0,0,2.951,1.74Zm-1.3-13.558a3.293,3.293,0,1,1,3.289,3.457,3.376,3.376,0,0,1-3.289-3.457m5.273,13.558v-6.2a7.173,7.173,0,0,0,2.951-1.74l5.015,3.255a12.886,12.886,0,0,1-7.966,4.688m5.021-11.5a8.012,8.012,0,0,0-.019-4.18l5.019-3.258a14.4,14.4,0,0,1,.027,10.7Z" transform="translate(-1619.337 -1038.152)"/><path class="h" d="M705.239,1322.278c0,13.573-10.469,24.576-23.383,24.576s-23.384-11-23.384-24.576,10.469-24.576,23.384-24.576,23.383,11,23.383,24.576" transform="translate(-517.602 -1005.919)"/><path class="i" d="M714.542,1339.284c-8,0-14.488,6.817-14.488,15.226s6.486,15.227,14.488,15.227,14.488-6.817,14.488-15.227-6.486-15.226-14.488-15.226m1.984,1.669a12.881,12.881,0,0,1,7.922,4.635l-5.021,3.259a7.172,7.172,0,0,0-2.9-1.691Zm-3.969,0v6.2a7.172,7.172,0,0,0-2.9,1.691l-5.021-3.259a12.88,12.88,0,0,1,7.922-4.635m-10.048,18.876a14.4,14.4,0,0,1,.026-10.7l5.019,3.258a8.011,8.011,0,0,0-.019,4.18Zm10.048,8.24a12.885,12.885,0,0,1-7.966-4.688l5.015-3.255a7.172,7.172,0,0,0,2.951,1.74Zm-1.3-13.558a3.293,3.293,0,1,1,3.289,3.457,3.376,3.376,0,0,1-3.289-3.457m5.274,13.558v-6.2a7.173,7.173,0,0,0,2.951-1.74l5.015,3.255a12.885,12.885,0,0,1-7.966,4.688m5.021-11.5a8.011,8.011,0,0,0-.019-4.18l5.019-3.258a14.4,14.4,0,0,1,.026,10.7Z" transform="translate(-550.288 -1038.152)"/><path class="j" d="M588.967,673.036H384.445v-6.624A5.282,5.282,0,0,1,389.591,661H578.269a5.076,5.076,0,0,1,4.214,2.305Z" transform="translate(-302.199 -512.381)"/><path class="k" d="M384.445,697v3.938H588.966L586.342,697Z" transform="translate(-302.199 -540.286)"/><path class="j" d="M707.109,714.517H276.535c-7.3,0-13.218,6.22-13.218,13.893V854.894a6.987,6.987,0,0,0,5.5,6.954l36.241,7.051h40.261c0-14.9,11.494-26.982,25.672-26.982S396.667,854,396.667,868.9H636.274c0-14.9,11.494-26.982,25.672-26.982S687.618,854,687.618,868.9h26.159a6.724,6.724,0,0,0,6.55-6.885V728.41c0-7.673-5.918-13.893-13.218-13.893" transform="translate(-206.984 -553.861)"/><path class="k" d="M2225.708,1333.406a27.821,27.821,0,0,1,4.478,15.227h26.159a6.724,6.724,0,0,0,6.55-6.885,8.147,8.147,0,0,0-7.937-8.342Z" transform="translate(-1749.552 -1033.595)"/><path class="k" d="M263.318,1333.406v1.222a6.987,6.987,0,0,0,5.5,6.953l36.241,7.052h40.261a27.82,27.82,0,0,1,4.478-15.227Z" transform="translate(-206.985 -1033.595)"/><path class="k" d="M865.708,1333.406a27.821,27.821,0,0,1,4.477,15.227h239.607a27.821,27.821,0,0,1,4.477-15.227Z" transform="translate(-680.503 -1033.595)"/><rect class="l" width="5.848" height="32.528" transform="translate(53.579 262.695)"/><rect class="m" width="5.848" height="6.146" transform="translate(53.579 253.875)"/><rect class="l" width="3.014" height="29.415" transform="translate(510.33 261.046)"/><path class="n" d="M981.89,864.922h123.939a4.392,4.392,0,0,0,4.279-4.5V801.5a4.392,4.392,0,0,0-4.279-4.5H981.89a4.392,4.392,0,0,0-4.279,4.5v58.924a4.392,4.392,0,0,0,4.279,4.5" transform="translate(-768.466 -617.802)"/><path class="n" d="M1945.434,864.922h45.612a4.392,4.392,0,0,0,4.279-4.5V801.5a4.392,4.392,0,0,0-4.279-4.5h-45.612a4.392,4.392,0,0,0-4.279,4.5v58.924a4.392,4.392,0,0,0,4.279,4.5" transform="translate(-1525.874 -617.802)"/><path class="n" d="M2242.808,864.922h11.1V801.5a4.392,4.392,0,0,0-4.279-4.5h-31.076a4.392,4.392,0,0,0-4.279,4.5v33.427c0,16.565,12.777,29.993,28.538,29.993" transform="translate(-1740.56 -617.802)"/><path class="i" d="M981.89,864.922h123.939a4.392,4.392,0,0,0,4.279-4.5V801.5a4.392,4.392,0,0,0-4.279-4.5H981.89a4.392,4.392,0,0,0-4.279,4.5v58.924a4.392,4.392,0,0,0,4.279,4.5" transform="translate(-768.466 -617.802)"/><path class="i" d="M1945.434,864.922h45.612a4.392,4.392,0,0,0,4.279-4.5V801.5a4.392,4.392,0,0,0-4.279-4.5h-45.612a4.392,4.392,0,0,0-4.279,4.5v58.924a4.392,4.392,0,0,0,4.279,4.5" transform="translate(-1525.874 -617.802)"/><path class="i" d="M2242.808,864.922h11.1V801.5a4.392,4.392,0,0,0-4.279-4.5h-31.076a4.392,4.392,0,0,0-4.279,4.5v33.427c0,16.565,12.777,29.993,28.538,29.993" transform="translate(-1740.56 -617.802)"/><path class="n" d="M320.285,864.922H444.224a4.392,4.392,0,0,0,4.279-4.5V801.5a4.392,4.392,0,0,0-4.279-4.5H320.285a4.392,4.392,0,0,0-4.279,4.5v58.924a4.392,4.392,0,0,0,4.279,4.5" transform="translate(-248.401 -617.802)"/><path class="i" d="M320.285,864.922H444.224a4.392,4.392,0,0,0,4.279-4.5V801.5a4.392,4.392,0,0,0-4.279-4.5H320.285a4.392,4.392,0,0,0-4.279,4.5v58.924a4.392,4.392,0,0,0,4.279,4.5" transform="translate(-248.401 -617.802)"/><path class="i" d="M1678.058,797h-57.334a4.392,4.392,0,0,0-4.279,4.5V932.838h65.892V801.5a4.392,4.392,0,0,0-4.279-4.5" transform="translate(-1270.631 -617.801)"/></g></g><g transform="translate(209.145 179.203)"><g class="o"><path class="e" d="M923.743,750.321H905.453L986,601.168h18.291Z" transform="translate(-920.89 -645.201)"/><path class="e" d="M1063.192,765.51H1044.9l80.542-149.153h18.291Z" transform="translate(-1030.506 -656.975)"/><path class="e" d="M1314.692,779.01H1296.4l80.542-149.153h18.29Z" transform="translate(-1228.201 -667.439)"/><path class="e" d="M1165.724,777.623H1160.9l80.542-149.153h4.823Z" transform="translate(-1121.689 -666.364)"/></g></g><g transform="translate(415.28 179.203)"><g class="p"><path class="e" d="M1902.8,716.153h-18.291L1965.049,567h18.291Z" transform="translate(-1896.626 -618.715)"/><path class="e" d="M2005.33,728.266h-4.823l80.542-149.153h4.823Z" transform="translate(-1987.809 -628.105)"/></g></g><g transform="translate(473.71 179.203)"><g class="q"><path class="e" d="M2140.865,704.039h-9.145l80.542-149.153h9.146Z" transform="translate(-2149.381 -609.325)"/><path class="e" d="M2209.8,716.153h-4.823L2285.515,567h4.823Z" transform="translate(-2206.962 -618.715)"/></g></g><g transform="translate(67.604 179.203)"><g class="r"><path class="e" d="M252.744,743.321H234.453L315,594.168h18.291Z" transform="translate(-251.9 -639.774)"/><path class="e" d="M547.744,743.321H529.453L610,594.168h18.291Z" transform="translate(-483.789 -639.774)"/><path class="e" d="M351.269,743.321h-4.816L427,594.168h4.816Z" transform="translate(-339.94 -639.774)"/></g></g><g transform="translate(345.814 179.203)"><g class="s"><path class="e" d="M1439.868,905.565h-18.291l80.542-149.153h18.291Z" transform="translate(-1463.266 -765.538)"/><path class="e" d="M1542.4,917.678h-4.823l80.542-149.153h4.823Z" transform="translate(-1554.45 -774.928)"/><path class="e" d="M1677.936,893.451h-9.145L1749.333,744.3h9.145Z" transform="translate(-1657.592 -756.149)"/></g></g><g transform="translate(0 0.001)"><g class="c"><rect class="n" width="3.53" height="135.835" transform="translate(376.939 179.202)"/><path class="n" d="M440.293,862.169H316.354a5.5,5.5,0,0,1-5.348-5.621V797.624A5.5,5.5,0,0,1,316.354,792H440.293a5.5,5.5,0,0,1,5.348,5.621v58.923a5.5,5.5,0,0,1-5.348,5.621M316.354,794.251a3.3,3.3,0,0,0-3.209,3.373v58.923a3.3,3.3,0,0,0,3.209,3.373H440.293a3.3,3.3,0,0,0,3.209-3.373V797.624a3.3,3.3,0,0,0-3.209-3.373Z" transform="translate(-244.471 -613.925)"/><path class="n" d="M1101.9,862.169H977.959a5.5,5.5,0,0,1-5.348-5.621V797.624A5.5,5.5,0,0,1,977.959,792H1101.9a5.5,5.5,0,0,1,5.348,5.621v58.923a5.5,5.5,0,0,1-5.348,5.621M977.959,794.251a3.3,3.3,0,0,0-3.209,3.373v58.923a3.3,3.3,0,0,0,3.209,3.373H1101.9a3.3,3.3,0,0,0,3.209-3.373V797.624a3.3,3.3,0,0,0-3.209-3.373Z" transform="translate(-764.536 -613.925)"/><path class="n" d="M1679.476,930.086h-68.031V797.624a5.5,5.5,0,0,1,5.348-5.621h57.334a5.5,5.5,0,0,1,5.349,5.621Zm-65.892-2.248h63.753V797.624a3.3,3.3,0,0,0-3.209-3.373h-57.334a3.3,3.3,0,0,0-3.209,3.373Z" transform="translate(-1266.701 -613.925)"/><path class="n" d="M1987.114,862.169H1941.5a5.5,5.5,0,0,1-5.348-5.621V797.624A5.5,5.5,0,0,1,1941.5,792h45.611a5.5,5.5,0,0,1,5.348,5.621v58.923a5.5,5.5,0,0,1-5.348,5.621M1941.5,794.251a3.3,3.3,0,0,0-3.209,3.373v58.923a3.3,3.3,0,0,0,3.209,3.373h45.611a3.3,3.3,0,0,0,3.209-3.373V797.624a3.3,3.3,0,0,0-3.209-3.373Z" transform="translate(-1521.944 -613.925)"/><path class="n" d="M2248.746,862.169h-9.868c-16.326,0-29.607-13.959-29.607-31.118V797.624a5.5,5.5,0,0,1,5.348-5.621H2245.7a5.5,5.5,0,0,1,5.348,5.621v62.13a2.361,2.361,0,0,1-2.3,2.415m-34.127-67.917a3.3,3.3,0,0,0-3.209,3.373v33.427c0,15.919,12.322,28.869,27.468,28.869h9.868a.163.163,0,0,0,.159-.167v-62.13a3.3,3.3,0,0,0-3.209-3.373Z" transform="translate(-1736.631 -613.925)"/><rect class="j" width="80.76" height="4.019" transform="translate(338.326 315.037)"/><rect class="k" width="87.82" height="4.02" transform="translate(334.796 319.057)"/><path class="j" d="M2430.341,817.2h0a4.685,4.685,0,0,1-4.564-4.8V773.134a4.57,4.57,0,1,1,9.128,0v39.273a4.685,4.685,0,0,1-4.564,4.8" transform="translate(-1906.819 -595.58)"/><path class="k" d="M2269.352,760.679h-42.929a3.133,3.133,0,0,1,0-6.258h42.929a3.133,3.133,0,0,1,0,6.258" transform="translate(-1747.773 -584.793)"/><path class="t" d="M1504.559,1075.86c.221-.718.389-1.239.473-1.5.038-.12.059-.183.059-.183a2.3,2.3,0,0,1,.179.215c.687.906,3.049,4.8,1.274,13.814-.26,1.326-.611,2.765-1.069,4.319,0,0,6.537-1.212,8.383-2.505.077-.2,1.038-3.193,1.769-3.6a4.759,4.759,0,0,1,2.384-.687,3.7,3.7,0,0,1,0,3.6,11.182,11.182,0,0,1-3.153,2.3s-7.307,6.143-12.382,5.981c-4.241-.134.433-16.412,2.083-21.759" transform="translate(-1179.682 -832.655)"/><path class="u" d="M1370.038,1252.457a9.858,9.858,0,0,0,.361-1.819,14.519,14.519,0,0,0,7.729.97,11.8,11.8,0,0,1,.043,3.576c-4.153,1.172-8.757-1.394-8.757-1.394a10.707,10.707,0,0,0,.625-1.334" transform="translate(-1076.448 -969.438)"/><path class="v" d="M1398.28,1091.144c.166.425.89.8,1.931,1.073l.3.074a16.759,16.759,0,0,0,8.845-.5c3.078-1.2,5.312-18.3,6.261-27.068.014-.135.029-.265.042-.4.3-2.837.465-4.7.465-4.7s-1.768-2.909-8.614-1.94-7.536,3.395-8.151,7.76-1.615,24.327-1.077,25.7" transform="translate(-1099.019 -819.713)"/><path class="w" d="M1409.26,1100.781a16.758,16.758,0,0,0,8.845-.5c3.078-1.2,5.312-18.3,6.261-27.068.015-.135.029-.266.042-.4-.7-2.541-1.225-4.165-1.225-4.165s-8.594-1.09-10.267,1.637c-1.462,2.384-3.232,24.866-3.656,30.493" transform="translate(-1107.77 -828.203)"/><path class="t" d="M1385.851,1086.14a4.886,4.886,0,0,0,1.177-1.768c1.563-4.08,3.365-12.017,3.961-13.477.216-.531.632-3.037,1.176-6.266.977-5.793,2.367-13.914,3.76-17.131a2.372,2.372,0,0,1,1.274-.989,21.175,21.175,0,0,1,5-1.165c.673-.567,1.6-3,1.59-6.711l.3.063,5.07,1.055s-.115,1.677-.119,3.257c0,1.317.072,2.564.356,2.722.365.035.58.057.58.057s4.227,6.171,4.583,11.91-3.385,8.232.028,19.7c3.485,11.713-20.2,4.327-18.9,1.261,2.354-5.548,3.48-7.118,3.52-8.863.028-1.226-.481-2.541-1.477-5.38-.088.341-.175.68-.261,1.013-.564,2.2-1.047,4.167-1.244,5.149-.6,3.016-7.253,14.609-7.253,14.609h0s-.2.141-.436.847-2.116,4.447-2.922,4.447-.974-1.27-1.142-2.082.739-1.835,1.377-2.258" transform="translate(-1088.271 -805.101)"/><path class="x" d="M1439.642,970.243c1.125-.724,2.921.141,2.921.141-.621-.918-2.887-.618-2.887-.618,4.526-1.012,5.461,2.037,5.535,2.308,3.275-3.106,8.517,3.515,8.517,3.515L1446.2,986.07s-.687-1.667-1.593-1.147c-1.414.811-4.147-2.473-3.274-6.793a11.976,11.976,0,0,1,.334-1.285,2.339,2.339,0,0,1-.938.244c-.823,0-2.065-2.206-2.233-2.947s.017-3.176,1.141-3.9" transform="translate(-1130.713 -751.56)"/><path class="y" d="M1481.3,1039.967s-.115,1.677-.119,3.257c-2.837-.084-4.337-2.8-4.952-4.312Z" transform="translate(-1160.414 -805.317)"/><path class="x" d="M1466.85,998.583a16.072,16.072,0,0,1-1.844-4.581c-.255-1.507.476-7.095,5.818-6.29a7.029,7.029,0,0,1,3.01,1.2c1.159.823,2.834,2.6.962,7.476l-.486,1.647Z" transform="translate(-1151.556 -765.569)"/><path class="t" d="M1479.4,1009.215s-6.713.116-6.718-4.278-.874-7.34,3.412-7.6,5.12,1.416,5.461,2.882-.409,8.852-2.156,9" transform="translate(-1157.566 -773.07)"/><path class="z" d="M1459.189,1274.954a72.032,72.032,0,0,0,4.231,12.474l2.214-.161a69.027,69.027,0,0,1-1.023-12.762,55.931,55.931,0,0,1,2.574-16.972c6.624-19.882,5.553-34.352,5.553-34.352l-12.456,1.531-.58.072c-.052,6.012-.2,14.175-.329,20.559-.114,5.741-.214,10.041-.214,10.041-2.395,5.421-1.525,13.072.03,19.571" transform="translate(-1145.827 -948.154)"/><path class="y" d="M1442.359,1139.115c1.258,3.652,1.906,5.142,1.875,6.523a17.022,17.022,0,0,1,11.253-7.511l-13.755-1.652a14.162,14.162,0,0,0,.627,2.64" transform="translate(-1133.295 -880.944)"/><path class="l" d="M1430.7,1264.322a33.318,33.318,0,0,0,3.87,13.228l1.057.809s1-5.66,1.709-12.394c.675-6.4,1.6-13.173,2.646-15.24,4.154-8.2,5.4-39.147,5.4-39.147l-12.629-.658c-1.27,2.244-1.823,5.925-1.955,10.11-.332,10.563,2.03,24.335,2.383,26.327a.008.008,0,0,0,0,0,.722.722,0,0,1-.083.445c-2.512,5.228-2.876,11.208-2.4,16.515" transform="translate(-1124.485 -938.649)"/><path class="x" d="M1466.563,1000.333c-2.821.762-4.044-.032-4.044-.032a7.657,7.657,0,0,1,2.612-4.96c3.485-2.824,5.885-1.247,6.033-1.014.439-.4,1.224-.688,2.262.634,1.556,1.983.172,5.487.172,5.487-.639.078-.789-2.226-1.124-3.345a5.5,5.5,0,0,0-1.464-2.05c-.131.509-1.483,5.444-4.857,7.083a16.279,16.279,0,0,0,2.7-3.46,4.8,4.8,0,0,1-2.285,1.657" transform="translate(-1149.635 -770.254)"/><path class="m" d="M1420.113,1106.432a3.3,3.3,0,0,0,.079,1.061c.269.889,1.192,1.294,3.422,1.051,1.364-.149,1.972-2.551,2.243-4.6q1.228,4.4,3.448,4.922c2.163.506,13.073,1.9,13.787-3.551.786-6-1.566-16.611-1.7-22.335a29.733,29.733,0,0,0,.4-5.3c-.091-4.077-1.229-6.363-2.105-7.283a2.894,2.894,0,0,0-1.492-.5c-.509-.091-1.213-.2-2.212-.335a3.513,3.513,0,0,0-.4-.032c.185.347,2.656,4.279,2.463,5.29-.2,1.059-8.965.106-9.57-.476s-1.561-5.041-1.561-5.041-3.1.357-4.621,1.517l.016.021a1.326,1.326,0,0,0-.4.441c-1.62,3.241-3.237,11.419-4.374,17.254a7.732,7.732,0,0,0,5.913.91c-.977,6.719-3.193,13.933-3.338,16.994" transform="translate(-1114.277 -828.869)"/><path class="v" d="M1503.752,1070.449l.014.024c.3.495,4.953,8.316,5.4,13.4a29.722,29.722,0,0,0,.4-5.3c-.6-1.921-2.052-6.19-3.6-7.787a9.791,9.791,0,0,0-2.213-.335" transform="translate(-1182.047 -829.763)"/><path class="m" d="M1555.489,1124.947l1.954-6.168a.193.193,0,0,1,.246-.13l3.078,1.077a.208.208,0,0,1,.123.259l-1.954,6.168a.193.193,0,0,1-.246.13l-3.078-1.077a.208.208,0,0,1-.123-.259" transform="translate(-1222.708 -867.118)"/><path class="aa" d="M1558.753,1125.963l1.859-5.867a.343.343,0,0,1,.437-.23l2.792.977a.368.368,0,0,1,.219.459l-1.859,5.867a.342.342,0,0,1-.437.23l-2.792-.977a.367.367,0,0,1-.218-.459" transform="translate(-1225.267 -868.055)"/><path class="t" d="M1431.353,1448.426a33.317,33.317,0,0,0,3.87,13.228l1.076,1.031s.982-5.882,1.69-12.616a10.876,10.876,0,0,1-6.636-1.643" transform="translate(-1125.137 -1122.754)"/><path class="t" d="M1464.756,1451.895a72.032,72.032,0,0,0,4.231,12.474l2.214-.161a69.027,69.027,0,0,1-1.023-12.762c-.751.4-2.3.8-5.422.449" transform="translate(-1151.394 -1125.095)"/><path class="x" d="M1474.354,1499.034h1.413c.473-.079.823-.222,1.308-.289a1.268,1.268,0,0,1,1.144.289l.013.015h6c.151-.226.006-.751-.136-1.138a.871.871,0,0,0-.562-.54,6.325,6.325,0,0,1-3.041-1.46c-.647-.614-3.123-2.259-3.123-2.259l-.013,0c-.054,0-.313.085-1.439,1.084-.583.516-1.574-.728-1.574-.728a1.478,1.478,0,0,0-.325.464,1.641,1.641,0,0,0-.129.969,6.554,6.554,0,0,1-.43,2.34c-.14.433-.258.74-.258.74s-.068.357,1.148.517" transform="translate(-1158.035 -1157.809)"/><path class="v" d="M1477.027,1494.469a4.4,4.4,0,0,0,1.522.807c.637.088,1.83-1.623,1.83-1.623l-.013,0c-.054,0-.313.084-1.439,1.084-.583.516-1.574-.729-1.574-.729a1.478,1.478,0,0,0-.326.464" transform="translate(-1161.039 -1157.808)"/><path class="v" d="M1474.354,1513.265h1.413c.473-.078.823-.222,1.308-.289a1.269,1.269,0,0,1,1.144.289l.013.015h6c.151-.226.006-.752-.136-1.138-.183-.17-.234.74-.334.885a25.481,25.481,0,0,1-5.175-.159,2.78,2.78,0,0,0-2.266-.291,5.236,5.236,0,0,1-2.862-.568c-.14.433-.258.74-.258.74s-.068.357,1.148.517" transform="translate(-1158.035 -1172.039)"/><path class="x" d="M1439.1,1499.034h1.413c.473-.079.823-.222,1.309-.289a1.268,1.268,0,0,1,1.144.289l.014.015h6c.151-.226.006-.751-.136-1.138a.87.87,0,0,0-.562-.54,6.327,6.327,0,0,1-3.041-1.46c-.647-.614-3.123-2.259-3.123-2.259l-.013,0c-.054,0-.313.085-1.439,1.084-.583.516-1.574-.728-1.574-.728a1.477,1.477,0,0,0-.326.464,1.639,1.639,0,0,0-.129.969,6.561,6.561,0,0,1-.43,2.34c-.14.433-.258.74-.258.74s-.068.357,1.148.517" transform="translate(-1130.325 -1157.809)"/><path class="v" d="M1441.774,1494.469a4.4,4.4,0,0,0,1.522.807c.638.088,1.83-1.623,1.83-1.623l-.013,0c-.054,0-.313.084-1.439,1.084-.582.516-1.574-.729-1.574-.729a1.475,1.475,0,0,0-.325.464" transform="translate(-1133.328 -1157.808)"/><path class="v" d="M1439.1,1513.265h1.413c.473-.078.823-.222,1.309-.289a1.269,1.269,0,0,1,1.144.289l.014.015h6c.151-.226.006-.752-.136-1.138-.182-.17-.234.74-.334.885a25.48,25.48,0,0,1-5.174-.159,2.781,2.781,0,0,0-2.267-.291,5.234,5.234,0,0,1-2.862-.568c-.14.433-.258.74-.258.74s-.068.357,1.148.517" transform="translate(-1130.325 -1172.039)"/><g class="ab" transform="translate(305.835 254.251)"><g class="ac"><path class="aa" d="M1429.573,1154.093c1.5-.526,3.421-1.925,5.731-5.062,6.114-8.3.519-18.065-.231-18.247s-2.162,6.314-2.162,6.314c-.977,6.719-3.193,13.933-3.338,16.994" transform="translate(-1429.572 -1130.78)"/></g></g><path class="v" d="M1436.816,1066.631a18.473,18.473,0,0,1,6.614,13.74c.461,9.336-7.536,11.235-7.536,11.235l.519-2.95a8.272,8.272,0,0,0,4.787-9.9,21.854,21.854,0,0,0-6.768-11.478Z" transform="translate(-1127.557 -826.804)"/><path class="t" d="M1573.947,1127.16s-.577-1.253-1.634-.747-.6,2.4.019,3.072a6.468,6.468,0,0,1,.788.97Z" transform="translate(-1235.445 -873.051)"/><path class="ad" d="M557.751,1185.3s1.017,1.22.423,1.98a1.913,1.913,0,0,1-2.653.687c-1-.727-1.269-3.435-.692-3.435a20.4,20.4,0,0,1,2.923.768" transform="translate(-435.896 -918.194)"/><path class="z" d="M554.164,1136.72s2.923,10.022,2.307,11.478-2.606,1.188-3.725-.537,1.418-10.94,1.418-10.94" transform="translate(-434.27 -881.134)"/><path class="l" d="M523.437,1037.242s4.505.857,6.176,2.613,5.613,6.937,3.133,24.209a6.073,6.073,0,0,1-5.769,5.707c-5.57.5-3.541-32.529-3.541-32.529" transform="translate(-411.172 -804.023)"/><path class="t" d="M513.614,1019.393a12.737,12.737,0,0,1-.013-2.211h0c.03-.371.066-.59.066-.59l-.066-.022-5.411-1.733-.134-.042c-.08,1.851-.182,3.222-.291,4.241a16.113,16.113,0,0,1-.363,2.277h6.58a9.784,9.784,0,0,1-.368-1.918" transform="translate(-398.851 -786.621)"/><path class="w" d="M496.065,959.845s-.621-9.315-12.131-5.788c-2.611.8-2.272,9.087,4.053,12.243Z" transform="translate(-379.199 -738.923)"/><path class="t" d="M476.218,1187.438c.775,5.668,5.972,20.4,5.821,25.492-.12,4.013-.057,13.282.447,19.44a39.787,39.787,0,0,0,.51,4.158c.447,2.271,1.02,4.887,1.329,6.535.687,3.7.328,5.86.888,7.846.617,2.172,7.7,1.775,5.569.457a6.471,6.471,0,0,1-2.419-2.761c-1.991-4.688.8-24.9,1.632-32.7.107-.973.183-1.748.214-2.278.277-4.813,3.421-36.882,3.421-36.882-7.635-4.463-18.182,5.021-17.413,10.688" transform="translate(-374.307 -911.265)"/><path class="ad" d="M476.219,1187.4c.775,5.668,5.972,20.4,5.821,25.492-.12,4.013-.057,13.282.447,19.44l7.51-16.46c.107-.973.183-1.748.214-2.278.277-4.813,3.5-36.894,3.5-36.894-7.636-4.463-18.261,5.033-17.492,10.7" transform="translate(-374.308 -911.227)"/><path class="t" d="M488.766,1177.278s-6.558,31.681-7.3,36.438-6.717,27.153-5.415,32.765c.768,3.311,2.107,4.29,2.107,4.29.315.607-4.872,1.813-5.291-.51-.532-2.949-.644-7.089-1.423-14.108-1.342-12.084,1.319-18.961,1.964-24.011s-2.166-21.1-.606-26.59c2.73-9.6,8.81-13.537,15.967-8.274" transform="translate(-370.29 -910.751)"/><path class="l" d="M470,1206.809s1.707.278,4.221.464l1.367-5.761.479,5.866c4.038.172,9.311-.04,13.2-1.728l-.838-29.008a20.969,20.969,0,0,1-12.4-1.174s-8.807,7.228-6.025,31.34" transform="translate(-369.02 -911.17)"/><path class="z" d="M465.794,1479.056a51.093,51.093,0,0,1,.386,6.055h.556l.051-4.411c.04.053.078.1.112.141.5.582,1.149,3.415,1.633,4.271h6.151a.627.627,0,0,0-.085-.536v0a2.879,2.879,0,0,0-.98-.823,10.651,10.651,0,0,1-3.926-.2c-.821-.216-2.21-7.883-2.21-7.883s-1.936,1.238-2.151,1.8a2.852,2.852,0,0,0,.464,1.583" transform="translate(-365.761 -1143.871)"/><path class="z" d="M504.753,1479.414c.222,1.6.3,3.967.323,5.158v0c0,.226.007.408.009.537h.556l.049-4.246c.494.627,1.139,3.4,1.615,4.246h6.151c.234-.7-1.064-1.362-1.064-1.362a10.65,10.65,0,0,1-3.926-.2c-.821-.216-2.21-7.883-2.21-7.883s-1.936,1.238-2.151,1.8a3.654,3.654,0,0,0,.65,1.942" transform="translate(-396.239 -1143.871)"/><path class="ae" d="M495.394,1070.208s5.171,3.751,12.981,1.007c0,0,2.669-9.594,1.828-18.831-.565-6.2-3.91-11.077-6.4-13-.392.365-1.08,1-6.18-.3,0,0-2.339,1.031-2.756,1.981-.888,2.029,2.093,25.114.523,29.144" transform="translate(-388.868 -805.45)"/><path class="l" d="M486.757,1073.241c2.306.5,4.082-1.212,6.81-2.033a9.226,9.226,0,0,0,2.312-1c2.438-1.576,3.623-13.243,3.2-17.659s-7.923-13.466-7.923-13.466c-1.732,1.351-2.056,4.494-3.1,8.619-2.5,9.926-1.3,25.539-1.3,25.539" transform="translate(-382.398 -805.45)"/><path class="z" d="M486.757,1102.955a8.283,8.283,0,0,0,6.81-2.033,14.922,14.922,0,0,0,2.23-5.555c1.241-6.436-3.654-13.421-7.736-17.95-2.5,9.925-1.3,25.539-1.3,25.539" transform="translate(-382.398 -835.164)"/><path class="y" d="M511.085,1014.982c.617,1.086,2.564,4.089,5.424,4.557a12.746,12.746,0,0,1-.013-2.211h0c.03-.371.066-.59.066-.59l-.066-.022Z" transform="translate(-401.746 -786.768)"/><path class="t" d="M512.878,984.387s-6.717,1.418-7.493-2.992-2.165-7.2,2.091-8.289,5.388.429,5.987,1.835,1.142,8.964-.585,9.447" transform="translate(-396.597 -754.018)"/><path class="w" d="M494.5,969a5.544,5.544,0,0,1,6.538-2.078,9.065,9.065,0,0,1,1.28-.1c4.385-.107,3.173,5.216,3.173,5.216a3.613,3.613,0,0,0-2.926-3.716l-.1-.029c.245.935.159,2.435-1.99,3.852-3.465,2.286-3.2,6.859-2.278,8.146,0,0-6.9-7.074-3.7-11.29" transform="translate(-388.045 -749.251)"/><path class="x" d="M554.917,1200.947c.546-2.431,1.164-3.7,1.889-3.874a.71.71,0,0,1,.6.142c.562.422,1.038,1.717,1.454,3.958.3,1.61.451,3.128.452,3.143l-.459.05c0-.015-.151-1.512-.446-3.1-.508-2.733-1.013-3.464-1.269-3.656a.26.26,0,0,0-.233-.064c-.978.237-1.826,4.362-2.13,6.907l-.458-.06c0-.017.208-1.72.6-3.446" transform="translate(-435.732 -927.902)"/><path class="x" d="M531.92,1235.816l1-7a2.941,2.941,0,0,1,2.859-2.586H542.9a1.194,1.194,0,0,1,1.163,1.223V1236a1.194,1.194,0,0,1-1.163,1.222H533.07a1.2,1.2,0,0,1-1.15-1.4" transform="translate(-418.114 -950.516)"/><path class="w" d="M550.042,1226.229h6.264a1.267,1.267,0,0,1,1.226,1.062l1.551,8.367a1.3,1.3,0,0,1-1.226,1.564h-6.7a1.271,1.271,0,0,1-1.237-1.131l-1.112-8.367a1.292,1.292,0,0,1,1.237-1.494" transform="translate(-431.387 -950.517)"/><path class="af" d="M545.785,1193.768s2.9.8,3.075,1.431a2.056,2.056,0,0,1-2.468,2.008c-1.643-.418-2.955-2.476-2.955-2.476Z" transform="translate(-427.177 -925.354)"/><path class="l" d="M482.919,1039.083a8.811,8.811,0,0,0-6.328,5.054c-2.047,4.469,1.762,20.43,2.313,21.507s6.948,9.682,12.382,10.427c0,0,2.309-.856,2.23-2.263,0,0-8.906-9.264-9.536-10.588s.249-15.854.171-17.758a47.3,47.3,0,0,0-1.231-6.378" transform="translate(-374.16 -805.45)"/><path class="t" d="M956.437,1058.5c.087-2.334,3.086-3.486,3.086-3.486,1.461-.929,1.376-11.816,1.911-18.227a33.246,33.246,0,0,1,.45-3.645c.857-4.052,1.117-18.386,3.687-20.638s8.54-3.2,8.54-3.2-1.922,10.816-4.019,22.113c-2.278,12.28-7.825,24.017-8.306,24.477l-.005,0a9.906,9.906,0,0,1-2.518,3.148c-.865.606-.4,1.818-1.442,1.94-1.377.161-1.429-1.268-1.384-2.486" transform="translate(-751.814 -782.367)"/><path class="t" d="M1038.6,985.829l0,.887a3.049,3.049,0,0,0,3.021,3.18c3.25.406,5.713-1.082,5.625-3.223a26.32,26.32,0,0,1-.636-4.167,10.178,10.178,0,0,1,.116-1.661l-6.3-.132-1.855.319Z" transform="translate(-816.39 -760.203)"/><path class="y" d="M1038.578,981.031l.024,4.8a5.111,5.111,0,0,0,2.27.527c2.895,0,4.766-2.231,5.744-3.85a10.138,10.138,0,0,1,.116-1.661l-6.3-.132Z" transform="translate(-816.39 -760.203)"/><path class="t" d="M1031.739,944.256s8.067,1.713,9-3.583,2.61-8.642-2.5-9.959-6.472.507-7.194,2.2-1.384,10.765.691,11.347" transform="translate(-809.918 -721.097)"/><path class="ag" d="M992.509,1009.305s-1.108,6.233-2.559,14.179c-.46,2.521-.955,5.213-1.46,7.935-2.054,4.232-3.818,7.11-4.362,6.568-1.111-1.1-3.061-1.239-4.3-1.2a33.234,33.234,0,0,1,.45-3.645c.068-.32.131-.7.193-1.142.719-5.1,1.126-17.423,3.494-19.5,2.57-2.251,8.54-3.2,8.54-3.2" transform="translate(-770.212 -782.367)"/><path class="ah" d="M984.128,1062.361c-1.111-1.1-3.061-1.239-4.3-1.2a33.229,33.229,0,0,1,.45-3.645c.068-.32.131-.7.193-1.141l6.16-15.627s-1.962,22.153-2.507,21.611" transform="translate(-770.212 -806.742)"/><path class="x" d="M1064.509,1501.016a16.913,16.913,0,0,1,1.032-4c.7-1.467,5.141-.534,5.141-.534s.888.8,1.079,4.536Z" transform="translate(-836.774 -1159.776)"/><path class="x" d="M943.374,1491.227c1.044-.67.439-5.529.439-5.529s-4.864-4.09-5.533-.959-4.621,4.537-6.87,4.921c-1.553.265-1.654,1.032-1.8,1.567Z" transform="translate(-730.731 -1149.987)"/><path class="w" d="M980.115,1225.22a24.681,24.681,0,0,0-.357,2.761c-.452,9.27-7.424,30.465-8.672,30.959-1.93.765-4.968-.861-6.558-1.394a1.439,1.439,0,0,1-.956-1.628c3.453-16.683,4.722-40.705,5.183-54.928a67.631,67.631,0,0,1,1.4-12.112s17.005-4.769,17.106,1.264c.089,5.338-5.633,26.272-7.149,35.077" transform="translate(-757.408 -920.178)"/><path class="x" d="M999.264,1225.22l-11.36-24.229a67.631,67.631,0,0,1,1.4-12.112s17-4.769,17.106,1.264c.089,5.338-5.633,26.272-7.149,35.077" transform="translate(-776.557 -920.178)"/><path class="w" d="M1023.318,1193.252l8.99,68.477a16.759,16.759,0,0,0,7.018.2s2.632-36.419,2.413-45.223,1.889-23.56-.481-25.187-17.939,1.734-17.939,1.734" transform="translate(-804.395 -923.266)"/><path class="ai" d="M1017.719,1050.613a1.383,1.383,0,0,1-1.322,1.467l-14.166.227-10.405.167c-.487.009,1.053-4.088,1.084-30.8.008-5.961,8.789-12.375,8.95-12.375l0,0c0,.858,1.287,2.443,3.27,2.579,2.353.162,5.241-1.068,5.241-2.493a6.6,6.6,0,0,1,.713.967c1.175,1.8,3.541,6.185,5.052,13.821,1.193,6.03.734,14.092,1.592,24.495.063.751-.03,1.419-.011,1.945" transform="translate(-779.564 -782.36)"/><path class="ag" d="M1017.2,1052.163a27.827,27.827,0,0,1-5.405,1.653,50.777,50.777,0,0,1-10.473,1.106c-6.886.046-9.493-2.448-9.493-2.448-.488.009,1.053-4.088,1.084-30.8.008-5.961,8.789-12.375,8.95-12.375l0,0s-.226,7.938,2.059,10.272c0,0,3.2-2.6,7.362-10.005,1.175,1.8,3.344,6.972,4.855,14.608a43.353,43.353,0,0,1,.644,5.07c.4,5.269.311,11.7.949,19.425.063.751-.03,1.419-.012,1.945.03.793.232,1.538-.523,1.55" transform="translate(-779.565 -782.361)"/><path class="ah" d="M1080.957,1103.679a27.814,27.814,0,0,1-5.405,1.653,20.177,20.177,0,0,1-2.7-10.033c-.328-8.543,7.394-19.544,7.394-19.544l.294,5c.4,5.269.311,11.7.949,19.425.063.751-.03,1.419-.011,1.945.029.793.232,1.538-.523,1.55" transform="translate(-843.325 -833.877)"/><path class="l" d="M1011.872,1063.693l10.139-6.152a1.7,1.7,0,0,1,2.383.671l8.678,15.8a1.885,1.885,0,0,1-.639,2.5l-10.139,6.153a1.7,1.7,0,0,1-2.383-.671l-8.678-15.8a1.885,1.885,0,0,1,.639-2.5" transform="translate(-794.711 -819.567)"/><path class="t" d="M1022.485,1035.281c.231-.667,2.5-1.534,3.281-1.534s2.77,1.954,2.817,2c.571-.028,6.178-.311,10.345-.952a25.054,25.054,0,0,0,2.867-.58c.956-.269-3.788-12.9-6.181-20.335-.571-1.773-1.008-3.25-1.2-4.191,0,0,.418.071,1.075.207,1.863.387,5.649,1.295,7.26,2.575,2.18,1.732,7.622,21.265,4.284,28.815a38.677,38.677,0,0,1-7.3-.221,67.209,67.209,0,0,1-12.565-2.65,1.784,1.784,0,0,1-.334,0,27.866,27.866,0,0,1-4.02-1c-.647-.267-.555-1.467-.323-2.134" transform="translate(-803.603 -782.663)"/><path class="ag" d="M1094.834,1041.908a38.677,38.677,0,0,1-7.3-.221,9.591,9.591,0,0,0-.8-6.269,25.2,25.2,0,0,0,2.867-.58c.956-.269-3.788-12.9-6.181-20.336-.191-2.4-.292-4.01-.292-4.01l.165.026c1.863.386,5.649,1.295,7.26,2.575,2.18,1.732,7.621,21.265,4.284,28.815" transform="translate(-851.407 -783.287)"/><path class="ah" d="M1048.713,1016.818s6.41-2.968,6.505-3.2a5.533,5.533,0,0,0-.762-2.568s3.078.3,3.269-.1a28.53,28.53,0,0,0,.254-3.735,4.849,4.849,0,0,0-2.792-1.468s-1.389,3.62-1.9,4.7a33.256,33.256,0,0,1-4.569,6.37" transform="translate(-824.357 -779.608)"/><path class="ah" d="M1029.284,1011a23.39,23.39,0,0,0,1.523,5.87s-3.348-2.451-3.633-3.251.809-2.351.809-2.351-2-.05-2.047-.75a23.6,23.6,0,0,1,.619-3.452s1.635-1.3,2.111-1.252Z" transform="translate(-806.451 -779.655)"/><path class="x" d="M1026.114,918.348a16.244,16.244,0,0,0,4.9-1.394c2.153-.984,4.87.1,5.752.588a1.423,1.423,0,0,0-.215-.558,1.242,1.242,0,0,1,.454.708c.041.031.059.053.048.061a1.447,1.447,0,0,1,.737.05s-.2-.03-.274.106a.131.131,0,0,1-.032.037c3.359,1.706,3.669,7.285,2.588,8.577a28.718,28.718,0,0,0-2.86,5.051,3.12,3.12,0,0,1-.332-2.193c.236-1.367-.887-1.367-2.306-1.988s-.237-2.361-1.478-3.417-5.794-.435-5.734-1.242c-1.69-.647-1.252-4.2-1.252-4.385" transform="translate(-806.552 -710.471)"/><path class="aj" d="M1060.129,1109.031a.89.89,0,1,1-.846.889.868.868,0,0,1,.846-.889" transform="translate(-832.665 -859.67)"/><path class="aa" d="M884.593,1498.421a2.367,2.367,0,0,1-1.162,3.047,2.17,2.17,0,0,1-2.9-1.221,2.367,2.367,0,0,1,1.161-3.047,2.17,2.17,0,0,1,2.9,1.221" transform="translate(-692.016 -1160.415)"/><path class="m" d="M885.535,1498.421a2.367,2.367,0,0,1-1.161,3.047,2.17,2.17,0,0,1-2.9-1.221,2.367,2.367,0,0,1,1.161-3.047,2.17,2.17,0,0,1,2.9,1.221" transform="translate(-692.756 -1160.415)"/><path class="aa" d="M967.455,1498.421a2.367,2.367,0,0,1-1.162,3.047,2.17,2.17,0,0,1-2.9-1.221,2.367,2.367,0,0,1,1.161-3.047,2.17,2.17,0,0,1,2.9,1.221" transform="translate(-757.151 -1160.415)"/><path class="m" d="M968.4,1498.421a2.367,2.367,0,0,1-1.161,3.047,2.17,2.17,0,0,1-2.9-1.221,2.367,2.367,0,0,1,1.161-3.047,2.17,2.17,0,0,1,2.9,1.221" transform="translate(-757.891 -1160.415)"/><path class="aa" d="M878.822,1494.293l3.14,1.185a2.718,2.718,0,0,0,.991.176l17.82-.192,1.945-3.39Z" transform="translate(-690.811 -1156.587)"/><path class="aa" d="M922.594,1225.838a5.667,5.667,0,0,1,5.772-5.089l3.723-.413a3.861,3.861,0,0,1,3.023.64,4.029,4.029,0,0,1,1.331,3.107c.089,1.819-2.086,13.584-3.081,18.843l6.664,1.4s2.8,1.2,2.248,6.363c-.489,4.544-2.635,30.043-2.635,30.043s-.448,5.306-11.231,3.767l2-42.193,2.02.424c1.3-6.861,3.138-17.055,3.063-18.6a3.079,3.079,0,0,0-.952-2.358,2.987,2.987,0,0,0-2.275-.457l-3.818.426-.038,0a4.656,4.656,0,0,0-4.869,4.2l0,.026-3.178,18.319-.937-.18Z" transform="translate(-722.727 -945.89)"/><path class="m" d="M887.062,1325.14l-2.586,28.555a6.633,6.633,0,0,1-1.094,3.107,6.055,6.055,0,0,1-4.98,2.734l-8.919.058-.221,0-5.586.036a5.875,5.875,0,0,1-1.618-.215c-.121-.033-.239-.07-.356-.111a6.35,6.35,0,0,1-3.972-4.362,6.743,6.743,0,0,1-.158-2.757l4.05-27.322a6.281,6.281,0,0,1,5.482-5.43l1.575-.158.375-.037h0l.316-.031,5.266-.529.646-.065,5.082-.51a5.858,5.858,0,0,1,2.287.221c.047.014.094.029.141.046l.294.105a6.481,6.481,0,0,1,3.974,6.664" transform="translate(-674.049 -1021.712)"/><g class="ab" transform="translate(183.459 331.799)"><g class="ak"><path class="aa" d="M883.421,1478.968a6.055,6.055,0,0,1-4.98,2.734l-8.919.058-.221,0-5.586.036a5.883,5.883,0,0,1-1.618-.214c-.121-.033-.239-.071-.356-.111a6.789,6.789,0,0,1-4.194-5.744s18.866-.26,22.81.38a3.879,3.879,0,0,1,3.064,2.859" transform="translate(-857.548 -1475.677)"/></g></g><path class="aa" d="M869.069,1358.626c.154-1.151,3.775-28.181,4.337-30.59.493-2.111,3.409-4.215,4.354-4.849l.376-.037h0l.316-.031c-.039.025-4.176,2.674-4.72,5-.559,2.393-4.294,30.273-4.331,30.555a6.644,6.644,0,0,0,2.02,4.724l-.283-.072c-.121-.033-.239-.07-.356-.111a5.988,5.988,0,0,1-1.714-4.59" transform="translate(-683.13 -1025.62)"/><path class="aa" d="M912.672,1326.01a8.881,8.881,0,0,1,3.037-5.47l.647-.065a8.485,8.485,0,0,0-3.352,5.587c-.568,3.928-2.789,32.463-2.811,32.751v.021l-.006.019a3.307,3.307,0,0,0,.592,2.6l-.224,0-.221,0a3.185,3.185,0,0,1-.475-2.692c.069-.882,2.249-28.858,2.813-32.755" transform="translate(-715.12 -1023.573)"/><path class="aa" d="M950.746,1324.853a8.084,8.084,0,0,1,3.338-5.663c.047.014.094.029.141.045l.294.106a7.066,7.066,0,0,0-1.617,1.4,8.237,8.237,0,0,0-1.822,4.162c-.568,3.926-2.329,32.366-2.347,32.652v.022l-.006.02a4.488,4.488,0,0,0,.832,2.8l-.562,0a4.8,4.8,0,0,1-.6-2.89c.057-.909,1.784-28.766,2.348-32.663" transform="translate(-745.479 -1022.576)"/><path class="x" d="M190.208,1469.856c.429,1.521,2.414,2.537,2.681,4.4a3.4,3.4,0,0,0,1.651,2.723h5.325c.126-.354.287-1.238-1.07-1.551-1.718-.4-2.364-2.583-2.257-4.612.045-.852.023-1.821-.016-2.66-.054-1.163-.144-2.075-.144-2.075l-3.649-.9-.382.518-.368.5s-2.2,2.143-1.77,3.666" transform="translate(-149.472 -1135.737)"/><path class="x" d="M324.6,1494.112H337.13a2.166,2.166,0,0,0-1.909-1.449c-1.924-.326-5.256-1.5-6-4.087-.023-.083-.045-.167-.063-.254-.59-2.763-4.881.846-4.881.846s-.013.11-.031.3c-.1.967-.332,4.005.357,4.648" transform="translate(-254.787 -1152.872)"/><path class="w" d="M306.673,1185.248s-.652,8.547-1.418,18.821c-1.041,13.957-2.293,31.1-2.417,34.348-.214,5.64-1.074,14.661-1.074,14.661s-2.038,2.143-6.116,1.24a154.242,154.242,0,0,1-4.672-26.5c-.016-.223-.032-.448-.048-.673-.966-13.87-2.467-43.078-2.467-43.078Z" transform="translate(-226.749 -917.832)"/><path class="x" d="M306.673,1185.248s-.652,8.547-1.418,18.821l-14.279,23.746c-.016-.223-.032-.448-.048-.673-.966-13.87-2.467-43.078-2.467-43.078Z" transform="translate(-226.749 -917.832)"/><path class="w" d="M233.127,1174.6s-11.749,30.955-19.474,45.5-10.14,18.607-10.14,18.607-4.426-1.861-4.828-3.13c0,0,2.954-28.084,8.128-34.93,2.923-3.869,6.357-15.478,6.518-19.537s1.046-12.094,1.046-12.094Z" transform="translate(-156.179 -906.171)"/><path class="al" d="M407.227,1155.838l.672,1.407s3.415.5,2.475,4.243c0,0-.506,1.54-1.448,1.052s-.478-.446-1.827-1.1a2.841,2.841,0,0,1-1.829-3.07l-.216-1.224Z" transform="translate(-318.398 -895.953)"/><path class="am" d="M296.847,946.13a38.091,38.091,0,0,0,.538-5.163l-5.961-5.049c.221,6.943-4.012,10.281-4.012,10.281s7.944,4.11,12.535,2.587a11.165,11.165,0,0,0-3.1-2.656" transform="translate(-225.925 -725.481)"/><path class="al" d="M307.262,912.406s-7.583,1.324-8.3-3.652-2.17-8.157,2.641-9.213,6.026.694,6.648,2.294.96,10.1-.995,10.57" transform="translate(-234.398 -697.034)"/><path class="x" d="M291.375,897.356a8.158,8.158,0,0,1,7.063-7.735c4.733-.733,1.867-4.889,1.326-5.548,0,0-3.618.725-7.321,1.58-7.772,1.793-1.889,10.712-1.067,11.7" transform="translate(-226.756 -685.293)"/><path class="an" d="M313.331,1034.8a13.649,13.649,0,0,0,1.766-2.516s-8.616-11.251-9.317-12.418-5.933-19.881-5.933-19.881l-13.233-2.817s11.046,23.95,12.875,26.87c3.024,4.825,12.07,12.006,12.07,12.006a5.42,5.42,0,0,0,1.771-1.243" transform="translate(-225.297 -772.956)"/><path class="ao" d="M290.977,1021.97a.722.722,0,0,1-.483.193c-1.724-.025-6.752.982-11.006.523a30.533,30.533,0,0,1-10.169-3.084c-.453-.213-1.495-.8-1.471-1.33.015-.582.07-1.427.139-2.49a139.985,139.985,0,0,0,.252-17.4c-.074-1.366-.113-2.721-.117-4.056-.035-9.945,1.823-18.83,5.594-21.791.322-.243,2.317.911,4.133,1.853a7.189,7.189,0,0,0,4.943.629l1.586,1.474a16.775,16.775,0,0,1,4.966,8.336c.782,3.31,1.241,9.279,1.495,15.465.115,2.8.207,5.631.231,8.313v.1c.022.266.022.557.022.822.093,6.886,0,12.346-.115,12.444" transform="translate(-210.546 -753.843)"/><path class="an" d="M268.5,1067.2a139.993,139.993,0,0,0,.252-17.4c-.074-1.366-.113-2.722-.117-4.056,1.571-4,2.855-6.908,2.855-6.908h3.959s2.9,20.836-6.948,28.361" transform="translate(-211.059 -805.264)"/><path class="aa" d="M124.068,1199.794l3.074-10.394a5.626,5.626,0,0,1,7.078-3.911l22.82,7.454a6.022,6.022,0,0,1,3.722,7.439l-3.074,10.394a5.625,5.625,0,0,1-7.078,3.911l-22.82-7.454a6.022,6.022,0,0,1-3.722-7.439" transform="translate(-97.326 -918.73)"/><path class="m" d="M109.846,1192.713l3.109-10.516a5.646,5.646,0,0,1,7.1-3.926l7.844,2.562.662-2.241a1.863,1.863,0,0,1,2.346-1.3l.448.146,4.081,1.333,2.286.747a1.892,1.892,0,0,1,1.1.965,2.041,2.041,0,0,1,.132,1.5l-.662,2.242,4.544,1.484a4.978,4.978,0,0,1,.509.2l.005,0,0,0,.024.011a6.079,6.079,0,0,1,3.194,7.256l-3.109,10.516a5.709,5.709,0,0,1-5.893,4.172h0a5.371,5.371,0,0,1-1.207-.246l-.011,0-22.77-7.437a6.043,6.043,0,0,1-3.735-7.466m27.33-8.851.662-2.242a.742.742,0,0,0-.46-.92l-2.221-.726-3.8-1.24-.8-.26a.661.661,0,0,0-.208-.034.7.7,0,0,0-.667.517l-.664,2.242Z" transform="translate(-86.145 -912.517)"/><path class="al" d="M215.693,1166.616l-.752,1.361a3.217,3.217,0,0,1-2.02,4.5s-1.5.4-1.631-.7.093-.664-.125-2.21.356-2.922,1.441-3.29l.856-.861Z" transform="translate(-165.953 -903.38)"/><path class="ao" d="M215.985,1020.319a12.35,12.35,0,0,0,2.971.174s4.232-13.741,4.777-15S236.3,989.385,236.3,989.385l-5.01-13.178s-13.008,22.836-14.328,26.045c-2.183,5.3-2.94,17.191-2.94,17.191a5.33,5.33,0,0,0,1.96.876" transform="translate(-168.238 -756.711)"/><path class="aa" d="M724.615,1493.947a2.686,2.686,0,0,0,.42,1.468h11.85a1.977,1.977,0,0,0-1.88-1.549c-1.869-.277-5.166-1.369-5.77-3.95s-4.567.893-4.567.893a20.4,20.4,0,0,0-.052,3.139" transform="translate(-569.561 -1154.174)"/><path class="aa" d="M674.515,1495.414h12.293a2.852,2.852,0,0,0-1.831-1.468,3.3,3.3,0,0,0-.39-.082c-1.872-.277-5.166-1.369-5.772-3.95s-4.567.893-4.567.893-.357,3.609.267,4.606" transform="translate(-529.923 -1154.174)"/><path class="w" d="M700.828,1207.358s.009.466.027,1.3c.111,5.407.55,26.31.967,37.965.017.424.032.834.047,1.233.008.21.016.423.024.632a132.363,132.363,0,0,0,1.712,15.563c.937,5.627,1.888,9.459,1.888,9.459a8.479,8.479,0,0,0,5.886-.667s.963-8.733,1.329-14.018c.12-1.715.708-7.567,1.446-14.686.572-5.505,1.234-11.768,1.841-17.464.032-.3.063-.607.1-.906.979-9.209,1.791-16.709,1.791-16.709l-6.315-.632Z" transform="translate(-550.896 -935.889)"/><path class="x" d="M703.7,1267.76l10.55-19.912c.572-5.505,1.234-11.768,1.84-17.464.032-.3.063-.607.1-.906.98-9.209,1.791-16.709,1.791-16.709l-6.315-.632-10.713.23Z" transform="translate(-550.995 -939.593)"/><path class="w" d="M693.711,1208.809s-5.9,30.668-10.713,45.469-4.87,18.913-4.87,18.913-4.414,1.005-6.358-.162c0,0-1.111-28.059,1.8-35.511,1.925-4.929,3.4-15.419,2.9-19.2s-.968-11.356-.968-11.356Z" transform="translate(-527.892 -935.584)"/><path class="t" d="M717.474,985.739l-6.564-1.946a28.661,28.661,0,0,0,1.5-5.855,9.17,9.17,0,0,0-.343-4.619c-.033-.079-.07-.157-.108-.232-.25-.491-.1-.716.236-.771a3.643,3.643,0,0,1,2.264.773,47.823,47.823,0,0,0,4.57,2.7l.008,0s.005.029.013.082v0c.021.134.061.416.1.809.184,1.84.34,6.119-1.678,9.051" transform="translate(-558.822 -753.685)"/><path class="m" d="M691.231,1066.118c1.4,1.038,3.594,1.413,6.015,1.374a31.489,31.489,0,0,0,8.46-1.448,19.286,19.286,0,0,0,3.348-1.354c3.738-2.05,3.208-4.776,3.118-14.983-.091-10.418-6.191-23.885-7.29-26.14-1.955-4.013-10.727-2.532-10.727-2.532-1.925.969-2.609,4.2-2.8,8.424-.208,4.69.2,10.6.2,16a63.862,63.862,0,0,1-1.383,11.668c-.755,4.245-1.144,7.355,1.059,9" transform="translate(-542.053 -791.253)"/><g class="ab" transform="translate(148.119 232.379)"><g class="ap"><path class="aa" d="M692.357,1067a50.034,50.034,0,0,0,7.074,10.369,31.476,31.476,0,0,0,8.46-1.448c1.053-2.649,1.514-7.071.541-14.371-.742-5.565-6.148-27.952-6.148-27.952-4.365-.6-7.079,1.9-8.74,5.738-.208,4.69.2,10.6.2,16A63.854,63.854,0,0,1,692.357,1067" transform="translate(-692.357 -1033.506)"/></g></g><path class="aq" d="M692.625,1243.685h3.963v-1.295a3.81,3.81,0,0,1,3.708-3.9h3.28a3.81,3.81,0,0,1,3.708,3.9v1.295h3.963a2.226,2.226,0,0,1,2.162,2.273v10.606a2.226,2.226,0,0,1-2.162,2.273H692.625a2.226,2.226,0,0,1-2.162-2.273v-10.606a2.226,2.226,0,0,1,2.162-2.273m13.188-1.295a2.3,2.3,0,0,0-2.238-2.352H700.3a2.3,2.3,0,0,0-2.238,2.352v1.295h7.755Z" transform="translate(-542.749 -960.023)"/><path class="af" d="M732.688,1223.052s2.283,4.627,1.141,6.427-5.218-.514-5.544-1.542,0-6,0-6Z" transform="translate(-572.366 -947.191)"/><path class="m" d="M703.752,1040.353s.849,12.734.838,18,3.978,19.28,3.978,19.28a26.369,26.369,0,0,0,3.675.082,4.124,4.124,0,0,0,1.9-.737s-.876-16.555.8-22.9,1.759-19.089,1.759-19.089-.928-2.751-6.486-1.883a7.3,7.3,0,0,0-6.465,7.246" transform="translate(-553.195 -800.686)"/><path class="m" d="M712.032,995.9s-1.5,4.97-1.2,5.859c0,0,8.114,1.148,11.406,4.521,0,0-1.07-4.844-2.387-6.055s-7.819-4.325-7.819-4.325" transform="translate(-558.729 -771.976)"/><path class="ad" d="M723.505,976.688h-.1c-.736-.006-5.322.01-6.609,1.155a.783.783,0,0,1-.132.1,9.171,9.171,0,0,0-.343-4.619c.047-.387.091-.733.128-1a3.643,3.643,0,0,1,2.264.773,47.829,47.829,0,0,0,4.571,2.7l.021.085v0Z" transform="translate(-563.075 -753.685)"/><path class="t" d="M728.975,945.053s-7.585,1.526-8.417-3.453-2.371-8.136,2.437-9.321,6.069.541,6.731,2.132,1.2,10.116-.751,10.642" transform="translate(-565.69 -722.356)"/><path class="x" d="M704.364,927.069s.394-.316-1.141-2.762-2.264-1.775-2.283-4.382-.942-4.172,1.937-5.869,2.42-3.269,4.147-3.645,4.239,1.12,5.72.8,6.125,6.036,3.151,7.539a4.531,4.531,0,0,1-2.352-.557c-.97-.629-4.53-1.264-4.946-.127s-2.671,8.12-4.232,9" transform="translate(-550.862 -705.661)"/><path class="x" d="M1215.055,1218.167s-5.389-2.578-9.466-.323-1.584,20.87,4.246,22.675c0,0,12.516,15.989,5.22-22.352" transform="translate(-946.094 -943.301)"/><path class="ar" d="M1300.894,1210.941a32.934,32.934,0,0,0-.251-6.125s1.831-.1,2.855,2.437c2.125,5.255,1.2,16.6,1.073,18.223a23.5,23.5,0,0,1-.354,8.8,9.866,9.866,0,0,0,.5,1.115.659.659,0,0,1,.053.072.688.688,0,0,1,.009.714l-.7,1.169a.631.631,0,0,1-.265.244.585.585,0,0,1-.109.041l-.869.216-.086-3.113s.007,0,.01,0c-.3-3.05-2.113-21.8-1.869-23.8m2.245,24.022.018-.025-.036.022c.008,0,.015.005.018,0" transform="translate(-1022.39 -933.917)"/><path class="z" d="M1229.279,1505.618l.693,2.628h5.851s1.742-3.359-6.544-2.628" transform="translate(-966.293 -1167.005)"/><path class="z" d="M1287.929,1505.618l.693,2.628h5.851s1.742-3.359-6.544-2.628" transform="translate(-1012.396 -1167.005)"/><path class="w" d="M1234.949,1121.709c.73-1.188,1.754-1.239,2.74-2.245a6.164,6.164,0,0,1,4.032-1.57c4.4,0,8.215,2.833,7.346,7.637-.276,1.526-.043,2.729-1.22,4.513-1.47,2.227-3.256,4.015-6.126,4.015a5.336,5.336,0,0,1-4.032-1.536c-.64-.635-1.557-.713-2.12-1.405-1.137-1.4-1.052-3.238-1.47-5.141a5.392,5.392,0,0,1,.85-4.267" transform="translate(-969.976 -866.541)"/><path class="ar" d="M1265.307,1170.848s-.966,3.924.987,5.593l-5.488,2.948-.723-3.815a19.681,19.681,0,0,0,.752-7.132Z" transform="translate(-990.508 -905.723)"/><path class="as" d="M1264.065,1152.552s-5.617.719-5.737-3.44,2.221-6.853,3.784-6.822c3.116.062,3.63,1.385,3.991,2.763s.547,7.206-2.039,7.5" transform="translate(-989.125 -885.451)"/><path class="x" d="M1269.092,1327.729l-11.1.964s-1.3,20.462,5.99,39.429a10.221,10.221,0,0,0,3.326.365,8.468,8.468,0,0,0,2.894-.489Z" transform="translate(-988.792 -1029.195)"/><path class="w" d="M1223.34,1332.956s-3.415,13.944-.646,39.393a12.014,12.014,0,0,0,3.636.475,15.376,15.376,0,0,0,3.9-.473l3.614-33.039c.138-.979,1.957-6.117,1.957-6.117Z" transform="translate(-960.266 -1033.247)"/><path class="u" d="M1225.846,1209.306l-.726-6.266c.11-.162.2-.3.309-.44,1.276-1.642,6.182-2.358,7.171-2.474.044.046,2.31,2.011,3.938,1.78,1.386-.185,1.624-.958,1.58-1.79a14.606,14.606,0,0,1,4.543,1.479c2.958,1.166,3.553,11.5,3.553,11.5a15.291,15.291,0,0,0-3.267.417l.366,15.313c-7.062,3.237-17.225,1.156-17.225,1.156l.022-.092.682-12.254-.638-5.6Z" transform="translate(-963.024 -930.276)"/><path class="u" d="M1278.138,1176.059s.122.519,1.352.423c0,0,1.033-.08.995-.651a3.176,3.176,0,0,0-2.347.228" transform="translate(-1004.7 -911.355)"/><path class="ao" d="M1233.035,1259.641c-.481.632-2.854.963-4.275.506l.7-12.346-.953-8.324.921-.449s4.042,3.407,3.569,6.123.657,13.678.039,14.49" transform="translate(-965.686 -960.437)"/><path class="u" d="M1209.079,1209.964a18.854,18.854,0,0,1,4.618,2.2,2.336,2.336,0,0,0,.293.228l4.372-8.811.814-1.688.748-1.6.066-.139a.945.945,0,0,0-.176.023,23.91,23.91,0,0,0-2.64.462,16.315,16.315,0,0,0-2.288.694h-.022a5.123,5.123,0,0,0-2.046,1.294c-.11.139-.2.278-.308.44a57.7,57.7,0,0,0-3.432,6.89" transform="translate(-950.415 -930.309)"/><path class="w" d="M1230.571,1228.214s15.2-17.087,5.5-24.648a10.157,10.157,0,0,0-2-1.249,16.3,16.3,0,0,0-2.288.694,7.272,7.272,0,0,1,3.476,2.243c2.354,2.751,3.454,8.6-4.554,20.786Z" transform="translate(-967.309 -931.982)"/><path class="w" d="M1258.859,1140.449s-4.8,0-3.7,3.46a1.882,1.882,0,0,1-1.617,2.522,25.238,25.238,0,0,1-1.112-3.5,4.03,4.03,0,0,1,.7-2.726c1.155-.892,5.729.242,5.729.242" transform="translate(-984.481 -883.571)"/><path class="ar" d="M1205.125,1243.905a15.377,15.377,0,0,1,4.536,2.169c-.754,1.823-1.252,3.094-1.252,3.094a31.344,31.344,0,0,1,5.02-.63h0c.172-.013,1.563-.492,1.563-.492a2.758,2.758,0,0,1,2.727-2.693s1.131.007.9.819-.256.459-.559,1.612a2.542,2.542,0,0,1-1.932,2.082c-4.031,3.562-9.582,3.591-11.255,3.509a.677.677,0,0,1-.621-.539,15.706,15.706,0,0,1,.874-8.931" transform="translate(-946.379 -964.218)"/><path class="at" d="M551.089,1516.481H.442a.455.455,0,0,1-.442-.465v-.036a.455.455,0,0,1,.442-.465H551.089a.455.455,0,0,1,.442.465v.036a.455.455,0,0,1-.442.465" transform="translate(0 -1174.758)"/></g></g></g></svg>