<svg xmlns="http://www.w3.org/2000/svg" xmlns:xlink="http://www.w3.org/1999/xlink" width="588.974" height="373.51" viewBox="0 0 588.974 373.51"><defs><style>.a{fill:none;}.b{clip-path:url(#a);}.c{clip-path:url(#b);}.d{opacity:0.7;}.e{clip-path:url(#d);}.f{clip-path:url(#e);}.g{fill:url(#f);}.h{opacity:0.5;}.i{clip-path:url(#g);}.j{clip-path:url(#h);}.k{fill:url(#i);}.l{fill:#fff;}.m{clip-path:url(#j);}.n{fill:url(#k);}.o{clip-path:url(#m);}.p{fill:url(#n);}.q{opacity:0.3;}.r{clip-path:url(#p);}.s{clip-path:url(#q);}.t{fill:url(#r);}.u{clip-path:url(#s);}.v{fill:url(#t);}.w{clip-path:url(#u);}.x{fill:url(#v);}.y{opacity:0.6;}.z{clip-path:url(#x);}.aa{clip-path:url(#y);}.ab{fill:url(#z);}.ac{clip-path:url(#ab);}.ad{clip-path:url(#ac);}.ae{fill:url(#ad);}.af{clip-path:url(#af);}.ag{fill:url(#ag);}.ah{clip-path:url(#ai);}.ai{fill:url(#aj);}.aj{clip-path:url(#ak);}.ak{fill:url(#al);}.al{clip-path:url(#am);}.am{fill:url(#an);}.an{clip-path:url(#ao);}.ao{fill:url(#ap);}.ap{clip-path:url(#aq);}.aq{fill:url(#ar);}.ar{clip-path:url(#at);}.as{clip-path:url(#au);}.at{fill:url(#av);}.au{clip-path:url(#aw);}.av{fill:url(#ax);}.aw{clip-path:url(#az);}.ax{clip-path:url(#ba);}.ay{fill:url(#bb);}.az{clip-path:url(#bc);}.ba{fill:url(#bd);}.bb{clip-path:url(#bf);}.bc{fill:url(#bg);}.bd{clip-path:url(#bh);}.be{fill:url(#bi);}.bf{clip-path:url(#bj);}.bg{fill:url(#bk);}.bh{clip-path:url(#bl);}.bi{fill:url(#bm);}.bj{clip-path:url(#bo);}.bk{fill:url(#bp);}.bl{opacity:0.2;}.bm{clip-path:url(#br);}.bn{clip-path:url(#bs);}.bo{fill:url(#bt);}.bp{clip-path:url(#bu);}.bq{fill:url(#bv);}.br{clip-path:url(#bw);}.bs{fill:url(#bx);}.bt{clip-path:url(#bz);}.bu{fill:url(#ca);}.bv{clip-path:url(#cb);}.bw{fill:url(#cc);}.bx{clip-path:url(#cd);}.by{fill:url(#ce);}.bz{clip-path:url(#cf);}.ca{fill:url(#cg);}.cb{clip-path:url(#ch);}.cc{fill:url(#ci);}.cd{clip-path:url(#cj);}.ce{fill:url(#ck);}.cf{clip-path:url(#cl);}.cg{fill:url(#cm);}.ch{clip-path:url(#cn);}.ci{fill:url(#co);}.cj{clip-path:url(#cp);}.ck{fill:url(#cq);}.cl{clip-path:url(#cr);}.cm{fill:url(#cs);}.cn{clip-path:url(#ct);}.co{fill:url(#cu);}.cp{clip-path:url(#cv);}.cq{fill:url(#cw);}.cr{clip-path:url(#cx);}.cs{fill:url(#cy);}.ct{clip-path:url(#cz);}.cu{fill:url(#da);}.cv{clip-path:url(#db);}.cw{fill:url(#dc);}.cx{clip-path:url(#dd);}.cy{fill:url(#de);}.cz{clip-path:url(#df);}.da{fill:url(#dg);}.db{clip-path:url(#dh);}.dc{fill:url(#di);}.dd{clip-path:url(#dj);}.de{fill:url(#dk);}.df{clip-path:url(#dl);}.dg{fill:url(#dm);}.dh{clip-path:url(#dn);}.di{fill:url(#do);}.dj{clip-path:url(#dp);}.dk{fill:url(#dq);}.dl{clip-path:url(#dr);}.dm{fill:url(#ds);}.dn{clip-path:url(#dt);}.do{fill:url(#du);}.dp{clip-path:url(#dv);}.dq{fill:url(#dw);}.dr{clip-path:url(#dx);}.ds{fill:url(#dy);}.dt{clip-path:url(#ea);}.du{fill:url(#eb);}.dv{clip-path:url(#ed);}.dw{fill:url(#ee);}.dx{clip-path:url(#eg);}.dy{fill:url(#eh);}.dz{clip-path:url(#ei);}.ea{fill:url(#ej);}.eb{clip-path:url(#el);}.ec{fill:url(#em);}.ed{clip-path:url(#en);}.ee{fill:url(#eo);}.ef{clip-path:url(#ep);}.eg{fill:url(#eq);}.eh{clip-path:url(#er);}.ei{fill:url(#es);}.ej{clip-path:url(#et);}.ek{fill:url(#eu);}.el{clip-path:url(#ev);}.em{fill:url(#ew);}.en{clip-path:url(#ex);}.eo{fill:url(#ey);}.ep{clip-path:url(#ez);}.eq{fill:url(#fa);}.er{clip-path:url(#fb);}.es{fill:url(#fc);}.et{clip-path:url(#fd);}.eu{fill:url(#fe);}.ev{opacity:0.39;}.ew{clip-path:url(#fg);}.ex{clip-path:url(#fh);}.ey{clip-path:url(#fi);}</style><clipPath id="a"><rect class="a" width="588.974" height="373.51"/></clipPath><clipPath id="b"><rect class="a" width="588.972" height="373.51"/></clipPath><clipPath id="d"><rect class="a" width="588.974" height="372.504"/></clipPath><clipPath id="e"><path class="a" d="M12.648,176.675c-1.014-1.35-1.991-2.712-2.9-4.1C-9.542,143.314,1.108,105.5,30.2,85.865c30.868-20.835,75.992-1.515,103.97,15.6,53.362,32.646,140.723,53.312,180.651-10.6,11.23-17.976,17.527-37.227,31.738-53.631C368.184,12.272,398.019-.972,431.3,2.171c20.594,1.945,42.91,10.085,53.963,28.721,14.777,24.916-6.349,52.439,5.288,76.893,12.377,26.005,59,33.3,80.781,47.556,29.46,19.282,17.318,50.735-2.3,73.06-21.872,24.891-43.713,32.02-74.424,39.344-24.077,5.742-41.167,16.608-41.638,43.71-.6,34.363-22.315,61.613-57.588,62.722-35.081,1.1-69.874-19.8-101.405-32.713-16.052-6.573-32.526-14.772-49.187-19.624-37.007-10.775-63.532,3.4-96.225,20.918-54.417,29.151-158.46,16.754-139.775-64.9,2.42-10.579,6.057-20.886,9.771-31.068,3.37-9.238,13.679-24.991,13.462-34.6-.327-14.422-11.133-24.551-19.376-35.519" transform="translate(0 -1.715)"/></clipPath><linearGradient id="f" x1="-0.21" y1="0.795" x2="-0.208" y2="0.795" gradientUnits="objectBoundingBox"><stop offset="0" stop-color="#b37cff"/><stop offset="1" stop-color="#f895e7"/></linearGradient><clipPath id="g"><rect class="a" width="515.883" height="364.256"/></clipPath><clipPath id="h"><path class="a" d="M56.456,63.959C63.4-2.581,168.589,50.863,204.7,18.718c39.76-35.389,73.923-15.269,107.7,16.3,20.419,19.083,42,40.567,69.285,49.369,19.7,6.353,41.632,3.474,60.536-4.147,116.359-46.908,135.151,28.653,128.477,61.252-2.586,12.628-11.531,21.464-16.469,32.946-6.148,14.291-3.881,28.889,1.263,43.118,9.64,26.669,24.827,56.3,8.455,83.657-17.509,29.248-59.495,35.76-89.639,43.517a622.213,622.213,0,0,1-133.89,19.017c-32.349,1.082-65.81.6-98.006-3.06-140.9-16.027-172.108-82-130.41-132.367S48.321,141.873,56.456,63.959" transform="translate(-56.006 0)"/></clipPath><linearGradient id="i" x1="-0.047" y1="1.023" x2="-0.046" y2="1.023" xlink:href="#f"/><clipPath id="j"><path class="a" d="M701.026,27.53l-5.315,7.189a38.945,38.945,0,0,0-12.576,1.117l-6.5-6.149a.735.735,0,0,0-.845-.118l-9.513,4.964a.735.735,0,0,0-.387.76l1.327,8.847a38.934,38.934,0,0,0-8.109,9.677l-8.937.246a.737.737,0,0,0-.681.514l-3.217,10.238a.735.735,0,0,0,.264.811l7.19,5.314a38.94,38.94,0,0,0,1.117,12.576l-6.149,6.5a.736.736,0,0,0-.118.846l4.965,9.513a.735.735,0,0,0,.76.387l8.847-1.327a38.97,38.97,0,0,0,9.677,8.109l.247,8.937a.734.734,0,0,0,.514.681l10.237,3.217a.733.733,0,0,0,.811-.264l5.315-7.189a38.96,38.96,0,0,0,12.576-1.117l6.5,6.149a.736.736,0,0,0,.845.118l9.513-4.964a.735.735,0,0,0,.387-.76l-1.327-8.847a38.978,38.978,0,0,0,8.11-9.676l8.937-.247a.736.736,0,0,0,.681-.515l3.217-10.237a.733.733,0,0,0-.264-.811L731.935,76.7a38.977,38.977,0,0,0-1.118-12.576l6.149-6.5a.735.735,0,0,0,.118-.846L732.12,47.27a.735.735,0,0,0-.761-.387l-8.847,1.327a38.968,38.968,0,0,0-9.677-8.109l-.246-8.937a.736.736,0,0,0-.515-.681l-10.237-3.217a.733.733,0,0,0-.811.264" transform="translate(-646.241 -27.232)"/></clipPath><linearGradient id="k" x1="-3.841" y1="3.67" x2="-3.835" y2="3.67" gradientUnits="objectBoundingBox"><stop offset="0" stop-color="#a737d5"/><stop offset="1" stop-color="#ef497a"/></linearGradient><clipPath id="m"><path class="a" d="M854.8,164.017l-2.759,3.732a20.212,20.212,0,0,0-6.528.579l-3.372-3.191a.383.383,0,0,0-.439-.062l-4.938,2.577a.381.381,0,0,0-.2.395l.688,4.593a20.222,20.222,0,0,0-4.209,5.023l-4.639.128a.383.383,0,0,0-.354.267l-1.67,5.314a.382.382,0,0,0,.138.421l3.732,2.759a20.223,20.223,0,0,0,.579,6.528l-3.192,3.373a.382.382,0,0,0-.061.439l2.576,4.938a.383.383,0,0,0,.4.2l4.592-.689a20.237,20.237,0,0,0,5.023,4.209l.128,4.639a.382.382,0,0,0,.267.354l5.314,1.671a.383.383,0,0,0,.422-.138l2.758-3.732a20.243,20.243,0,0,0,6.528-.579l3.374,3.191a.38.38,0,0,0,.439.061l4.938-2.576a.382.382,0,0,0,.2-.4l-.689-4.592a20.244,20.244,0,0,0,4.21-5.023l4.639-.128a.381.381,0,0,0,.353-.267l1.67-5.314a.382.382,0,0,0-.137-.421l-3.732-2.759a20.21,20.21,0,0,0-.58-6.528l3.192-3.373a.381.381,0,0,0,.061-.439l-2.576-4.938a.382.382,0,0,0-.4-.2l-4.592.689a20.242,20.242,0,0,0-5.023-4.21l-.128-4.639a.382.382,0,0,0-.266-.354l-5.315-1.669a.38.38,0,0,0-.42.137" transform="translate(-826.365 -163.862)"/></clipPath><linearGradient id="n" x1="-7.856" y1="4.661" x2="-7.846" y2="4.661" xlink:href="#k"/><clipPath id="p"><rect class="a" width="181.603" height="74.458"/></clipPath><clipPath id="q"><path class="a" d="M299.53,155.385c-2.455-10.637-8.562-6.986-18.791-10.26s-7.233-14.945-13.58-18.547c-8.462-4.8-16.232-.345-21.5,5.958-8.747,10.47-14.731,1.955-25.186,6.2-5.99,2.431-3.434,5.837-11.537,7.208-5.661.958-11.789-1.3-17.369.081-4.132,1.021-7.13,2.813-8.045,6.468q1.75.752,3.62,1.364c15.621,5.142,36.932,3.425,52.72,4.183,5.382.258,61.4,4.885,59.663-2.654" transform="translate(-183.527 -124.556)"/></clipPath><linearGradient id="r" x1="-0.914" y1="7.37" x2="-0.909" y2="7.37" xlink:href="#k"/><clipPath id="s"><path class="a" d="M412.968,61.087a10.867,10.867,0,0,0-10.611-3.328c-4.276.976-6.693,4.708-10.673,6.2-6.944,2.6-16.546-2.541-21.819,4.171-6.45,8.209-11.434,2.052-11.434,7.623s44.562,1.466,66.55,1.759c3.177.043,16.968-.169,11.031-6.189-1.843-1.87-4.474-2.183-6.927-2.62-3.2-.571-10.8-.884-13.115-3.155-1.247-1.223-1.726-2.979-2.852-4.287q-.075-.087-.151-.172" transform="translate(-358.431 -57.472)"/></clipPath><linearGradient id="t" x1="-2.516" y1="13.917" x2="-2.509" y2="13.917" xlink:href="#k"/><clipPath id="u"><path class="a" d="M177.411,93.231c-9.564,14.815-4.219,31.1,3.021,45.554,5.128,10.238,18.162,25.78,17.85,38.338a2.2,2.2,0,0,1-3.2,1.906c-2.267-1.16-4.072-3.2-5.975-5.313-6.734-7.487-12.595-15.884-18.637-23.931-4.158-5.537-9.981-15.332-17.7-16.027-9.031-.814-8.893,16.376-8.18,21.709,3.656,27.343,29.027,40.97,42.428,62.9,2.76,4.515,8.762,12.745,8.138,18.241-1.2,10.577-14.161-1.122-19.807-2.864-7.837-2.419-21.559-2.466-21.663,8.287-.12,12.494,10.665,23.25,21.9,27,9.013,3.007,19.31,4.041,27.854,8.238,7.817,3.838,3.138,12.483-4.7,10.092-3.238-.988-6.472-2.282-9.623-3.516-3.053-1.2-12.049-6.135-14.285-1.545-1.706,3.505,1.835,9.624,3.245,12.612,15.8,33.477,28.822,27.332,47.074,33.879,5.241,1.88,8.786,6.135,10.68,11.259.817,2.211.735,10.514,3.257,11.262,3.478,1.022,8.338-6.192,9.83-8.259,2.763-3.827,6.114-7.158,8.871-10.99,4.758-6.611,12.551-16.379,11.677-25.121-.433-4.33-4.16-6.071-8.181-6.389-6.806-.539-17.6-1.817-13.267-11.2,2.151-4.656,4.606-9.173,6.569-13.916,1.8-4.337,2.885-8.895,4.968-13.121,4.418-8.962,10.981-15.748,17.345-23.223,4.374-5.138,11.84-14.246,5.716-20.791-3.007-3.21-7.91-3.617-11.971-3.13-12.278,1.472-16.714,4.438-13.987-10.125,1.513-8.083,5.815-15.358,7.5-23.311,1.706-8.042,2.524-31.425-6.055-36.942-15.236-9.8-24.767,27.224-27.121,35.706a6.19,6.19,0,0,0-.181,1.019,2.2,2.2,0,0,1-4.189.7,10.211,10.211,0,0,1-1.094-3.463c-.249-4.921,1.28-10.343,2.566-15.052a158.173,158.173,0,0,1,6.667-18.685c2.868-6.93,4.56-14.159,2.08-21.454-2.44-7.176-7.48-13.11-11.987-19.066-5.954-7.869-10.143-18.6-19.465-23.2a16.3,16.3,0,0,0-7.28-1.739c-8.385,0-16.1,6.557-20.693,13.675" transform="translate(-144.295 -79.556)"/></clipPath><linearGradient id="v" x1="-0.58" y1="1.198" x2="-0.576" y2="1.198" xlink:href="#k"/><clipPath id="x"><rect class="a" width="49.763" height="272.42"/></clipPath><clipPath id="y"><path class="a" d="M102.633,330.381c-7.041,9.745-8.328,22.856,2.7,30.467,10.126,6.99,15.139,11.488,8.486,13.322-8.715,2.4-15.692,11.716-11.317,20.556,4.575,9.245,18.686,14.12,27.749,17.422,3.569,1.3,12.91,1.2,13.63,6.167.6,4.152-5.666,6.025-8.5,7.5-10.686,5.557-13.066,11.21-1.288,18.425,23.778,14.566,50,10.452,49.735-.534-.118-5.187,3.377-11.5,5.022-16.24,1.763-5.081,3.5-10.173,4.873-15.376,1.388-5.275,6.28-21.168-3.737-18.442-4.273,1.163-18.055,12.6-17.41,2.874.827-12.5,14.446-22.445,15.453-35.249.587-7.458-6.354-11.918-13.1-13.24-11.834-2.318-15.987,21.046-21.882,28.917-1.24,1.656-2.58-30.757-2.858-32.085-.813-3.869-2.8-10.942-6.852-12.717-9.791-4.292-13.575,8.43-14.692,15.766a1.1,1.1,0,0,1-1.937.542c-6.249-7.468-1.454-15.372-4.982-24.02-1.493-3.658-3.482-5.044-5.642-5.045-4.872,0-10.608,7.057-13.453,10.994" transform="translate(-97.196 -319.387)"/></clipPath><linearGradient id="z" x1="-0.114" y1="1.177" x2="-0.111" y2="1.177" gradientUnits="objectBoundingBox"><stop offset="0" stop-color="#c32b78"/><stop offset="1" stop-color="#593092"/></linearGradient><clipPath id="ab"><rect class="a" width="69.061" height="130.185"/></clipPath><clipPath id="ac"><path class="a" d="M813.988,298.275c-3.929,7.183,3.3,15.119,5.032,21.544,1.092,4.045,1.6,10.387-3.9,6.3-2.657-1.975-4.731-5.406-7.783-6.722-12.943-5.583-3.834,17.935-2.415,22.217,1.707,5.163,4,10.042,4.748,15.535,1.237,9.064-5.952,5.554-9.686,1.288-3.45-3.944-7.043-7.783-12.129-9.043-3.969-.984-8.633.649-8.162,5.741.368,3.986,4.34,7.518,6.561,10.447,4.729,6.241,11.313,11.091,15.648,17.607,4.678,7.03-2.4,6.21-6.319,2.8-5.863-5.095-14.082-10.808-20.809-2.939-2.179,2.548-2.052,5.482-.749,8.438,2.829,6.414,9.366,11.117,14.138,15.765,2.54,2.476,12.881,13.9,3.9,15.623-3.8.731-8.124-2.381-11.791-3.142-4.75-.986-19.414-1.812-18.946,5.971.361,6,6.521,12.333,10.144,16.312,8.849,9.72,19.766,19.854,31.044,26.2,6.508,3.662,13.61,5.815,21.785,5.1,12.839-1.125,24.986-8.492,32.986-19.212,3.082-4.13,11.568-17.026,5.425-21.88-4.94-3.9-12.292,1.885-16.414,4.626-2.494,1.659-15.087,8.585-10.316-.291,3.787-7.047,10.782-11.99,16.853-16.6,4.9-3.72,10.922-6.772,14.493-12.15,3.067-4.618,3.289-16.273-4.875-14.732-5.58,1.053-8.208,9.6-14.33,9.431-7.788-.217,1.052-10.647,3.183-12.789,3.564-3.581,7.618-6.6,10.82-10.586,4.966-6.18,8.324-12.969,7.219-21.344-.925-7.013-6.476-16.133-14.184-10.669-4.423,3.135-8.74,11.193-15.1,9.769-7.191-1.609-3.091-16.176-1.329-20.913,2.922-7.857,9.239-15.348,9.806-24.014.64-9.76-7.115-13.291-14.454-15.733a38.028,38.028,0,0,0-11.32-2.254c-3.636,0-6.994,1.044-8.775,4.295" transform="translate(-761.315 -293.98)"/></clipPath><linearGradient id="ad" x1="-2.331" y1="1.03" x2="-2.327" y2="1.03" xlink:href="#k"/><clipPath id="af"><path class="a" d="M891.623,415.431c-1.49,8.184,4.688,14.025-.988,21.954-1.6-5.138-7.172-17.762-15.182-12.038-2.973,2.125-3.38,8.185-3.379,11.455,0,1.12,4.432,27.571,3.146,26.442-6.108-5.365-13.443-23.559-22.622-19.67-5.234,2.217-10.09,7.007-8.346,12.94,2.994,10.188,15.7,15.918,18.5,25.888,2.177,7.76-10.919.851-14.574.637-8.568-.5-1.907,11.523.114,15.555,1.993,3.977,4.268,7.8,6.558,11.61,2.138,3.556,6.04,8.068,6.827,12.284,1.657,8.932,23.568,7.8,40.325-8.031,8.3-7.841,5.414-12.01-4.177-14.687-2.539-.709-7.929-1.156-8.148-4.619-.261-4.141,7.312-5.65,9.977-7.308,6.771-4.214,17.357-10.559,19.485-18.817,2.035-7.9-5.194-14.244-12.653-14.7-5.695-.351-2.4-4.843,4.6-12.221,7.625-8.034,4.353-18.422-3-25.107-2.737-2.488-7.91-6.7-11.79-6.7-2.2,0-3.981,1.353-4.67,5.138" transform="translate(-843.89 -410.293)"/></clipPath><linearGradient id="ag" x1="-3.825" y1="1.36" x2="-3.82" y2="1.36" xlink:href="#z"/><clipPath id="ai"><path class="a" d="M849.1,512.338l4.328,11.158s25.47,1.639,26.36-7.344-5.15-10.731-5.15-10.731Z" transform="translate(-849.1 -505.421)"/></clipPath><linearGradient id="aj" x1="-14.09" y1="3.058" x2="-14.073" y2="3.058" gradientUnits="objectBoundingBox"><stop offset="0" stop-color="#2b3582"/><stop offset="1" stop-color="#150e42"/></linearGradient><clipPath id="ak"><path class="a" d="M330.718,345.794c-48.72,12.181-77.305,44.748-91.4,48.041s-70.556,6.306-79.764,14.859-.411,14.632-12.249,25.63c-13.1,36.955,27.453,48.012,27.453,48.012l368.6-2.995s24.873,2.236,25.424-15.528-5.492-26.738-6.8-42.735-1.335-16.8-4.9-25.1-38.166-9.2-44.9-18.424S497.432,353.613,468.86,348.6c-23.612-4.146-58.312-6.864-88.426-6.864-20.217,0-38.364,1.224-49.715,4.062" transform="translate(-144.701 -341.732)"/></clipPath><linearGradient id="al" x1="-0.151" y1="1.042" x2="-0.15" y2="1.042" gradientUnits="objectBoundingBox"><stop offset="0" stop-color="#fdf53f"/><stop offset="1" stop-color="#d93c65"/></linearGradient><clipPath id="am"><path class="a" d="M814.471,537.762c-37.863-.809-10.339,20.261-10.339,20.261.15.013,34.769,3.631,35.4-16.787l-2.151-9.794s-11.535,6.027-22.913,6.321" transform="translate(-794.47 -531.441)"/></clipPath><linearGradient id="an" x1="-6.837" y1="1.815" x2="-6.828" y2="1.815" xlink:href="#k"/><clipPath id="ao"><path class="a" d="M169.833,554.122l39.577-2.018-4.792-27.021s-41.992,7.249-54.086.655c-9.757-5.319-9.394-10.527-9.394-10.527-23.276,36.115,29.62,39.163,28.7,38.911" transform="translate(-135.215 -515.211)"/></clipPath><linearGradient id="ap" x1="-0.638" y1="1.602" x2="-0.632" y2="1.602" xlink:href="#k"/><clipPath id="aq"><path class="a" d="M588.9,369.964c-3.6,5.834-8.238,41.656-8.238,41.656l105.621,3.461s1.188-9.271-8.553-20.639-15.426-18.866-22.916-20.8c-5.478-1.411-36.267-5.847-53.828-5.847-6.453,0-11.118.6-12.086,2.167" transform="translate(-580.657 -367.797)"/></clipPath><linearGradient id="ar" x1="-2.875" y1="2.119" x2="-2.87" y2="2.119" gradientUnits="objectBoundingBox"><stop offset="0" stop-color="#53eac9"/><stop offset="0.996" stop-color="#45aed8"/><stop offset="1" stop-color="#45aed8"/></linearGradient><clipPath id="at"><rect class="a" width="100.451" height="47.477"/></clipPath><clipPath id="au"><path class="a" d="M657.5,372.524c-6.141-.915-52.773-6.337-64.813-4.79l-3.116,11.986,100.439,35.215a26.9,26.9,0,0,0-4.538-15.155c-8.43-12.641-21.551-26.448-27.972-27.256" transform="translate(-589.575 -367.459)"/></clipPath><linearGradient id="av" x1="-3.045" y1="2.143" x2="-3.04" y2="2.143" gradientUnits="objectBoundingBox"><stop offset="0" stop-color="#9cfffb"/><stop offset="1" stop-color="#9bfffa"/></linearGradient><clipPath id="aw"><path class="a" d="M418.529,369.537c-28.726,5.435-66.094,39.775-66.094,39.775l118.544.548s5.595-33.75,7.113-40.673c.514-1.937-8.147-3.247-20.678-3.247a218.214,218.214,0,0,0-38.886,3.6" transform="translate(-352.435 -365.94)"/></clipPath><linearGradient id="ax" x1="-1.52" y1="2.078" x2="-1.516" y2="2.078" xlink:href="#ar"/><clipPath id="az"><rect class="a" width="72.881" height="11.593"/></clipPath><clipPath id="ba"><path class="a" d="M460.517,366.132c23.4-3.248,31.978-2.632,56.506-.484l-2.362,9.811s-36.505-7.16-70.519-3.02c0,0,8.737-5.247,16.376-6.307" transform="translate(-444.141 -363.866)"/></clipPath><linearGradient id="bb" x1="-3.597" y1="4.552" x2="-3.589" y2="4.552" xlink:href="#av"/><clipPath id="bc"><path class="a" d="M164.125,452.05c-11.786,5.924-14.982,27.4-14.982,27.4s43.339-3.9,38.872-18.37c-2.587-8.384-9.6-10.262-15.365-10.262a31.137,31.137,0,0,0-8.526,1.235" transform="translate(-149.143 -450.815)"/></clipPath><linearGradient id="bd" x1="-2.21" y1="2.4" x2="-2.195" y2="2.4" xlink:href="#av"/><clipPath id="bf"><path class="a" d="M702.2,513.779a35.485,35.485,0,1,0,.935-.012c-.311,0-.621,0-.935.012" transform="translate(-667.616 -513.767)"/></clipPath><linearGradient id="bg" x1="-3.744" y1="0.863" x2="-3.739" y2="0.863" xlink:href="#aj"/><clipPath id="bh"><path class="a" d="M712.255,535.006a22.648,22.648,0,1,0,.6-.008q-.3,0-.6.008" transform="translate(-690.188 -534.998)"/></clipPath><linearGradient id="bi" x1="-8.574" y1="1.291" x2="-8.561" y2="1.291" xlink:href="#av"/><clipPath id="bj"><path class="a" d="M270.155,510.045a35.505,35.505,0,1,0,.933-.012q-.465,0-.933.012" transform="translate(-235.567 -510.033)"/></clipPath><linearGradient id="bk" x1="-1.226" y1="0.884" x2="-1.22" y2="0.884" xlink:href="#aj"/><clipPath id="bl"><path class="a" d="M280.207,531.273a22.651,22.651,0,1,0,.6-.008q-.3,0-.6.008" transform="translate(-258.14 -531.265)"/></clipPath><linearGradient id="bm" x1="-3.195" y1="1.338" x2="-3.182" y2="1.338" xlink:href="#av"/><clipPath id="bo"><rect class="a" width="40.458" height="16.418" rx="8.209"/></clipPath><linearGradient id="bp" x1="-4.842" y1="3.76" x2="-4.828" y2="3.76" xlink:href="#al"/><clipPath id="br"><rect class="a" width="75.584" height="57.122"/></clipPath><clipPath id="bs"><path class="a" d="M470.531,127.38s-7.713-54.386,35.411-54.035c0,0,40.67-1.774,39.618,53.971l-8.765,3.145S534.982,84.507,506.664,84.2s-25.4,43.179-25.4,43.179Z" transform="translate(-469.996 -73.338)"/></clipPath><linearGradient id="bt" x1="-3.203" y1="5.642" x2="-3.196" y2="5.642" xlink:href="#av"/><clipPath id="bu"><path class="a" d="M459.779,164.506a3.608,3.608,0,0,0-3.2,3.639l2.068,67.3a10.906,10.906,0,0,0,10.935,10.565h67.179a10.905,10.905,0,0,0,11.09-10.748v-67.1a3.746,3.746,0,0,0-3.354-3.654Z" transform="translate(-456.573 -164.506)"/></clipPath><linearGradient id="bv" x1="-2.127" y1="2.443" x2="-2.122" y2="2.443" xlink:href="#al"/><clipPath id="bw"><path class="a" d="M470.432,239.992l-1.622-60.958a.34.34,0,0,1,.055-.193c.037-.039.087-.162.141-.162H542c.107,0,.354.293.354.4V239.95a4.558,4.558,0,0,1-4.659,4.4H474.931a4.455,4.455,0,0,1-4.5-4.357m-1.425-62.487a1.572,1.572,0,0,0-1.163.423,1.465,1.465,0,0,0-.458,1.106l1.622,60.9a5.746,5.746,0,0,0,5.924,5.591h62.761c3.268,0,6.418-2.3,6.418-5.571V179.079c0-.894-1.219-1.574-2.113-1.574Z" transform="translate(-467.384 -177.505)"/></clipPath><linearGradient id="bx" x1="-2.721" y1="2.848" x2="-2.715" y2="2.848" xlink:href="#al"/><clipPath id="bz"><path class="a" d="M244.331,627.337a13.447,13.447,0,0,1-5.339-.522q0,.157.009.3a.963.963,0,0,0,.915.909,163.429,163.429,0,0,0,18.286.018.686.686,0,0,0,.559-1.03,5.6,5.6,0,0,0-.465-.649c-3.4.295-9.309.772-13.965.978" transform="translate(-238.992 -626.359)"/></clipPath><linearGradient id="ca" x1="-6.995" y1="2.902" x2="-6.966" y2="2.902" gradientUnits="objectBoundingBox"><stop offset="0" stop-color="#53d8ff"/><stop offset="1" stop-color="#3840f7"/></linearGradient><clipPath id="cb"><path class="a" d="M241.33,614.64a12.584,12.584,0,0,0-2.339,7.326,13.442,13.442,0,0,0,5.339.522c4.656-.205,10.562-.682,13.965-.977-3.346-4.1-13.965-6.871-13.965-6.871Z" transform="translate(-238.99 -614.64)"/></clipPath><linearGradient id="cc" x1="-7.25" y1="1.645" x2="-7.219" y2="1.645" xlink:href="#aj"/><clipPath id="cd"><path class="a" d="M242.12,606.29l.281,5.554a1.269,1.269,0,0,0,1.083,1.193,4.928,4.928,0,0,0,2.253-.187,1.5,1.5,0,0,0,1.009-1.153l.97-5.407Z" transform="translate(-242.12 -606.29)"/></clipPath><linearGradient id="ce" x1="-25.371" y1="2.632" x2="-25.267" y2="2.632" gradientUnits="objectBoundingBox"><stop offset="0" stop-color="#f9b776"/><stop offset="1" stop-color="#f47960"/></linearGradient><clipPath id="cf"><path class="a" d="M171.5,624.921a1.918,1.918,0,0,0,1.293,2.187,8.438,8.438,0,0,0,3.578.561,3.559,3.559,0,0,0,2.684-1.238l.008-.011c-1.111.55-2.672.615-5.133.271a2.693,2.693,0,0,1-2.424-1.791c0,.007,0,.015-.006.022" transform="translate(-171.451 -624.899)"/></clipPath><linearGradient id="cg" x1="-12.902" y1="2.526" x2="-12.826" y2="2.526" xlink:href="#ca"/><clipPath id="ch"><path class="a" d="M171.546,617.176a2.693,2.693,0,0,0,2.424,1.791c2.461.344,4.022.279,5.133-.271,2.036-2.679,3.045-6.6,3.53-8.891a3.121,3.121,0,0,0-1.705-3.577H178.4c-3.736,0-6.082,7.885-6.853,10.948" transform="translate(-171.546 -606.228)"/></clipPath><linearGradient id="ci" x1="-8.642" y1="1.379" x2="-8.592" y2="1.379" xlink:href="#aj"/><clipPath id="cj"><path class="a" d="M181.5,602.9a1.483,1.483,0,0,0,.772,1.681,5.264,5.264,0,0,0,2.844.688,1.236,1.236,0,0,0,1.01-.826l2.016-5.747-5.269-1.259Z" transform="translate(-181.451 -597.437)"/></clipPath><linearGradient id="ck" x1="-15.603" y1="2.918" x2="-15.517" y2="2.918" xlink:href="#ce"/><clipPath id="cl"><path class="a" d="M181.076,545.334c1.709,1.517,7.267,1.716,7.267,1.716,20.022-48.054,28.212-54.881,28.212-54.881-2.891,18.138-.466,58.292-.466,58.292,3.3,1.458,7.563,0,7.563,0a309.522,309.522,0,0,1,10.224-76.006c-13.532-.3-20.729-4.935-23.078-6.793-11.28,18.186-29.723,77.671-29.723,77.671" transform="translate(-181.076 -467.663)"/></clipPath><linearGradient id="cm" x1="-0.851" y1="1.1" x2="-0.845" y2="1.1" xlink:href="#z"/><clipPath id="cn"><path class="a" d="M234.315,373.183c-2.562,12.776-1.644,35.642-1.041,46.073.169,2.931-1.877,7-3.532,9.768a.87.87,0,0,0,.352,1.223,60.317,60.317,0,0,0,23.025,6.383,1.55,1.55,0,0,0,1.561-1.158c8.065-30.117,17.434-49.361,17.434-49.361-7.209-11.513-22.734-13.258-31.479-13.258a53.843,53.843,0,0,0-6.32.33" transform="translate(-229.618 -372.853)"/></clipPath><linearGradient id="co" x1="-1.604" y1="2.116" x2="-1.596" y2="2.116" xlink:href="#ca"/><clipPath id="cp"><path class="a" d="M250.854,494.058a20.111,20.111,0,0,0-7.939,6.892.641.641,0,0,0,1.1.666,19.179,19.179,0,0,1,7.4-6.4.641.641,0,0,0-.557-1.154" transform="translate(-242.822 -493.995)"/></clipPath><linearGradient id="cq" x1="-12.64" y1="7.32" x2="-12.588" y2="7.32" xlink:href="#z"/><clipPath id="cr"><path class="a" d="M210.227,435.323c.823,5.951,3.254,12.443,8.116,19.339l4.545-3.619a24.286,24.286,0,0,1-3.617-16.371,13.992,13.992,0,0,0-2.67-.238,26.885,26.885,0,0,0-6.374.889" transform="translate(-210.227 -434.434)"/></clipPath><linearGradient id="cs" x1="-5.162" y1="5.118" x2="-5.136" y2="5.118" xlink:href="#ce"/><clipPath id="ct"><path class="a" d="M209.995,410.082a22.118,22.118,0,0,1,9.044-.651c.874-7.078,3.484-14.762,9.883-20.253l-2.861-15.763s-19.115,14.611-16.067,36.667" transform="translate(-209.665 -373.415)"/></clipPath><linearGradient id="cu" x1="-2.728" y1="3.736" x2="-2.714" y2="3.736" xlink:href="#ca"/><clipPath id="cv"><path class="a" d="M289.51,411.353c1.193,9.594,6.347,13.742,11.9,15.332a33.7,33.7,0,0,1,2.477-10.347c-7.1-7.331-7-20.875-7-20.875Z" transform="translate(-289.51 -395.464)"/></clipPath><linearGradient id="cw" x1="-5.146" y1="4.319" x2="-5.127" y2="4.319" xlink:href="#ca"/><clipPath id="cx"><path class="a" d="M309.811,441.412c14.825,5.753,18.747-5.4,18.747-5.4l-2.74-.483c-6.187.651-10.509-1.343-13.53-4.462a33.7,33.7,0,0,0-2.477,10.347" transform="translate(-309.811 -431.065)"/></clipPath><linearGradient id="cy" x1="-9.69" y1="7.496" x2="-9.658" y2="7.496" xlink:href="#ce"/><clipPath id="cz"><path class="a" d="M267.381,367.026a3.432,3.432,0,0,0,1.211,4.933,51.62,51.62,0,0,0,5.133,2.345,2.549,2.549,0,0,0,3.407-1.7l3.561-13.095-5.907-3.53Z" transform="translate(-266.797 -355.984)"/></clipPath><linearGradient id="da" x1="-8.099" y1="11.175" x2="-8.068" y2="11.175" xlink:href="#ce"/><clipPath id="db"><path class="a" d="M277.989,342.8l4.731,14.928,9.244-1.286s-2.594-16.135-2.714-16.352a2.336,2.336,0,0,0-2.23-1.119c-3.431,0-9.032,3.829-9.032,3.829" transform="translate(-277.989 -338.976)"/></clipPath><linearGradient id="dc" x1="-7.768" y1="10.516" x2="-7.739" y2="10.516" xlink:href="#ce"/><clipPath id="dd"><path class="a" d="M283.126,328.686a3.448,3.448,0,0,0-3.044,3.282,1.138,1.138,0,0,1-1.335,1.025.914.914,0,0,0-.986.334,1.155,1.155,0,0,1-1.439.357,4.234,4.234,0,0,0-5.153.644,3,3,0,0,0-.11,4.473,1.156,1.156,0,0,1-.156,1.658c-2.452,1.962-1.088,3.98-.345,4.795a1.136,1.136,0,0,0,.815.371c.952.021,3.2.232,3.965,1.713.813,1.578,2.806,7.549,3.455,9.515a1.154,1.154,0,0,0,.894.774,37.2,37.2,0,0,0,8.666.24,1.152,1.152,0,0,0,1.068-1.131,49.841,49.841,0,0,0-.673-7.72,1.154,1.154,0,0,0-1.214-.969c-1.324.085-2.871,1.19-4.545,2.429-1.845,1.364-3.065-.514-3.377-1.082a1.092,1.092,0,0,1-.112-.294l-1.875-8.053a1.145,1.145,0,0,1,.213-.97c.681-.865,2.334-2.624,4.255-2.264,2.527.474,6.981-.128,7.053-2.986.066-2.614-1.624-6.238-5.02-6.237a5.242,5.242,0,0,0-1,.1" transform="translate(-269.503 -328.587)"/></clipPath><linearGradient id="de" x1="-4.623" y1="5.106" x2="-4.606" y2="5.106" xlink:href="#aj"/><clipPath id="df"><path class="a" d="M272.423,360.168c2.147,3.712,4.575,1.477,4.575,1.477s-.089-4.985-2.106-5.454a3.3,3.3,0,0,0-.744-.086c-1.751,0-3.238,1.444-1.724,4.062" transform="translate(-271.796 -356.106)"/></clipPath><linearGradient id="dg" x1="-17.228" y1="20.773" x2="-17.163" y2="20.773" xlink:href="#ce"/><clipPath id="dh"><path class="a" d="M152.116,464.794l-10.111,3.271,1.4,4.324,10.111-3.271a2.456,2.456,0,0,1,2.826,1.018L164.6,483.1a2.453,2.453,0,0,1-.288,3.009l-7.662,8.087,3.3,3.125,7.662-8.086a6.988,6.988,0,0,0,.821-8.575l-8.262-12.964a7,7,0,0,0-8.056-2.9" transform="translate(-142.005 -464.455)"/></clipPath><linearGradient id="di" x1="-1.974" y1="2.847" x2="-1.96" y2="2.847" xlink:href="#aj"/><clipPath id="dj"><path class="a" d="M74.848,463.969,11.885,494.954a11.731,11.731,0,0,0-4.7,16.856l24.133,37.64a11.729,11.729,0,0,0,17.492,2.589l53.116-45.359a11.708,11.708,0,0,0,2.4-15.029c-4.177-6.83-10.03-16.387-14.33-23.342a11.726,11.726,0,0,0-15.151-4.342" transform="translate(-5.334 -462.761)"/></clipPath><linearGradient id="dk" x1="0.04" y1="0.951" x2="0.045" y2="0.951" xlink:href="#ca"/><clipPath id="dl"><path class="a" d="M75.177,469,15.6,498.438a11.215,11.215,0,0,0-5.818,6.952,10.874,10.874,0,0,0,1.285,8.876l22.523,35.127a10.881,10.881,0,0,0,7.66,4.891,11.221,11.221,0,0,0,8.82-2.573l50.374-42.843a10.984,10.984,0,0,0,2.356-14.1c-3.9-6.376-9.356-15.3-13.368-21.787a10.894,10.894,0,0,0-9.3-5.141A11.181,11.181,0,0,0,75.177,469" transform="translate(-9.36 -467.839)"/></clipPath><linearGradient id="dm" x1="0.015" y1="0.977" x2="0.02" y2="0.977" xlink:href="#aj"/><clipPath id="dn"><path class="a" d="M66.415,517.3l-3.787,2.415c-1.279.814-1,2.738-.184,4.017l15.135,23.748c.815,1.279,2.084,1.786,3.364.971l3.787-2.413a7.859,7.859,0,0,0,2.5-10.891L77.7,520.194a8.856,8.856,0,0,0-7.331-4.018,7.3,7.3,0,0,0-3.953,1.125" transform="translate(-61.75 -516.176)"/></clipPath><linearGradient id="do" x1="-0.761" y1="1.998" x2="-0.747" y2="1.998" xlink:href="#ca"/><clipPath id="dp"><path class="a" d="M42.862,531.98l-2.871,1.83a8.858,8.858,0,0,0-2.542,11.705l9.53,14.953c2.363,3.708,7.619,4.442,11.327,2.079l2.872-1.83a2.809,2.809,0,0,0,1.057-3.788L47.1,533.181a3.7,3.7,0,0,0-2.959-1.543,2.359,2.359,0,0,0-1.277.342" transform="translate(-36.23 -531.638)"/></clipPath><linearGradient id="dq" x1="-0.359" y1="1.753" x2="-0.344" y2="1.753" xlink:href="#ca"/><clipPath id="dr"><path class="a" d="M113.283,500.179a5.11,5.11,0,0,0-1.564,7.057l6.105,9.58a5.112,5.112,0,1,0,8.621-5.5l-6.105-9.578a5.108,5.108,0,0,0-7.057-1.563" transform="translate(-110.918 -499.377)"/></clipPath><linearGradient id="ds" x1="-2.474" y1="3.601" x2="-2.45" y2="3.601" xlink:href="#ca"/><clipPath id="dt"><path class="a" d="M377.141,382.062l-65.754,19.659,3.136,22.656,12.7-3.8a1.872,1.872,0,0,0,1.112-1.169l2.468-6.721a.749.749,0,0,1,.483-.47.708.708,0,0,1,.643.12l5.23,4.364a1.857,1.857,0,0,0,1.64.415l8.5-2.54a1.865,1.865,0,0,0,1.14-1.25l1.86-5.992a.749.749,0,0,1,.538-.514.7.7,0,0,1,.686.213l3.437,4.082a1.835,1.835,0,0,0,1.847.617l6.241-1.866a1.834,1.834,0,0,0,1.214-1.672l.222-5.576a.742.742,0,0,1,.441-.65.716.716,0,0,1,.758.117l4.861,4.551a1.85,1.85,0,0,0,1.712.478l6.558-1.961a5.294,5.294,0,0,0,2.929-2.4l9.133-15.314a1.744,1.744,0,0,0,.113-1.538,1.765,1.765,0,0,0-1.161-1.026L379.2,382.041a3.882,3.882,0,0,0-1-.132,3.674,3.674,0,0,0-1.055.153" transform="translate(-311.387 -381.909)"/></clipPath><linearGradient id="du" x1="-2.011" y1="2.519" x2="-2.004" y2="2.519" xlink:href="#av"/><clipPath id="dv"><path class="a" d="M376.6,393.305l-71.232,21.3a1.619,1.619,0,1,0,.925,3.094l71.232-21.3a1.66,1.66,0,0,0,1.207-2.046,1.6,1.6,0,0,0-1.579-1.13,1.942,1.942,0,0,0-.553.082" transform="translate(-304.092 -393.223)"/></clipPath><linearGradient id="dw" x1="-2.228" y1="3.387" x2="-2.221" y2="3.387" xlink:href="#ar"/><clipPath id="dx"><path class="a" d="M237.473,446.717l-14.109-10.034a4.544,4.544,0,0,1-1.59-5.382l5.888-14.823a.707.707,0,0,1,1.33.042l9.563,29.4a.707.707,0,0,1-1.083.8m27.553-48.949-33.685,5.321a8.343,8.343,0,0,0-6.28,4.762l-10.106,22.083a8.943,8.943,0,0,0,2.935,11l20.537,14.659a8.943,8.943,0,0,0,9.23.7l30.511-15.42a5.661,5.661,0,0,0,2.885-6.647l-9.723-32.521a5.666,5.666,0,0,0-6.3-3.939" transform="translate(-214.143 -397.698)"/></clipPath><linearGradient id="dy" x1="-1.415" y1="1.927" x2="-1.408" y2="1.927" xlink:href="#aj"/><clipPath id="ea"><path class="a" d="M339.279,438.37c.746.583,3.3-.634,4.868-1.475a1.8,1.8,0,0,0,.87-2.127c-.376-1.187-1-2.72-1.777-2.913a.614.614,0,0,0-.149-.016c-1.521,0-6.781,4.212-3.812,6.531" transform="translate(-338.387 -431.839)"/></clipPath><linearGradient id="eb" x1="-21.893" y1="16.905" x2="-21.827" y2="16.905" xlink:href="#ce"/><clipPath id="ed"><path class="a" d="M237.411,470.843a39.519,39.519,0,0,1,5.309,3.934c2.079,1.952,3.444,1.31,3.444,1.31l-1.6-4.823-7.892-3.56-1.913-.042c-1.517,2.839,2.655,3.18,2.655,3.18" transform="translate(-234.424 -467.663)"/></clipPath><linearGradient id="ee" x1="-9.282" y1="8.623" x2="-9.242" y2="8.623" xlink:href="#ce"/><clipPath id="eg"><path class="a" d="M768.078,326.422s-18.641,23.867,2.628,48.141l8-.745s-14.638-23.5-9.006-42.94a1.886,1.886,0,0,1,1.944-1.367l8.162.6a4.308,4.308,0,0,0,3.011-.938l4.943-3.972Z" transform="translate(-760.52 -325.196)"/></clipPath><linearGradient id="eh" x1="-7.219" y1="3.556" x2="-7.209" y2="3.556" xlink:href="#ce"/><clipPath id="ei"><path class="a" d="M711.969,133c-18.075,8.391-36.824,20.641-48.761,19.568a3.931,3.931,0,0,0-4.281,4.01c.762,33.048-1.594,77.649,53.467,111.946a3.94,3.94,0,0,0,3.764.218c11.047-5.233,64.313-34.879,55.843-116.69a3.929,3.929,0,0,0-3.689-3.52c-9.315-.512-36.145-3.017-52.333-15.115a3.936,3.936,0,0,0-4.011-.416" transform="translate(-658.926 -132.632)"/></clipPath><linearGradient id="ej" x1="-1.936" y1="1.759" x2="-1.932" y2="1.759" gradientUnits="objectBoundingBox"><stop offset="0" stop-color="#3f2bf3"/><stop offset="1" stop-color="#3522cb"/></linearGradient><clipPath id="el"><path class="a" d="M790.824,522.132s15.1,32.918,23.027,46.552c0,0,1.574,8.579,0,11.277l-1.342.6,6.26-.186s.556-11.539.122-12.184a1.594,1.594,0,0,0-1.3-.6s-2.684-21.266-10.457-25.8L799.6,515.833Z" transform="translate(-790.824 -515.833)"/></clipPath><linearGradient id="em" x1="-16.269" y1="1.098" x2="-16.249" y2="1.098" xlink:href="#ce"/><clipPath id="en"><path class="a" d="M831.177,608.249c.5,2.065.952,7.418-.321,8.041s-4.933.732-4.933.732-2.589.257-2.673,1.617c-.009.151,4.888.081,7.548.033A2.116,2.116,0,0,0,832.826,617l2.009-10.555a1.9,1.9,0,0,0-1.442-2.2l-1.121-.257s-1.6,2.195-1.1,4.261" transform="translate(-823.249 -603.988)"/></clipPath><linearGradient id="eo" x1="-29.253" y1="1.361" x2="-29.217" y2="1.361" xlink:href="#ca"/><clipPath id="ep"><path class="a" d="M770.67,622.88l-4.459,2.541a.552.552,0,0,0,.279,1.033c4.452-.045,14.428-.185,15.314-.554,1.145-.476-.417-4.589-2.06-5.981Z" transform="translate(-765.931 -619.918)"/></clipPath><linearGradient id="eq" x1="-49.857" y1="0.875" x2="-49.793" y2="0.875" xlink:href="#ca"/><clipPath id="er"><path class="a" d="M774.126,579.421l-6.532,4.1s3.273-.556,5.7-.732,4.66-2.962,4.66-2.962l-.783-1.248s-2.447-46.959-1.851-52.292L761.6,522.994s9.76,47.216,12.522,56.427" transform="translate(-761.604 -522.994)"/></clipPath><linearGradient id="es" x1="-27.313" y1="1.105" x2="-27.277" y2="1.105" xlink:href="#ce"/><clipPath id="et"><path class="a" d="M702.335,312.3l-.566,2.264a7.724,7.724,0,0,0,1.642,6.918l4.3,4.992a3.884,3.884,0,0,1,.951,2.615c-.749,33.4,19.5,45.644,19.5,45.644l5.384-12.278c-22.362-12.551-21.015-37.113-21.015-37.113l3.868-4.117-3.581-.04c-1.926.167-2.109-.573-2.9-2.338l-2.16-3.41a7.9,7.9,0,0,0-3.244-3.6l-.449-.261a1.173,1.173,0,0,0-1.729.731" transform="translate(-701.538 -311.406)"/></clipPath><linearGradient id="eu" x1="-12.69" y1="3.015" x2="-12.672" y2="3.015" xlink:href="#ce"/><clipPath id="ev"><path class="a" d="M749.561,396.054l-3.857,11.8a2.154,2.154,0,0,0,.853,2.462l.792.527c-.576,1.71-1.333,3.488-.316,4.98,3.518,5.162,7.976,15.518,7.976,15.518l15.84.072-.386-4.472,4.858-27.414c-7.913.136-20.587-3.2-24.328-4.236a1.2,1.2,0,0,0-.315-.043,1.178,1.178,0,0,0-1.116.806" transform="translate(-745.597 -395.248)"/></clipPath><linearGradient id="ew" x1="-9.762" y1="3.17" x2="-9.749" y2="3.17" gradientUnits="objectBoundingBox"><stop offset="0" stop-color="#fdf53f"/><stop offset="0.665" stop-color="#e57a58"/><stop offset="1" stop-color="#d93c65"/></linearGradient><clipPath id="ex"><path class="a" d="M758.674,452.426l.311,2.709s-4.476,13.406,2.238,44.714c0,0,14.541,4.119,26.492-5.739,0,0-3.372-29.551-4.292-30.927-4.587-6.856-7.642-8.346-7.642-8.346l-.138-2.96s-12.783,2.311-16.97.549" transform="translate(-757.523 -451.877)"/></clipPath><linearGradient id="ey" x1="-7.206" y1="1.853" x2="-7.196" y2="1.853" xlink:href="#ca"/><clipPath id="ez"><path class="a" d="M770.059,391.928c2.456,3.241,10,1.718,10,1.718l-1.881-11.433-4.817-.437s-3.362,10.079-3.307,10.152" transform="translate(-770.058 -381.776)"/></clipPath><linearGradient id="fa" x1="-44.878" y1="11.171" x2="-44.819" y2="11.171" xlink:href="#ce"/><clipPath id="fb"><path class="a" d="M775.983,354.324c-.321.2-10.292,4.32-8.149,14.672a1.943,1.943,0,0,0,1.105,1.384,16.887,16.887,0,0,0,8.381,1.387c5.223-.531,8.646-9.645,8.5-12.3-.12-2.195-4.6-5.638-7.942-5.638a3.538,3.538,0,0,0-1.9.491" transform="translate(-767.533 -353.833)"/></clipPath><linearGradient id="fc" x1="-22.823" y1="7.807" x2="-22.794" y2="7.807" xlink:href="#ce"/><clipPath id="fd"><path class="a" d="M773.013,352.114c-1.622,2.581-.186,5.973,1.36,9.833,7.261,18.132-13.13,34.09-8.023,45.629,5.757,13.008,42.884,18.063,52.147,2.45,5.666-9.551.978-26.957-8.581-32.724-5.761-3.476-10.51-1.045-14.63-5.621-5.273-5.856-.4-13.073-5.526-18.475A13.62,13.62,0,0,0,780,349.29c-3.1,0-5.846,1.012-6.985,2.824" transform="translate(-765.52 -349.29)"/></clipPath><linearGradient id="fe" x1="-4.315" y1="1.835" x2="-4.309" y2="1.835" xlink:href="#aj"/><clipPath id="fg"><rect class="a" width="27.062" height="38.759"/></clipPath><clipPath id="fh"><rect class="a" width="26.695" height="29.801"/></clipPath><clipPath id="fi"><rect class="a" width="17.385" height="20.415"/></clipPath></defs><g class="b"><g class="c"><g class="d"><g class="b"><g class="d" transform="translate(0 1.006)"><g class="e"><g transform="translate(0 0)"><g class="f"><rect class="g" width="416.277" height="634.498" transform="translate(-35.018 371.88) rotate(-86.163)"/></g></g></g></g><g class="h" transform="translate(32.839)"><g class="i"><g transform="translate(0 0)"><g class="j"><rect class="k" width="532.006" height="381.5" transform="translate(-7.685 -16.671)"/></g></g></g></g></g></g><path class="l" d="M791.343,25.574a.582.582,0,0,1-.373-.134c-.6-.5-1.216-.984-1.818-1.444a.586.586,0,1,1,.712-.932c.613.469,1.237.964,1.852,1.472a.586.586,0,0,1-.373,1.038" transform="translate(-326.339 -9.49)"/><path class="l" d="M621.636,66.1a.586.586,0,0,1-.586-.565c-.026-.722-.04-1.459-.04-2.189,0-.874.02-1.765.057-2.647a.566.566,0,0,1,.611-.561.586.586,0,0,1,.561.611c-.037.865-.056,1.739-.056,2.6,0,.717.014,1.439.039,2.147a.587.587,0,0,1-.565.607h-.021m.851-12.526a.648.648,0,0,1-.1-.008.586.586,0,0,1-.478-.678c.272-1.578.612-3.17,1.009-4.731a.587.587,0,0,1,1.137.29c-.39,1.53-.724,3.092-.991,4.64a.586.586,0,0,1-.577.487m3.388-12.09a.586.586,0,0,1-.545-.8c.589-1.5,1.243-2.987,1.943-4.428a.586.586,0,1,1,1.055.512c-.687,1.413-1.328,2.875-1.906,4.345a.587.587,0,0,1-.547.372m5.762-11.153a.586.586,0,0,1-.49-.908c.879-1.342,1.824-2.667,2.807-3.938a.586.586,0,1,1,.927.718c-.965,1.246-1.892,2.545-2.753,3.862a.585.585,0,0,1-.491.266m7.924-9.732a.587.587,0,0,1-.415-1c1.135-1.133,2.332-2.236,3.554-3.278a.586.586,0,1,1,.761.892c-1.2,1.023-2.374,2.1-3.487,3.216a.586.586,0,0,1-.414.171M649.31,12.7a.586.586,0,0,1-.321-1.077c1.346-.88,2.742-1.716,4.148-2.487a.586.586,0,0,1,.563,1.028c-1.379.755-2.748,1.577-4.069,2.439a.581.581,0,0,1-.32.1m64.267-1.75a.582.582,0,0,1-.293-.079c-1.36-.786-2.772-1.531-4.2-2.212a.587.587,0,0,1,.506-1.058c1.452.695,2.892,1.454,4.279,2.256a.586.586,0,0,1-.294,1.094M660.465,6.934A.586.586,0,0,1,660.25,5.8c1.495-.588,3.031-1.124,4.565-1.594a.586.586,0,1,1,.343,1.121c-1.506.461-3.013.987-4.479,1.564a.592.592,0,0,1-.215.04m41.657-1.128a.6.6,0,0,1-.185-.03c-1.5-.5-3.035-.943-4.559-1.319a.587.587,0,0,1,.282-1.139c1.552.385,3.115.837,4.646,1.344a.587.587,0,0,1-.185,1.143M672.557,3.557a.586.586,0,0,1-.1-1.164c1.585-.271,3.2-.483,4.8-.63a.586.586,0,0,1,.107,1.168c-1.567.143-3.15.351-4.7.617a.585.585,0,0,1-.1.009m17.308-.472a.537.537,0,0,1-.069,0c-1.563-.181-3.154-.3-4.732-.361a.586.586,0,0,1-.564-.607.574.574,0,0,1,.607-.564c1.608.059,3.23.183,4.823.368a.586.586,0,0,1-.066,1.169" transform="translate(-256.883 -0.64)"/><path class="l" d="M623.418,126.387a.588.588,0,0,1-.574-.468c-.158-.775-.3-1.557-.431-2.327a.587.587,0,0,1,1.157-.191c.125.755.267,1.523.422,2.283a.585.585,0,0,1-.456.692.6.6,0,0,1-.119.012" transform="translate(-257.46 -50.841)"/><path class="l" d="M668.5,194.275a.585.585,0,0,1-.314-.091c-.67-.426-1.333-.867-1.972-1.31a.586.586,0,0,1,.667-.964c.628.435,1.278.867,1.934,1.285a.587.587,0,0,1-.316,1.081" transform="translate(-275.476 -79.341)"/><path class="l" d="M707.556,164.764c-.793,0-1.6-.016-2.395-.047a.586.586,0,1,1,.045-1.172c1.561.061,3.143.061,4.673,0a.573.573,0,0,1,.608.563.586.586,0,0,1-.563.609c-.779.031-1.576.046-2.368.046m9.963-.821a.586.586,0,0,1-.1-1.164c1.526-.253,3.064-.57,4.572-.941a.586.586,0,1,1,.28,1.139c-1.537.378-3.105.7-4.661.958a.533.533,0,0,1-.1.008m-19.951-.006a.6.6,0,0,1-.1-.008c-1.556-.259-3.124-.583-4.661-.962a.586.586,0,0,1,.281-1.138c1.509.371,3.047.689,4.573.943a.586.586,0,0,1-.1,1.164m31.874-3.233a.587.587,0,0,1-.21-1.134c1.449-.555,2.893-1.173,4.292-1.836a.586.586,0,1,1,.5,1.06c-1.427.675-2.9,1.305-4.375,1.872a.583.583,0,0,1-.21.039m-43.8-.011a.583.583,0,0,1-.209-.039c-1.476-.564-2.949-1.193-4.376-1.868a.586.586,0,1,1,.5-1.06c1.4.661,2.846,1.278,4.295,1.833a.586.586,0,0,1-.21,1.133m54.833-5.545a.586.586,0,0,1-.316-1.081c1.309-.833,2.6-1.726,3.839-2.656a.587.587,0,0,1,.7.938c-1.264.948-2.579,1.858-3.913,2.707a.588.588,0,0,1-.314.091m9.7-7.648a.587.587,0,0,1-.408-1.008c1.115-1.078,2.2-2.213,3.227-3.373a.586.586,0,1,1,.878.778c-1.046,1.181-2.153,2.338-3.289,3.438a.588.588,0,0,1-.408.165m7.958-9.44a.587.587,0,0,1-.484-.917c.874-1.282,1.708-2.612,2.479-3.954a.586.586,0,0,1,1.017.584c-.786,1.369-1.636,2.725-2.527,4.031a.587.587,0,0,1-.486.256m5.893-10.857a.6.6,0,0,1-.226-.045.586.586,0,0,1-.314-.768c.473-1.13.918-2.292,1.325-3.453q.16-.459.313-.919a.586.586,0,1,1,1.113.369q-.155.469-.32.938c-.414,1.183-.867,2.367-1.349,3.518a.587.587,0,0,1-.541.36m3.614-11.816a.547.547,0,0,1-.115-.012.587.587,0,0,1-.461-.69c.3-1.521.55-3.072.734-4.61a.586.586,0,1,1,1.164.14c-.188,1.568-.439,3.149-.748,4.7a.586.586,0,0,1-.574.472m1.17-12.3a.586.586,0,0,1-.586-.582c-.011-1.55-.083-3.119-.213-4.664a.585.585,0,0,1,.535-.633.578.578,0,0,1,.634.535c.132,1.574.206,3.174.217,4.754a.587.587,0,0,1-.582.59Z" transform="translate(-281.583 -40.209)"/><path class="l" d="M827.87,83.8a.587.587,0,0,1-.573-.464c-.162-.758-.339-1.519-.528-2.26a.587.587,0,0,1,1.137-.289c.192.756.372,1.532.538,2.3a.586.586,0,0,1-.574.709" transform="translate(-341.988 -33.233)"/></g><g transform="translate(378.922 15.967)"><g class="m"><rect class="n" width="98.028" height="98.085" transform="translate(-4.967 92.981) rotate(-86.979)"/></g></g><g class="c"><path class="l" d="M718.34,109.758a10.444,10.444,0,1,1,2.429-.287,10.458,10.458,0,0,1-2.429.287m.035-19.063a8.681,8.681,0,0,0-2.018.238,8.606,8.606,0,1,0,2.018-.238m8.1,13.645h0Z" transform="translate(-292.847 -36.788)"/><path class="l" d="M706.477,114.737a26.778,26.778,0,1,1,19.973-44.585l-1.316,1.168a24.976,24.976,0,1,0,6.181,19.353c.01-.086.019-.173.028-.259.006-.062.012-.124.018-.186l1.751.162a26.967,26.967,0,0,1-1.125,5.588h0q-.312.992-.694,1.948a26.824,26.824,0,0,1-24.815,16.812" transform="translate(-281.143 -25.306)"/><path class="l" d="M900.846,162.614a.587.587,0,0,1-.374-.134c-.588-.487-1.2-.958-1.826-1.4a.587.587,0,0,1,.678-.958c.647.459,1.285.947,1.9,1.452a.586.586,0,0,1-.374,1.038" transform="translate(-371.625 -66.191)"/><path class="l" d="M813.824,178.94a.551.551,0,0,1-.076-.005.586.586,0,0,1-.507-.657,32.555,32.555,0,0,1,1.048-4.967.586.586,0,0,1,1.125.331,31.328,31.328,0,0,0-1.01,4.787.586.586,0,0,1-.581.511m4.267-12.285a.587.587,0,0,1-.5-.888,32.193,32.193,0,0,1,2.942-4.137.587.587,0,0,1,.9.754,30.979,30.979,0,0,0-2.834,3.985.586.586,0,0,1-.5.286m8.827-9.543a.586.586,0,0,1-.34-1.064,32.627,32.627,0,0,1,4.354-2.609.587.587,0,0,1,.523,1.05,31.327,31.327,0,0,0-4.2,2.515.582.582,0,0,1-.339.108m29.7-3.831a.577.577,0,0,1-.208-.038c-.249-.094-.5-.186-.752-.274a31.639,31.639,0,0,0-3.944-1.1.586.586,0,1,1,.24-1.147,32.76,32.76,0,0,1,4.09,1.139q.395.138.782.286a.586.586,0,0,1-.208,1.134m-17.789-1.388a.586.586,0,0,1-.12-1.16,32.528,32.528,0,0,1,5.034-.653.586.586,0,1,1,.059,1.172,31.19,31.19,0,0,0-4.851.63.613.613,0,0,1-.121.012" transform="translate(-336.398 -62.081)"/><path class="l" d="M814.2,214.629a.587.587,0,0,1-.574-.468c-.159-.777-.291-1.569-.392-2.354a.586.586,0,0,1,.506-.657.594.594,0,0,1,.657.507c.1.757.225,1.52.378,2.269a.588.588,0,0,1-.575.7" transform="translate(-336.396 -87.341)"/><path class="l" d="M838.681,251.244a.581.581,0,0,1-.3-.081c-.681-.4-1.357-.833-2.012-1.285a.586.586,0,0,1,.667-.965c.631.437,1.284.853,1.939,1.239a.586.586,0,0,1-.3,1.092" transform="translate(-345.863 -102.921)"/><path class="l" d="M865.291,238.713a.586.586,0,0,1-.071-1.168,31.327,31.327,0,0,0,4.714-.964.587.587,0,0,1,.322,1.128,32.591,32.591,0,0,1-4.891,1,.629.629,0,0,1-.074,0m-7.951-.016c-.025,0-.05,0-.075,0a32.466,32.466,0,0,1-4.888-1.02.586.586,0,1,1,.327-1.126,31.2,31.2,0,0,0,4.71.982.586.586,0,0,1-.074,1.168m20.068-4.089a.587.587,0,0,1-.3-1.093,31.358,31.358,0,0,0,3.957-2.737.586.586,0,0,1,.739.911,32.611,32.611,0,0,1-4.105,2.839.582.582,0,0,1-.3.08m9.523-8.533a.578.578,0,0,1-.347-.115.586.586,0,0,1-.123-.82,31.126,31.126,0,0,0,2.551-4.077.586.586,0,1,1,1.04.543,32.411,32.411,0,0,1-2.648,4.232.587.587,0,0,1-.473.237m5.382-11.6a.6.6,0,0,1-.136-.016.587.587,0,0,1-.435-.706A31.224,31.224,0,0,0,892.49,209a.586.586,0,1,1,1.169.091,32.338,32.338,0,0,1-.776,4.932.587.587,0,0,1-.57.451" transform="translate(-352.413 -86.228)"/><path class="l" d="M920.664,194.414a.586.586,0,0,1-.576-.484c-.133-.749-.294-1.506-.484-2.249a.587.587,0,1,1,1.137-.288c.2.772.365,1.557.5,2.334a.585.585,0,0,1-.476.679.556.556,0,0,1-.1.009" transform="translate(-380.389 -78.987)"/></g><g transform="translate(484.537 96.08)"><g class="o"><rect class="p" width="60.882" height="60.862" transform="translate(-14.085 4.499) rotate(-17.751)"/></g></g><g class="c"><path class="l" d="M863.49,206.827a5.839,5.839,0,1,1,1.359-.16,5.9,5.9,0,0,1-1.359.16m.017-9.893a4.065,4.065,0,1,0,2.125.6,4.068,4.068,0,0,0-2.125-.6" transform="translate(-354.779 -80.735)"/><path class="l" d="M857.308,209.4q-.7,0-1.406-.07a14.321,14.321,0,1,1,12.116-23.772L866.7,186.73a12.536,12.536,0,1,0,3.114,9.636c.005-.047.01-.094.013-.141l1.752.163a14.379,14.379,0,0,1-.6,2.987c-.025.08-.05.161-.077.24a14.348,14.348,0,0,1-13.593,9.788" transform="translate(-348.705 -74.772)"/><g class="q" transform="translate(107.611 33.699)"><g class="r"><g transform="translate(0 39.334)"><g class="s"><rect class="t" width="117.743" height="41.148" transform="translate(0 -2.779)"/></g></g><g transform="translate(102.554 0)"><g class="u"><rect class="v" width="83.519" height="24.459" transform="translate(0 -0.609)"/></g></g></g></g></g><g transform="translate(84.607 46.647)"><g class="w"><rect class="x" width="145.002" height="272.775" transform="translate(-0.555 -0.001)"/></g></g><g class="c"><g class="y" transform="translate(132.259 45.698)"><g class="z"><path class="l" d="M274.377,350.356a.95.95,0,0,1-.95-.932c-.008-.454-.96-45.837-11.005-76.284-9.993-30.292-16.931-89.545-15.134-105.45,1.569-13.882-3.956-72.035-15.953-85.271-1.574-1.737-3.179-2.605-4.806-2.582a.95.95,0,1,1-.027-1.9c2.184-.02,4.284,1.047,6.241,3.206,13.129,14.485,17.829,74.411,16.434,86.76-1.594,14.1,4.5,72.671,15.05,104.642,10.136,30.722,11.092,76.386,11.1,76.844a.95.95,0,0,1-.932.967Z" transform="translate(-225.565 -77.936)"/></g></g></g><g transform="translate(56.991 187.272)"><g class="aa"><rect class="ab" width="174.135" height="172.239" transform="matrix(0.678, -0.735, 0.735, 0.678, -72.379, 75.248)"/></g></g><g class="c"><g class="y" transform="translate(73.017 187.767)"><g class="ac"><path class="l" d="M192.639,450.415a.951.951,0,0,1-.891-.62c-.19-.514-19.264-51.538-38.79-66.577-15.335-11.81-26.97-30.118-28.294-44.521-.67-7.294,1.15-13.4,5.411-18.15a.95.95,0,0,1,1.414,1.269c-3.894,4.34-5.553,9.961-4.934,16.708,1.279,13.917,12.612,31.677,27.56,43.19,8.4,6.469,17.589,19.793,27.314,39.6,7.217,14.7,12.051,27.691,12.1,27.82a.95.95,0,0,1-.561,1.221.932.932,0,0,1-.33.06" transform="translate(-124.529 -320.231)"/></g></g></g><g transform="translate(446.395 172.374)"><g class="ad"><rect class="ae" width="176.933" height="209.832" transform="translate(-70.769 33.802) rotate(-25.676)"/></g></g><g class="c"><path class="l" d="M855.623,475.593a.952.952,0,0,1-.889-.615c-.1-.274-10.238-27.744-4.287-61.681.559-3.193,1.2-6.8,1.894-10.707,3.375-18.994,8-45.01,11.033-66.8,1.657-11.889,2.664-21.295,2.991-27.955.525-10.63-.8-11.913-1.068-12.061a.95.95,0,0,1,.918-1.665c2.245,1.238,3.885,7.188-.96,41.944-3.043,21.823-7.667,47.859-11.044,66.868-.695,3.909-1.335,7.511-1.894,10.7-5.861,33.431,4.093,60.414,4.195,60.683a.951.951,0,0,1-.89,1.285" transform="translate(-351.016 -121.61)"/></g><g transform="translate(494.813 240.574)"><g class="af"><rect class="ag" width="122.851" height="84.15" transform="matrix(0.021, -1, 1, 0.021, -6.885, 121.069)"/></g></g><g class="c"><path class="l" d="M878.572,528.02a.889.889,0,0,1-.141-.011.949.949,0,0,1-.8-1.079c.275-1.849,6.89-45.465,20.45-61.333,10.107-11.825,16.238-28.07,14.909-39.5-.641-5.515-2.918-9.742-6.768-12.563A.95.95,0,1,1,907.345,412c4.294,3.146,6.828,7.815,7.532,13.877,1.385,11.919-4.928,28.762-15.352,40.958-13.209,15.455-19.949,59.931-20.015,60.378a.95.95,0,0,1-.939.81" transform="translate(-363.03 -170.348)"/></g><g transform="translate(497.867 296.352)"><g class="ah"><rect class="ai" width="35.206" height="26.316" transform="translate(-4.323 0.999) rotate(-13.007)"/></g></g><g transform="translate(84.845 200.374)"><g class="aj"><rect class="ak" width="448.39" height="189.633" transform="matrix(0.993, -0.115, 0.115, 0.993, -26.529, 1.853)"/></g></g><g transform="translate(465.835 311.609)"><g class="al"><rect class="am" width="65.344" height="35.639" transform="translate(-20.514 0.235) rotate(-5.055)"/></g></g><g transform="translate(79.283 302.093)"><g class="an"><rect class="ao" width="94.643" height="47.076" transform="translate(-20.79 0.304) rotate(-5.055)"/></g></g><g transform="translate(340.467 215.657)"><g class="ap"><rect class="aq" width="116.69" height="82.9" transform="translate(-16.017 6.237) rotate(-21.317)"/></g></g><g class="c"><g class="q" transform="translate(345.696 215.459)"><g class="ar"><g transform="translate(0 0)"><g class="as"><rect class="at" width="111.737" height="82.11" transform="translate(-16.514 5.176) rotate(-21.325)"/></g></g></g></g></g><g transform="translate(206.649 214.568)"><g class="au"><rect class="av" width="133.504" height="86.796" transform="translate(-14.878 5.808) rotate(-21.325)"/></g></g><g class="c"><g class="q" transform="translate(260.421 213.352)"><g class="aw"><g transform="translate(0 0)"><g class="ax"><rect class="ay" width="72.465" height="38.218" transform="matrix(0.932, -0.364, 0.364, 0.932, -4.26, 0.681)"/></g></g></g></g></g><g transform="translate(87.45 264.334)"><g class="az"><rect class="ba" width="40.268" height="49.912" transform="translate(-8.16 26.079) rotate(-72.625)"/></g></g><g class="c"><path class="l" d="M703.364,391.759a1.1,1.1,0,0,1-.322-.048c-4.51-1.363-8.309-6.113-12.707-11.614-6.423-8.034-13.705-17.138-25.579-19.4-22.772-4.347-57.288-7.359-57.634-7.389a1.115,1.115,0,0,1-1.015-1.207,1.1,1.1,0,0,1,1.207-1.016c.347.03,34.98,3.052,57.861,7.42,12.682,2.42,20.567,12.28,26.9,20.2,4.166,5.21,7.764,9.709,11.61,10.873a1.115,1.115,0,0,1-.323,2.182" transform="translate(-250.716 -145.224)"/><path class="l" d="M812.039,433.652a1.114,1.114,0,0,1-1-.62c-1.871-3.771-10.154-5.481-18.163-7.135-2.865-.591-5.827-1.2-8.551-1.915a1.116,1.116,0,1,1,.564-2.159c2.669.7,5.6,1.305,8.439,1.89,8.926,1.842,17.356,3.583,19.709,8.328a1.113,1.113,0,0,1-.5,1.494,1.1,1.1,0,0,1-.494.117" transform="translate(-324.093 -174.474)"/></g><g transform="translate(391.455 301.246)"><g class="bb"><rect class="bc" width="100.592" height="100.682" transform="translate(-35.077 44.819) rotate(-52.346)"/></g></g><g transform="translate(404.69 313.695)"><g class="bd"><rect class="be" width="47.097" height="46.789" transform="translate(-1.492 0.03) rotate(-1.478)"/></g></g><g transform="translate(138.124 299.056)"><g class="bf"><rect class="bg" width="100.591" height="100.68" transform="translate(-35.076 44.819) rotate(-52.346)"/></g></g><g transform="translate(151.36 311.506)"><g class="bh"><rect class="bi" width="47.096" height="46.788" transform="translate(-1.492 0.03) rotate(-1.478)"/></g></g><g class="c"><path class="l" d="M553.506,521.777H553.4a1.152,1.152,0,0,1-.469-2.206c2.308-3.714,5.3-43.847,6.664-68.594a1.173,1.173,0,0,1,2.342.133c-.01.174-.975,17.6-2.358,34.826-2.816,35.054-4.551,35.841-6.069,35.841" transform="translate(-228.435 -186.091)"/></g><g transform="translate(212.984 267.67)"><g class="bj"><rect class="bk" width="43.657" height="29.952" transform="translate(-5.541 2.152) rotate(-21.226)"/></g></g><g class="c"><path class="l" d="M467.566,125.945s-7.839-55.01,35.991-54.653c0,0,41.336-1.67,40.267,54.989l-8.909,3.263s-.7-46.211-29.482-46.521-25.4,42.922-25.4,42.922Z" transform="translate(-193.185 -29.488)"/><g class="bl" transform="translate(275.581 43.002)"><g class="bm"><g transform="translate(0 0)"><g class="bn"><rect class="bo" width="83.794" height="58.89" transform="translate(-7.178 -1.768)"/></g></g></g></g></g><g transform="translate(267.711 96.458)"><g class="bp"><rect class="bq" width="119.297" height="121.62" transform="translate(-38.485 54.222) rotate(-54.652)"/></g></g><g transform="translate(274.049 104.08)"><g class="br"><rect class="bs" width="96.981" height="100.278" transform="translate(-29.157 51.53) rotate(-60.506)"/></g></g><g class="c"><path class="l" d="M536.893,214.735a7.022,7.022,0,1,1-7.021-7.021,7.021,7.021,0,0,1,7.021,7.021" transform="translate(-216.278 -85.922)"/><path class="l" d="M529.238,225.505v30.871c0,1.231,1.448,1.965,2.679,1.965h1.836c1.231,0,2.521-.734,2.521-1.965V225.505Z" transform="translate(-218.921 -93.281)"/><path class="l" d="M282.566,363.5l-1.692-.459-.006,0a.387.387,0,1,1,.2-.746h0l1.7.469a.383.383,0,1,1-.2.739Z" transform="translate(-116.064 -149.859)"/><path class="l" d="M272.86,361.159l-1.716-.354h-.007a.4.4,0,0,1,.16-.777h0l1.729.363a.393.393,0,1,1-.162.77Z" transform="translate(-112.026 -148.923)"/><path class="l" d="M263.034,359.415l-1.734-.249h-.007a.407.407,0,1,1,.116-.806h0l1.747.257a.4.4,0,1,1-.118.8Z" transform="translate(-107.94 -148.235)"/><path class="l" d="M253.119,358.264l-1.746-.144h-.007a.417.417,0,1,1,.069-.832h0l1.76.152a.414.414,0,1,1-.072.825Z" transform="translate(-103.82 -147.792)"/><path class="l" d="M243.154,357.7l-1.751-.042h-.008a.428.428,0,0,1,.021-.855h0l1.765.048a.424.424,0,0,1-.023.848Z" transform="translate(-99.681 -147.594)"/><path class="l" d="M233.172,357.691l-1.751.061h-.008a.438.438,0,0,1-.031-.875h0l1.765-.055a.434.434,0,1,1,.028.868Z" transform="translate(-95.537 -147.601)"/><path class="l" d="M223.207,358.229l-1.744.164h-.008a.448.448,0,1,1-.083-.892h0l1.761-.159a.445.445,0,0,1,.08.886Z" transform="translate(-91.403 -147.815)"/><path class="l" d="M213.3,359.347l-1.731.264h-.008a.458.458,0,1,1-.139-.906h0l1.748-.262a.455.455,0,0,1,.135.9Z" transform="translate(-87.293 -148.27)"/><path class="l" d="M203.473,361.041l-1.713.366-.008,0a.469.469,0,0,1-.2-.917h0l1.73-.363a.466.466,0,0,1,.191.911Z" transform="translate(-83.221 -148.964)"/><path class="l" d="M193.773,363.309l-1.688.466-.008,0a.479.479,0,0,1-.255-.923h0l1.706-.464a.476.476,0,1,1,.25.918Z" transform="translate(-79.203 -149.897)"/><path class="l" d="M184.231,366.147l-1.656.565-.008,0a.489.489,0,1,1-.316-.925h0l1.675-.565a.486.486,0,1,1,.311.921Z" transform="translate(-75.251 -151.065)"/><path class="l" d="M174.883,369.549l-1.619.664-.008,0a.5.5,0,0,1-.379-.924h0l1.638-.665a.5.5,0,1,1,.374.919Z" transform="translate(-71.383 -152.468)"/><path class="l" d="M165.765,373.512l-1.575.762-.009,0a.51.51,0,0,1-.443-.918h0l1.595-.763a.506.506,0,0,1,.438.913Z" transform="translate(-67.612 -154.105)"/><path class="l" d="M156.913,378.031l-1.525.858-.008,0a.52.52,0,1,1-.51-.906h0l1.544-.863a.517.517,0,1,1,.5.9Z" transform="translate(-63.953 -155.972)"/><path class="l" d="M148.363,383.091l-1.469.95-.009.005a.53.53,0,1,1-.575-.891h0l1.488-.955a.527.527,0,1,1,.569.888Z" transform="translate(-60.421 -158.064)"/><path class="l" d="M140.142,388.664l-1.409,1.037-.008.005a.54.54,0,1,1-.64-.87v0l1.428-1.042a.537.537,0,0,1,.634.867Z" transform="translate(-57.028 -160.368)"/><path class="l" d="M132.274,394.722l-1.345,1.119-.008.006a.551.551,0,0,1-.7-.847h0l1.364-1.126a.547.547,0,1,1,.7.844Z" transform="translate(-53.783 -162.875)"/><path class="l" d="M124.78,401.238l-1.277,1.2-.007.006a.561.561,0,0,1-.767-.819h0l1.3-1.2a.558.558,0,1,1,.76.817Z" transform="translate(-50.694 -165.571)"/><path class="l" d="M117.684,408.188l-1.2,1.268-.007.008a.571.571,0,1,1-.828-.787h0l1.223-1.279a.568.568,0,0,1,.821.786Z" transform="translate(-47.771 -168.448)"/><path class="l" d="M111.011,415.542l-1.129,1.337-.006.008a.581.581,0,1,1-.888-.75h0l1.146-1.349a.578.578,0,0,1,.881.749Z" transform="translate(-45.026 -171.494)"/><path class="l" d="M104.78,423.277l-1.048,1.4-.006.008a.592.592,0,0,1-.947-.71h0l1.066-1.413a.589.589,0,1,1,.939.709Z" transform="translate(-42.466 -174.697)"/><path class="l" d="M99.017,431.363l-.965,1.459-.006.009a.6.6,0,1,1-1-.664v0l.982-1.473a.6.6,0,0,1,1,.664Z" transform="translate(-40.1 -178.047)"/><path class="l" d="M93.743,439.776l-.877,1.513-.005.009a.612.612,0,0,1-1.06-.613v0l.892-1.529a.609.609,0,1,1,1.052.614Z" transform="translate(-37.94 -181.532)"/><path class="l" d="M88.984,448.488l-.784,1.561-.005.011a.622.622,0,0,1-1.112-.558v0l.8-1.58a.62.62,0,0,1,1.105.56Z" transform="translate(-35.994 -185.143)"/><path class="l" d="M84.759,457.472l-.688,1.605,0,.011a.632.632,0,0,1-1.162-.5v0l.7-1.625a.629.629,0,1,1,1.156.5Z" transform="translate(-34.273 -188.867)"/><path class="l" d="M81.1,466.7l-.589,1.645,0,.011a.635.635,0,0,1-1.2-.429h0l.6-1.666a.634.634,0,1,1,1.194.429Z" transform="translate(-32.789 -192.696)"/><path class="l" d="M78.029,476.146l-.478,1.679,0,.013a.639.639,0,0,1-1.23-.35h0l.487-1.7a.638.638,0,0,1,1.227.349Z" transform="translate(-31.559 -196.618)"/><path class="l" d="M75.622,485.78l-.358,1.708,0,.014A.643.643,0,0,1,74,487.238h0l.365-1.735a.641.641,0,0,1,1.255.264Z" transform="translate(-30.606 -200.619)"/><path class="l" d="M73.923,495.566l-.229,1.729,0,.015a.646.646,0,0,1-1.281-.169h0l.235-1.758a.645.645,0,0,1,1.278.17Z" transform="translate(-29.951 -204.685)"/><path class="l" d="M72.991,505.457,72.9,507.2v.016a.65.65,0,0,1-1.3-.065h0l.091-1.774a.648.648,0,0,1,1.3.067Z" transform="translate(-29.619 -208.796)"/><path class="l" d="M72.851,515.393l.066,1.74v.018a.653.653,0,0,1-1.305.05h0l-.066-1.776a.652.652,0,1,1,1.3-.048Z" transform="translate(-29.595 -212.927)"/><path class="l" d="M73.552,525.3l.234,1.724,0,.021a.656.656,0,0,1-1.3.176h0l-.237-1.764a.656.656,0,1,1,1.3-.175Z" transform="translate(-29.884 -217.049)"/><path class="l" d="M75.242,535.082l.415,1.687.005.022a.66.66,0,1,1-1.282.315h0l-.424-1.73a.659.659,0,1,1,1.28-.314Z" transform="translate(-30.584 -221.122)"/><path class="l" d="M77.988,544.612l.606,1.625.008.023a.663.663,0,1,1-1.244.463l-.62-1.672a.662.662,0,1,1,1.242-.461Z" transform="translate(-31.726 -225.092)"/><path class="l" d="M81.836,553.748c.254.519.533,1.026.8,1.538l.012.023a.667.667,0,0,1-1.186.613h0c-.272-.527-.558-1.048-.819-1.582l0-.005a.666.666,0,0,1,1.2-.586" transform="translate(-33.329 -228.905)"/><path class="l" d="M86.76,562.34l.977,1.435.013.019a.671.671,0,0,1-1.109.755h0l-1-1.474a.67.67,0,0,1,1.108-.753Z" transform="translate(-35.377 -232.484)"/><path class="l" d="M92.655,570.314l1.129,1.321.014.015a.674.674,0,0,1-1.025.877h0l-1.156-1.353a.674.674,0,0,1,1.025-.874Z" transform="translate(-37.831 -235.808)"/><path class="l" d="M99.366,577.625l1.256,1.2.014.013a.678.678,0,0,1-.939.978h0l-1.281-1.231a.677.677,0,0,1,.938-.976Z" transform="translate(-40.624 -238.853)"/><path class="l" d="M106.744,584.276l1.357,1.092.013.011a.681.681,0,1,1-.854,1.061h0l-1.382-1.115a.68.68,0,0,1,.855-1.058Z" transform="translate(-43.692 -241.621)"/><path class="l" d="M114.654,590.3l1.438.989.012.007a.685.685,0,1,1-.777,1.129h0l-1.459-1.007a.684.684,0,0,1,.776-1.126Z" transform="translate(-46.979 -244.126)"/><path class="l" d="M122.981,595.748l1.5.9.011.006a.689.689,0,0,1-.705,1.183h0l-1.522-.909a.688.688,0,1,1,.705-1.18Z" transform="translate(-50.437 -246.39)"/><path class="l" d="M131.637,600.674l1.55.809.009.005a.692.692,0,1,1-.641,1.227h0l-1.568-.821a.691.691,0,1,1,.641-1.224Z" transform="translate(-54.03 -248.436)"/><path class="l" d="M140.546,605.132l1.588.734.008,0a.7.7,0,1,1-.583,1.263h0l-1.6-.743a.695.695,0,1,1,.584-1.261Z" transform="translate(-57.726 -250.286)"/><path class="l" d="M149.655,609.177l1.619.669.007,0a.7.7,0,1,1-.533,1.292h0l-1.633-.677a.7.7,0,0,1,.534-1.29Z" transform="translate(-61.503 -251.964)"/><path class="l" d="M158.922,612.87l1.642.611.006,0a.7.7,0,1,1-.491,1.316h0l-1.655-.619a.7.7,0,1,1,.492-1.314Z" transform="translate(-65.344 -253.496)"/><path class="l" d="M168.308,616.245l1.661.557.007,0a.706.706,0,0,1-.449,1.339h0l-1.674-.563a.7.7,0,1,1,.45-1.336Z" transform="translate(-69.234 -254.895)"/><path class="l" d="M177.8,619.3l1.679.5.007,0a.71.71,0,0,1-.406,1.361h0l-1.692-.507a.709.709,0,0,1,.407-1.358Z" transform="translate(-73.167 -256.164)"/><path class="l" d="M187.386,622.045l1.694.446h.007a.713.713,0,0,1-.363,1.38h0l-1.707-.451a.712.712,0,1,1,.364-1.377Z" transform="translate(-77.14 -257.301)"/><path class="l" d="M197.057,624.471l1.708.39.006,0a.717.717,0,0,1-.319,1.4h0l-1.721-.4a.716.716,0,1,1,.321-1.395Z" transform="translate(-81.148 -258.306)"/><path class="l" d="M206.8,626.58l1.72.334h.006a.72.72,0,1,1-.274,1.414h0l-1.733-.339a.719.719,0,1,1,.276-1.411Z" transform="translate(-85.187 -259.18)"/><path class="l" d="M216.613,628.372l1.73.279h.006a.724.724,0,1,1-.23,1.429h0l-1.743-.283a.723.723,0,1,1,.232-1.427Z" transform="translate(-89.253 -259.923)"/><path class="l" d="M226.477,629.847l1.738.223h.007a.728.728,0,0,1-.185,1.444h0l-1.751-.227a.726.726,0,1,1,.186-1.441Z" transform="translate(-93.341 -260.535)"/><path class="l" d="M236.384,631l1.744.168h.007a.731.731,0,0,1-.14,1.455h0l-1.758-.171a.73.73,0,1,1,.141-1.453Z" transform="translate(-97.447 -261.015)"/><path class="l" d="M246.324,631.847l1.749.111h.007a.734.734,0,1,1-.094,1.466h0l-1.763-.114a.733.733,0,1,1,.1-1.463Z" transform="translate(-101.567 -261.364)"/><path class="l" d="M256.288,632.371l1.751.056h.007A.738.738,0,0,1,258,633.9h0l-1.766-.059a.737.737,0,0,1,.049-1.473Z" transform="translate(-105.697 -261.582)"/><path class="l" d="M266.263,632.578h1.76a.741.741,0,1,1,0,1.483h0l-1.767,0a.74.74,0,0,1,0-1.481Z" transform="translate(-109.831 -261.668)"/><path class="l" d="M276.239,632.426l1.751-.055H278a.745.745,0,0,1,.047,1.489h0l-1.766.054a.744.744,0,1,1-.046-1.487Z" transform="translate(-113.966 -261.582)"/><path class="l" d="M286.207,631.96l1.749-.111h.008a.749.749,0,1,1,.095,1.494h0l-1.763.11a.748.748,0,0,1-.093-1.492Z" transform="translate(-118.098 -261.365)"/><path class="l" d="M296.155,631.175l1.744-.166h.007a.752.752,0,1,1,.144,1.5h0l-1.759.167a.751.751,0,0,1-.141-1.5Z" transform="translate(-122.221 -261.017)"/><path class="l" d="M306.073,630.073l1.738-.223h.007a.756.756,0,0,1,.192,1.5h0l-1.753.222a.754.754,0,0,1-.19-1.5Z" transform="translate(-126.333 -260.536)"/><path class="l" d="M315.952,628.653l1.73-.279.007,0a.759.759,0,0,1,.242,1.5h0l-1.745.279a.758.758,0,0,1-.239-1.5Z" transform="translate(-130.428 -259.924)"/><path class="l" d="M325.78,626.915l1.72-.334h.007a.762.762,0,1,1,.291,1.5h0l-1.734.336a.762.762,0,0,1-.289-1.5Z" transform="translate(-134.502 -259.181)"/><path class="l" d="M335.547,624.859l1.707-.39h.007a.766.766,0,1,1,.341,1.493h0l-1.723.392a.765.765,0,0,1-.339-1.493Z" transform="translate(-138.551 -258.305)"/><path class="l" d="M345.242,622.486l1.693-.446.008,0a.769.769,0,1,1,.392,1.488h0l-1.709.448a.769.769,0,1,1-.39-1.487Z" transform="translate(-142.57 -257.298)"/><path class="l" d="M354.854,619.8l1.678-.5.008,0a.773.773,0,1,1,.443,1.481h0l-1.693.5a.772.772,0,0,1-.44-1.48Z" transform="translate(-146.555 -256.158)"/><path class="l" d="M364.372,616.787l1.66-.558.008,0a.777.777,0,0,1,.495,1.472h0l-1.675.561a.776.776,0,1,1-.493-1.472Z" transform="translate(-150.501 -254.887)"/><path class="l" d="M373.786,613.461l1.64-.613.008,0a.781.781,0,0,1,.547,1.462h0l-1.656.617a.779.779,0,0,1-.544-1.461Z" transform="translate(-154.405 -253.485)"/><path class="l" d="M383.086,609.818l1.619-.669.008,0a.784.784,0,1,1,.6,1.449h0l-1.635.673a.783.783,0,0,1-.6-1.448Z" transform="translate(-158.261 -251.95)"/><path class="l" d="M392.259,605.863l1.595-.722.008,0a.787.787,0,0,1,.65,1.434h0l-1.611.727a.786.786,0,0,1-.647-1.433Z" transform="translate(-162.065 -250.288)"/><path class="l" d="M401.292,601.6l1.57-.775.007,0a.791.791,0,0,1,.7,1.419h0l-1.585.78a.79.79,0,1,1-.7-1.417Z" transform="translate(-165.811 -248.499)"/><path class="l" d="M410.18,597.048l1.543-.826.007,0a.795.795,0,0,1,.751,1.4h0l-1.558.832a.793.793,0,1,1-.748-1.4Z" transform="translate(-169.496 -246.588)"/><path class="l" d="M418.914,592.2l1.515-.877.007,0a.8.8,0,1,1,.8,1.382h0l-1.53.883a.8.8,0,1,1-.8-1.38Z" transform="translate(-173.117 -244.557)"/><path class="l" d="M427.484,587.073l1.486-.926.006,0a.8.8,0,0,1,.848,1.361h0l-1.5.933a.8.8,0,1,1-.846-1.36Z" transform="translate(-176.671 -242.409)"/><path class="l" d="M435.887,581.669l1.455-.973.006,0a.805.805,0,1,1,.9,1.339h0l-1.469.981a.8.8,0,0,1-.893-1.337Z" transform="translate(-180.155 -240.148)"/><path class="l" d="M444.112,576l1.423-1.02.006,0a.809.809,0,1,1,.942,1.314h0l-1.437,1.027a.808.808,0,0,1-.939-1.314Z" transform="translate(-183.566 -237.776)"/><path class="l" d="M452.152,570.064l1.39-1.065.006,0a.812.812,0,1,1,.988,1.289h0l-1.4,1.072a.811.811,0,1,1-.985-1.288Z" transform="translate(-186.9 -235.296)"/><path class="l" d="M460,563.875l1.356-1.109.006,0a.816.816,0,1,1,1.033,1.262h0l-1.369,1.118a.815.815,0,1,1-1.031-1.262Z" transform="translate(-190.154 -232.711)"/><path class="l" d="M467.649,557.441l1.32-1.152.006-.005a.819.819,0,0,1,1.078,1.235h0l-1.333,1.16a.818.818,0,1,1-1.075-1.234Z" transform="translate(-193.326 -230.025)"/><path class="l" d="M475.091,550.767l1.283-1.193.005-.005a.823.823,0,0,1,1.121,1.2h0l-1.3,1.2a.822.822,0,0,1-1.118-1.2Z" transform="translate(-196.412 -227.239)"/><path class="l" d="M482.319,543.86l1.244-1.234.006,0a.826.826,0,0,1,1.164,1.173h0l-1.257,1.243a.825.825,0,0,1-1.161-1.173Z" transform="translate(-199.409 -224.358)"/><path class="l" d="M489.323,536.728l1.2-1.273.006-.006a.83.83,0,0,1,1.206,1.142h0l-1.217,1.282a.829.829,0,0,1-1.2-1.141Z" transform="translate(-202.314 -221.383)"/><path class="l" d="M496.1,529.377l1.163-1.309.005-.006a.833.833,0,0,1,1.247,1.106h0l-1.175,1.32a.832.832,0,1,1-1.244-1.106Z" transform="translate(-205.123 -218.318)"/><path class="l" d="M502.635,521.816l1.12-1.346.005-.006a.837.837,0,1,1,1.286,1.071h0l-1.132,1.357a.836.836,0,0,1-1.284-1.071Z" transform="translate(-207.834 -215.166)"/><path class="l" d="M508.928,514.05,510,512.669l.005-.007a.841.841,0,1,1,1.326,1.034l-1.088,1.393a.839.839,0,1,1-1.323-1.033Z" transform="translate(-210.444 -211.93)"/><path class="l" d="M514.967,506.088,516,504.673l.005-.007a.844.844,0,0,1,1.364.994h0l-1.042,1.428a.843.843,0,1,1-1.362-.994Z" transform="translate(-212.948 -208.613)"/><path class="l" d="M520.745,497.937l.984-1.448,0-.006a.848.848,0,0,1,1.4.953h0l-.995,1.461a.847.847,0,0,1-1.4-.953Z" transform="translate(-215.345 -205.218)"/><path class="l" d="M526.256,489.6l.936-1.479,0-.006a.851.851,0,0,1,1.439.91h0l-.948,1.492a.85.85,0,1,1-1.435-.911Z" transform="translate(-217.631 -201.748)"/><path class="l" d="M531.49,481.1l.887-1.509,0-.008a.855.855,0,0,1,1.474.866h0l-.9,1.522a.854.854,0,0,1-1.471-.867Z" transform="translate(-219.802 -198.205)"/><path class="l" d="M536.442,472.422l.836-1.537,0-.008a.858.858,0,0,1,1.508.82h0l-.846,1.552a.857.857,0,1,1-1.505-.82Z" transform="translate(-221.856 -194.594)"/><path class="l" d="M541.1,463.588l.784-1.565,0-.008a.862.862,0,0,1,1.541.772v0l-.794,1.578a.86.86,0,1,1-1.538-.772Z" transform="translate(-223.788 -190.917)"/><path class="l" d="M545.462,454.6l.731-1.591,0-.008a.865.865,0,0,1,1.573.723h0l-.74,1.6a.864.864,0,1,1-1.57-.724Z" transform="translate(-225.598 -187.178)"/><path class="l" d="M549.525,445.48l.681-1.611,0-.007a.869.869,0,1,1,1.6.678l-.69,1.624a.868.868,0,0,1-1.6-.678Z" transform="translate(-227.283 -183.385)"/><path class="l" d="M553.322,436.244l.639-1.629,0-.006a.872.872,0,1,1,1.624.637h0l-.645,1.64a.871.871,0,0,1-1.622-.638Z" transform="translate(-228.857 -179.548)"/><path class="l" d="M556.886,426.918l.6-1.645,0,0a.876.876,0,0,1,1.645.6h0l-.607,1.654a.875.875,0,0,1-1.642-.6Z" transform="translate(-230.335 -175.675)"/><path class="l" d="M560.251,417.513l.572-1.657,0,0a.879.879,0,1,1,1.662.573h0l-.577,1.665a.878.878,0,1,1-1.66-.575Z" transform="translate(-231.729 -171.773)"/><path class="l" d="M563.463,408.061l.55-1.667v0a.874.874,0,0,1,1.66.546l-.549,1.675a.876.876,0,0,1-1.664-.545h0Z" transform="translate(-233.059 -167.856)"/><path class="l" d="M566.556,398.558l.532-1.675a.867.867,0,1,1,1.654.521l-.53,1.681a.869.869,0,1,1-1.658-.523Z" transform="translate(-234.34 -163.92)"/><path class="l" d="M569.559,389.023l.522-1.681a.861.861,0,1,1,1.645.507l-.518,1.685a.863.863,0,0,1-1.65-.507Z" transform="translate(-235.583 -159.974)"/><path class="l" d="M572.507,379.471l.515-1.682a.855.855,0,0,1,1.635.5l-.512,1.683a.857.857,0,1,1-1.639-.5Z" transform="translate(-236.804 -156.024)"/><path class="l" d="M575.438,369.913l.517-1.682a.849.849,0,0,1,1.623.5l-.512,1.682a.851.851,0,0,1-1.628-.5Z" transform="translate(-238.016 -152.072)"/><path class="l" d="M578.387,360.359l.525-1.68a.843.843,0,1,1,1.609.5l-.52,1.679a.845.845,0,1,1-1.615-.5Z" transform="translate(-239.235 -148.123)"/><path class="l" d="M581.394,350.82l.539-1.679a.837.837,0,1,1,1.593.512l-.535,1.676a.838.838,0,1,1-1.6-.5Z" transform="translate(-240.478 -144.183)"/><path class="l" d="M584.494,341.3l.56-1.673a.831.831,0,0,1,1.576.528h0l-.555,1.668v0a.832.832,0,1,1-1.579-.525Z" transform="translate(-241.759 -140.255)"/><path class="l" d="M587.726,331.829l.588-1.664a.824.824,0,1,1,1.554.549v0l-.58,1.656,0,0a.826.826,0,1,1-1.559-.546Z" transform="translate(-243.095 -136.346)"/><path class="l" d="M591.122,322.416l.62-1.651a.818.818,0,1,1,1.532.575v0l-.613,1.644,0,0a.82.82,0,1,1-1.536-.573Z" transform="translate(-244.498 -132.466)"/><path class="l" d="M594.72,313.081l.66-1.637a.812.812,0,0,1,1.506.607l0,0-.651,1.627,0,.006a.814.814,0,0,1-1.511-.605Z" transform="translate(-245.983 -128.619)"/><path class="l" d="M598.553,303.84l.705-1.618a.806.806,0,0,1,1.478.643l0,.005-.7,1.607,0,.006a.807.807,0,1,1-1.482-.642Z" transform="translate(-247.565 -124.814)"/><path class="l" d="M602.662,294.714l.766-1.595a.795.795,0,0,1,1.435.683l0,.009-.746,1.581,0,.009a.8.8,0,1,1-1.447-.684Z" transform="translate(-249.26 -121.063)"/><path class="l" d="M607.141,285.766l.834-1.56a.776.776,0,0,1,1.372.726l-.005.009-.814,1.548,0,.009a.782.782,0,0,1-1.384-.728Z" transform="translate(-251.107 -117.393)"/><path class="l" d="M612,277.022l.9-1.523a.758.758,0,0,1,1.307.766l-.005.009-.88,1.512-.005.008a.763.763,0,1,1-1.319-.768Z" transform="translate(-253.112 -113.807)"/><path class="l" d="M617.239,268.5l.966-1.482a.739.739,0,0,1,1.241.8l-.006.009-.946,1.471-.006.008a.744.744,0,1,1-1.252-.805Z" transform="translate(-255.272 -110.314)"/><path class="l" d="M622.856,260.222l1.033-1.436a.72.72,0,0,1,1.172.837l-.006.009-1.013,1.426-.005.008a.726.726,0,0,1-1.184-.84Z" transform="translate(-257.589 -106.923)"/><path class="l" d="M628.854,252.218l1.1-1.385a.7.7,0,0,1,1.1.87l-.007.008-1.079,1.376-.006.008a.707.707,0,0,1-1.113-.873Z" transform="translate(-260.063 -103.648)"/><path class="l" d="M635.239,244.519l1.17-1.327a.683.683,0,0,1,1.027.9l-.008.008-1.148,1.319-.007.008a.688.688,0,1,1-1.038-.9Z" transform="translate(-262.697 -100.501)"/><path class="l" d="M642.019,237.167l1.241-1.262a.664.664,0,0,1,.951.928l-.008.008-1.218,1.255-.007.008a.67.67,0,0,1-.962-.933Z" transform="translate(-265.493 -97.5)"/><path class="l" d="M649.2,230.206l1.313-1.189a.645.645,0,0,1,.87.954l-.009.008-1.288,1.181-.009.008a.651.651,0,1,1-.88-.96Z" transform="translate(-268.455 -94.665)"/><path class="l" d="M656.789,223.694l1.387-1.1a.623.623,0,0,1,.78.972l-.009.008-1.357,1.1-.009.008a.633.633,0,1,1-.8-.982Z" transform="translate(-271.584 -92.02)"/><path class="l" d="M664.806,217.711l1.459-1a.59.59,0,0,1,.675.968l-.011.008-1.427,1.006-.011.008a.6.6,0,0,1-.692-.982l.006,0" transform="translate(-274.891 -89.598)"/><path class="l" d="M673.229,212.308l1.532-.9a.557.557,0,0,1,.568.958l-.011.007-1.5.9-.011.006a.567.567,0,1,1-.583-.972l.005,0" transform="translate(-278.367 -87.42)"/><path class="l" d="M682.048,207.564l1.6-.771a.524.524,0,0,1,.461.941l-.012.005-1.563.778-.012.006a.534.534,0,0,1-.475-.956l.006,0" transform="translate(-282.006 -85.519)"/><path class="l" d="M691.227,203.562l1.655-.633a.491.491,0,0,1,.356.915l-.013,0-1.623.642-.012,0a.5.5,0,0,1-.368-.932l.005,0" transform="translate(-285.795 -83.929)"/><path class="l" d="M700.729,200.38l1.705-.481a.457.457,0,0,1,.254.879l-.013,0-1.675.493-.013,0a.468.468,0,1,1-.264-.9h.005" transform="translate(-289.717 -82.682)"/><path class="l" d="M710.492,198.086l1.743-.318a.424.424,0,0,1,.157.834l-.012,0-1.714.334-.012,0a.435.435,0,1,1-.166-.853h.005" transform="translate(-293.75 -81.804)"/><path class="l" d="M720.441,196.733l1.765-.15a.391.391,0,0,1,.07.779h-.012l-1.739.167h-.012a.4.4,0,1,1-.077-.8h0" transform="translate(-297.861 -81.317)"/></g><g transform="translate(140.132 367.264)"><g class="bt"><rect class="bu" width="20.032" height="2.151"/></g></g><g transform="translate(140.131 360.392)"><g class="bv"><rect class="bw" width="19.326" height="7.972" transform="translate(-0.021)"/></g></g><g transform="translate(141.966 355.496)"><g class="bx"><rect class="by" width="5.596" height="6.844" transform="translate(0)"/></g></g><g transform="translate(100.53 366.408)"><g class="bz"><rect class="ca" width="7.779" height="2.812" transform="translate(-0.167)"/></g></g><g transform="translate(100.586 355.46)"><g class="cb"><rect class="cc" width="11.639" height="13.083" transform="translate(0 -0.001)"/></g></g><g transform="translate(106.393 350.306)"><g class="cd"><rect class="ce" width="6.811" height="7.951" transform="translate(-0.124)"/></g></g><g transform="translate(106.173 274.213)"><g class="cf"><rect class="cg" width="98.099" height="95.362" transform="translate(-41.809 47.303) rotate(-48.527)"/></g></g><g transform="translate(134.636 218.621)"><g class="ch"><rect class="ci" width="74.045" height="76.126" transform="translate(-31.734 27.483) rotate(-41.015)"/></g></g><g transform="translate(142.378 289.653)"><g class="cj"><rect class="ck" width="11.176" height="11.714" transform="translate(-3.262 6.343) rotate(-63.435)"/></g></g><g transform="translate(123.266 254.729)"><g class="cl"><rect class="cm" width="22.889" height="23.537" transform="translate(-10.04 8.89) rotate(-41.526)"/></g></g><g transform="translate(122.937 218.951)"><g class="cn"><rect class="co" width="40.645" height="42.089" transform="translate(-20.876 15.792) rotate(-41.015)"/></g></g><g transform="translate(169.753 231.879)"><g class="cp"><rect class="cq" width="31.34" height="32.995" transform="translate(-15.46 13.446) rotate(-41.015)"/></g></g><g transform="translate(181.657 252.754)"><g class="cr"><rect class="cs" width="18.747" height="16.1"/></g></g><g transform="translate(156.436 208.73)"><g class="ct"><rect class="cu" width="18.97" height="14.551" transform="translate(-0.653 18.885) rotate(-89.665)"/></g></g><g transform="translate(162.998 198.758)"><g class="cv"><rect class="cw" width="20.561" height="16.511" transform="matrix(0.143, -0.99, 0.99, 0.143, -2.651, 18.375)"/></g></g><g transform="translate(158.022 192.666)"><g class="cx"><rect class="cy" width="32.687" height="36.065" transform="translate(-13.572 6.904) rotate(-28.877)"/></g></g><g transform="translate(159.367 208.802)"><g class="cz"><rect class="da" width="9.111" height="7.933" transform="translate(-2.876 7.227) rotate(-74.612)"/></g></g><g transform="translate(83.264 272.332)"><g class="db"><rect class="dc" width="39.34" height="36.11" transform="matrix(0.275, -0.961, 0.961, 0.275, -8.689, 30.378)"/></g></g><g transform="translate(3.128 271.339)"><g class="dd"><rect class="de" width="117.074" height="123.948" transform="matrix(0.275, -0.961, 0.961, 0.275, -24.912, 85.467)"/></g></g><g transform="translate(5.489 274.316)"><g class="df"><rect class="dg" width="110.13" height="116.86" transform="matrix(0.275, -0.961, 0.961, 0.275, -23.413, 80.318)"/></g></g><g transform="translate(36.207 302.658)"><g class="dh"><rect class="di" width="39.582" height="36.254" transform="translate(-9.15 30.588) rotate(-74.038)"/></g></g><g transform="translate(21.243 311.724)"><g class="dj"><rect class="dk" width="39.679" height="36.035" transform="matrix(0.275, -0.961, 0.961, 0.275, -9.942, 30.756)"/></g></g><g transform="translate(65.036 292.808)"><g class="dl"><rect class="dm" width="24.612" height="22.719" transform="matrix(0.275, -0.961, 0.961, 0.275, -6.141, 18.967)"/></g></g><g transform="translate(182.581 223.931)"><g class="dn"><rect class="do" width="88.618" height="63.549" transform="translate(-11.657 3.486) rotate(-16.648)"/></g></g><g transform="translate(178.303 230.565)"><g class="dp"><rect class="dq" width="79.043" height="45.228" transform="translate(-6.991 2.031) rotate(-16.648)"/></g></g><g transform="translate(125.562 233.189)"><g class="dr"><rect class="ds" width="83.001" height="77.248" transform="translate(-17.466 4.933) rotate(-16.648)"/></g></g><g class="c"><path class="l" d="M236.9,412.455a.473.473,0,0,1-.417-.694l.6-1.134a4.08,4.08,0,0,1,2.951-2.114L274.668,403a.473.473,0,0,1,.148.935l-34.636,5.511a3.127,3.127,0,0,0-2.264,1.62l-.6,1.134a.472.472,0,0,1-.419.252" transform="translate(-97.799 -166.701)"/></g><g transform="translate(198.412 253.208)"><g class="dt"><rect class="du" width="8.968" height="7.115" transform="translate(-2.076 -0.001)"/></g></g><g class="c"><path class="l" d="M168.765,456.047c.121-.243.235-.486.374-.732a23.657,23.657,0,0,1,9.968-9.017c5.619-2.852,11.637-3.7,16.053-2.085l2.4-5.238c-5.934-2.164-13.939-1.33-21.019,2.264a29.356,29.356,0,0,0-12.34,11.284c-.168.3-.311.6-.461.893a5.927,5.927,0,0,1,5.027,2.632" transform="translate(-67.731 -181.094)"/><path class="l" d="M202.186,443.768l-2.456,6.36c1.414,2.785-.559,6.775-3.193,10.474a25.025,25.025,0,0,1-8.985,7.475A23.626,23.626,0,0,1,174.39,470.8c-3.657-.428-6.336-1.974-7.544-4.354a6.389,6.389,0,0,1-.4-.987l-.006-.009c-1.213-1.9-1.972-3.59-3.126-4.562a2.841,2.841,0,0,0-2.591-.25,12.882,12.882,0,0,0,1.06,8.378c2.1,4.129,6.338,6.765,11.944,7.421a23.4,23.4,0,0,0,2.731.157,31.981,31.981,0,0,0,24.7-12.7c3.9-5.478,6.187-14.674,1.027-20.127" transform="translate(-66.375 -183.566)"/></g><g transform="translate(137.454 274.213)"><g class="dv"><rect class="dw" width="14.59" height="11.666" transform="matrix(0.976, -0.218, 0.218, 0.976, -3.114, 0.431)"/></g></g><g class="c"><path class="l" d="M298.052,337.347a.226.226,0,0,1-.055-.006.236.236,0,0,1-.175-.284c.008-.035.8-3.535-1.251-5.076a.237.237,0,0,1,.283-.379c2.3,1.729,1.465,5.408,1.428,5.564a.236.236,0,0,1-.23.182" transform="translate(-122.638 -137.148)"/></g><g transform="translate(445.929 190.678)"><g class="dx"><rect class="dy" width="58.817" height="51.74" transform="translate(-25.639 44.618) rotate(-71.931)"/></g></g><g transform="translate(386.36 77.768)"><g class="dz"><rect class="ea" width="183.251" height="180.57" transform="matrix(0.601, -0.799, 0.799, 0.601, -67.254, 87.286)"/></g></g><g class="c"><path class="l" d="M720.684,270.372a111.535,111.535,0,0,1-29.343-30.59,125.258,125.258,0,0,1-14.672-32.019c-5.951-19.769-5.653-35.337-5.649-35.492a.408.408,0,0,1,.5-.388c.081.018,8.121,1.73,19.145-2.239s24.915-20.435,25.054-20.6a.408.408,0,0,1,.641.019c15.006,20.3,51.98,17.884,52.351,17.855a.41.41,0,0,1,.43.329,85.82,85.82,0,0,1-2.351,42.477,107.644,107.644,0,0,1-17.071,32.518,135.888,135.888,0,0,1-28.567,28.136.4.4,0,0,1-.228.07.409.409,0,0,1-.236-.075m27.374-103.884c-18.324-3.115-27.522-10.62-32.049-16.531-2.229,2.6-14.66,16.707-25.07,20.454-9.812,3.532-17.167,2.684-19.1,2.359a128.548,128.548,0,0,0,5.626,34.784,124.413,124.413,0,0,0,14.577,31.8,110.716,110.716,0,0,0,28.887,30.187,136.245,136.245,0,0,0,28.156-27.811,106.818,106.818,0,0,0,16.933-32.264,85,85,0,0,0,2.392-41.713,98.517,98.517,0,0,1-20.346-1.265" transform="translate(-277.568 -61.591)"/></g><g transform="translate(463.697 302.457)"><g class="eb"><rect class="ec" width="28.502" height="64.724"/></g></g><g transform="translate(482.71 354.147)"><g class="ed"><rect class="ee" width="16.422" height="13.9" transform="translate(-2.233 14.46) rotate(-81.254)"/></g></g><g transform="translate(449.101 363.487)"><g class="ef"><rect class="eg" width="9.085" height="18.027" transform="translate(-1.199 6.389) rotate(-81.254)"/></g></g><g transform="translate(446.564 306.656)"><g class="eh"><rect class="ei" width="16.35" height="60.525"/></g></g><g transform="translate(411.345 182.592)"><g class="ej"><rect class="ek" width="32.385" height="63.323" transform="translate(-0.378 0)"/></g></g><g transform="translate(437.179 231.753)"><g class="el"><rect class="em" width="44.041" height="46.302" transform="matrix(0.865, -0.503, 0.503, 0.865, -15.908, 9.136)"/></g></g><g transform="translate(444.172 264.957)"><g class="en"><rect class="eo" width="59.406" height="61.007" transform="matrix(0.748, -0.663, 0.663, 0.748, -28.873, 22.929)"/></g></g><g transform="translate(451.521 223.853)"><g class="ep"><rect class="eq" width="10.06" height="13.393" transform="translate(-0.055 0)"/></g></g><g transform="translate(450.041 207.469)"><g class="er"><rect class="es" width="19.651" height="21.47" transform="translate(-3.081 18.234) rotate(-86.11)"/></g></g><g transform="translate(448.861 204.805)"><g class="et"><rect class="eu" width="98.86" height="97.779" transform="matrix(0.666, -0.746, 0.746, 0.666, -42.204, 42.514)"/></g></g><g class="c"><g class="ev" transform="translate(469.795 215.335)"><g class="ew"><path class="l" d="M802,391.213c-.029-.072-.059-.145-.086-.219-1.079-2.873-.9-6.35.56-10.631,2.267-6.667,2.2-8.825.612-12.7-.047-.113-.094-.227-.144-.343l.158-.066c.046.109.091.218.135.324,1.592,3.882,1.672,6.167-.6,12.845-1.443,4.242-1.627,7.681-.562,10.516,1.149,3.057,4.294,5.445,8.63,6.536a46.414,46.414,0,0,0,5.772.943,49.984,49.984,0,0,1,5.422.857,10.5,10.5,0,0,1,4.6,2.116,4.839,4.839,0,0,1,1.68,4.621l-.167-.041a4.67,4.67,0,0,0-1.627-4.453,10.359,10.359,0,0,0-4.527-2.077,49.847,49.847,0,0,0-5.4-.854,46.4,46.4,0,0,1-5.794-.947c-4.286-1.079-7.428-3.413-8.662-6.423" transform="translate(-801.223 -367.249)"/></g></g><g class="ev" transform="translate(466.399 234.91)"><g class="ex"><path class="l" d="M796,407.565a8.129,8.129,0,0,1-.311-.9c-.543-1.934-.3-4.549,1.474-6.03l.11.131c-1.713,1.432-1.947,3.972-1.419,5.854a11.524,11.524,0,0,0,5.4,6.4,38.488,38.488,0,0,0,5.875,2.712c.656.259,1.335.526,2,.8a57.953,57.953,0,0,1,8.414,4.345c1.77,1.107,3.506,2.388,4.273,4.26.026.063.05.125.074.189a4.431,4.431,0,0,1-.335,3.625,2.907,2.907,0,0,1-2.036,1.479l-.026-.168a2.742,2.742,0,0,0,1.914-1.4,4.253,4.253,0,0,0,.323-3.481c-.711-1.932-2.474-3.235-4.278-4.362a57.812,57.812,0,0,0-8.39-4.333c-.66-.274-1.337-.542-1.993-.8a38.623,38.623,0,0,1-5.9-2.724,12.3,12.3,0,0,1-5.165-5.6" transform="translate(-795.432 -400.633)"/></g></g><g class="ev" transform="translate(464.945 242.325)"><g class="ey"><path class="l" d="M793.355,415.637a5.1,5.1,0,0,1-.387-2.358l.17.013c-.239,3.034,2.622,5.377,3.862,6.243a41.666,41.666,0,0,0,4.428,2.575,24.548,24.548,0,0,1,6.927,4.735,7.4,7.4,0,0,1,1.854,3.243,4.17,4.17,0,0,1-.722,3.605l-.131-.109a4,4,0,0,0,.687-3.458,7.245,7.245,0,0,0-1.813-3.167,24.436,24.436,0,0,0-6.881-4.7,41.944,41.944,0,0,1-4.446-2.585,9.987,9.987,0,0,1-3.548-4.04" transform="translate(-792.952 -413.279)"/></g></g><path class="l" d="M759.226,246.374l1.865-1.54a1.345,1.345,0,0,0,.374-1.394.77.77,0,0,0-.643-.553h-2.637l-2.072-6.293a4.577,4.577,0,0,0-4.6-3.088H733.74a4.578,4.578,0,0,0-4.61,3.127l-2,6.255h-2.554a.77.77,0,0,0-.643.553,1.271,1.271,0,0,0,.374,1.349l1.824,1.527-1.759,5.767a5.249,5.249,0,0,0,1.053,4.544,3.77,3.77,0,0,0,2.18,1.577v4.2c0,.834.369,1.587,1.348,1.587H731.8a1.616,1.616,0,0,0,1.665-1.587v-3.69h18.177v3.69A1.9,1.9,0,0,0,753.6,264h2.851a1.6,1.6,0,0,0,1.648-1.587v-4.1a7.493,7.493,0,0,0,2.161-1.695,5.117,5.117,0,0,0,.756-4.562Zm-29.011-3.425c.474-1.666.949-3.212,1.422-4.878a2.313,2.313,0,0,1,2.327-1.635h17.472a2.314,2.314,0,0,1,2.326,1.635c.474,1.666.948,3.272,1.422,4.938a.342.342,0,0,1-.076.343.419.419,0,0,1-.371.12H730.662a.438.438,0,0,1-.371-.151.4.4,0,0,1-.076-.373m1.822,11.531a2.863,2.863,0,1,1,2.863-2.863,2.863,2.863,0,0,1-2.863,2.863m16.09-4.549a.579.579,0,0,1-.579.579H736.98a.579.579,0,0,1-.579-.579v-.015a.579.579,0,0,1,.579-.579h10.569a.579.579,0,0,1,.579.579Zm5.235,4.549a2.863,2.863,0,1,1,2.863-2.863,2.863,2.863,0,0,1-2.863,2.863" transform="translate(-299.432 -96.59)"/><path class="l" d="M712.84,258.08a.947.947,0,0,1-.721-.331c-7.545-8.812-.208-17-.133-17.083a.948.948,0,0,1,1.4,1.28,10.785,10.785,0,0,0,.176,14.571.948.948,0,0,1-.72,1.564" transform="translate(-293.162 -99.425)"/><path class="l" d="M702.145,258.9a.946.946,0,0,1-.759-.379,17.985,17.985,0,0,1-3.34-15.627,20.058,20.058,0,0,1,3.2-6.922.948.948,0,0,1,1.494,1.167,18.508,18.508,0,0,0-2.869,6.284,15.987,15.987,0,0,0,3.035,13.96.947.947,0,0,1-.757,1.516" transform="translate(-288.517 -97.46)"/><path class="l" d="M798.249,258.08a.947.947,0,0,0,.721-.331c7.544-8.812.208-17,.133-17.083a.948.948,0,0,0-1.4,1.28,10.785,10.785,0,0,1-.176,14.571.948.948,0,0,0,.72,1.564" transform="translate(-329.806 -99.425)"/><path class="l" d="M808.568,258.9a.946.946,0,0,0,.759-.379,17.985,17.985,0,0,0,3.34-15.627,20.052,20.052,0,0,0-3.2-6.922.948.948,0,0,0-1.493,1.167,18.508,18.508,0,0,1,2.869,6.284,15.987,15.987,0,0,1-3.035,13.96.947.947,0,0,0,.757,1.516" transform="translate(-334.075 -97.46)"/><path class="l" d="M758.289,202.937a1.989,1.989,0,0,0-2.145-1.781H744.638a1.989,1.989,0,0,0-2.145,1.781v9.55a2.11,2.11,0,0,0,2.145,1.938h11.506a2.11,2.11,0,0,0,2.145-1.938Z" transform="translate(-307.134 -83.209)"/><path class="l" d="M757.138,199.577h-12.9v-7.863c0-3.241,3.455-6.209,6.922-6.209h.547c3.352,0,5.431,2.858,5.431,6.209Zm-10.554-2.345h8.8v-5.518a3.373,3.373,0,0,0-3.672-3.278h-.547c-2.111,0-4.577,1.393-4.577,3.278Z" transform="translate(-307.856 -76.735)"/></g></g></svg>