<svg xmlns="http://www.w3.org/2000/svg" xmlns:xlink="http://www.w3.org/1999/xlink" width="602" height="307.688" viewBox="0 0 602 307.688"><defs><style>.a{fill:none;}.b{clip-path:url(#a);}.c{clip-path:url(#b);}.d{fill:#ebf3fa;}.e{fill:#f8fbff;}.f{fill:#c4d9ed;}.g{fill:#d5e7f7;}.h{fill:#dceaf9;}.i{opacity:0.8;}.j{clip-path:url(#c);}.k{fill:#adc9e0;}.l{fill:#b9e0ad;}.m{fill:#acd29a;}.n{fill:#82b378;}.o{fill:#8ebf82;}.p{fill:#e58638;}.q{fill:#415da5;}.r{fill:#739cf3;}.s{fill:#2c3a64;}.t{fill:#d57912;}.u{fill:#ed975d;}.v{fill:#ffb27d;}.w{fill:#1e3d70;}.x{fill:#ee9849;}.y{fill:#2a4e96;}.z{fill:#ce8e55;}.aa{fill:#aa5a0b;}.ab{fill:#b84c42;}.ac{fill:#aa3f3a;}.ad{fill:#35488b;}.ae{fill:#b2cbfd;}.af{fill:#233862;}.ag{fill:#aa3e39;}.ah{fill:#d8716b;}.ai{fill:#6488d3;}.aj{fill:#2e3552;}</style><clipPath id="a"><rect class="a" width="602" height="307.688"/></clipPath><clipPath id="b"><rect class="a" width="601.999" height="307.687"/></clipPath><clipPath id="c"><rect class="a" width="136.28" height="61.135"/></clipPath></defs><g class="b"><g transform="translate(0 0.001)"><g class="c"><path class="d" d="M603.371,307.352v0c-.019.113-.04.224-.063.337l-9.226-.032-143.036-.475-94.386-.312-2.872-.011-6.644-.02-86.346-.287L123.554,306.1l-25.276-.084-6.718-.023-2.349-.007-.374,0-.772,0-26.217-.088h0l-7.305-.02h0l-.795,0-4.27-.016h0l-2.925-.011-1.291,0s-.056-.1-.163-.294c-.036-.068-.08-.149-.13-.242l-.251-.472c-.031-.063-.067-.129-.1-.2-.128-.246-.272-.524-.433-.843-.2-.386-.416-.827-.659-1.318v0c-.9-1.831-2.1-4.369-3.464-7.522q-.672-1.553-1.389-3.3c-.191-.465-.381-.938-.575-1.422v0q-.282-.7-.565-1.433l-.019-.048q-.195-.5-.393-1.019c-.138-.353-.274-.71-.412-1.071-.7-1.867-1.423-3.849-2.138-5.94-.019-.054-.038-.111-.056-.165v0q-.7-2.051-1.4-4.236-.383-1.2-.757-2.436c-.015-.05-.032-.1-.046-.154-.111-.366-.22-.732-.331-1.1-.092-.312-.184-.624-.274-.938q-.283-.97-.563-1.96-.358-1.272-.707-2.579-.471-1.774-.921-3.608c-.09-.366-.18-.734-.268-1.1q-.4-1.658-.774-3.357-.122-.546-.239-1.094c-.05-.226-.1-.452-.146-.678q-.568-2.688-1.073-5.479-.556-3.071-1.017-6.259-.424-2.939-.757-5.969-.314-2.858-.531-5.784c-.343-4.563-.5-9.249-.433-14.021a140.629,140.629,0,0,1,2.655-25.562c.063-.317.128-.631.192-.947q.644-3.1,1.446-6.207.611-2.37,1.324-4.744.518-1.719,1.088-3.442,1.293-3.9,2.877-7.8.436-1.078.9-2.157a130.841,130.841,0,0,1,26.265-39.207l.676-.7A190.094,190.094,0,0,1,79.41,112.808l.642-.511c64-50.7,118.1-16.295,146.8-18.2,5.649-.373,10.609-2.8,15.485-6.636,8.935-7.036,17.58-18.831,29.64-31.491C290.062,37,315.813,16.071,361.705,6.293c56.788-12.1,134.8-8.707,168.552,27.657,20.416,22,24.636,56.058-1.839,106.056q-2.413,4.557-5.173,9.3-2.319,3.981-4.052,7.6a58.284,58.284,0,0,0-5.364,16.206c-1.746,11.471,2.266,19.595,9.456,26.274a58.528,58.528,0,0,0,6.483,5.147l.452.312c8.4,5.736,19.018,10.662,29.6,16.437a153.222,153.222,0,0,1,17.125,10.623,78.9,78.9,0,0,1,13.87,12.724,60.117,60.117,0,0,1,7.109,10.451c.117.215.23.43.341.644a61.3,61.3,0,0,1,5.837,17.255q.091.492.174.99c1.592,9.394,1.481,20.381-.908,33.378" transform="translate(-19.055 -0.004)"/><path class="e" d="M872.931,252.656l-410.19,76.612,13.83-28.055L874.77,146.6c20.417,22,24.634,56.06-1.839,106.057" transform="translate(-363.567 -112.653)"/><path class="e" d="M1208.093,121.758l-166.253,59.263c8.934-7.036,17.579-18.83,29.64-31.489Z" transform="translate(-818.553 -93.565)"/><path class="e" d="M1766.828,207.14c-4.037,0-7.31,3.536-7.31,7.9s3.273,7.9,7.31,7.9,7.31-3.536,7.31-7.9-3.273-7.9-7.31-7.9" transform="translate(-1382.42 -159.176)"/><rect class="f" width="37.96" height="199.444" transform="translate(254.226 77.294)"/><rect class="g" width="37.96" height="199.444" transform="translate(262.752 77.294)"/><rect class="f" width="37.95" height="11.525" transform="translate(262.762 77.241)"/><rect class="f" width="37.95" height="11.525" transform="translate(262.762 102.237)"/><rect class="f" width="37.95" height="11.525" transform="translate(262.762 127.233)"/><rect class="f" width="37.95" height="11.525" transform="translate(262.762 152.229)"/><rect class="f" width="37.95" height="11.525" transform="translate(262.762 177.225)"/><rect class="f" width="37.95" height="11.525" transform="translate(262.762 202.221)"/><rect class="f" width="37.95" height="11.525" transform="translate(262.762 227.218)"/><rect class="f" width="37.95" height="11.525" transform="translate(262.762 252.213)"/><rect class="f" width="37.96" height="171.222" transform="translate(314.909 105.516)"/><rect class="g" width="37.96" height="171.222" transform="translate(323.434 105.516)"/><rect class="f" width="37.95" height="9.894" transform="translate(323.444 105.47)"/><rect class="f" width="37.95" height="9.894" transform="translate(323.444 126.929)"/><rect class="f" width="37.95" height="9.894" transform="translate(323.444 148.388)"/><rect class="f" width="37.95" height="9.894" transform="translate(323.444 169.848)"/><rect class="f" width="37.95" height="9.894" transform="translate(323.444 191.307)"/><rect class="f" width="37.95" height="9.894" transform="translate(323.444 212.766)"/><rect class="f" width="37.95" height="9.894" transform="translate(323.444 234.224)"/><rect class="f" width="37.95" height="9.894" transform="translate(323.444 255.684)"/><rect class="h" width="15.896" height="25.044" transform="translate(233.682 270.621)"/><path class="g" d="M257.591,590.934v69.532H89.211l-1.147-.011-42.972-.436c-.036-.068-.08-.149-.13-.242l-.251-.472c-.032-.063-.067-.129-.1-.2-.128-.246-.272-.524-.433-.843-.2-.386-.416-.827-.659-1.318v0c-.9-1.831-2.1-4.37-3.464-7.522q-.672-1.553-1.389-3.3c-.19-.466-.381-.938-.575-1.422v0q-.282-.7-.565-1.433l-.019-.047c-.13-.335-.261-.674-.393-1.02s-.274-.71-.412-1.071c-.7-1.867-1.422-3.849-2.138-5.94l-.056-.165v0q-.7-2.051-1.4-4.236-.383-1.2-.758-2.437c-.015-.05-.031-.1-.046-.154-.111-.366-.22-.732-.331-1.1-.092-.312-.184-.624-.274-.938q-.283-.97-.563-1.96-.358-1.271-.707-2.579-.471-1.773-.92-3.607c-.09-.366-.18-.735-.268-1.1q-.4-1.658-.774-3.357-.122-.545-.239-1.094c-.05-.226-.1-.452-.147-.678q-.568-2.689-1.073-5.479-.555-3.072-1.017-6.259-.423-2.939-.757-5.969-.313-2.858-.531-5.784c-.343-4.563-.5-9.249-.433-14.021a140.65,140.65,0,0,1,2.655-25.562c.063-.316.128-.631.192-.947q.644-3.1,1.446-6.207.612-2.37,1.324-4.745.518-1.719,1.088-3.442,1.293-3.9,2.877-7.8l.9-2.156a130.851,130.851,0,0,1,26.265-39.207l.676-.7h.7v26.6H84.181V466.75h24.039v28.134H113.7V461.3h24.039v62.975h30.4v36.721H179.5v9.252H205.6V554.313h14.981V511.025h18.506v79.909Z" transform="translate(-19.055 -354.479)"/><rect class="f" width="24.053" height="6.417" transform="translate(94.647 111.068)"/><rect class="f" width="24.053" height="6.416" transform="translate(94.647 123.122)"/><rect class="f" width="24.053" height="6.417" transform="translate(94.647 133.966)"/><rect class="f" width="24.053" height="6.417" transform="translate(65.133 133.966)"/><rect class="f" width="24.053" height="6.416" transform="translate(65.133 123.122)"/><rect class="f" width="24.053" height="6.416" transform="translate(65.133 112.294)"/><rect class="f" width="53.574" height="6.416" transform="translate(65.126 144.481)"/><rect class="f" width="53.574" height="6.417" transform="translate(65.126 154.996)"/><rect class="f" width="18.668" height="9.904" transform="translate(201.353 156.551)"/><rect class="f" width="18.668" height="9.904" transform="translate(201.353 171.28)"/><rect class="f" width="18.668" height="9.904" transform="translate(201.353 186.01)"/><rect class="f" width="18.668" height="9.904" transform="translate(201.353 201.45)"/><rect class="f" width="18.668" height="9.904" transform="translate(201.353 216.411)"/><rect class="f" width="18.668" height="9.904" transform="translate(201.353 231.373)"/><rect class="f" width="18.668" height="9.904" transform="translate(201.353 247.025)"/><rect class="f" width="53.574" height="4.073" transform="translate(65.126 165.273)"/><rect class="f" width="6.883" height="43.283" transform="translate(194.729 156.551)"/><rect class="f" width="13.846" height="15.93" transform="translate(172.697 199.834)"/><path class="f" d="M286.389,484.948v6.417l0,25.77,0,6.417v4.713h-4.772V485.459l.642-.511Z" transform="translate(-221.257 -372.654)"/><rect class="f" width="2.933" height="33.566" transform="translate(91.714 106.817)"/><g class="i" transform="translate(7.842 176.109)"><g class="j"><rect class="f" width="4.075" height="6.206" transform="translate(132.205)"/><rect class="f" width="4.075" height="6.206" transform="translate(124.584)"/><rect class="f" width="4.075" height="6.206" transform="translate(117.134)"/><rect class="f" width="4.075" height="6.206" transform="translate(110.07)"/><rect class="f" width="4.075" height="6.206" transform="translate(102.87)"/><rect class="f" width="4.075" height="6.206" transform="translate(95.589)"/><rect class="f" width="4.075" height="6.206" transform="translate(87.968)"/><rect class="f" width="4.075" height="6.206" transform="translate(80.517)"/><rect class="f" width="4.075" height="6.206" transform="translate(73.453)"/><rect class="f" width="4.075" height="6.206" transform="translate(66.254)"/><rect class="f" width="4.075" height="6.206" transform="translate(58.752)"/><rect class="f" width="4.075" height="6.206" transform="translate(51.131)"/><rect class="f" width="4.075" height="6.206" transform="translate(43.68)"/><rect class="f" width="4.075" height="6.206" transform="translate(36.617)"/><rect class="f" width="4.075" height="6.206" transform="translate(29.417)"/><rect class="f" width="4.075" height="6.206" transform="translate(22.135)"/><rect class="f" width="4.075" height="6.206" transform="translate(14.514)"/><rect class="f" width="4.075" height="6.206" transform="translate(7.064)"/><path class="f" d="M51.62,772.476v3.442H50.532q.518-1.719,1.088-3.442" transform="translate(-47.544 -769.712)"/><rect class="f" width="4.075" height="6.206" transform="translate(132.205 10.952)"/><rect class="f" width="4.075" height="6.206" transform="translate(124.584 10.952)"/><rect class="f" width="4.075" height="6.206" transform="translate(117.134 10.952)"/><rect class="f" width="4.075" height="6.206" transform="translate(110.07 10.952)"/><rect class="f" width="4.075" height="6.206" transform="translate(102.87 10.952)"/><rect class="f" width="4.075" height="6.206" transform="translate(95.589 10.952)"/><rect class="f" width="4.075" height="6.206" transform="translate(87.968 10.952)"/><rect class="f" width="4.075" height="6.206" transform="translate(80.517 10.952)"/><rect class="f" width="4.075" height="6.206" transform="translate(73.453 10.952)"/><rect class="f" width="4.075" height="6.206" transform="translate(66.254 10.952)"/><rect class="f" width="4.075" height="6.206" transform="translate(58.752 10.952)"/><rect class="f" width="4.075" height="6.206" transform="translate(51.131 10.952)"/><rect class="f" width="4.075" height="6.206" transform="translate(43.68 10.952)"/><rect class="f" width="4.075" height="6.206" transform="translate(36.617 10.952)"/><rect class="f" width="4.075" height="6.206" transform="translate(29.417 10.952)"/><rect class="f" width="4.075" height="6.206" transform="translate(22.135 10.952)"/><rect class="f" width="4.075" height="6.206" transform="translate(14.514 10.952)"/><rect class="f" width="4.075" height="6.206" transform="translate(7.064 10.952)"/><path class="f" d="M41.466,807.83v6.207H37.608q.644-3.1,1.446-6.207Z" transform="translate(-37.39 -796.879)"/><rect class="f" width="4.075" height="6.206" transform="translate(132.205 21.736)"/><rect class="f" width="4.075" height="6.206" transform="translate(124.584 21.736)"/><rect class="f" width="4.075" height="6.206" transform="translate(117.134 21.736)"/><rect class="f" width="4.075" height="6.206" transform="translate(110.07 21.736)"/><rect class="f" width="4.075" height="6.206" transform="translate(102.87 21.736)"/><rect class="f" width="4.075" height="6.206" transform="translate(95.589 21.736)"/><rect class="f" width="4.075" height="6.206" transform="translate(87.968 21.736)"/><rect class="f" width="4.075" height="6.206" transform="translate(80.517 21.736)"/><rect class="f" width="4.075" height="6.206" transform="translate(73.453 21.736)"/><rect class="f" width="4.075" height="6.206" transform="translate(66.254 21.736)"/><rect class="f" width="4.075" height="6.206" transform="translate(58.752 21.736)"/><rect class="f" width="4.075" height="6.206" transform="translate(51.131 21.736)"/><rect class="f" width="4.075" height="6.206" transform="translate(43.68 21.736)"/><rect class="f" width="4.075" height="6.206" transform="translate(36.617 21.736)"/><rect class="f" width="4.075" height="6.206" transform="translate(29.417 21.736)"/><rect class="f" width="4.075" height="6.206" transform="translate(22.135 21.736)"/><rect class="f" width="4.075" height="6.206" transform="translate(14.514 21.736)"/><rect class="f" width="4.075" height="6.206" transform="translate(7.064 21.736)"/><rect class="f" width="4.075" height="6.206" transform="translate(0 21.736)"/><rect class="f" width="4.075" height="6.206" transform="translate(132.205 33.193)"/><rect class="f" width="4.075" height="6.206" transform="translate(124.584 33.193)"/><rect class="f" width="4.075" height="6.206" transform="translate(117.134 33.193)"/><rect class="f" width="4.075" height="6.206" transform="translate(110.07 33.193)"/><rect class="f" width="4.075" height="6.206" transform="translate(102.87 33.193)"/><rect class="f" width="4.075" height="6.206" transform="translate(95.589 33.193)"/><rect class="f" width="4.075" height="6.206" transform="translate(87.968 33.193)"/><rect class="f" width="4.075" height="6.206" transform="translate(80.517 33.193)"/><rect class="f" width="4.075" height="6.206" transform="translate(73.453 33.193)"/><rect class="f" width="4.075" height="6.206" transform="translate(66.254 33.193)"/><rect class="f" width="4.075" height="6.206" transform="translate(58.752 33.193)"/><rect class="f" width="4.075" height="6.206" transform="translate(51.131 33.193)"/><rect class="f" width="4.075" height="6.206" transform="translate(43.68 33.193)"/><rect class="f" width="4.075" height="6.206" transform="translate(36.617 33.193)"/><rect class="f" width="4.075" height="6.206" transform="translate(29.417 33.193)"/><rect class="f" width="4.075" height="6.206" transform="translate(22.135 33.193)"/><rect class="f" width="4.075" height="6.206" transform="translate(14.514 33.193)"/><rect class="f" width="4.075" height="6.206" transform="translate(7.064 33.193)"/><rect class="f" width="4.075" height="6.206" transform="translate(0 33.193)"/><rect class="f" width="4.075" height="6.206" transform="translate(132.205 44.145)"/><rect class="f" width="4.075" height="6.206" transform="translate(124.584 44.145)"/><rect class="f" width="4.075" height="6.206" transform="translate(117.134 44.145)"/><rect class="f" width="4.075" height="6.206" transform="translate(110.07 44.145)"/><rect class="f" width="4.075" height="6.206" transform="translate(102.87 44.145)"/><rect class="f" width="4.075" height="6.206" transform="translate(95.589 44.145)"/><rect class="f" width="4.075" height="6.206" transform="translate(87.968 44.145)"/><rect class="f" width="4.075" height="6.206" transform="translate(80.517 44.145)"/><rect class="f" width="4.075" height="6.206" transform="translate(73.453 44.145)"/><rect class="f" width="4.075" height="6.206" transform="translate(66.254 44.145)"/><rect class="f" width="4.075" height="6.206" transform="translate(58.752 44.145)"/><rect class="f" width="4.075" height="6.206" transform="translate(51.131 44.145)"/><rect class="f" width="4.075" height="6.206" transform="translate(43.68 44.145)"/><rect class="f" width="4.075" height="6.206" transform="translate(36.617 44.145)"/><rect class="f" width="4.075" height="6.206" transform="translate(29.417 44.145)"/><rect class="f" width="4.075" height="6.206" transform="translate(22.135 44.145)"/><rect class="f" width="4.075" height="6.206" transform="translate(14.514 44.145)"/><rect class="f" width="4.075" height="6.206" transform="translate(7.064 44.145)"/><rect class="f" width="4.075" height="6.206" transform="translate(0 44.145)"/><rect class="f" width="4.075" height="6.206" transform="translate(132.205 54.929)"/><rect class="f" width="4.075" height="6.206" transform="translate(124.584 54.929)"/><rect class="f" width="4.075" height="6.206" transform="translate(117.134 54.929)"/><rect class="f" width="4.075" height="6.206" transform="translate(110.07 54.929)"/><rect class="f" width="4.075" height="6.206" transform="translate(102.87 54.929)"/><rect class="f" width="4.075" height="6.206" transform="translate(95.589 54.929)"/><rect class="f" width="4.075" height="6.206" transform="translate(87.968 54.929)"/><rect class="f" width="4.075" height="6.206" transform="translate(80.517 54.929)"/><rect class="f" width="4.075" height="6.206" transform="translate(73.453 54.929)"/><rect class="f" width="4.075" height="6.206" transform="translate(66.254 54.929)"/><rect class="f" width="4.075" height="6.206" transform="translate(58.752 54.929)"/><rect class="f" width="4.075" height="6.206" transform="translate(51.131 54.929)"/><rect class="f" width="4.075" height="6.206" transform="translate(43.68 54.929)"/><rect class="f" width="4.075" height="6.206" transform="translate(36.617 54.929)"/><rect class="f" width="4.075" height="6.206" transform="translate(29.417 54.929)"/><rect class="f" width="4.075" height="6.206" transform="translate(22.135 54.929)"/><rect class="f" width="4.075" height="6.206" transform="translate(14.514 54.929)"/><rect class="f" width="4.075" height="6.206" transform="translate(7.064 54.929)"/><rect class="f" width="4.075" height="6.206" transform="translate(0 54.929)"/></g></g><rect class="f" width="94.456" height="55.057" transform="translate(78.241 250.482)"/><rect class="f" width="94.456" height="27.528" transform="translate(149.864 278.01)"/><path class="f" d="M105.163,1118.765v46.479H60.532c-.036-.068-.08-.149-.13-.242l-.251-.472c-.032-.064-.067-.129-.1-.2-.127-.246-.272-.524-.433-.843-.2-.386-.416-.827-.659-1.318v0c-.9-1.831-2.1-4.37-3.465-7.523q-.671-1.553-1.389-3.3c-.191-.466-.381-.938-.575-1.422v0q-.282-.7-.565-1.433l-.019-.047c-.13-.335-.261-.674-.393-1.02s-.274-.71-.412-1.071c-.7-1.867-1.423-3.849-2.138-5.94l-.056-.165v0q-.7-2.051-1.4-4.236-.383-1.2-.757-2.437c-.015-.05-.031-.1-.046-.154-.111-.366-.22-.732-.331-1.1-.092-.312-.184-.624-.274-.938q-.283-.97-.563-1.959-.358-1.272-.707-2.579-.471-1.773-.921-3.607c-.09-.366-.18-.735-.268-1.1q-.4-1.658-.774-3.357Z" transform="translate(-34.495 -859.705)"/><rect class="g" width="17.598" height="10.197" transform="translate(148.788 256.93)"/><rect class="g" width="17.598" height="10.197" transform="translate(126.198 256.93)"/><rect class="g" width="17.598" height="10.197" transform="translate(104.038 256.93)"/><rect class="g" width="17.598" height="10.197" transform="translate(82.304 256.93)"/><rect class="k" width="9.066" height="55.531" transform="translate(70.156 250.482)"/><rect class="h" width="0.491" height="4.31" transform="translate(215.815 152.241)"/><rect class="h" width="0.491" height="4.31" transform="translate(198.175 152.241)"/><path class="g" d="M28.823,1034.643q.33,3.028.757,5.969.458,3.184,1.017,6.259.5,2.79,1.073,5.479c.048.226.1.452.147.678q.116.549.239,1.094.376,1.7.774,3.357.132.553.268,1.1.449,1.834.921,3.607.348,1.305.707,2.579.279.99.563,1.96c.09.314.182.626.274.938.111.371.22.737.331,1.1.015.054.031.1.046.154q.377,1.238.757,2.437.694,2.184,1.4,4.236v0l.056.165c.715,2.091,1.435,4.073,2.138,5.94.138.362.274.719.412,1.071s.264.685.393,1.02l.019.048v-49.2Z" transform="translate(-22.646 -795.062)"/><path class="g" d="M52.087,1114.041v30.813l-.019-.047c-.13-.335-.261-.674-.393-1.019s-.274-.71-.412-1.072c-.7-1.867-1.422-3.849-2.138-5.94-.019-.054-.038-.111-.056-.165v0q-.7-2.051-1.4-4.236-.383-1.2-.758-2.436c-.015-.05-.031-.1-.046-.154-.111-.366-.22-.733-.33-1.1-.092-.312-.184-.624-.274-.938q-.283-.97-.563-1.96-.358-1.271-.707-2.579-.471-1.774-.921-3.608c-.09-.366-.18-.734-.268-1.1q-.4-1.658-.774-3.357-.122-.546-.239-1.094Z" transform="translate(-33.621 -856.075)"/><path class="f" d="M47.615,1087.451v15.318H40.522q-.471-1.773-.921-3.607c-.09-.366-.18-.735-.268-1.1q-.4-1.658-.774-3.357-.122-.545-.239-1.094c-.05-.226-.1-.452-.147-.678q-.568-2.688-1.073-5.479Z" transform="translate(-29.15 -835.642)"/><path class="f" d="M60.395,1173.2v4.631q-.383-1.2-.757-2.436c-.015-.05-.032-.1-.046-.154-.111-.366-.22-.732-.331-1.1q-.138-.468-.274-.938Z" transform="translate(-46.345 -901.538)"/><rect class="k" width="2.799" height="5.232" transform="translate(10.72 256.113)"/><rect class="g" width="64.855" height="47.125" transform="translate(226.44 257.967)"/><rect class="f" width="64.855" height="15.317" transform="translate(226.44 251.81)"/><rect class="f" width="3.331" height="5.073" transform="translate(283.548 271.666)"/><rect class="f" width="3.331" height="5.073" transform="translate(277.319 271.666)"/><rect class="f" width="3.331" height="5.073" transform="translate(271.23 271.666)"/><rect class="f" width="3.331" height="5.073" transform="translate(265.457 271.666)"/><rect class="f" width="3.331" height="5.073" transform="translate(259.572 271.666)"/><rect class="f" width="3.331" height="5.073" transform="translate(253.621 271.666)"/><rect class="f" width="3.331" height="5.073" transform="translate(247.392 271.666)"/><rect class="f" width="3.331" height="5.073" transform="translate(241.303 271.666)"/><rect class="f" width="3.331" height="5.073" transform="translate(235.529 271.666)"/><rect class="f" width="3.331" height="5.073" transform="translate(229.645 271.666)"/><rect class="f" width="3.331" height="5.073" transform="translate(283.548 280.617)"/><rect class="f" width="3.331" height="5.073" transform="translate(277.319 280.617)"/><rect class="f" width="3.331" height="5.073" transform="translate(271.23 280.617)"/><rect class="f" width="3.331" height="5.073" transform="translate(265.457 280.617)"/><rect class="f" width="3.331" height="5.073" transform="translate(259.572 280.617)"/><rect class="f" width="3.331" height="5.073" transform="translate(253.621 280.617)"/><rect class="f" width="3.331" height="5.073" transform="translate(247.392 280.617)"/><rect class="f" width="3.331" height="5.073" transform="translate(241.303 280.617)"/><rect class="f" width="3.331" height="5.073" transform="translate(235.529 280.617)"/><rect class="f" width="3.331" height="5.073" transform="translate(229.645 280.617)"/><rect class="f" width="3.331" height="5.072" transform="translate(283.548 289.431)"/><rect class="f" width="3.331" height="5.072" transform="translate(277.319 289.431)"/><rect class="f" width="3.331" height="5.072" transform="translate(271.23 289.431)"/><rect class="f" width="3.331" height="5.072" transform="translate(265.457 289.431)"/><rect class="f" width="3.331" height="5.072" transform="translate(259.572 289.431)"/><rect class="f" width="3.331" height="5.072" transform="translate(253.621 289.431)"/><rect class="f" width="3.331" height="5.072" transform="translate(247.392 289.431)"/><rect class="f" width="3.331" height="5.072" transform="translate(241.303 289.431)"/><rect class="f" width="3.331" height="5.072" transform="translate(235.529 289.431)"/><rect class="f" width="3.331" height="5.072" transform="translate(229.645 289.431)"/><rect class="k" width="2.799" height="5.232" transform="translate(283.548 256.113)"/><rect class="k" width="2.799" height="5.232" transform="translate(255.76 256.113)"/><rect class="k" width="2.799" height="5.232" transform="translate(233.656 256.113)"/><rect class="g" width="64.855" height="47.125" transform="translate(295.368 257.967)"/><rect class="f" width="64.855" height="15.317" transform="translate(295.368 251.81)"/><rect class="f" width="3.331" height="5.073" transform="translate(352.476 271.666)"/><rect class="f" width="3.331" height="5.073" transform="translate(346.247 271.666)"/><rect class="f" width="3.331" height="5.073" transform="translate(340.158 271.666)"/><rect class="f" width="3.331" height="5.073" transform="translate(334.385 271.666)"/><rect class="f" width="3.331" height="5.073" transform="translate(328.5 271.666)"/><rect class="f" width="3.331" height="5.073" transform="translate(322.549 271.666)"/><rect class="f" width="3.331" height="5.073" transform="translate(316.32 271.666)"/><rect class="f" width="3.331" height="5.073" transform="translate(310.231 271.666)"/><rect class="f" width="3.331" height="5.073" transform="translate(304.457 271.666)"/><rect class="f" width="3.331" height="5.073" transform="translate(298.573 271.666)"/><rect class="f" width="3.331" height="5.073" transform="translate(352.476 280.617)"/><rect class="f" width="3.331" height="5.073" transform="translate(346.247 280.617)"/><rect class="f" width="3.331" height="5.073" transform="translate(340.158 280.617)"/><rect class="f" width="3.331" height="5.073" transform="translate(334.385 280.617)"/><rect class="f" width="3.331" height="5.073" transform="translate(328.5 280.617)"/><rect class="f" width="3.331" height="5.073" transform="translate(322.549 280.617)"/><rect class="f" width="3.331" height="5.073" transform="translate(316.32 280.617)"/><rect class="f" width="3.331" height="5.073" transform="translate(310.231 280.617)"/><rect class="f" width="3.331" height="5.073" transform="translate(304.457 280.617)"/><rect class="f" width="3.331" height="5.073" transform="translate(298.573 280.617)"/><rect class="f" width="3.331" height="5.072" transform="translate(352.476 289.431)"/><rect class="f" width="3.331" height="5.072" transform="translate(346.247 289.431)"/><rect class="f" width="3.331" height="5.072" transform="translate(340.158 289.431)"/><rect class="f" width="3.331" height="5.072" transform="translate(334.385 289.431)"/><rect class="f" width="3.331" height="5.072" transform="translate(328.5 289.431)"/><rect class="f" width="3.331" height="5.072" transform="translate(322.549 289.431)"/><rect class="f" width="3.331" height="5.072" transform="translate(316.32 289.431)"/><rect class="f" width="3.331" height="5.072" transform="translate(310.231 289.431)"/><rect class="f" width="3.331" height="5.072" transform="translate(304.457 289.431)"/><rect class="f" width="3.331" height="5.072" transform="translate(298.573 289.431)"/><rect class="k" width="2.799" height="5.232" transform="translate(352.476 256.113)"/><rect class="k" width="2.799" height="5.232" transform="translate(324.688 256.113)"/><rect class="k" width="2.799" height="5.232" transform="translate(302.584 256.113)"/><rect class="g" width="64.855" height="47.125" transform="translate(364.448 257.967)"/><rect class="f" width="64.855" height="15.317" transform="translate(364.448 251.81)"/><rect class="f" width="3.331" height="5.073" transform="translate(421.556 271.666)"/><rect class="f" width="3.331" height="5.073" transform="translate(415.328 271.666)"/><rect class="f" width="3.331" height="5.073" transform="translate(409.239 271.666)"/><rect class="f" width="3.331" height="5.073" transform="translate(403.465 271.666)"/><rect class="f" width="3.331" height="5.073" transform="translate(397.581 271.666)"/><rect class="f" width="3.331" height="5.073" transform="translate(391.629 271.666)"/><rect class="f" width="3.331" height="5.073" transform="translate(385.4 271.666)"/><rect class="f" width="3.331" height="5.073" transform="translate(379.311 271.666)"/><rect class="f" width="3.331" height="5.073" transform="translate(373.538 271.666)"/><rect class="f" width="3.331" height="5.073" transform="translate(367.653 271.666)"/><rect class="f" width="3.331" height="5.073" transform="translate(421.556 280.617)"/><rect class="f" width="3.331" height="5.073" transform="translate(415.328 280.617)"/><rect class="f" width="3.331" height="5.073" transform="translate(409.239 280.617)"/><rect class="f" width="3.331" height="5.073" transform="translate(403.465 280.617)"/><rect class="f" width="3.331" height="5.073" transform="translate(397.581 280.617)"/><rect class="f" width="3.331" height="5.073" transform="translate(391.629 280.617)"/><rect class="f" width="3.331" height="5.073" transform="translate(385.4 280.617)"/><rect class="f" width="3.331" height="5.073" transform="translate(379.311 280.617)"/><rect class="f" width="3.331" height="5.073" transform="translate(373.538 280.617)"/><rect class="f" width="3.331" height="5.073" transform="translate(367.653 280.617)"/><rect class="f" width="3.331" height="5.072" transform="translate(421.556 289.431)"/><rect class="f" width="3.331" height="5.072" transform="translate(415.328 289.431)"/><rect class="f" width="3.331" height="5.072" transform="translate(409.239 289.431)"/><rect class="f" width="3.331" height="5.072" transform="translate(403.465 289.431)"/><rect class="f" width="3.331" height="5.072" transform="translate(397.581 289.431)"/><rect class="f" width="3.331" height="5.072" transform="translate(391.629 289.431)"/><rect class="f" width="3.331" height="5.072" transform="translate(385.4 289.431)"/><rect class="f" width="3.331" height="5.072" transform="translate(379.311 289.431)"/><rect class="f" width="3.331" height="5.072" transform="translate(373.538 289.431)"/><rect class="f" width="3.331" height="5.072" transform="translate(367.653 289.431)"/><rect class="k" width="2.799" height="5.232" transform="translate(421.556 256.113)"/><rect class="k" width="2.799" height="5.232" transform="translate(393.769 256.113)"/><rect class="k" width="2.799" height="5.232" transform="translate(371.664 256.113)"/><path class="l" d="M1603.863,986.1v0l-306.2-1.724s9.13-40.4,49.908-40.4,55.156-33.274,102.854-32.978c31.209.194,51.708-17.574,79.838-27.718l.452.312c8.4,5.736,19.019,10.662,29.6,16.437a153.223,153.223,0,0,1,17.125,10.623,78.9,78.9,0,0,1,13.87,12.724,60.107,60.107,0,0,1,7.109,10.451c.117.215.23.43.341.645a61.3,61.3,0,0,1,5.837,17.255q.091.492.174.99c1.592,9.394,1.481,20.381-.908,33.378" transform="translate(-1019.547 -678.752)"/><path class="m" d="M881.062,1227.286s68.692-19.873,190.087-13.586,205.26-14.857,205.26-14.857v30.051Z" transform="translate(-692.234 -921.24)"/><path class="n" d="M2431.74,1053.252A61.309,61.309,0,0,0,2425.9,1036c-4.014-2.97-9.233-5.575-13.2-3.145-7.45,4.565,12.985,6.6,16.01,13.5a27.431,27.431,0,0,1,1.981,6.513,10.3,10.3,0,0,0-4.519-.5c-1.745.279-4.686,2.605-6.476,4.147a14.433,14.433,0,0,0,1.79-5.518c.465-5.054-1.366-10.758-4.295-6.991-2.123,2.731-1.169,9.938-.483,13.7q-1.7.721-3.413,1.57c-4.36-16.594-14.6-42.973-34.541-43.877,0,0-7.87,3.24.848,13.891,7.418,9.063,19.27,12.694,30.5,31.7q-1.042.6-2.072,1.261c-5.388-5.574-15.47-14.424-23.9-12.823-9.007,1.71,10.551,10.273,21.3,14.6a47.833,47.833,0,0,0-6.98,6.181s-3.512,5.063-19.034,2.531-28.991,14.886-28.991,14.886h80.576c2.472-13.456,2.5-24.759.732-34.37" transform="translate(-1846.69 -780.273)"/><path class="o" d="M107.115,1176.154l-26.989-.09h0l-7.305-.021h0l-.795,0-4.27-.016h0l-2.925-.011-1.291,0s-.1-.18-.293-.536L62.99,1175c-.031-.063-.067-.129-.1-.2-.128-.246-.272-.524-.433-.843-.2-.386-.416-.827-.659-1.318v0c-.9-1.831-2.1-4.369-3.464-7.522q-.672-1.553-1.389-3.3c-.191-.465-.381-.938-.575-1.422v0q-.292-.726-.584-1.481c-.13-.335-.261-.674-.393-1.019s-.274-.71-.412-1.072c-.7-1.867-1.423-3.849-2.138-5.94-.019-.055-.038-.111-.056-.165v0q-1.089-3.177-2.155-6.672c-.015-.05-.032-.1-.046-.154-.111-.366-.22-.732-.331-1.1q-.42-1.427-.837-2.9-.844-3-1.628-6.186c-.09-.366-.18-.735-.268-1.1a35.162,35.162,0,0,1,5.081-.174,25.544,25.544,0,0,1,7.056,1.245,22.055,22.055,0,0,1,7.661,4.444c4.554,4,7.458,9.487,10.265,14.36a40.466,40.466,0,0,0,5.19,7.565,10.921,10.921,0,0,0,6.64,3.65,28.283,28.283,0,0,1,5,1.1c9.307,2.977,12.18,9.864,12.707,11.374" transform="translate(-37.333 -870.177)"/><path class="p" d="M515.582,992.254,512.5,991.6s7.36-31.447,6.35-34.044c-.817-2.156-9.3-3.713-13.458-7.478a7.051,7.051,0,0,1-1.947-2.7,10.66,10.66,0,0,1,1.394-10.178,92.158,92.158,0,0,1,14.4,5.037c4.878,2.259,9.4,5.193,10.646,8.595,3,8.231-14.3,41.418-14.3,41.418" transform="translate(-394.987 -720.186)"/><path class="q" d="M551.976,1170.236a1.128,1.128,0,0,0-.548-.8,8.861,8.861,0,0,1-3.354-2.68c-.632-.91-3.24-3.6-3.24-3.6l-.016-.008c-.067-.018-.408-.013-2.063.718-.855.377-1.744-1.357-1.744-1.357a1.628,1.628,0,0,0-.525.407,1.692,1.692,0,0,0-.419,1.04,6.741,6.741,0,0,1-1.156,2.471c-.288.437-.516.74-.516.74s-.179.376,1.276.973l1.74.486c.6.075,1.073.034,1.689.126a1.79,1.79,0,0,1,1.332.717.189.189,0,0,1,.012.021l7.393,2.065c.247-.2.209-.839.138-1.321" transform="translate(-423.003 -893.32)"/><path class="r" d="M456.8,984.546l-3.113-3.48.274-.606-.494.36,0,0-.008.013-35.249,25.75-7.858-26.558-2.66.919,8.108,27.4-30.894,22.568,37.237,3.5.242-3.006L393,1028.639l23.913-16.541,6.557,22.159,2.661-.919-.751-2.536,1.784,1.243Zm-37.458,25.867L447.7,990.8,425.11,1029.9Z" transform="translate(-302.413 -753.088)"/><path class="q" d="M676.6,944.642a2.66,2.66,0,0,0-3.224-1.74c-4.07-11.41-5.423-15.164-5.908-16.455l3.313-2.278a2.688,2.688,0,0,0,1.447-.565,3.222,3.222,0,0,0,.645-4.272,2.7,2.7,0,0,0-3.954-.7,3.2,3.2,0,0,0-1.067,3.324l-6.585,4.528a2.657,2.657,0,0,0-3.073.163,3.223,3.223,0,0,0-.645,4.272,2.7,2.7,0,0,0,3.955.7,3.078,3.078,0,0,0,1.11-1.833l2.48-1.705c.887,2.386,3.912,10.419,5.85,15.852l15.958,36.9,2.586-1.14Z" transform="translate(-516.207 -705.473)"/><path class="q" d="M583.529,1213.545h-2.567l-12.208-6.011-.451,1.068,10.04,4.943h-.866a1.4,1.4,0,0,0,0,2.794h6.052a1.4,1.4,0,0,0,0-2.794" transform="translate(-446.505 -927.919)"/><path class="q" d="M318.858,1105.3c0-.164-.008-.326-.022-.486l19.548-3.543-.1-.662-19.549,3.543a5,5,0,0,0-1.58-2.7l11.865-18.313-.509-.384-11.384,17.571,6.139-19.9-.589-.212-6.371,20.651a4.294,4.294,0,0,0-1.714-.5V1078.3h-.62v22.06a4.284,4.284,0,0,0-1.027.2l-6.336-19.078-.585.226,6.03,18.156-12.125-15.081-.469.44,12.638,15.719a4.756,4.756,0,0,0-1.636,1.622l-.715-.133-17.672-9.679-.281.6,15.874,8.695-17.7-3.289-.1.661,19.684,3.657.517.283a5.27,5.27,0,0,0-.363,1.933c0,.132.006.263.016.392l-19.536,3.132.091.664,19.535-3.132a5.254,5.254,0,0,0,.153.584l-17.839,8.28.245.616,17.839-8.28.009.02-14,15.26.441.473,13.895-15.143a4.814,4.814,0,0,0,1.019,1.119l-10.275,17.464.524.36,10.274-17.463c.09.053.183.1.277.149-2.567,7.3-7.267,20.679-7.383,21.052l.589.212c.1-.331,4.242-12.118,7.374-21.026a4.264,4.264,0,0,0,1.332.214c.076,0,.152,0,.227-.006l-1.623,21.188.618.055,1.634-21.325a4.318,4.318,0,0,0,.577-.161c3.23,8.581,7.47,19.862,7.583,20.223l.589-.212c-.116-.374-4.931-13.178-7.6-20.263.057-.03.114-.061.171-.094l10.9,18.63.525-.359-10.9-18.632a4.833,4.833,0,0,0,1.11-1.254l16.184,12.125.353-.551L318.4,1107.451a5.259,5.259,0,0,0,.456-2.153" transform="translate(-227.741 -828.613)"/><path class="s" d="M305.37,1127.627c-14.8,0-26.846-13.012-26.846-29.005s12.043-29.005,26.846-29.005,26.846,13.011,26.846,29.005a30.8,30.8,0,0,1-3.63,14.573,28.192,28.192,0,0,1-9.634,10.451,25.319,25.319,0,0,1-13.582,3.981m0-53.987c-12.749,0-23.122,11.207-23.122,24.982s10.372,24.982,23.122,24.982a21.8,21.8,0,0,0,11.7-3.427,24.3,24.3,0,0,0,8.3-9.006,26.526,26.526,0,0,0,3.124-12.549c0-13.775-10.372-24.982-23.122-24.982" transform="translate(-218.831 -821.937)"/><path class="q" d="M721.914,1105.3q0-.246-.022-.486l19.549-3.543-.1-.662-19.548,3.543a5.008,5.008,0,0,0-1.58-2.7l11.865-18.313-.509-.384-11.383,17.571,6.139-19.9-.589-.212-6.371,20.651a4.293,4.293,0,0,0-1.714-.5V1078.3h-.621v22.06a4.286,4.286,0,0,0-1.027.2l-6.337-19.078-.584.226,6.031,18.156-12.125-15.081-.469.44,12.638,15.719a4.755,4.755,0,0,0-1.636,1.622l-.714-.133-17.672-9.679-.28.6,15.874,8.695-17.7-3.289-.105.661,19.684,3.657.517.283a5.276,5.276,0,0,0-.363,1.933c0,.132.006.263.016.392l-19.536,3.132.091.664,19.535-3.132a5.214,5.214,0,0,0,.153.584l-17.839,8.28.245.616,17.839-8.28.01.02-14,15.26.44.473,13.895-15.143a4.821,4.821,0,0,0,1.019,1.119l-10.275,17.464.524.36,10.274-17.463c.09.053.182.1.276.149-2.567,7.3-7.267,20.679-7.383,21.052l.589.212c.1-.331,4.242-12.118,7.374-21.026a4.259,4.259,0,0,0,1.332.214c.076,0,.152,0,.227-.006l-1.623,21.188.619.055,1.633-21.325a4.307,4.307,0,0,0,.577-.161c3.23,8.581,7.469,19.862,7.583,20.223l.589-.212c-.115-.374-4.931-13.178-7.6-20.263.057-.03.115-.061.171-.094l10.9,18.63.524-.359-10.9-18.632a4.832,4.832,0,0,0,1.11-1.254l16.184,12.125.354-.551-16.228-12.158a5.258,5.258,0,0,0,.455-2.153" transform="translate(-544.415 -828.613)"/><path class="s" d="M708.427,1127.627c-14.8,0-26.846-13.012-26.846-29.005s12.043-29.005,26.846-29.005,26.846,13.011,26.846,29.005a30.8,30.8,0,0,1-3.63,14.573,28.191,28.191,0,0,1-9.634,10.451,25.319,25.319,0,0,1-13.582,3.981m0-53.987c-12.749,0-23.122,11.207-23.122,24.982s10.372,24.982,23.122,24.982a21.8,21.8,0,0,0,11.7-3.427,24.3,24.3,0,0,0,8.3-9.006,26.524,26.524,0,0,0,3.124-12.549c0-13.775-10.372-24.982-23.122-24.982" transform="translate(-535.505 -821.937)"/><path class="t" d="M376.714,1034.336h0a1.668,1.668,0,0,0-2.164-1.122L373,1033.8a4.438,4.438,0,0,1-3.7-.247c-5.642-3.039-12.509-4.576-20.46-4.576h-.287a105.26,105.26,0,0,0-12.622,1.393,1.6,1.6,0,0,0-1.292,1.619v1.061a.456.456,0,0,0,.538.471l.008,0c5.027-1.14,22.405-4.221,34.966,3.978a1.3,1.3,0,0,0,1.185.132l4.708-1.787a1.211,1.211,0,0,0,.671-1.51" transform="translate(-262.92 -790.71)"/><path class="q" d="M470.049,966.416c-1.28-1.341-8.574-.042-9.97.126s-6.634-1.048-8.069-.88-.931,2.641-.931,2.641c2.211,5.952,9.233,3.353,10.2,2.473s4.384-1.341,6.944-1.593,3.1-1.425,1.824-2.766" transform="translate(-354.336 -742.042)"/><path class="s" d="M545.443,1179.671a7.567,7.567,0,1,0,6.983,7.545,7.281,7.281,0,0,0-6.983-7.545" transform="translate(-423.058 -906.508)"/><path class="u" d="M590.717,844.937l-.033-.007c-2.327-1.372-14.7-8.735-15.245-10.5-.336-1.09-1.9-5.686-3.6-9.763-.433-1.013-1.007-.909-1.44-1.818-.937-1.947-4.459-.339-5.132-.676-2.211-1.091-4.652-2.024-4.652.365,0,0,.625,1.74,1.586,4.155.385.961.817,2.025,1.274,3.142,1.922,4.544,4.422,9.737,6.152,10.672,2.8,1.492,13.424,6.348,17.564,7.166l-.005.008s1.994,2.122,2.437,2.523a2.469,2.469,0,0,0,2.4.485c.958-.366.932-2.079.985-2.514a3.252,3.252,0,0,0-2.283-3.239" transform="translate(-440.462 -630.923)"/><path class="v" d="M564.745,777.805s-.683,1.649-1.669,3.521c-.054.1-.107.2-.161.3a19.1,19.1,0,0,1-2.607,3.882l-8.29-4.181A28.747,28.747,0,0,0,557.584,775a8.072,8.072,0,0,0,.478-.97l1.612-.062Z" transform="translate(-433.71 -594.747)"/><path class="u" d="M585.151,777.805s-.683,1.649-1.67,3.521c-.054.1-.107.2-.161.3-2.888-1.679-4.625-5-5.33-6.627a8.088,8.088,0,0,0,.478-.97l1.612-.062Z" transform="translate(-454.117 -594.747)"/><path class="v" d="M581.373,733.358s-9.543,1.617-10.383-4.819-2.638-10.562,3.419-11.867,7.564.971,8.328,3.045,1.1,13.054-1.365,13.641" transform="translate(-447.897 -550.426)"/><path class="s" d="M557.831,705.214a1.619,1.619,0,0,1,.781.488l.005-.008A5.223,5.223,0,0,1,559.9,702.9a3.9,3.9,0,0,0-.409,2.345c1.8-3.32,10.546-.708,11.366-.488s1.4-1.109,1.4-1.109a5.634,5.634,0,0,1,.714,6.118c-1.074,1.939-4.555,4.791-5.557,4.249s-1,.578-.952,2.153-2.473,4.223-4.253,4.608c-1.434.31-1.547-.751-1.938-1.428a2.113,2.113,0,0,0-.349-.455c-1.953-1.905-3.029-5.712-2.592-9.463a9.9,9.9,0,0,1,1.064-3.348,4.839,4.839,0,0,0-.565-.872" transform="translate(-437.809 -540.14)"/><path class="w" d="M578.768,818.235c-.745.26-2.547.987-3.028,1.869-.5.883-5.792-1.584-6.416-3.895,1.514-1.792,4.109-3.324,5.623-2.8.889.286,2.331,2.337,3.821,4.829" transform="translate(-447.307 -624.975)"/><path class="x" d="M489.835,933.073c-.859-1.855-10.938-22.38-10.938-22.38-.1.006-15.189-10.253-15.189-10.253a19.039,19.039,0,0,0-3.4,8.109,27.437,27.437,0,0,0-.658,4.172c-.451,5.68,22.205,28.409,22.726,31.563,1.231,7.466,8.685,22.844,12.189,30.472l2.793-1.157s-5.517-36.2-7.519-40.526" transform="translate(-361.131 -691.935)"/><path class="y" d="M495.636,806.994l-2.406,3.7-.192.468-5,12.333-1.359,5.784a.556.556,0,0,1-.433.43,18.98,18.98,0,0,1-7.052-.345,32.519,32.519,0,0,1-11.53-7.409,1.653,1.653,0,0,1-.348-1.723,72.853,72.853,0,0,1,12.767-21.61c2.211-2.6,8-4.726,8-4.726,1.586,1.766,7.258,4.856,7.258,4.856,1.25,1.065.292,8.241.292,8.241" transform="translate(-367.08 -610.063)"/><path class="w" d="M561.528,842.013l-5,12.334c-3.8-8.283-1.394-20.305-1.394-20.305s6.1,5.712,6.32,6.154a14.685,14.685,0,0,1,.072,1.818" transform="translate(-435.57 -640.912)"/><path class="v" d="M582.832,841.985l-.03-.005c-2.32-1.368-14.7-8.736-15.248-10.5-.336-1.09-1.9-5.686-3.6-9.763-.433-1.013-.866-2-1.3-2.908-.937-1.947-1.827-3.427-2.5-3.765-2.211-1.091-7.426,2.155-7.426,4.544,0,0,.625,1.74,1.586,4.155.385.961.817,2.025,1.274,3.142,1.923,4.544,4.422,9.737,6.152,10.672,2.8,1.492,13.424,6.348,17.564,7.166l-.006.008s1.994,2.123,2.437,2.524a2.468,2.468,0,0,0,2.4.485c.958-.366,1.17-1.766,1.222-2.2s.453-2.749-2.519-3.552" transform="translate(-434.266 -626.146)"/><path class="y" d="M563.36,820.961a46.467,46.467,0,0,0-8.693,5.371c-.475-1.161-.924-2.268-1.324-3.266-1-2.51-1.649-4.318-1.649-4.318,0-2.483,5.421-5.857,7.719-4.723.7.351,1.623,1.889,2.6,3.914.449.944.9,1.97,1.349,3.023" transform="translate(-433.456 -625.356)"/><path class="r" d="M611.274,1213.661h1.8c.6-.091,1.047-.257,1.664-.334a1.718,1.718,0,0,1,1.456.334l.017.017h7.636c.192-.262.008-.869-.173-1.316a1.07,1.07,0,0,0-.715-.625,8.429,8.429,0,0,1-3.868-1.688c-.823-.71-3.972-2.611-3.972-2.611l-.017,0c-.069,0-.4.1-1.831,1.253-.741.6-2-.842-2-.842a1.789,1.789,0,0,0-.578,1.656,6.971,6.971,0,0,1-.547,2.705c-.178.5-.328.855-.328.855s-.086.412,1.461.6" transform="translate(-479.119 -927.842)"/><path class="q" d="M614.665,1208.383a5.8,5.8,0,0,0,1.936.933c.811.1,2.328-1.876,2.328-1.876l-.017,0c-.069,0-.4.1-1.831,1.253-.741.6-2-.842-2-.842a1.726,1.726,0,0,0-.414.536" transform="translate(-482.931 -927.842)"/><path class="q" d="M611.274,1229.5h1.8c.6-.091,1.047-.257,1.664-.334a1.717,1.717,0,0,1,1.456.334l.017.017h7.636c.192-.262.008-.869-.173-1.316-.232-.2-.3.855-.425,1.023a35.672,35.672,0,0,1-6.582-.184,3.829,3.829,0,0,0-2.883-.337,7.219,7.219,0,0,1-3.64-.657c-.178.5-.328.856-.328.856s-.086.412,1.461.6" transform="translate(-479.119 -943.682)"/><path class="z" d="M2132.715,1160.228s1.135,2.792,2.7,1.565a8.339,8.339,0,0,0,2.231-3.935l-4.907,1.546Z" transform="translate(-1675.634 -889.746)"/><path class="aa" d="M2141.363,1168.83a1.352,1.352,0,0,0-.861-.851,9.573,9.573,0,0,1-4.661-2.3c-.991-.968-4.785-3.558-4.785-3.558l-.02,0c-.083,0-.481.133-2.206,1.708-.893.812-2.413-1.147-2.413-1.147a2.327,2.327,0,0,0-.5.73,2.651,2.651,0,0,0-.2,1.526,10.6,10.6,0,0,1-.659,3.686c-.215.682-.4,1.166-.4,1.166s-.1.562,1.759.814h2.166c.726-.124,1.261-.351,2.006-.456a1.909,1.909,0,0,1,1.753.456.259.259,0,0,1,.02.023h9.2c.231-.356.009-1.184-.209-1.793" transform="translate(-1669.31 -893.018)"/><path class="s" d="M2061.457,905.785c3.411,7.069,17.87,16.488,17.191,17.347-4.817,6.093-7.923,29.174-7.923,29.174a4.581,4.581,0,0,0,1.876.625,9.445,9.445,0,0,0,3.072-.521c5.991-13.2,15.429-27.628,14.606-30.8-2.094-8.081-17.974-29.7-17.974-29.7l-14.216-3.4-4.307-.156s3.019,7.777,7.675,17.432" transform="translate(-1613.618 -682.647)"/><path class="q" d="M2338.482,1052.581l-16.6-38.381,2.224-.961a2.748,2.748,0,0,1,3.659,1.7l13.406,36.456Z" transform="translate(-1824.259 -778.447)"/><path class="x" d="M2048.938,954.256c-6.3-17.66-6.377-17.787-6.5-17.979l-2.418,1.74c-.032-.052.986,2.65,2.311,6.2l-36.472,26.642-8.175-27.626-2.768.956,8.434,28.5-32.137,23.475,38.735,3.639.251-3.127-30.568-2.872,24.875-17.206,6.821,23.05,2.768-.956-.781-2.639,1.856,1.293,29.394-47.1c.64,1.742,1.263,3.455,1.8,4.973Zm-35.9,40.864-6-20.266,29.493-20.4Z" transform="translate(-1548.75 -719.474)"/><path class="q" d="M2269.744,926.9a2.521,2.521,0,0,0-2.352,1.788l-6.882-.425a2.5,2.5,0,0,0-2.281-1.6,2.712,2.712,0,0,0,0,5.407,2.389,2.389,0,0,0,1.671-.7l8.537.526a2.352,2.352,0,0,0,1.307.4,2.711,2.711,0,0,0,0-5.407" transform="translate(-1772.283 -712.087)"/><path class="s" d="M1902.515,1096.656q0-.256-.023-.505l20.334-3.685-.107-.688-20.335,3.686a5.211,5.211,0,0,0-1.644-2.812l12.342-19.05-.529-.4-11.842,18.277,6.386-20.7-.613-.221-6.627,21.482a4.46,4.46,0,0,0-1.783-.517v-22.947h-.646v22.947a4.443,4.443,0,0,0-1.068.21l-6.591-19.846-.608.236,6.273,18.887-12.613-15.687-.487.458,13.146,16.351a4.95,4.95,0,0,0-1.7,1.687l-.743-.138-18.382-10.068-.292.622,16.513,9.045-18.411-3.421-.109.687,20.476,3.8.538.294a5.48,5.48,0,0,0-.377,2.011c0,.138.006.273.017.408l-20.322,3.258.095.69,20.321-3.258a5.43,5.43,0,0,0,.159.607l-18.556,8.613.255.641,18.557-8.613.01.021L1878.96,1114.9l.458.491,14.454-15.752a5,5,0,0,0,1.06,1.164l-10.688,18.167.545.374,10.687-18.166c.094.055.19.106.288.155-2.67,7.6-7.56,21.51-7.68,21.9l.613.221c.106-.344,4.413-12.605,7.67-21.871a4.439,4.439,0,0,0,1.386.222c.079,0,.158,0,.237-.007l-1.688,22.04.643.058,1.7-22.182a4.446,4.446,0,0,0,.6-.167c3.359,8.926,7.77,20.661,7.888,21.036l.612-.221c-.12-.389-5.129-13.708-7.9-21.078.06-.031.119-.064.177-.1l11.343,19.38.546-.373-11.344-19.381a5,5,0,0,0,1.154-1.3l16.835,12.613.368-.573-16.881-12.647a5.468,5.468,0,0,0,.474-2.24" transform="translate(-1471.074 -821.138)"/><path class="s" d="M1888.486,1119.883c-15.4,0-27.926-13.535-27.926-30.172s12.527-30.172,27.926-30.172,27.926,13.536,27.926,30.172a32.04,32.04,0,0,1-3.776,15.159,29.328,29.328,0,0,1-10.021,10.871,26.337,26.337,0,0,1-14.129,4.141m0-56.158c-13.262,0-24.052,11.657-24.052,25.986s10.79,25.986,24.052,25.986a22.681,22.681,0,0,0,12.166-3.564,25.275,25.275,0,0,0,8.636-9.369,27.59,27.59,0,0,0,3.25-13.054c0-14.329-10.79-25.986-24.052-25.986" transform="translate(-1461.807 -814.193)"/><path class="ab" d="M1901.683,1128.991c-13.563,0-24.6-11.922-24.6-26.577s11.035-26.577,24.6-26.577,24.6,11.922,24.6,26.577-11.034,26.577-24.6,26.577m0-52.08c-13.015,0-23.6,11.441-23.6,25.5s10.589,25.5,23.6,25.5,23.6-11.441,23.6-25.5-10.589-25.5-23.6-25.5" transform="translate(-1474.79 -826.718)"/><path class="q" d="M2340.068,1092.467l-.107-.688-24.26,4.4.927-1.43.287.1.323-1.046,13.087-20.2-.529-.4-11.842,18.278,6.386-20.7-.612-.221-7.073,22.926-1.5,2.317-.265-.2-.02-.059.448-.489v-26.479h-.646V1094.5l-.16-.03-.61-1.836.045-.042-.1-.125-6.834-20.577-.608.236,6.273,18.887-12.613-15.687-.488.458,13.7,17.042.5,1.509-3.5-.651-18.382-10.069-.292.622,16.513,9.045-18.411-3.421-.11.687,20.476,3.8,3.315,1.816-.423.461-23.038,3.693.095.69,22.184-3.557-.184.2-20.076,9.318.254.641,18.608-8.637L2296.2,1114.9l.459.491,15.731-17.145,1.769-.821-12.675,21.545.545.374,11.537-19.61c-2.469,7.024-8.113,23.08-8.242,23.5l.613.221c.122-.4,5.821-16.614,9.066-25.841l.455,1.207-1.917,25.019.644.057,1.811-23.646c3.4,9.039,8.252,21.939,8.376,22.333l.613-.221c-.126-.41-5.677-15.166-8.326-22.2l11.943,20.407.546-.373-13.6-23.244,20.25,15.171.368-.573-19.743-14.792Zm-26.086,2.612-.3.468-1.448-.793Z" transform="translate(-1798.893 -821.139)"/><path class="s" d="M2385.882,1172.765a4.776,4.776,0,1,1,4.762,5.145,4.965,4.965,0,0,1-4.762-5.145" transform="translate(-1874.543 -897.247)"/><path class="s" d="M2305.727,1119.883c-15.4,0-27.926-13.535-27.926-30.172s12.527-30.172,27.926-30.172,27.926,13.536,27.926,30.172a32.038,32.038,0,0,1-3.776,15.159,29.322,29.322,0,0,1-10.021,10.871,26.337,26.337,0,0,1-14.128,4.141m0-56.158c-13.262,0-24.052,11.657-24.052,25.986s10.789,25.986,24.052,25.986a22.679,22.679,0,0,0,12.166-3.564,25.273,25.273,0,0,0,8.636-9.369,27.587,27.587,0,0,0,3.25-13.054c0-14.329-10.79-25.986-24.052-25.986" transform="translate(-1789.625 -814.193)"/><path class="ab" d="M2318.925,1128.991c-13.564,0-24.6-11.922-24.6-26.577s11.034-26.577,24.6-26.577,24.6,11.922,24.6,26.577-11.034,26.577-24.6,26.577m0-52.08c-13.015,0-23.6,11.441-23.6,25.5s10.59,25.5,23.6,25.5,23.6-11.441,23.6-25.5-10.59-25.5-23.6-25.5" transform="translate(-1802.609 -826.718)"/><path class="x" d="M1962.7,1022.839a1.735,1.735,0,0,0-2.251-1.167l-1.611.612a4.619,4.619,0,0,1-3.851-.257c-5.869-3.161-13.012-4.76-21.283-4.76h-.3a109.663,109.663,0,0,0-13.13,1.449,1.666,1.666,0,0,0-1.344,1.685v1.1a.474.474,0,0,0,.559.49l.009,0c5.229-1.186,23.307-4.391,36.373,4.138a1.358,1.358,0,0,0,1.233.138l4.9-1.859a1.259,1.259,0,0,0,.7-1.57" transform="translate(-1507.668 -781.71)"/><path class="q" d="M2040.054,954.15s-.524-2.572.969-2.747,6.941,1.09,8.394.916,9.04-1.526,10.371-.131.767,2.616-1.9,2.878-6.214.741-7.224,1.656-8.313,3.619-10.613-2.572" transform="translate(-1602.762 -731.084)"/><path class="q" d="M2153.442,1186.986h-2.67l-5.624-2.769a8.413,8.413,0,0,0,.331-2.347c0-4.334-3.252-7.848-7.264-7.848s-7.264,3.514-7.264,7.848,3.252,7.849,7.264,7.849a7.234,7.234,0,0,0,6.51-4.368l3.322,1.635h-.9a1.458,1.458,0,0,0,0,2.907h6.3a1.458,1.458,0,0,0,0-2.907" transform="translate(-1674.248 -902.167)"/><path class="z" d="M2221,1195.739s.736,2.856,2.263,2.644,2.356-3.2,2.356-3.2Z" transform="translate(-1745.002 -918.424)"/><path class="t" d="M2214.594,1203.662h2.165c.726-.123,1.261-.35,2.006-.455a1.912,1.912,0,0,1,1.754.455l.02.023h9.2c.231-.357.009-1.184-.208-1.793a1.353,1.353,0,0,0-.862-.851,9.577,9.577,0,0,1-4.661-2.3c-.991-.968-4.785-3.558-4.785-3.558l-.02,0c-.084,0-.48.133-2.206,1.708-.892.812-2.413-1.147-2.413-1.147a2.331,2.331,0,0,0-.5.73,2.649,2.649,0,0,0-.2,1.526,10.6,10.6,0,0,1-.659,3.686c-.215.682-.4,1.166-.4,1.166s-.1.562,1.76.814" transform="translate(-1738.581 -918.424)"/><path class="ac" d="M2218.679,1196.469a6.676,6.676,0,0,0,2.332,1.271c.977.139,2.805-2.557,2.805-2.557l-.02,0c-.083,0-.48.133-2.206,1.708-.892.812-2.413-1.147-2.413-1.147a2.321,2.321,0,0,0-.5.73" transform="translate(-1743.175 -918.424)"/><path class="ac" d="M2214.594,1225.243h2.165c.726-.123,1.261-.35,2.006-.455a1.913,1.913,0,0,1,1.754.455l.02.023h9.2c.231-.357.009-1.184-.208-1.793-.28-.269-.359,1.166-.513,1.394s-7.506.083-7.93-.25a4.16,4.16,0,0,0-3.473-.459c-1.545.4-3.822-.624-4.386-.9-.215.682-.4,1.166-.4,1.166s-.1.562,1.76.814" transform="translate(-1738.581 -940.005)"/><path class="ad" d="M2048.857,872.351s-5.693,13.352,1.2,19.445,26.941,14.724,27.255,16.078,1.692,23.545,6.7,39.792c0,0,1.726.744,4.619-.561,1.619-.73,3.792-42.871.973-46.932s-18.532-15.674-18.532-15.674Z" transform="translate(-1608.013 -670.35)"/><path class="v" d="M2142.365,646.914s6.94,7.181,12.164,7.185a13.116,13.116,0,0,0-2.381-3.922c.335-.707.629-1.358.88-1.941a35.21,35.21,0,0,0,1.284-3.36l-3.752-6.109-.842-1.37a17.078,17.078,0,0,1-1,2.842c-.03.067-.06.134-.091.2a12.82,12.82,0,0,1-6.261,6.476" transform="translate(-1683.216 -489.802)"/><path class="v" d="M2176.255,789.916s-9.932-13.736-10.809-14.948-9.667-21.674-9.667-21.674l-13.387-1.255s14.417,25.278,16.7,28.3c3.767,5,14.445,11.134,14.445,11.134a3.127,3.127,0,0,0,2.294,3.192c1.525.568,1.021.577,2.088,1.007s1.454-1.339,1.454-1.339c.626-4.264-3.113-4.417-3.113-4.417" transform="translate(-1683.237 -577.897)"/><path class="x" d="M2056.859,718.294c-.19.557.706,1.548,1.108,1.934a42.484,42.484,0,0,0,5.41,4.511,27.7,27.7,0,0,0,4.151,2.368c4.258,1.993,9.773,2.7,11.55,3.335a.758.758,0,0,0,.559-.034c.15-.063,1.945-5.838,4-13.2.083-.282.173-.592.233-.882l.03-.1c.811-2.862,1.6-5.9,2.349-8.923,1.666-6.669,3.05-13.18,3.271-16.978a19.727,19.727,0,0,0-2.541-10.622l-1.183-2.128a7.9,7.9,0,0,1-4.918-2.418c-1.586-1.644-3.316-3.423-3.724-3.28-4.823,1.815-9.489,10.456-12.55,21.046-.1.334-.192.671-.286,1.008q-.453,1.647-.856,3.346a157.17,157.17,0,0,1-5.678,18.415c-.4,1.107-.723,1.985-.92,2.6" transform="translate(-1616.015 -516.294)"/><path class="p" d="M2056.859,762.993c-.19.557.706,1.548,1.108,1.934a42.484,42.484,0,0,0,5.41,4.511c11.478-17.872,10.3-39.4,10.3-39.4l-9.367,8.593q-.453,1.647-.856,3.347a157.168,157.168,0,0,1-5.678,18.415c-.4,1.107-.723,1.985-.92,2.6" transform="translate(-1616.015 -560.992)"/><path class="u" d="M2171.5,644.889s.005.033.017.094c.137.724,1.147,5.434,4.4,7.8a35.349,35.349,0,0,0,1.284-3.359l-3.753-6.109a15.018,15.018,0,0,0-1.843,1.472l-.108.1" transform="translate(-1706.104 -494.348)"/><path class="v" d="M2177.123,620.093s-8.338.282-8.421-5.331-1.215-9.357,4.1-9.774,6.387,1.706,6.836,3.573-.354,11.314-2.521,11.532" transform="translate(-1703.786 -464.857)"/><path class="r" d="M2160.738,836.693l-.738-.286a.7.7,0,0,0-.91.464l-.167.5a.789.789,0,0,0,.429.983l.738.285a.7.7,0,0,0,.909-.464l.167-.5a.788.788,0,0,0-.429-.983" transform="translate(-1696.194 -642.696)"/><path class="ae" d="M2143.185,841.671l-3.156,9.511a1.133,1.133,0,0,1-1.472.751l-3.341-1.294a1.276,1.276,0,0,1-.695-1.59l3.156-9.511a1.134,1.134,0,0,1,1.472-.751l3.341,1.294a1.276,1.276,0,0,1,.695,1.59" transform="translate(-1677.001 -644.503)"/><path class="r" d="M2143.057,846.69l-3.028,9.126a1.133,1.133,0,0,1-1.471.751l-3.341-1.294a1.276,1.276,0,0,1-.695-1.59l2.965-8.938a7.31,7.31,0,0,1,2.28,1.191c.621.567,2.413.716,3.29.755" transform="translate(-1677.001 -649.136)"/><path class="q" d="M.073.071l6.282-.15-.15,5.907-6.282.15Z" transform="translate(458.196 202.281) rotate(-70.278)"/><path class="v" d="M2075.1,722.762c-1.5-.993-4.965-1.429-4.965-1.429s-7.845-10.991-9.048-13.492,12.469-10.05,12.948-14.228,1.244-11.926-4.282-11.58c0,0-13.166,11.419-18.419,25.543,0,0,5.891,11.9,16.2,17.115,0,0,5.945,3.868,6.982,4.142s1.87-1.049,2.24-1.807-.158-3.27-1.653-4.264" transform="translate(-1611.694 -524.094)"/><path class="x" d="M2111.922,693.833s-4.991-7.276-9.792-8.738a.31.31,0,0,1-.143-.481c1.093-1.444,5.253-6.732,8.948-8.593,0,0,6.515,3.674,5.685,7.357s-4.7,10.455-4.7,10.455" transform="translate(-1651.443 -519.483)"/><path class="af" d="M2172.158,586.876a12.281,12.281,0,0,0,1.236-2.844s-1.477,1.139-3.754-1.341-6.5-5.639-10.2-3.845a7.637,7.637,0,0,0-.692.383,9.366,9.366,0,0,1,1.044-1.932,6.7,6.7,0,0,0-2.332,2.906h0c-.045.04-.088.082-.132.123a6.889,6.889,0,0,0-2.608,1.091,2.085,2.085,0,0,1,1.613-.022c-1.884,2.323-2.838,5.425-1.846,7.544,1.451,3.1,2.041,2.324,3,6.062,0,0,1.259-.245,1.283-1.179s-.9-3.191.61-3.168,1.115,1.219,1.875.974.426-3.34,3.69-2.893,6.316-.347,7.207-1.859" transform="translate(-1692.43 -443.618)"/><path class="s" d="M1527.51,1096.656q0-.256-.023-.505l20.335-3.685-.107-.688-20.334,3.686a5.215,5.215,0,0,0-1.643-2.812l12.342-19.05-.529-.4-11.842,18.277,6.386-20.7-.613-.221-6.628,21.482a4.456,4.456,0,0,0-1.783-.517v-22.947h-.646v22.947a4.435,4.435,0,0,0-1.068.21l-6.592-19.846-.608.236,6.273,18.887-12.613-15.687-.487.458,13.146,16.351a4.947,4.947,0,0,0-1.7,1.687l-.744-.138-18.382-10.068-.292.622,16.513,9.045-18.411-3.421-.109.687,20.476,3.8.538.294a5.486,5.486,0,0,0-.377,2.011c0,.138.007.273.016.408l-20.322,3.258.1.69,20.321-3.258a5.484,5.484,0,0,0,.159.607l-18.556,8.613.255.641L1518.51,1099l.01.021-14.565,15.874.458.491,14.454-15.752a5,5,0,0,0,1.06,1.164l-10.688,18.167.544.374,10.688-18.166c.094.055.19.106.288.155-2.67,7.6-7.56,21.51-7.68,21.9l.613.221c.106-.344,4.413-12.605,7.67-21.871a4.436,4.436,0,0,0,1.385.222c.08,0,.158,0,.237-.007l-1.688,22.04.644.058,1.7-22.182a4.462,4.462,0,0,0,.6-.167c3.359,8.926,7.77,20.661,7.888,21.036l.612-.221c-.12-.389-5.129-13.708-7.9-21.078.06-.031.119-.064.177-.1l11.342,19.38.546-.373-11.343-19.381a5.011,5.011,0,0,0,1.154-1.3l16.834,12.613.368-.573-16.881-12.647a5.464,5.464,0,0,0,.474-2.24" transform="translate(-1176.44 -821.138)"/><path class="s" d="M1513.481,1119.883c-15.4,0-27.926-13.535-27.926-30.172s12.527-30.172,27.926-30.172,27.926,13.536,27.926,30.172a32.043,32.043,0,0,1-3.776,15.159,29.328,29.328,0,0,1-10.021,10.871,26.337,26.337,0,0,1-14.129,4.141m0-56.158c-13.262,0-24.052,11.657-24.052,25.986s10.789,25.986,24.052,25.986a22.681,22.681,0,0,0,12.166-3.564,25.277,25.277,0,0,0,8.636-9.369,27.591,27.591,0,0,0,3.25-13.054c0-14.329-10.789-25.986-24.052-25.986" transform="translate(-1167.173 -814.193)"/><path class="ab" d="M1526.679,1128.991c-13.563,0-24.6-11.922-24.6-26.577s11.035-26.577,24.6-26.577,24.6,11.922,24.6,26.577-11.035,26.577-24.6,26.577m0-52.08c-13.016,0-23.6,11.441-23.6,25.5s10.589,25.5,23.6,25.5,23.6-11.441,23.6-25.5-10.589-25.5-23.6-25.5" transform="translate(-1180.157 -826.718)"/><path class="ab" d="M1496.785,913.594a2.832,2.832,0,0,0-2.439-1.9c-12.055-29.923-12.185-30.158-12.367-30.479l-1.743,3.731c-.092-.163,6.582,15.867,11.345,27.618l-.68.294,16.6,38.381,2.69-1.186Z" transform="translate(-1162.993 -677.16)"/><path class="s" d="M1345.722,590.106c-.025-.365-.423-4.293-5.982-4.273,0,0,2.742.241,3.259,1.519,0,0-1.914-1.527-3.41-.95s-2.285,3.478-2.262,4.421.97,3.947,1.94,4.167a2.722,2.722,0,0,0,1.164-.046,14.5,14.5,0,0,0-.7,1.468c-2.045,5,.406,9.712,2.263,9.105,1.191-.389,1.608,1.815,1.608,1.815l11.33-10.694s-4.625-9.421-9.214-6.531" transform="translate(-1050.712 -450.178)"/><path class="u" d="M1307.783,883.313s2.087,4.691,4.725,11.192a252.443,252.443,0,0,1,8.783,24.634,42.581,42.581,0,0,1,1.89,10.239c0,.862-3.076,4.363-3.964,5.7-5.607,8.43-13.264,19.687-13.264,19.687l-2.09-.567s2.928-14.08,7.193-21.109c.839-1.382,3.2-3.064,3.089-3.217l0,0c-.368-.5-1.287-1.749-2.539-3.53a172.792,172.792,0,0,1-13.48-22.208q-.375-.78-.728-1.551c-2.119-4.651-3.518-9.01-3.381-12.24Z" transform="translate(-1016.674 -678.774)"/><path class="ab" d="M1328.119,1174.309l1.438.983c.53.248.974.34,1.509.608a1.671,1.671,0,0,1,.987,1.1c0,.016,0,.025,0,.025l6.11,4.177c.293-.132.467-.782.559-1.285a1.176,1.176,0,0,0-.241-.956,8.483,8.483,0,0,1-2.2-3.643c-.282-1.093-1.795-4.535-1.795-4.535l-.011-.012c-.056-.037-.371-.13-2.129.132-.908.135-1.156-1.857-1.156-1.857a1.621,1.621,0,0,0-.615.259,1.9,1.9,0,0,0-.725.924,7.575,7.575,0,0,1-1.871,2.149c-.408.356-.716.595-.716.595s-.287.326.852,1.34" transform="translate(-1042.783 -898.34)"/><path class="ag" d="M1342.839,1169.3a5.942,5.942,0,0,0,1.055,1.9c.6.535,2.857-.425,2.857-.425l-.012-.013c-.056-.037-.37-.13-2.129.133-.909.134-1.156-1.857-1.156-1.857a1.62,1.62,0,0,0-.615.259" transform="translate(-1055.044 -898.34)"/><path class="ag" d="M1328.119,1185.363l1.438.983c.53.248.974.34,1.509.608a1.671,1.671,0,0,1,.987,1.1c0,.016,0,.025,0,.025l6.11,4.177c.293-.132.467-.782.559-1.285-.081-.3-.691.612-.883.693a32.213,32.213,0,0,1-5.169-3.767,3.59,3.59,0,0,0-2.128-1.881,6.827,6.827,0,0,1-2.564-2.586c-.408.356-.716.595-.716.595s-.287.326.852,1.34" transform="translate(-1042.783 -909.394)"/><path class="ah" d="M1254.13,970.8l-3.238-3.62.285-.631-.513.375,0-.005-.008.014-36.667,26.785-8.174-27.626-2.768.956,8.434,28.5-32.136,23.475,38.735,3.639.251-3.128-30.568-2.872,24.875-17.207,6.82,23.05,2.768-.956-.781-2.638,1.856,1.293ZM1215.165,997.7l29.493-20.4-23.5,40.668Z" transform="translate(-926.585 -742.383)"/><path class="q" d="M1452.268,851.745a3.6,3.6,0,0,0-4.523-2.648,3.891,3.891,0,0,0-2.6,3.586l-16.215,4.4a3.464,3.464,0,0,0-3.711-1.1,3.99,3.99,0,0,0-2.451,4.887,3.6,3.6,0,0,0,4.523,2.648,3.693,3.693,0,0,0,2.136-1.845l18.433-5a3.363,3.363,0,0,0,1.955-.036,3.989,3.989,0,0,0,2.451-4.887" transform="translate(-1117.726 -652.355)"/><path class="q" d="M1396.031,1167.378l5.452,3.4a1.524,1.524,0,0,1,.492,1.985,1.3,1.3,0,0,1-1.838.532l-5.452-3.4a1.523,1.523,0,0,1-.493-1.985,1.3,1.3,0,0,1,1.838-.532" transform="translate(-1095.25 -896.912)"/><path class="q" d="M1380.938,1175.521l-6.875,8.219-.634-.6,6.875-8.218Z" transform="translate(-1079.078 -902.861)"/><path class="ab" d="M1170.82,1022.588a1.736,1.736,0,0,0-2.251-1.167l-1.611.611a4.619,4.619,0,0,1-3.851-.257c-5.869-3.161-13.012-4.76-21.283-4.76h-.3a109.6,109.6,0,0,0-13.13,1.449,1.666,1.666,0,0,0-1.344,1.685v1.1a.475.475,0,0,0,.559.49l.008,0c5.229-1.186,23.307-4.391,36.373,4.138a1.361,1.361,0,0,0,1.233.137l4.9-1.859a1.259,1.259,0,0,0,.7-1.57" transform="translate(-885.504 -781.516)"/><path class="q" d="M1248.175,953.9s-.525-2.572.969-2.747,6.941,1.09,8.394.916,9.039-1.526,10.371-.131.767,2.616-1.9,2.878-6.215.742-7.224,1.657-8.313,3.619-10.613-2.572" transform="translate(-980.597 -730.892)"/><path class="q" d="M1339.071,1181.618c0-4.335,3.252-7.848,7.264-7.848s7.264,3.514,7.264,7.848-3.252,7.848-7.264,7.848-7.264-3.514-7.264-7.848" transform="translate(-1052.083 -901.973)"/><path class="s" d="M1102.595,1096.656c0-.171-.008-.339-.023-.505l20.334-3.685-.107-.688-20.335,3.685a5.211,5.211,0,0,0-1.643-2.811l12.342-19.05-.529-.4-11.842,18.277,6.386-20.7-.613-.221-6.628,21.482a4.457,4.457,0,0,0-1.783-.517v-22.947h-.646v22.947a4.438,4.438,0,0,0-1.068.21l-6.592-19.846-.608.236,6.273,18.887-12.613-15.687-.487.458,13.146,16.351a4.949,4.949,0,0,0-1.7,1.687l-.744-.138-18.382-10.068-.292.622,16.513,9.045-18.411-3.421-.11.687,20.476,3.8.538.294a5.483,5.483,0,0,0-.377,2.011c0,.138.006.273.016.408l-20.322,3.258.1.69,20.321-3.258a5.566,5.566,0,0,0,.159.607l-18.556,8.613.255.641L1093.6,1099l.01.021-14.565,15.874.458.491,14.454-15.752a5.007,5.007,0,0,0,1.059,1.164l-10.688,18.167.545.374,10.687-18.166c.094.055.19.106.288.155-2.67,7.6-7.56,21.51-7.68,21.9l.613.221c.106-.344,4.413-12.605,7.67-21.871a4.438,4.438,0,0,0,1.386.222c.079,0,.158,0,.236-.007l-1.688,22.04.643.058,1.7-22.182a4.444,4.444,0,0,0,.6-.167c3.359,8.926,7.77,20.661,7.888,21.036l.612-.221c-.12-.389-5.129-13.708-7.9-21.078.06-.031.119-.064.177-.1l11.343,19.38.546-.373-11.344-19.381a5.006,5.006,0,0,0,1.154-1.3l16.835,12.613.368-.573-16.88-12.647a5.47,5.47,0,0,0,.474-2.24" transform="translate(-842.592 -821.138)"/><path class="s" d="M1088.565,1119.883c-15.4,0-27.926-13.535-27.926-30.172s12.527-30.172,27.926-30.172,27.925,13.536,27.925,30.172a32.036,32.036,0,0,1-3.776,15.159,29.324,29.324,0,0,1-10.021,10.871,26.337,26.337,0,0,1-14.128,4.141m0-56.158c-13.263,0-24.052,11.657-24.052,25.986s10.789,25.986,24.052,25.986a22.681,22.681,0,0,0,12.166-3.564,25.277,25.277,0,0,0,8.636-9.369,27.593,27.593,0,0,0,3.25-13.054c0-14.329-10.79-25.986-24.052-25.986" transform="translate(-833.324 -814.193)"/><path class="ab" d="M1101.763,1128.991c-13.563,0-24.6-11.922-24.6-26.577s11.034-26.577,24.6-26.577,24.6,11.922,24.6,26.577-11.035,26.577-24.6,26.577m0-52.08c-13.016,0-23.6,11.441-23.6,25.5s10.589,25.5,23.6,25.5,23.6-11.441,23.6-25.5-10.589-25.5-23.6-25.5" transform="translate(-846.308 -826.718)"/><path class="u" d="M1420.214,757.091a10.292,10.292,0,0,0-3.2-.571c-1.41.064-3.4-1.347-3.4-1.347s-7.317-5.162-8.9-6.924c-3.4-3.781-6.628-23.245-9.593-21.776,0,0-3.947,2.4-3.483,8.478s5.627,15.659,9.552,18.037c2.879,1.744,10.8,4.394,11.958,4.776,1.3.541,2.949,1.884,3.43,2.057.529.19,1.929-.351,2.732,0,2.926,1.277,2.966.286,2.966.286a3.3,3.3,0,0,0-2.056-3.015" transform="translate(-1093.35 -558.191)"/><path class="v" d="M1306.648,699.558a16.7,16.7,0,0,1-.926,3.671c-.344.939-.741,1.834-1.151,2.767-1.2,2.741-4.023,4.091-4.119,9.36-.032,1.815-1.433,5.9-.64,8.863,3.9,14.6-21.646,1.324-20.263-2.554,2.75-7.706,6.678-12.161,6.6-18.509a.264.264,0,0,0,0-.049c-.025-.307-.063-1.131-.107-2.22-.106-2.664-.245-6.913-.3-9.063,0-.051,0-.1,0-.147-.021-.921-.047-1.588-.08-1.763,1.9-8.734,6.271-8.771,7.762-8.744.553.01,1.134.049,1.611.093.937-.576,2.56-3.263,3.4-7.68l.34.156,5.729,2.631s-.53,2-.905,3.915a8.3,8.3,0,0,0-.269,3.33c.451.177.72.288.72.288a.023.023,0,0,0,0,.006c.1.246,3.518,8.7,2.6,15.649" transform="translate(-1005.275 -517.608)"/><path class="u" d="M1329.691,793.842c-.344.939-.741,1.834-1.151,2.767-1.2,2.741-4.023,4.091-4.119,9.36-.086.01-.174.018-.263.026-10.478.885-14.048-12.274-14.048-12.274-.025-.308-.064-1.132-.107-2.221l18.908.033a21.723,21.723,0,0,1,.78,2.308" transform="translate(-1029.245 -608.221)"/><path class="u" d="M1375.154,676.891s-.53,2-.905,3.915c-3.325-.859-4.454-4.555-4.824-6.546Z" transform="translate(-1075.932 -518.129)"/><path class="r" d="M1333.385,715.636c-.315-.908-1.848-4.387-1.848-4.387a15.357,15.357,0,0,0-4.624-2.421.025.025,0,0,0,0,.006c.061.209,1.673,5.71,1.2,6.917-.486,1.229-10.593-2.264-11.168-3.13-.461-.695-.6-4.466-.643-5.938-.01-.365-.013-.589-.013-.589s-3.742-.395-5.8.606a18.378,18.378,0,0,1,1.271,4.033c.036.2.067.4.092.607a8.828,8.828,0,0,1,.074,1.283c-.021,1.07-.917,1.94-2.12,2.964-.375.319-.781.653-1.2,1.014,0,.048,0,.1,0,.147.071,3.031.316,10.224.4,11.284,0,.017,0,.032,0,.049a58.288,58.288,0,0,1,10.16.357,32,32,0,0,1,4.041.789,16.809,16.809,0,0,1,4.225,1.693l.151.091s1.666-3.908,3.482-8.586c.065-.17.125-.338.177-.507a11.682,11.682,0,0,0,.117-5.425,3.326,3.326,0,0,1,2.017-.857" transform="translate(-1028.146 -542.534)"/><path class="v" d="M1374.047,643.473s-7.941-1.65-6.914-6.977.694-9.127,5.807-8.3,5.7,3.082,5.761,4.95-2.562,10.618-4.654,10.326" transform="translate(-1074.059 -482.645)"/><path class="ai" d="M1327.592,762.769l-.151-.091a16.815,16.815,0,0,0-4.225-1.693,31.977,31.977,0,0,0-4.041-.789,58.246,58.246,0,0,0-10.16-.357c0-.017,0-.032,0-.049-.087-1.06-.332-8.253-.4-11.284,0-.051,0-.1,0-.147.418-.361.824-.695,1.2-1.013,5.145,2.7,14.827,8.51,17.789,15.423" transform="translate(-1028.146 -574.292)"/><path class="s" d="M1371.29,626.8c-.913-1.879-1.905-1.736-2.516-1.372a5.342,5.342,0,0,0-7.351-.38,10.106,10.106,0,0,1-4.245,5.314s1.256,1.289,4.76,1.117a5.556,5.556,0,0,0,3.083-1.4,19.133,19.133,0,0,1-3.99,3.474c4.356-1.085,7.108-6.692,7.389-7.288a7.1,7.1,0,0,1,1.244,2.875c.131,1.445-.232,4.278.539,4.353,0,0,2.456-3.877,1.087-6.695" transform="translate(-1066.309 -479.311)"/><path class="v" d="M1270.276,883.108s-5.907,10.116,1.392,15.68,31.873,8.225,30.668,9.3c-3.686,3.3-7.034,8.378-6.857,38.778l1.821,1.016s17.523-41.188,16.349-46.1c-.778-3.249-26.337-20.836-43.372-18.682" transform="translate(-996.259 -678.476)"/><path class="x" d="M1282.068,881.618s-14.89-2.666-16.426-8.345c-1.147-4.242-1.487-5.973,5.261-19.681,0,0,2.82,5.787,17.537,4.448,0,0-.075.751-.075,1.767.019,1.686.263,4.082,1.485,4.772.019.021.056.021.075.041,1.936.954,4.935,2.88,5.386,3.063.019,0-9.033,1.872-13.243,13.935" transform="translate(-993.882 -655.935)"/><path class="p" d="M1329.151,885.2a76.18,76.18,0,0,0-14.135-2.64,48.9,48.9,0,0,1,12.65-2.132c.019,1.685.263,4.082,1.485,4.772" transform="translate(-1033.184 -676.558)"/><path class="ab" d="M1380.922,1146.809l1.534.8c.553.18,1,.216,1.564.415a1.633,1.633,0,0,1,1.1.967c0,.016.007.024.007.024l6.517,3.382c.277-.168.38-.835.417-1.347a1.159,1.159,0,0,0-.343-.919,8.281,8.281,0,0,1-2.577-3.343c-.4-1.05-2.27-4.28-2.27-4.28l-.013-.011c-.06-.03-.382-.082-2.1.4-.888.247-1.348-1.7-1.348-1.7a1.656,1.656,0,0,0-.583.334,1.953,1.953,0,0,0-.621,1.009,7.762,7.762,0,0,1-1.628,2.369c-.367.4-.647.68-.647.68s-.25.36.99,1.224" transform="translate(-1084.17 -876.939)"/><path class="ag" d="M1393.519,1141.527a5.789,5.789,0,0,0,1.252,1.758c.649.457,2.792-.78,2.792-.78l-.013-.011c-.06-.03-.382-.082-2.1.4-.888.247-1.348-1.7-1.348-1.7a1.654,1.654,0,0,0-.583.334" transform="translate(-1094.862 -876.939)"/><path class="ag" d="M1380.922,1159.125l1.534.8c.553.179,1,.216,1.564.415a1.633,1.633,0,0,1,1.1.967c0,.016.007.024.007.024l6.517,3.382c.277-.167.38-.835.417-1.347-.114-.293-.621.694-.8.8a31.431,31.431,0,0,1-5.539-3.093,3.5,3.5,0,0,0-2.316-1.6,6.652,6.652,0,0,1-2.825-2.247c-.367.4-.647.681-.647.681s-.25.36.99,1.224" transform="translate(-1084.17 -889.256)"/><path class="v" d="M1341.969,746.145a10.288,10.288,0,0,0-3.2-.572c-1.41.064-3.4-1.348-3.4-1.348s-13.687-7.067-15.2-9.664c-1.966-3.383-5.276-14.81-8.237-21.32-1.411-3.1-2.744-5.09-3.816-4.559,0,0-2.679.914-2.521,6.792q.011.492.053,1.033c.52,6.807,7.114,22.906,11.469,25.645s17.679,4.7,17.679,4.7c1.4-.049,3.006,1.826,3.534,2.016s2.084-.215,2.731,0c2.958.986,2.966.286,2.966.286a3.3,3.3,0,0,0-2.056-3.014" transform="translate(-1025.774 -544.516)"/><path class="r" d="M1311.928,713.243c-3.653-.931-6.337,2.233-6.337,2.233-.158-5.877,2.521-6.792,2.521-6.792,1.072-.531,2.4,1.455,3.816,4.559" transform="translate(-1025.773 -544.517)"/><path class="n" d="M70.91,1066.732c-3.19-.4-6.025,6.557-8.3,15.219-.87,3.309-1.657,6.866-2.349,10.361.111.37.22.736.331,1.1.015.054.031.1.046.154q1.061,3.492,2.155,6.672v0c.019.054.038.111.056.165,2.324-5.341,4.885-11.571,6.818-17.212,2.992-8.739,4.477-16.062,1.24-16.464" transform="translate(-47.348 -819.708)"/><path class="n" d="M119.2,1090.264c-6.647-1.992-13.542,5.486-19.449,15.223a169.933,169.933,0,0,0-10.952,22.28v0c.195.484.385.956.575,1.422q.719,1.75,1.389,3.3c1.362,3.153,2.561,5.691,3.464,7.522,4.853-5.773,10.686-13.008,15.788-20.171,9.805-13.77,16.916-27.271,9.184-29.583" transform="translate(-69.766 -837.555)"/><path class="n" d="M160.5,1230.317a2.734,2.734,0,0,0-2.617-2.385c-5.7-.061-11.736,2.208-17.47,5.517a100.733,100.733,0,0,0-19.531,15.44c.19.355.293.536.293.536l1.291,0,2.925.011h0l4.27.016c7.893-3.888,16.8-8.327,22.387-11.261,1.671-.877,3.046-1.62,4-2.172,3.9-2.247,4.661-4.258,4.448-5.707" transform="translate(-94.975 -943.592)"/><path class="aj" d="M601.318,1321.963H.682a.713.713,0,0,1-.682-.737v-.252a.713.713,0,0,1,.682-.737H601.318a.713.713,0,0,1,.682.737v.252a.713.713,0,0,1-.682.737" transform="translate(0 -1014.525)"/></g></g></g></svg>