<svg xmlns="http://www.w3.org/2000/svg" xmlns:xlink="http://www.w3.org/1999/xlink" width="577.74" height="300.99" viewBox="0 0 577.74 300.99"><defs><style>.a{fill:none;}.b{clip-path:url(#a);}.c{clip-path:url(#b);}.d{fill:#eff6fc;}.e{fill:#b6d1e8;}.f{fill:#c9e2f6;}.g{fill:#d3e5f6;}.h{opacity:0.8;}.i{clip-path:url(#c);}.j{clip-path:url(#d);}.k{fill:#9abed9;}.l{fill:#b4d69c;}.m{fill:#a4c886;}.n{fill:#78a564;}.o{fill:#86b36d;}.p{fill:#234c96;}.q{fill:#1f2941;}.r{fill:#4d9162;}.s{fill:#001033;}.t{fill:#fddb33;}.u{fill:#f68b67;}.v{fill:#49375c;}.w{fill:#001c31;}.x{fill:#fff;}.y{fill:#3b456a;}.z{fill:#4f5c8e;}.aa{fill:#e9342f;}.ab{fill:#070808;}.ac{fill:#032842;}.ad{fill:#556092;}.ae{fill:#eb6d45;}.af{fill:#72b860;}.ag{fill:#c6b8b8;}.ah{fill:#e6bb24;}.ai{fill:#79a7d9;}.aj{fill:#322041;}.ak{fill:#feaa5e;}.ak,.al,.am,.an,.ao,.ap,.as,.at,.au,.av{fill-rule:evenodd;}.al{fill:#ea393d;}.am{fill:#e71a24;}.an,.ar{fill:#4c796b;}.ao{fill:#975827;}.ap,.aq{fill:#5c3819;}.as{fill:#824c22;}.at{fill:#482c15;}.au{fill:#416459;}.av{fill:#6c9a8e;}.aw{fill:#0c2b54;}.ax{fill:#fa9861;}.ay{fill:#f67a22;}.az{fill:#f15e12;}.ba{fill:#001f3b;}.bb{fill:#072a51;}.bc{fill:#00387e;}.bd{fill:#c7def4;}</style><clipPath id="a"><rect class="a" width="577.74" height="300.99"/></clipPath><clipPath id="b"><rect class="a" width="577.741" height="300.99"/></clipPath><clipPath id="c"><rect class="a" width="128.929" height="57.837"/></clipPath><clipPath id="d"><rect class="a" width="128.929" height="57.838"/></clipPath></defs><g class="b"><g class="c"><path class="d" d="M31.886,295.138s-73.9-95.32,3.314-147.376c48.944-33,37.236-41.215,53.03-86.79C107.592,5.1,203.811-36.8,244.025,48.857c29.607,63.059,46.416,61.7,68.021,50.654,24.776-12.67,46.273-39.986,75.69-21.111,42.254,27.111,48.363,84.82,75.343,72.242C535.3,116.97,563.758,264.685,499.565,295.885Z" transform="translate(0 0)"/><rect class="e" width="35.912" height="188.686" transform="translate(247.688 83.056)"/><rect class="f" width="35.912" height="188.686" transform="translate(255.754 83.056)"/><rect class="e" width="35.903" height="10.903" transform="translate(255.763 83.005)"/><rect class="e" width="35.903" height="10.903" transform="translate(255.763 106.653)"/><rect class="e" width="35.903" height="10.903" transform="translate(255.763 130.301)"/><rect class="e" width="35.903" height="10.903" transform="translate(255.763 153.949)"/><rect class="e" width="35.903" height="10.903" transform="translate(255.763 177.596)"/><rect class="e" width="35.903" height="10.903" transform="translate(255.763 201.244)"/><rect class="e" width="35.903" height="10.904" transform="translate(255.763 224.893)"/><rect class="e" width="35.903" height="10.903" transform="translate(255.763 248.539)"/><rect class="e" width="35.912" height="161.986" transform="translate(305.098 109.755)"/><rect class="f" width="35.912" height="161.986" transform="translate(313.163 109.755)"/><rect class="e" width="35.903" height="9.36" transform="translate(313.172 109.712)"/><rect class="e" width="35.903" height="9.36" transform="translate(313.172 130.013)"/><rect class="e" width="35.903" height="9.36" transform="translate(313.172 150.315)"/><rect class="e" width="35.903" height="9.36" transform="translate(313.172 170.617)"/><rect class="e" width="35.903" height="9.36" transform="translate(313.172 190.919)"/><rect class="e" width="35.903" height="9.36" transform="translate(313.172 211.22)"/><rect class="e" width="35.903" height="9.36" transform="translate(313.172 231.521)"/><rect class="e" width="35.903" height="9.36" transform="translate(313.172 251.823)"/><rect class="g" width="15.039" height="23.693" transform="translate(228.252 265.954)"/><path class="f" d="M257.694,461.677v65.781H98.4l-1.085-.01-40.654-.413-.123-.229-.237-.446c-.03-.06-.064-.122-.095-.189-.121-.233-.257-.5-.41-.8-.189-.365-.393-.782-.624-1.247-.851-1.732-1.986-4.134-3.277-7.117q-.636-1.469-1.314-3.122c-.18-.441-.361-.887-.544-1.345q-.267-.662-.535-1.356l-.018-.044c-.123-.317-.247-.638-.372-.965s-.259-.671-.39-1.013c-.662-1.766-1.345-3.641-2.023-5.619l-.053-.156q-.662-1.94-1.324-4.007-.362-1.135-.717-2.306c-.014-.047-.029-.095-.044-.145-.105-.347-.208-.693-.313-1.041-.087-.3-.174-.59-.259-.887q-.268-.918-.533-1.855-.339-1.2-.669-2.44-.445-1.677-.87-3.412c-.085-.346-.17-.7-.254-1.041q-.378-1.568-.732-3.176-.115-.516-.226-1.035c-.047-.214-.095-.428-.139-.641q-.537-2.544-1.015-5.184-.525-2.907-.962-5.921-.4-2.78-.716-5.647-.3-2.7-.5-5.472c-.324-4.317-.473-8.75-.41-13.264a133.053,133.053,0,0,1,2.512-24.183c.06-.3.121-.6.182-.9q.609-2.933,1.368-5.872.579-2.243,1.253-4.489.49-1.626,1.029-3.256,1.224-3.69,2.722-7.379l.852-2.04a123.791,123.791,0,0,1,24.848-37.092l.64-.662h.662V385.21H93.638V344.192H116.38v26.616h5.184V339.036h22.743v59.578h28.76v34.74h10.748v8.753h24.692V427.032H222.68V386.079h17.508v75.6Z" transform="translate(-24.85 -228.046)"/><rect class="e" width="22.755" height="6.071" transform="translate(96.717 115.008)"/><rect class="e" width="22.755" height="6.07" transform="translate(96.717 126.412)"/><rect class="e" width="22.755" height="6.071" transform="translate(96.717 136.671)"/><rect class="e" width="22.755" height="6.071" transform="translate(68.795 136.671)"/><rect class="e" width="22.755" height="6.07" transform="translate(68.795 126.412)"/><rect class="e" width="22.755" height="6.07" transform="translate(68.795 116.168)"/><rect class="e" width="50.684" height="6.07" transform="translate(68.788 146.619)"/><rect class="e" width="50.684" height="6.071" transform="translate(68.788 156.566)"/><rect class="e" width="17.661" height="9.37" transform="translate(197.667 158.037)"/><rect class="e" width="17.661" height="9.37" transform="translate(197.667 171.972)"/><rect class="e" width="17.661" height="9.37" transform="translate(197.667 185.908)"/><rect class="e" width="17.661" height="9.37" transform="translate(197.667 200.515)"/><rect class="e" width="17.661" height="9.37" transform="translate(197.667 214.668)"/><rect class="e" width="17.661" height="9.37" transform="translate(197.667 228.824)"/><rect class="e" width="17.661" height="9.37" transform="translate(197.667 243.631)"/><rect class="e" width="50.684" height="3.853" transform="translate(68.788 166.289)"/><rect class="e" width="6.512" height="40.948" transform="translate(191.4 158.037)"/><rect class="e" width="13.099" height="15.071" transform="translate(170.557 198.986)"/><path class="e" d="M200.865,354.853v40.981H196.35v-40.5l.607-.484Z" transform="translate(-132.071 -238.685)"/><rect class="e" width="2.775" height="31.755" transform="translate(93.942 110.986)"/><g class="h" transform="translate(14.594 176.54)"><g class="i"><g transform="translate(0)"><g class="j"><rect class="e" width="3.855" height="5.871" transform="translate(125.074)"/><rect class="e" width="3.855" height="5.871" transform="translate(117.864)"/><rect class="e" width="3.855" height="5.871" transform="translate(110.816)"/><rect class="e" width="3.855" height="5.871" transform="translate(104.133)"/><rect class="e" width="3.855" height="5.871" transform="translate(97.321)"/><rect class="e" width="3.855" height="5.871" transform="translate(90.433)"/><rect class="e" width="3.855" height="5.871" transform="translate(83.223)"/><rect class="e" width="3.855" height="5.871" transform="translate(76.174)"/><rect class="e" width="3.855" height="5.871" transform="translate(69.491)"/><rect class="e" width="3.855" height="5.871" transform="translate(62.68)"/><rect class="e" width="3.855" height="5.871" transform="translate(55.583)"/><rect class="e" width="3.855" height="5.871" transform="translate(48.373)"/><rect class="e" width="3.855" height="5.871" transform="translate(41.324)"/><rect class="e" width="3.855" height="5.871" transform="translate(34.642)"/><rect class="e" width="3.855" height="5.871" transform="translate(27.831)"/><rect class="e" width="3.855" height="5.871" transform="translate(20.941)"/><rect class="e" width="3.855" height="5.871" transform="translate(13.731)"/><rect class="e" width="3.855" height="5.871" transform="translate(6.683)"/><path class="e" d="M54.244,547.259v3.256H53.215q.49-1.626,1.029-3.256" transform="translate(-50.388 -544.644)"/><rect class="e" width="3.855" height="5.871" transform="translate(125.074 10.361)"/><rect class="e" width="3.855" height="5.871" transform="translate(117.864 10.361)"/><rect class="e" width="3.855" height="5.871" transform="translate(110.816 10.361)"/><rect class="e" width="3.855" height="5.871" transform="translate(104.133 10.361)"/><rect class="e" width="3.855" height="5.871" transform="translate(97.321 10.361)"/><rect class="e" width="3.855" height="5.871" transform="translate(90.433 10.361)"/><rect class="e" width="3.855" height="5.871" transform="translate(83.223 10.361)"/><rect class="e" width="3.855" height="5.871" transform="translate(76.174 10.361)"/><rect class="e" width="3.855" height="5.871" transform="translate(69.491 10.361)"/><rect class="e" width="3.855" height="5.871" transform="translate(62.68 10.361)"/><rect class="e" width="3.855" height="5.871" transform="translate(55.583 10.361)"/><rect class="e" width="3.855" height="5.871" transform="translate(48.373 10.361)"/><rect class="e" width="3.855" height="5.871" transform="translate(41.324 10.361)"/><rect class="e" width="3.855" height="5.871" transform="translate(34.642 10.361)"/><rect class="e" width="3.855" height="5.871" transform="translate(27.831 10.361)"/><rect class="e" width="3.855" height="5.871" transform="translate(20.941 10.361)"/><rect class="e" width="3.855" height="5.871" transform="translate(13.731 10.361)"/><rect class="e" width="3.855" height="5.871" transform="translate(6.683 10.361)"/><path class="e" d="M48.86,570.918v5.872H45.21q.609-2.933,1.368-5.872Z" transform="translate(-45.003 -560.558)"/><rect class="e" width="3.855" height="5.872" transform="translate(125.074 20.563)"/><rect class="e" width="3.855" height="5.872" transform="translate(117.864 20.563)"/><rect class="e" width="3.855" height="5.872" transform="translate(110.816 20.563)"/><rect class="e" width="3.855" height="5.872" transform="translate(104.133 20.563)"/><rect class="e" width="3.855" height="5.872" transform="translate(97.321 20.563)"/><rect class="e" width="3.855" height="5.872" transform="translate(90.433 20.563)"/><rect class="e" width="3.855" height="5.872" transform="translate(83.223 20.563)"/><rect class="e" width="3.855" height="5.872" transform="translate(76.174 20.563)"/><rect class="e" width="3.855" height="5.872" transform="translate(69.491 20.563)"/><rect class="e" width="3.855" height="5.872" transform="translate(62.68 20.563)"/><rect class="e" width="3.855" height="5.872" transform="translate(55.583 20.563)"/><rect class="e" width="3.855" height="5.872" transform="translate(48.373 20.563)"/><rect class="e" width="3.855" height="5.872" transform="translate(41.324 20.563)"/><rect class="e" width="3.855" height="5.872" transform="translate(34.642 20.563)"/><rect class="e" width="3.855" height="5.872" transform="translate(27.831 20.563)"/><rect class="e" width="3.855" height="5.872" transform="translate(20.941 20.563)"/><rect class="e" width="3.855" height="5.872" transform="translate(13.731 20.563)"/><rect class="e" width="3.855" height="5.872" transform="translate(6.683 20.563)"/><rect class="e" width="3.855" height="5.872" transform="translate(0 20.563)"/><rect class="e" width="3.855" height="5.871" transform="translate(125.074 31.403)"/><rect class="e" width="3.855" height="5.871" transform="translate(117.864 31.403)"/><rect class="e" width="3.855" height="5.871" transform="translate(110.816 31.403)"/><rect class="e" width="3.855" height="5.871" transform="translate(104.133 31.403)"/><rect class="e" width="3.855" height="5.871" transform="translate(97.321 31.403)"/><rect class="e" width="3.855" height="5.871" transform="translate(90.433 31.403)"/><rect class="e" width="3.855" height="5.871" transform="translate(83.223 31.403)"/><rect class="e" width="3.855" height="5.871" transform="translate(76.174 31.403)"/><rect class="e" width="3.855" height="5.871" transform="translate(69.491 31.403)"/><rect class="e" width="3.855" height="5.871" transform="translate(62.68 31.403)"/><rect class="e" width="3.855" height="5.871" transform="translate(55.583 31.403)"/><rect class="e" width="3.855" height="5.871" transform="translate(48.373 31.403)"/><rect class="e" width="3.855" height="5.871" transform="translate(41.324 31.403)"/><rect class="e" width="3.855" height="5.871" transform="translate(34.642 31.403)"/><rect class="e" width="3.855" height="5.871" transform="translate(27.831 31.403)"/><rect class="e" width="3.855" height="5.871" transform="translate(20.941 31.403)"/><rect class="e" width="3.855" height="5.871" transform="translate(13.731 31.403)"/><rect class="e" width="3.855" height="5.871" transform="translate(6.683 31.403)"/><rect class="e" width="3.855" height="5.871" transform="translate(0 31.403)"/><rect class="e" width="3.855" height="5.871" transform="translate(125.074 41.764)"/><rect class="e" width="3.855" height="5.871" transform="translate(117.864 41.764)"/><rect class="e" width="3.855" height="5.871" transform="translate(110.816 41.764)"/><rect class="e" width="3.855" height="5.871" transform="translate(104.133 41.764)"/><rect class="e" width="3.855" height="5.871" transform="translate(97.321 41.764)"/><rect class="e" width="3.855" height="5.871" transform="translate(90.433 41.764)"/><rect class="e" width="3.855" height="5.871" transform="translate(83.223 41.764)"/><rect class="e" width="3.855" height="5.871" transform="translate(76.174 41.764)"/><rect class="e" width="3.855" height="5.871" transform="translate(69.491 41.764)"/><rect class="e" width="3.855" height="5.871" transform="translate(62.68 41.764)"/><rect class="e" width="3.855" height="5.871" transform="translate(55.583 41.764)"/><rect class="e" width="3.855" height="5.871" transform="translate(48.373 41.764)"/><rect class="e" width="3.855" height="5.871" transform="translate(41.324 41.764)"/><rect class="e" width="3.855" height="5.871" transform="translate(34.642 41.764)"/><rect class="e" width="3.855" height="5.871" transform="translate(27.831 41.764)"/><rect class="e" width="3.855" height="5.871" transform="translate(20.941 41.764)"/><rect class="e" width="3.855" height="5.871" transform="translate(13.731 41.764)"/><rect class="e" width="3.855" height="5.871" transform="translate(6.683 41.764)"/><rect class="e" width="3.855" height="5.871" transform="translate(0 41.764)"/><rect class="e" width="3.855" height="5.871" transform="translate(125.074 51.966)"/><rect class="e" width="3.855" height="5.871" transform="translate(117.864 51.966)"/><rect class="e" width="3.855" height="5.871" transform="translate(110.816 51.966)"/><rect class="e" width="3.855" height="5.871" transform="translate(104.133 51.966)"/><rect class="e" width="3.855" height="5.871" transform="translate(97.321 51.966)"/><rect class="e" width="3.855" height="5.871" transform="translate(90.433 51.966)"/><rect class="e" width="3.855" height="5.871" transform="translate(83.223 51.966)"/><rect class="e" width="3.855" height="5.871" transform="translate(76.174 51.966)"/><rect class="e" width="3.855" height="5.871" transform="translate(69.491 51.966)"/><rect class="e" width="3.855" height="5.871" transform="translate(62.68 51.966)"/><rect class="e" width="3.855" height="5.871" transform="translate(55.583 51.966)"/><rect class="e" width="3.855" height="5.871" transform="translate(48.373 51.966)"/><rect class="e" width="3.855" height="5.871" transform="translate(41.324 51.966)"/><rect class="e" width="3.855" height="5.871" transform="translate(34.642 51.966)"/><rect class="e" width="3.855" height="5.871" transform="translate(27.831 51.966)"/><rect class="e" width="3.855" height="5.871" transform="translate(20.941 51.966)"/><rect class="e" width="3.855" height="5.871" transform="translate(13.731 51.966)"/><rect class="e" width="3.855" height="5.871" transform="translate(6.683 51.966)"/><rect class="e" width="3.855" height="5.871" transform="translate(0 51.966)"/></g></g></g></g><rect class="e" width="89.361" height="52.087" transform="translate(81.196 246.902)"/><rect class="e" width="89.361" height="26.043" transform="translate(148.955 272.945)"/><path class="e" d="M107.066,778.99v43.971H64.842c-.034-.064-.075-.141-.123-.229l-.238-.446c-.03-.061-.063-.122-.095-.189-.12-.233-.257-.5-.409-.8-.19-.365-.394-.782-.624-1.247-.851-1.732-1.987-4.134-3.278-7.117q-.635-1.469-1.314-3.122c-.181-.441-.36-.887-.544-1.345q-.267-.662-.534-1.356l-.018-.044c-.123-.317-.247-.638-.372-.965s-.259-.671-.39-1.013c-.662-1.766-1.346-3.641-2.022-5.619l-.053-.156q-.663-1.94-1.325-4.007-.362-1.136-.716-2.306c-.015-.047-.03-.095-.044-.146-.105-.346-.208-.693-.313-1.041-.087-.3-.174-.59-.259-.887q-.268-.918-.533-1.854-.339-1.2-.669-2.44-.445-1.678-.871-3.413c-.085-.346-.17-.7-.253-1.041q-.379-1.568-.732-3.176Z" transform="translate(-33.035 -523.973)"/><rect class="f" width="16.649" height="9.647" transform="translate(147.937 253.002)"/><rect class="f" width="16.649" height="9.647" transform="translate(126.566 253.002)"/><rect class="f" width="16.649" height="9.647" transform="translate(105.601 253.002)"/><rect class="f" width="16.649" height="9.647" transform="translate(85.039 253.002)"/><rect class="k" width="8.577" height="52.536" transform="translate(73.547 246.902)"/><rect class="g" width="0.465" height="4.077" transform="translate(211.349 153.96)"/><rect class="g" width="0.465" height="4.077" transform="translate(194.66 153.96)"/><path class="f" d="M39.768,722.68q.312,2.865.716,5.647.433,3.012.962,5.921.473,2.639,1.015,5.184c.045.213.095.428.139.641q.11.519.226,1.035.356,1.608.732,3.176.125.523.253,1.041.425,1.735.871,3.413.329,1.234.669,2.44.264.936.533,1.854c.085.3.172.592.259.887.105.351.208.7.313,1.041.014.051.029.095.043.146q.357,1.171.716,2.305.657,2.066,1.325,4.008l.053.156c.676,1.978,1.358,3.853,2.022,5.62.131.342.259.68.39,1.013s.25.648.372.965l.018.045V722.672Z" transform="translate(-26.749 -486.092)"/><path class="f" d="M57.208,775.828v29.151l-.018-.045c-.123-.317-.247-.637-.372-.964s-.259-.672-.39-1.015c-.662-1.766-1.345-3.641-2.023-5.619-.018-.051-.036-.105-.053-.156q-.662-1.941-1.325-4.008-.362-1.135-.717-2.3c-.014-.047-.029-.095-.044-.146-.105-.346-.208-.693-.312-1.041-.087-.295-.174-.59-.259-.887q-.268-.917-.533-1.854-.339-1.2-.669-2.44-.446-1.678-.871-3.413c-.085-.346-.17-.695-.253-1.041q-.379-1.569-.732-3.176-.116-.517-.226-1.035Z" transform="translate(-32.563 -521.846)"/><path class="e" d="M54.84,758.035v14.492h-6.71q-.445-1.677-.871-3.412c-.085-.346-.171-.7-.254-1.041q-.379-1.568-.732-3.176-.116-.516-.226-1.035c-.047-.214-.095-.428-.139-.641q-.537-2.543-1.015-5.184Z" transform="translate(-30.196 -509.878)"/><path class="e" d="M59.783,815.408v4.381q-.362-1.135-.716-2.3c-.014-.047-.03-.095-.043-.146-.105-.346-.208-.692-.313-1.04q-.131-.443-.259-.887Z" transform="translate(-39.316 -548.469)"/><rect class="k" width="2.648" height="4.95" transform="translate(17.317 252.229)"/><rect class="f" width="61.357" height="44.583" transform="translate(221.4 253.983)"/><rect class="e" width="61.357" height="14.491" transform="translate(221.4 248.158)"/><rect class="e" width="3.151" height="4.799" transform="translate(275.428 266.943)"/><rect class="e" width="3.151" height="4.799" transform="translate(269.535 266.943)"/><rect class="e" width="3.151" height="4.799" transform="translate(263.774 266.943)"/><rect class="e" width="3.151" height="4.799" transform="translate(258.313 266.943)"/><rect class="e" width="3.151" height="4.799" transform="translate(252.745 266.943)"/><rect class="e" width="3.151" height="4.799" transform="translate(247.115 266.943)"/><rect class="e" width="3.151" height="4.799" transform="translate(241.222 266.943)"/><rect class="e" width="3.151" height="4.799" transform="translate(235.462 266.943)"/><rect class="e" width="3.151" height="4.799" transform="translate(229.999 266.943)"/><rect class="e" width="3.151" height="4.799" transform="translate(224.433 266.943)"/><rect class="e" width="3.151" height="4.799" transform="translate(275.428 275.411)"/><rect class="e" width="3.151" height="4.799" transform="translate(269.535 275.411)"/><rect class="e" width="3.151" height="4.799" transform="translate(263.774 275.411)"/><rect class="e" width="3.151" height="4.799" transform="translate(258.313 275.411)"/><rect class="e" width="3.151" height="4.799" transform="translate(252.745 275.411)"/><rect class="e" width="3.151" height="4.799" transform="translate(247.115 275.411)"/><rect class="e" width="3.151" height="4.799" transform="translate(241.222 275.411)"/><rect class="e" width="3.151" height="4.799" transform="translate(235.462 275.411)"/><rect class="e" width="3.151" height="4.799" transform="translate(229.999 275.411)"/><rect class="e" width="3.151" height="4.799" transform="translate(224.433 275.411)"/><rect class="e" width="3.151" height="4.798" transform="translate(275.428 283.75)"/><rect class="e" width="3.151" height="4.798" transform="translate(269.535 283.75)"/><rect class="e" width="3.151" height="4.798" transform="translate(263.774 283.75)"/><rect class="e" width="3.151" height="4.798" transform="translate(258.313 283.75)"/><rect class="e" width="3.151" height="4.798" transform="translate(252.745 283.75)"/><rect class="e" width="3.151" height="4.798" transform="translate(247.115 283.75)"/><rect class="e" width="3.151" height="4.798" transform="translate(241.222 283.75)"/><rect class="e" width="3.151" height="4.798" transform="translate(235.462 283.75)"/><rect class="e" width="3.151" height="4.798" transform="translate(229.999 283.75)"/><rect class="e" width="3.151" height="4.798" transform="translate(224.433 283.75)"/><rect class="k" width="2.648" height="4.95" transform="translate(275.428 252.229)"/><rect class="k" width="2.648" height="4.95" transform="translate(249.139 252.229)"/><rect class="k" width="2.648" height="4.95" transform="translate(228.227 252.229)"/><rect class="f" width="61.357" height="44.583" transform="translate(286.61 253.983)"/><rect class="e" width="61.357" height="14.491" transform="translate(286.61 248.158)"/><rect class="e" width="3.151" height="4.799" transform="translate(340.638 266.943)"/><rect class="e" width="3.152" height="4.799" transform="translate(334.745 266.943)"/><rect class="e" width="3.152" height="4.799" transform="translate(328.984 266.943)"/><rect class="e" width="3.151" height="4.799" transform="translate(323.523 266.943)"/><rect class="e" width="3.151" height="4.799" transform="translate(317.955 266.943)"/><rect class="e" width="3.151" height="4.799" transform="translate(312.325 266.943)"/><rect class="e" width="3.151" height="4.799" transform="translate(306.432 266.943)"/><rect class="e" width="3.151" height="4.799" transform="translate(300.672 266.943)"/><rect class="e" width="3.151" height="4.799" transform="translate(295.209 266.943)"/><rect class="e" width="3.151" height="4.799" transform="translate(289.643 266.943)"/><rect class="e" width="3.151" height="4.799" transform="translate(340.638 275.411)"/><rect class="e" width="3.152" height="4.799" transform="translate(334.745 275.411)"/><rect class="e" width="3.152" height="4.799" transform="translate(328.984 275.411)"/><rect class="e" width="3.151" height="4.799" transform="translate(323.523 275.411)"/><rect class="e" width="3.151" height="4.799" transform="translate(317.955 275.411)"/><rect class="e" width="3.151" height="4.799" transform="translate(312.325 275.411)"/><rect class="e" width="3.151" height="4.799" transform="translate(306.432 275.411)"/><rect class="e" width="3.151" height="4.799" transform="translate(300.672 275.411)"/><rect class="e" width="3.151" height="4.799" transform="translate(295.209 275.411)"/><rect class="e" width="3.151" height="4.799" transform="translate(289.643 275.411)"/><rect class="e" width="3.151" height="4.798" transform="translate(340.638 283.75)"/><rect class="e" width="3.152" height="4.798" transform="translate(334.745 283.75)"/><rect class="e" width="3.152" height="4.798" transform="translate(328.984 283.75)"/><rect class="e" width="3.151" height="4.798" transform="translate(323.523 283.75)"/><rect class="e" width="3.151" height="4.798" transform="translate(317.955 283.75)"/><rect class="e" width="3.151" height="4.798" transform="translate(312.325 283.75)"/><rect class="e" width="3.151" height="4.798" transform="translate(306.432 283.75)"/><rect class="e" width="3.151" height="4.798" transform="translate(300.672 283.75)"/><rect class="e" width="3.151" height="4.798" transform="translate(295.209 283.75)"/><rect class="e" width="3.151" height="4.798" transform="translate(289.643 283.75)"/><rect class="k" width="2.648" height="4.95" transform="translate(340.638 252.229)"/><rect class="k" width="2.648" height="4.95" transform="translate(314.349 252.229)"/><rect class="k" width="2.648" height="4.95" transform="translate(293.437 252.229)"/><rect class="f" width="61.356" height="44.583" transform="translate(351.964 253.983)"/><rect class="e" width="61.356" height="14.491" transform="translate(351.964 248.158)"/><rect class="e" width="3.151" height="4.799" transform="translate(405.992 266.943)"/><rect class="e" width="3.151" height="4.799" transform="translate(400.1 266.943)"/><rect class="e" width="3.151" height="4.799" transform="translate(394.339 266.943)"/><rect class="e" width="3.152" height="4.799" transform="translate(388.876 266.943)"/><rect class="e" width="3.151" height="4.799" transform="translate(383.31 266.943)"/><rect class="e" width="3.151" height="4.799" transform="translate(377.679 266.943)"/><rect class="e" width="3.151" height="4.799" transform="translate(371.786 266.943)"/><rect class="e" width="3.151" height="4.799" transform="translate(366.025 266.943)"/><rect class="e" width="3.151" height="4.799" transform="translate(360.564 266.943)"/><rect class="e" width="3.151" height="4.799" transform="translate(354.996 266.943)"/><rect class="e" width="3.151" height="4.799" transform="translate(405.992 275.411)"/><rect class="e" width="3.151" height="4.799" transform="translate(400.1 275.411)"/><rect class="e" width="3.151" height="4.799" transform="translate(394.339 275.411)"/><rect class="e" width="3.152" height="4.799" transform="translate(388.876 275.411)"/><rect class="e" width="3.151" height="4.799" transform="translate(383.31 275.411)"/><rect class="e" width="3.151" height="4.799" transform="translate(377.679 275.411)"/><rect class="e" width="3.151" height="4.799" transform="translate(371.786 275.411)"/><rect class="e" width="3.151" height="4.799" transform="translate(366.025 275.411)"/><rect class="e" width="3.151" height="4.799" transform="translate(360.564 275.411)"/><rect class="e" width="3.151" height="4.799" transform="translate(354.996 275.411)"/><rect class="e" width="3.151" height="4.798" transform="translate(405.992 283.75)"/><rect class="e" width="3.151" height="4.798" transform="translate(400.1 283.75)"/><rect class="e" width="3.151" height="4.798" transform="translate(394.339 283.75)"/><rect class="e" width="3.152" height="4.798" transform="translate(388.876 283.75)"/><rect class="e" width="3.151" height="4.798" transform="translate(383.31 283.75)"/><rect class="e" width="3.151" height="4.798" transform="translate(377.679 283.75)"/><rect class="e" width="3.151" height="4.798" transform="translate(371.786 283.75)"/><rect class="e" width="3.151" height="4.798" transform="translate(366.025 283.75)"/><rect class="e" width="3.151" height="4.798" transform="translate(360.564 283.75)"/><rect class="e" width="3.151" height="4.798" transform="translate(354.996 283.75)"/><rect class="k" width="2.648" height="4.95" transform="translate(405.992 252.229)"/><rect class="k" width="2.648" height="4.95" transform="translate(379.704 252.229)"/><rect class="k" width="2.648" height="4.95" transform="translate(358.791 252.229)"/><path class="l" d="M1115.325,718.672h0l-289.683-1.631s8.637-38.221,47.216-38.221,52.181-31.479,97.306-31.2c29.525.183,48.919-16.626,75.532-26.223l.427.3c7.947,5.426,17.993,10.087,28,15.55a144.929,144.929,0,0,1,16.2,10.05,74.662,74.662,0,0,1,13.122,12.038,56.9,56.9,0,0,1,6.725,9.888q.166.3.323.61a57.984,57.984,0,0,1,5.522,16.324q.087.466.165.937c1.506,8.887,1.4,19.282-.859,31.578" transform="translate(-555.353 -417.972)"/><path class="m" d="M567.609,859.487s64.987-18.8,179.833-12.853,194.188-14.055,194.188-14.055v28.43Z" transform="translate(-381.792 -560.018)"/><path class="n" d="M1554.584,745.634a58,58,0,0,0-5.525-16.321c-3.8-2.809-8.735-5.274-12.488-2.975-7.048,4.318,12.284,6.244,15.146,12.771a25.95,25.95,0,0,1,1.874,6.162,9.744,9.744,0,0,0-4.275-.473c-1.651.264-4.434,2.465-6.127,3.923a13.646,13.646,0,0,0,1.693-5.22c.44-4.781-1.292-10.178-4.063-6.614-2.009,2.584-1.106,9.4-.457,12.961q-1.609.682-3.229,1.485c-4.125-15.7-13.813-40.655-32.678-41.51,0,0-7.445,3.065.8,13.142,7.018,8.574,18.231,12.009,28.855,29.99q-.985.568-1.96,1.193c-5.1-5.274-14.636-13.646-22.611-12.131-8.521,1.618,9.982,9.719,20.151,13.813a45.235,45.235,0,0,0-6.6,5.847s-3.323,4.79-18.007,2.394-27.427,14.083-27.427,14.083h76.229c2.339-12.73,2.365-23.424.692-32.516" transform="translate(-993.917 -477.449)"/><path class="o" d="M107.741,829.537l-25.533-.085-6.911-.02h-.752l-4.039-.015-2.768-.01H66.517s-.095-.17-.277-.507L66,828.445c-.029-.06-.064-.122-.095-.189-.121-.233-.257-.5-.41-.8-.189-.365-.394-.782-.623-1.247-.851-1.732-1.987-4.133-3.277-7.116q-.635-1.469-1.314-3.122c-.181-.44-.361-.888-.544-1.345s-.368-.925-.553-1.4q-.185-.475-.372-.964c-.125-.326-.26-.671-.39-1.014-.662-1.766-1.346-3.641-2.022-5.619-.018-.052-.036-.105-.053-.156q-1.03-3.006-2.039-6.312c-.014-.047-.03-.095-.044-.146-.105-.346-.208-.693-.313-1.041q-.4-1.35-.792-2.744-.8-2.838-1.54-5.852c-.085-.346-.17-.7-.253-1.041a33.345,33.345,0,0,1,4.807-.165,24.179,24.179,0,0,1,6.675,1.178,20.86,20.86,0,0,1,7.248,4.2c4.308,3.784,7.055,8.975,9.712,13.585a38.245,38.245,0,0,0,4.91,7.157A10.327,10.327,0,0,0,91,817.75a26.74,26.74,0,0,1,4.73,1.041c8.8,2.816,11.523,9.332,12.022,10.761" transform="translate(-34.548 -530.133)"/><path class="p" d="M1507.069,821.361l-.284.443-1.37-.75Z" transform="translate(-1012.589 -552.266)"/><path class="n" d="M69.309,744.175c-3.018-.378-5.7,6.2-7.852,14.4-.823,3.131-1.567,6.5-2.222,9.8.1.35.208.7.313,1.041.014.051.029.095.044.146q1,3.3,2.039,6.312c.018.051.036.1.053.156,2.2-5.053,4.621-10.947,6.45-16.284,2.83-8.267,4.235-15.2,1.173-15.576" transform="translate(-39.843 -500.545)"/><path class="n" d="M105.682,760.009c-6.288-1.885-12.812,5.19-18.4,14.4a160.8,160.8,0,0,0-10.361,21.078c.184.458.364.9.544,1.345q.68,1.656,1.314,3.122c1.289,2.983,2.423,5.384,3.277,7.116,4.591-5.462,10.109-12.307,14.937-19.083,9.276-13.027,16-25.8,8.688-27.987" transform="translate(-51.739 -511)"/><path class="n" d="M134.266,854.3a2.587,2.587,0,0,0-2.476-2.257c-5.393-.057-11.1,2.089-16.528,5.22A95.287,95.287,0,0,0,96.785,871.87c.18.336.277.507.277.507h1.221l2.767.01,4.039.015c7.467-3.678,15.894-7.878,21.179-10.654,1.581-.83,2.882-1.533,3.784-2.055,3.689-2.126,4.41-4.029,4.208-5.4" transform="translate(-65.101 -573.11)"/><path class="q" d="M590.8,915.442H22.562a.674.674,0,0,1-.645-.7v-.238a.674.674,0,0,1,.645-.7H590.8a.675.675,0,0,1,.645.7v.238a.675.675,0,0,1-.645.7" transform="translate(-14.742 -614.656)"/><path class="r" d="M1426.246,527.121c.9,19.882-16.683,36.037-36.585,36.037a36.037,36.037,0,1,1,0-72.074c19.9,0,35.707,16.6,36.585,36.037" transform="translate(-910.49 -330.318)"/><path class="s" d="M1341.841,340.428c-.827-.865-5.869-1.116-7.744,1.285-1.566,2-1.233,5.312-3.994,4.147-4.923-2.078-7.739-.51-10.456,6.48a4.473,4.473,0,0,1-2.8.912c-8.688.792-11.24,10.748-3.936,13.754,2.815,1.158,2.079,3.461,1.795,6.23-.19,8.531,10.682,12.023,17.031,7.418,3.472-2.8,5.246-2.067,9.16-2.843,4.026-1.247,5.74-5.819,5.547-9.74-.281-4.836-.1-4.844,2.794-8.448,2.076-3.495-.791-8.484,1.454-11.873.517-.78,1.281-1.814.638-2.493Z" transform="translate(-880.229 -228.57)"/><path class="t" d="M1471.525,431.219s-23.653-3.178-30.784-1.589c-1.8-6.039-2.2-16.6-2.837-20.7-1.857-11.975-13.346-10.742-12.067,4.819,1.625,19.785,7.545,25.5,14.242,25.48,5.732.287,30.41-5.014,30.41-5.014Z" transform="translate(-958.995 -269.652)"/><path class="u" d="M1446.58,579.079l-2.152,12.4-3.439,21.966-7.373,6.147a158.693,158.693,0,0,1-3.207-25.392c-.2-6.63,1.874-10.351,1.643-17.033l-18.511,5.944L1405.147,562s22.875.818,35.53,3.472c7.836,1.645,5.9,13.6,5.9,13.6" transform="translate(-945.146 -378.021)"/><path class="v" d="M1450.735,577.455l-1.941,11.187c-4.676.736-11.216.847-14.606,1.465.688-6.985,2.6-9.424-1.243-11.475-3.423-1.825-14.723,3.865-14.723,3.865l-6.9-22.768s23.088-1.209,35.151,3.445c8.316,3.208,4.26,14.28,4.26,14.28" transform="translate(-949.301 -376.397)"/><path class="w" d="M1478.195,760.278a1.693,1.693,0,0,1,1.262-3.1l16.61,4.1a1.691,1.691,0,0,1-.81,3.284l-16.609-4.1a1.667,1.667,0,0,1-.452-.184" transform="translate(-993.724 -509.268)"/><path class="x" d="M1488.647,723.354l-.609-6.731s5.387,1.257,8.763.733c-.426,1.639-1.2,7.4-1.2,7.4a6.746,6.746,0,0,1-3.807,1.167c-2.073-.092-3.146-2.567-3.146-2.567" transform="translate(-1000.901 -482.023)"/><path class="y" d="M1500.512,747.467c-.114.255-.229.419-.309.446-.274.1-8.138-1.753-13.522-3.1l-.757-.192c-1.467-.373-2.692-.7-3.435-.908.005-.229.017-.454.033-.671a9.724,9.724,0,0,1,2.392-5.85,6.649,6.649,0,0,0,6.954,1.4,9.172,9.172,0,0,0,1.381,1.27,8.941,8.941,0,0,0,.984.638h0c.158.089.314.173.473.251,0,0,0,0,0,0,.4.2.8.361,1.188.508h0c1.578.587,3.01.861,3.946,1.778a4.109,4.109,0,0,1,.668,4.437" transform="translate(-997.168 -495.854)"/><path class="z" d="M1500.512,759.487c-.114.255-.229.419-.309.446-.274.1-8.138-1.753-13.522-3.1l-.757-.192c-1.467-.374-2.692-.7-3.435-.908.005-.229.017-.454.033-.671Z" transform="translate(-997.168 -507.875)"/><path class="z" d="M1513.578,745.977a.3.3,0,0,1-.038,0,2.6,2.6,0,0,0-1.569.741.418.418,0,0,1-.3.131.413.413,0,0,1-.29-.115.418.418,0,0,1-.019-.591,3.122,3.122,0,0,1,1.233-.806,8.982,8.982,0,0,0,.984.638" transform="translate(-1016.513 -501.338)"/><path class="z" d="M1518.931,748.561h-.012a2.388,2.388,0,0,0-1.462.728.418.418,0,1,1-.609-.574,3.1,3.1,0,0,1,.893-.662s0,0,0,0c.4.2.8.362,1.187.508" transform="translate(-1020.202 -503.163)"/><path class="aa" d="M1400.339,638.923a44.611,44.611,0,0,1-8.2-.706l.99-4.848c.958.193,23.606,4.553,31.013-12.28,8.456-19.219,20.668-26.237,29.423-28.741l1.36,4.758c-7.737,2.212-18.572,8.514-26.254,25.975-3.764,8.554-11.343,13.879-21.919,15.4a45.351,45.351,0,0,1-6.417.444" transform="translate(-936.398 -398.432)"/><path class="aa" d="M1449.067,666.837l-.647-4.905c15.226-2.009,23.9-3.829,25.131-17.87,2.168-24.744,19.121-32,19.841-32.295l1.884,4.575c-.6.252-14.9,6.526-16.8,28.151-1.637,18.68-15.758,20.542-29.413,22.343" transform="translate(-974.252 -411.494)"/><path class="ab" d="M1544.816,524.407c-.639-4.423-12.622-13.909-10.9-19.418a5.073,5.073,0,0,1,2.7-3.131c5.33-2.589,14.549,1.114,15.837,1.642l-.237,3.489c-4.338-1.773-11.136-3.559-14.146-2.1a1.526,1.526,0,0,0-.936,1.045c-.947,4.194,10.517,9.675,11.353,18.093Z" transform="translate(-1031.647 -336.953)"/><path class="w" d="M1412.595,792.756A10.059,10.059,0,1,1,1422.6,782.7a10.044,10.044,0,0,1-10.006,10.059m0-18.485a8.426,8.426,0,1,0,8.381,8.426,8.413,8.413,0,0,0-8.381-8.426" transform="translate(-943.425 -519.7)"/><path class="ac" d="M1653.052,793.551a5.046,5.046,0,1,1-5.046-5.072,5.059,5.059,0,0,1,5.046,5.072" transform="translate(-1105.107 -530.356)"/><path class="ac" d="M1255.421,794.742a5.045,5.045,0,1,1-3.708-6.119,5.059,5.059,0,0,1,3.708,6.119" transform="translate(-837.742 -530.357)"/><path class="w" d="M1181.017,766.057a35.027,35.027,0,1,1,42.115-25.826,34.973,34.973,0,0,1-42.115,25.826m15.516-63.969a30.8,30.8,0,1,0,22.511,37.151,30.751,30.751,0,0,0-22.511-37.151" transform="translate(-776.498 -468.822)"/><path class="w" d="M1586.786,767.032a35.027,35.027,0,1,1,34.841-35.026,34.974,34.974,0,0,1-34.841,35.026m0-65.824a30.8,30.8,0,1,0,30.634,30.8,30.751,30.751,0,0,0-30.634-30.8" transform="translate(-1043.886 -468.81)"/><path class="aa" d="M1308.778,659.951a1.692,1.692,0,0,1-.977,2.183,1.655,1.655,0,0,1-.594.112,1.675,1.675,0,0,1-1.571-1.1l-14.806-39.373L1260.3,672.326c-.291.334-3.318-1.23-2.706-1.935l31.537-52.226c-.08-.21-2.808-8.368-2.808-8.368a1.7,1.7,0,0,1,.977-2.183,1.684,1.684,0,0,1,2.171.983l2.709,7.205,1.274,3.383h-.006Z" transform="translate(-845.844 -408.627)"/><path class="aa" d="M1613.427,690.376a1.8,1.8,0,0,1-.563.1,1.679,1.679,0,0,1-1.584-1.126l-20.379-56.5,3.822.081,1.528,4.317,18.2,50.964a1.691,1.691,0,0,1-1.021,2.165" transform="translate(-1070.09 -425.675)"/><path class="w" d="M1338.774,606.381H1321.8a3.383,3.383,0,0,1,0-6.766h16.978a3.383,3.383,0,0,1,0,6.766" transform="translate(-886.818 -403.32)"/><path class="aa" d="M1319.267,769.675c-.484,1.971-67.254,2.6-71.416,1.275,0-9.726,61.33-19.18,70.931-15.833,3,1.047,1.361,10.994.484,14.558" transform="translate(-839.343 -507.453)"/><path class="u" d="M1421.968,678.777c-.439,2.041-2.382,8.248-5.66,17.186-3.374,9.2-6.3,21.227-8,27.376,0,0-2.754,1.377-4.2.991-1.347-.359-2.886-2.577-2.886-2.577.328-9.937.832-19.48,2.211-27.9a133.158,133.158,0,0,1,3.182-14.575c.241-.779,14.323-5.481,14.323-5.481s1.388,3.309,1.03,4.985" transform="translate(-942.506 -453.214)"/><path class="w" d="M1388.962,843.728a1.693,1.693,0,0,1,1.262-3.1l16.609,4.1a1.691,1.691,0,0,1-.81,3.284l-16.609-4.1a1.662,1.662,0,0,1-.452-.184" transform="translate(-933.703 -565.399)"/><path class="x" d="M1401.223,806.18l.266-6.87s5.4,1.351,8.852.843c-.448,1.669-2.031,7.513-2.031,7.513a6.885,6.885,0,0,1-3.9,1.16c-2.116-.11-3.192-2.646-3.192-2.646" transform="translate(-942.506 -537.641)"/><path class="v" d="M1356.026,619.437l-12.875-2.115c.45-5.679,2.825-12.64,1.332-14.515-15.093-18.944-34.193-29.825-32.811-42.787h32.576s20.084,26.1,18.352,38.7a69.6,69.6,0,0,1-6.574,20.718" transform="translate(-882.224 -376.687)"/><path class="y" d="M1411.87,830.92c-.118.26-.238.425-.32.453-.28.1-8.294-1.856-13.78-3.28l-.771-.2c-1.5-.393-2.742-.731-3.5-.955.007-.234.02-.463.039-.685a9.926,9.926,0,0,1,2.489-5.953,6.788,6.788,0,0,0,7.089,1.485,9.292,9.292,0,0,0,1.4,1.307,9.137,9.137,0,0,0,1,.66h0c.16.092.319.179.48.26,0,0,0,0,0,0,.409.205.812.376,1.208.528h0c1.606.612,3.066.9,4.014,1.847a4.2,4.2,0,0,1,.646,4.535" transform="translate(-937.312 -551.758)"/><path class="z" d="M1411.87,843.153c-.118.26-.238.425-.32.453-.28.1-8.294-1.856-13.78-3.28l-.771-.2c-1.5-.393-2.742-.731-3.5-.955.007-.234.02-.463.039-.685Z" transform="translate(-937.312 -563.991)"/><path class="z" d="M1425.309,829.487a.243.243,0,0,1-.039,0,2.657,2.657,0,0,0-1.608.743.427.427,0,0,1-.617-.591,3.18,3.18,0,0,1,1.265-.813,9.09,9.09,0,0,0,1,.66" transform="translate(-957.105 -557.495)"/><path class="z" d="M1430.755,832.162h-.012a2.438,2.438,0,0,0-1.5.731.427.427,0,1,1-.617-.591,3.177,3.177,0,0,1,.918-.668s0,0,0,0c.408.205.812.376,1.208.528" transform="translate(-960.859 -559.382)"/><path class="u" d="M1552.086,500.907c2.01-.349,3.341-3.522,3.852-3.642a1.052,1.052,0,0,1,1.2.4c.273.394,2.953,3.188,2.953,3.188.445,1.523,1.806.714,1.9-.756a7.286,7.286,0,0,0-.727-4.064,5.885,5.885,0,0,0-3.71-2.29c-6.03-.642-9.707.449-11.3.076-.795,3.175-1.677,5.054-.754,5.4.943.39,4.584,2.036,6.594,1.691" transform="translate(-1039.28 -331.965)"/><path class="ad" d="M1576.036,507.13a3.769,3.769,0,0,1-5.262.943,3.809,3.809,0,0,1-.932-5.289,3.768,3.768,0,0,1,5.262-.942,3.81,3.81,0,0,1,.932,5.289" transform="translate(-1055.465 -337.094)"/><path class="u" d="M1432.935,317.946h0a10.722,10.722,0,0,1-11.578-9.79l-.6-7.2a10.721,10.721,0,1,1,21.367-1.788l.6,7.2a10.721,10.721,0,0,1-9.79,11.578" transform="translate(-955.619 -194.622)"/><path class="x" d="M1453.053,356.589a.367.367,0,0,0-.408.427,3.188,3.188,0,0,0,5.579.172.367.367,0,0,0-.381-.452Z" transform="translate(-977.088 -239.853)"/><path class="s" d="M1475.828,331.147a1.115,1.115,0,1,1-1.2-1.018,1.115,1.115,0,0,1,1.2,1.018" transform="translate(-991.191 -222.052)"/><path class="s" d="M1450.874,330.9a1.115,1.115,0,1,1-1.2-1.018,1.114,1.114,0,0,1,1.2,1.018" transform="translate(-974.406 -221.885)"/><path class="s" d="M1409.152,298.164s.929-5.547,6.009-5.457c8.369.149,8.993-4.774,8.993-4.774a9.144,9.144,0,0,0,4.647,4.564c2.97-7.7-4.647-14.112-14.381-11.866-7.608-1.6-13.453,6.488-13.427,15.059a11.887,11.887,0,0,0,7.755,11.134Z" transform="translate(-942.352 -188.456)"/><path class="u" d="M1426.182,352.3l-1.672,7.036-9.617-3.365,4.477-14.281Z" transform="translate(-951.701 -229.831)"/><path class="u" d="M1419.177,333.937c.613,1.944,0,3.87-1.369,4.3s-2.976-.794-3.589-2.737,0-3.869,1.369-4.3,2.976.794,3.589,2.737" transform="translate(-951.088 -222.717)"/><path class="s" d="M1473.73,323.053a.522.522,0,0,1-.341-.126,2.031,2.031,0,0,0-2.134-.264.522.522,0,0,1-.468-.934,3.082,3.082,0,0,1,3.285.406.523.523,0,0,1-.342.918" transform="translate(-989.103 -216.201)"/><path class="s" d="M1445.293,323.459a.522.522,0,0,1-.323-.933,3.657,3.657,0,0,1,3.82-.474.522.522,0,0,1-.473.932,2.62,2.62,0,0,0-2.7.364.522.522,0,0,1-.323.112" transform="translate(-971.797 -216.396)"/><path class="s" d="M1448.619,329.888l-1.533.218.514.828Z" transform="translate(-973.355 -221.893)"/><path class="s" d="M1477.266,330.129l1.339,0-.376.85Z" transform="translate(-993.655 -222.052)"/><path class="ae" d="M1463.225,338.983a9.624,9.624,0,0,0,.788,2.8,5.007,5.007,0,0,1-2.187.706,2.8,2.8,0,0,0,2.839-.584,30.427,30.427,0,0,0-1.44-2.92" transform="translate(-983.27 -228.011)"/><path class="ae" d="M1446.223,339.8c-.113.538-1.093.788-2.189.559s-1.893-.852-1.78-1.391,1.093-.788,2.189-.558,1.893.852,1.78,1.391" transform="translate(-970.098 -227.569)"/><path class="ae" d="M1478.675,337.935c.155.516-.406,1.141-1.253,1.4s-1.659.043-1.814-.473.406-1.141,1.252-1.4,1.659-.043,1.814.473" transform="translate(-992.523 -226.915)"/><path class="aa" d="M1577.876,592.072l-3.639.317-8.635-20.6,4.465-.4Z" transform="translate(-1053.073 -384.339)"/><path class="t" d="M1311.824,440.019c2.306-10.959,11.257-14.5,14.017-23.3,4.526-14.438,5.454-32.179,19.848-35.1l9.493,4.575c-.5,2.466,3.581,9.467,4.153,14.962A31.182,31.182,0,0,1,1356.495,417l-12.1,23.03Z" transform="translate(-882.374 -256.689)"/><path class="t" d="M1448.486,428.16s-28.638,1.568-30.412.829c-2.02-6.652-3.309-18.49-3.9-23.03-1.7-13.091-16.7-13.648-15.151,3.515,1.976,21.823,9.98,30.681,17.272,30.615,6.243.279,32.778-5.1,32.778-5.1Z" transform="translate(-940.953 -266.593)"/><path class="af" d="M1570.889,534.256a4.46,4.46,0,1,1-4.46-4.46,4.461,4.461,0,0,1,4.46,4.46" transform="translate(-1050.628 -356.357)"/><path class="af" d="M1580.782,540.708a4.46,4.46,0,1,1-4.46-4.46,4.461,4.461,0,0,1,4.46,4.46" transform="translate(-1057.283 -360.697)"/><path class="af" d="M1645.9,541.068a4.46,4.46,0,1,1-4.46-4.46,4.46,4.46,0,0,1,4.46,4.46" transform="translate(-1101.081 -360.939)"/><path class="af" d="M1656.507,538.057a3.39,3.39,0,1,1-3.39-3.39,3.39,3.39,0,0,1,3.39,3.39" transform="translate(-1109.659 -359.634)"/><path class="af" d="M1600.68,537.029a4.46,4.46,0,1,1-4.46-4.46,4.46,4.46,0,0,1,4.46,4.46" transform="translate(-1070.667 -358.223)"/><path class="af" d="M1616.955,525.88a3.256,3.256,0,1,1-3.256-3.256,3.256,3.256,0,0,1,3.256,3.256" transform="translate(-1083.234 -351.533)"/><path class="af" d="M1623.338,540.827a4.578,4.578,0,1,1-4.578-4.578,4.578,4.578,0,0,1,4.578,4.578" transform="translate(-1085.749 -360.698)"/><path class="af" d="M1630.682,533.848a3.277,3.277,0,1,1-3.277-3.277,3.277,3.277,0,0,1,3.277,3.277" transform="translate(-1092.439 -356.879)"/><path class="ag" d="M1598.127,576.968h-17.261l-8.562-21.85,29.835-.2Z" transform="translate(-1057.581 -373.252)"/><path class="aa" d="M1629.8,514.841c0,3.043-3.133,5.51-3.133,5.51s-3.133-2.467-3.133-5.51,3.133-5.51,3.133-5.51,3.133,2.467,3.133,5.51" transform="translate(-1092.039 -342.592)"/><path class="aa" d="M1639.313,526.651c-2.3,1.991-6.216,1.236-6.216,1.236s-.185-3.983,2.116-5.974,6.216-1.236,6.216-1.236.185,3.983-2.116,5.974" transform="translate(-1098.469 -350.129)"/><path class="aa" d="M1577.189,536.721c1.631,1.23,1.686,3.907,1.686,3.907s-2.589.682-4.219-.548-1.687-3.907-1.687-3.907,2.589-.682,4.219.548" transform="translate(-1058.029 -360.52)"/><path class="aa" d="M1588.024,531.171c.137,2.038-1.85,3.832-1.85,3.832s-2.21-1.511-2.347-3.549,1.85-3.831,1.85-3.831,2.21,1.511,2.347,3.549" transform="translate(-1065.327 -354.895)"/><path class="af" d="M1612.726,576.2h-22.633V574.96h22.865Z" transform="translate(-1069.547 -386.736)"/><path class="af" d="M1617.772,596.845h-18.349v-1.237h18.556Z" transform="translate(-1075.822 -400.624)"/><path class="x" d="M1223.508,802.78c-21.646,8.623-41.109-17.192-26.841-35.619-10.168,18.968,5.822,40.167,26.841,35.619" transform="translate(-801.632 -516.016)"/><path class="x" d="M1236.65,803.964c-14.393,6.582-28.3-11.78-17.975-23.854a16.543,16.543,0,0,0,17.975,23.854" transform="translate(-817.312 -524.726)"/><path class="x" d="M1608.672,789.391c-23.237,1.712-34.034-28.762-14.883-42.043-15.4,15.03-6.531,40.057,14.883,42.043" transform="translate(-1065.403 -502.69)"/><path class="x" d="M1624.314,793.668c-15.706,1.948-23.45-19.749-9.967-28.157a16.543,16.543,0,0,0,9.967,28.157" transform="translate(-1081.2 -514.907)"/><path class="ah" d="M1408.546,437.278c-5.774-4.534-9.319-14.668-10.568-28.476-.843-9.312,3.025-13.074,6.593-13.468,3.805-.424,8.334,2.9,9.238,9.877.076.585.163,1.291.262,2.091.648,5.23,1.847,14.919,3.57,20.708,2.085.439,19,.4,30.156-.213-2.939.16-28.767,1.547-30.561.8l-.149-.062-.047-.155c-1.768-5.824-2.99-15.7-3.647-21-.1-.8-.186-1.5-.262-2.087-.849-6.545-5-9.681-8.485-9.285-3.261.358-6.786,3.906-5.988,12.725,1.234,13.619,4.52,23.615,10.145,28.032Z" transform="translate(-940.245 -265.89)"/><path class="ah" d="M1447.927,427.075l-.645-.225c1.143-3.272,2.753-9.582.685-15.071a78.475,78.475,0,0,1-3.3-10.88l.145-.008c.013.062,1.448,4.406,3.8,10.648,2.144,5.69.495,12.177-.679,15.536" transform="translate(-971.725 -269.652)"/><path class="ai" d="M1409.165,346.4a10.209,10.209,0,0,1-6.5-6.564c-1.33,4.647,5.8,8.805,5.8,8.805Z" transform="translate(-943.365 -228.586)"/><path class="aj" d="M1423.653,580.372l-12.327-20.394.452-.021,12.39,20.221Z" transform="translate(-949.302 -376.644)"/><path class="ak" d="M798.15,462.183c1.915-1.059,4.088-5.508,3.016-9.669-2.695-4.645-4.311-9.282-2.138-13.888a12.564,12.564,0,0,1,21.067-3.462c2.39,3.853,1.352,5.382,2.059,8.076,1.492,2.028,4.4,2.64,4.831,4.5.133,1.7-1.948,1.544-3.277,2.865a4.529,4.529,0,0,0,.853,2.153c.017.39-.283.666-.9.894.622.047,1.125.4,1.165.765.068.441-.957.818-.9,1.539a3.992,3.992,0,0,0,.6,1.807,1.32,1.32,0,0,1-1.1,1.927,27.947,27.947,0,0,1-7.4.665c-2.163,1.112-3.948,4.768-4.109,6.865Z" transform="translate(-536.771 -289.804)"/><path class="ak" d="M1016.994,830.1a7.229,7.229,0,0,0,4.014,1.764c3.488-.94,7.8-.673,11.284-.726,2.324-1.356,3.861.25,2.481,1.4L1019,840.412c-3.071,1.49-4.956,1.014-5.843-1.117a23.07,23.07,0,0,0-3.269-6.837Z" transform="translate(-679.281 -558.351)"/><path class="al" d="M777.756,571.208c-2.052-12.563-5.408-35.885,4.969-45.619,3.352-3.145,10.795,3.038,14.068,5.084,13.546,19.124,20.447,38.06,23.039,59.1Z" transform="translate(-521.666 -352.938)"/><path class="am" d="M795.259,520.057c1.314-1.418,1.4-2.744,2.087-4.633,5.221.737,12.627,4.374,14.408,6.012-.928,2.642.019,3.164,0,5.513-5.948-4.068-10.154-5.124-16.5-6.892" transform="translate(-534.916 -346.69)"/><path class="am" d="M799.229,552.216a61.823,61.823,0,0,0,6.353,27.454h27.055c1.795-2.261,2.555-4.574,1.742-6.963-6.158-1.193-14.266-2.177-20.5-2.788a132.712,132.712,0,0,0-1.946-17.448c-1.728-9.575-12.85-9.04-12.706-.255" transform="translate(-537.586 -366.893)"/><path class="ak" d="M902.518,631.81c3.642-.044,5.073.106,7.8,1.467,2.059,1.254,3.163,2.673,4.052,5.584a15.873,15.873,0,0,1-.174,6.675,1.28,1.28,0,0,1-2.439.27l-3.85-6.732-6.824-2.347a6.571,6.571,0,0,1,1.435-4.918" transform="translate(-606.059 -424.971)"/><path class="an" d="M908.683,707.484c8.768.939,24.7-.693,29.277,8.639l12.71,32.212-7.584,4.307-14.158-29.614c-.46-.726-.652-1.456-1.278-1.809a6.37,6.37,0,0,0-2.466-.524H909Z" transform="translate(-611.209 -475.876)"/><path class="ao" d="M739.295,634.639,735.421,590.1a8.359,8.359,0,0,0-1.819-4.872,4.334,4.334,0,0,0-3.337-1.447H723.6v-5.9h6.659a10.064,10.064,0,0,1,7.718,3.406,14.183,14.183,0,0,1,3.317,8.308l3.874,44.542Z" transform="translate(-486.719 -388.698)"/><path class="ap" d="M691.055,573.655H674.047a.925.925,0,0,0-.922.922v6.968a.925.925,0,0,0,.922.922h17.008a.925.925,0,0,0,.923-.922v-6.968a.925.925,0,0,0-.923-.922" transform="translate(-452.765 -385.858)"/><path class="ap" d="M823.359,682.7H770.482l-3.074-32.738h45.6c6.866.155,10.35,5.529,10.35,13.237Zm-3.021-18.759c0-5.136-.734-10.808-7.329-10.957h-9.995c-.225,8.579,4.57,13.036,17.323,10.957" transform="translate(-516.183 -437.187)"/><path class="ao" d="M771.818,753.525l-.616-6,62.289.1a2.955,2.955,0,0,1,2.77,1.932l18.836,39.4a2.939,2.939,0,0,1-5.3,2.536l-18.152-37.969Z" transform="translate(-518.735 -502.808)"/><rect class="aq" width="23.976" height="8.197" transform="translate(286.684 260.117)"/><rect class="aq" width="4.805" height="17.225" transform="translate(305.855 260.116)"/><path class="ap" d="M930.711,751.429l-4.964-20.8-4.114,2.429,4.783,20.9Z" transform="translate(-619.92 -491.445)"/><rect class="ar" width="0.811" height="9.528" transform="translate(307.878 275.166)"/><rect class="ar" width="0.811" height="9.526" transform="translate(301.523 277.493) rotate(-35.969)"/><rect class="ar" width="0.811" height="9.527" transform="translate(297.749 283.109) rotate(-71.924)"/><path class="an" d="M909.766,877.85l-.252-.772,9.061-2.944.252.772Z" transform="translate(-611.768 -587.97)"/><rect class="ar" width="9.526" height="0.811" transform="matrix(0.588, -0.809, 0.809, 0.588, 301.522, 294.728)"/><rect class="ar" width="0.811" height="9.528" transform="translate(307.878 287.529)"/><rect class="ar" width="0.811" height="9.526" transform="matrix(0.809, -0.588, 0.588, 0.809, 308.789, 287.498)"/><rect class="ar" width="0.811" height="9.526" transform="matrix(0.31, -0.951, 0.951, 0.31, 309.508, 286.932)"/><rect class="ar" width="9.526" height="0.811" transform="translate(309.508 285.291) rotate(-18.053)"/><rect class="ar" width="9.526" height="0.811" transform="matrix(0.588, -0.809, 0.809, 0.588, 308.79, 284.726)"/><path class="ap" d="M940.657,873.438a.507.507,0,1,0-.507-.507.508.508,0,0,0,.507.507" transform="translate(-632.374 -586.82)"/><path class="ao" d="M937.949,868.4a1.825,1.825,0,1,1-1.824,1.824,1.824,1.824,0,0,1,1.824-1.824m0,.807a1.017,1.017,0,1,0,1.017,1.017,1.018,1.018,0,0,0-1.017-1.017" transform="translate(-629.667 -584.112)"/><path class="ao" d="M916.765,836.9a12.135,12.135,0,1,1-12.135,12.136A12.134,12.134,0,0,1,916.765,836.9m0,3.8a8.338,8.338,0,1,0,8.339,8.338,8.339,8.339,0,0,0-8.339-8.338" transform="translate(-608.482 -562.927)"/><rect class="ar" width="2.43" height="28.55" transform="translate(251.849 231.413)"/><rect class="ar" width="2.431" height="28.549" transform="matrix(0.809, -0.588, 0.588, 0.809, 232.799, 238.394)"/><rect class="ar" width="2.431" height="28.549" transform="translate(221.492 255.236) rotate(-72.007)"/><rect class="ar" width="28.549" height="2.431" transform="matrix(0.951, -0.309, 0.309, 0.951, 221.492, 273.194)"/><rect class="ar" width="28.55" height="2.43" transform="matrix(0.588, -0.809, 0.809, 0.588, 232.803, 290.04)"/><rect class="ar" width="2.43" height="28.551" transform="translate(251.849 268.466)"/><rect class="ar" width="2.429" height="28.55" transform="matrix(0.809, -0.588, 0.588, 0.809, 254.58, 268.37)"/><rect class="ar" width="2.431" height="28.549" transform="matrix(0.309, -0.951, 0.951, 0.309, 256.732, 266.689)"/><rect class="ar" width="28.549" height="2.431" transform="matrix(0.951, -0.309, 0.309, 0.951, 256.732, 261.741)"/><rect class="ar" width="28.549" height="2.429" transform="translate(254.577 260.057) rotate(-53.975)"/><path class="ao" d="M703.132,703.177a34.017,34.017,0,1,1-34.016,34.018,34.016,34.016,0,0,1,34.016-34.018m0,5.16a28.857,28.857,0,1,0,28.858,28.857,28.857,28.857,0,0,0-28.858-28.857" transform="translate(-450.068 -472.979)"/><path class="ap" d="M769.9,805.485a1.519,1.519,0,1,0-1.518-1.521,1.523,1.523,0,0,0,1.518,1.521" transform="translate(-516.839 -539.75)"/><path class="ao" d="M761.791,790.385a5.467,5.467,0,1,1-5.466,5.468,5.469,5.469,0,0,1,5.466-5.468m0,2.421a3.048,3.048,0,1,0,3.048,3.048,3.046,3.046,0,0,0-3.048-3.048" transform="translate(-508.728 -531.638)"/><path class="ap" d="M1032.37,837.287l-25.407,12.691a1.169,1.169,0,0,0-.533,1.554l2.5,5.135a1.162,1.162,0,0,0,1.554.535l25.407-12.691a1.17,1.17,0,0,0,.533-1.556l-2.5-5.135a1.161,1.161,0,0,0-1.554-.533" transform="translate(-676.878 -563.105)"/><path class="ap" d="M818.862,433.966c.008,4.991-7.941.682-9.515,11.583l-.807.145c-.773-2.307-5.026-1.9-4.6.926a9.261,9.261,0,0,1-1.233,4.916,2.575,2.575,0,0,1-3.659.5c-3.438-6.285-6.514-12.312-2.98-18.033,6.141-8.144,17.821-7.83,22.8-.041" transform="translate(-534.403 -287.894)"/><path class="as" d="M526.183,855.639c.866,1.706,1.96,4.009,4.182,5.205a57.041,57.041,0,0,1,13.417,4.952c2.7,1.5,3.026,5.185-.2,5.223l-26.748,1.257c-1.038-.028-7.509-1.078-7.492-1.721l.409-15.429Z" transform="translate(-342.601 -575.185)"/><path class="at" d="M515.515,899.918c8.7.017,20.063,1.443,29.437.416a.636.636,0,0,1,.658.656v1.891a.658.658,0,0,1-.625.658h-35.3a.66.66,0,0,1-.657-.658c0-1.579-.412-2.976.246-2.974Z" transform="translate(-342.303 -605.306)"/><path class="au" d="M499.572,632.444l28.692-.39a566.781,566.781,0,0,1-.9,78.745H501.022c3.328-20.084,6.111-40.314,3.441-61-2.532-4.852-5.416-12.991-4.891-17.356" transform="translate(-335.986 -425.139)"/><path class="ao" d="M406.56,828.7a15.786,15.786,0,0,0,3.651,10.987c2.177,2.452,5.953,2.547,7.983,4.625a3.62,3.62,0,0,1,.682,3H406.613l-15.2-8.4c-.868-.57-5.035-4.468-4.924-5.1.742-4.226,4.172-8.192,8.56-12.767Z" transform="translate(-259.961 -552.259)"/><path class="ap" d="M402.876,871.729h12.449l-.065,3.2-13.247-.008-4.57-3.19-16.2-11.024a.659.659,0,0,1-.215-.9c.827-1.344,1.209-2.751,1.768-2.4,7.336,4.538,13.24,9.97,20.083,14.332" transform="translate(-256.223 -576.676)"/><path class="an" d="M437.691,624.473l26.347,2.431-.67,5.612c-2.937,13.752-7.314,29.373-15.342,40.206-9.762,13.175-19.881,18.454-24.7,29.158l-19.3-11.45c6.068-10.8,17.823-22.888,24.613-27.464,6.62-4.464,8.464-12.364,10.242-20.337-4.383-9.827-6.015-19.166-1.189-18.156" transform="translate(-271.76 -419.989)"/><path class="ak" d="M520.546,356.776c2.035-1.124,4.343-5.851,3.2-10.27-2.861-4.934-4.58-9.859-2.272-14.752a13.344,13.344,0,0,1,22.376-3.677c2.539,4.093,1.438,5.716,2.188,8.579,1.585,2.154,4.677,2.8,5.132,4.776.14,1.811-2.069,1.639-3.48,3.042a4.8,4.8,0,0,0,.9,2.288c.019.413-.3.708-.958.949.661.051,1.195.425,1.237.813.072.469-1.017.869-.956,1.635a4.232,4.232,0,0,0,.633,1.919,1.4,1.4,0,0,1-1.166,2.047,29.688,29.688,0,0,1-7.864.705c-2.3,1.181-4.193,5.064-4.364,7.291Z" transform="translate(-350.041 -217.594)"/><path class="av" d="M497.174,493.328a44.021,44.021,0,0,1,1.558-12.424c6.153-21.3-3.9-48.006,5.849-56.707,3.642-3.251,11.467,3.227,14.943,5.4,14.388,20.314,8.409,22.139,8.719,63.339Z" transform="translate(-334.415 -284.726)"/><path class="an" d="M517.476,418.249c1.4-1.505,1.486-2.915,2.217-4.921,5.546.783,13.413,4.646,15.3,6.386-.986,2.807.019,3.361,0,5.856-6.319-4.32-10.787-5.442-17.526-7.321" transform="translate(-348.071 -278.017)"/><path class="ak" d="M532.071,468.966c.16,9.85,5.227,22.717,10.052,32.277l27.516,3.655c1.907-2.4,2.714-4.858,1.85-7.4-6.541-1.268-13.932-5.968-20.553-6.618-.365-6.355-4.1-14.607-5.369-21.647-1.835-10.171-13.647-9.6-13.5-.272" transform="translate(-357.887 -310.614)"/><path class="ap" d="M542.549,326.807c.008,5.3-8.436.724-10.107,12.3l-.857.154c-.822-2.45-5.339-2.016-4.892.984a9.816,9.816,0,0,1-1.31,5.222,2.733,2.733,0,0,1-3.884.536c-3.651-6.676-6.919-13.078-3.167-19.155,6.524-8.65,18.93-8.317,24.216-.044" transform="translate(-347.527 -215.566)"/><path class="an" d="M527.468,456.014c.092,5.655,1.5,11.7,2.81,17.276,4.866-2.04,11.054-3.128,14.657-3.9-.348-3.636-2.094-8.732-2.878-13.082-1.984-10.994-14.754-10.38-14.589-.294" transform="translate(-354.79 -301.511)"/><path class="ak" d="M638.326,569.029l15,.979c.931,3.35-.223,7.25-4.867,9.513l-11.663-3.031-.525-5.343Z" transform="translate(-427.974 -382.747)"/><path class="aw" d="M204.643,708.242l.313-92.373s.705-6.657,6.509-6.691c6.193-.037,6.588,6.614,6.588,6.614a.7.7,0,0,1-.721.579.75.75,0,0,1-.779-.57s-.3-5.127-5.079-5.1c-4.474.027-5.018,5.159-5.018,5.159L207,708.228Z" transform="translate(-137.649 -409.752)"/><path class="aw" d="M206.375,902.2l-3.852.023.319-4.03s-.036-.559.742-.6c.723-.033,2.15-.145,2.289.291.121.384.5,4.311.5,4.311" transform="translate(-136.224 -603.724)"/><path class="ax" d="M217.427,594.225l.271,1.32a8.464,8.464,0,0,1,8.1,6.926s.432,2.91-1.672,2.3-1.785-2.1-4.763-2.894-4.919-1.408-5.383-3.57l-.5-2.406Z" transform="translate(-143.593 -399.694)"/><path class="ay" d="M153.959,419.7s1.768,6.786,3.295,12.992c.615,2.5,1.19,4.9,1.6,6.732a15.551,15.551,0,0,1,.565,3.293c-1.283,2.11,1.16,14.919,3.059,19.564.167.412.4.894.674,1.43,2.648,5.116,9.678,15.147,9.678,15.147a8.725,8.725,0,0,0,3.251-.3,4.288,4.288,0,0,0,1.8-1.729c-.629-1-3.222-12.835-6.506-19.46-1.405-2.834-3.607-29.193-6.316-32.728-2.26-2.948-11.092-4.942-11.092-4.942" transform="translate(-103.558 -282.304)"/><path class="az" d="M169.464,478.215c-1.283,2.11,1.16,14.919,3.059,19.564.167.412.4.894.674,1.43,2.436-11.081-1.8-26.734-1.8-26.734a5.138,5.138,0,0,0-2.495,2.447,15.537,15.537,0,0,1,.564,3.293" transform="translate(-113.607 -317.801)"/><path class="ba" d="M117.387,875.092s-.606,10.019,1.286,10.148c.252.017,9.594-.038,9.594-.038l12.049-.072a4.119,4.119,0,0,0-3.71-3.527c-3.489-.587-9.338-3-11.477-7.6-2.25-4.833-7.743,1.086-7.743,1.086" transform="translate(-78.896 -586.607)"/><path class="bb" d="M62.028,875.421s-.606,10.019,1.286,10.148c.252.017,9.593-.038,9.593-.038l12.05-.072a4.119,4.119,0,0,0-3.71-3.527c-3.489-.587-9.338-3-11.477-7.6-2.25-4.834-7.743,1.086-7.743,1.086" transform="translate(-41.66 -586.828)"/><path class="bc" d="M108.214,653.118a131.009,131.009,0,0,0-.6,14.594c.342,6.862.594,12.65.594,12.65,4.535,1.512,12.828-.4,12.828-.4s2.843-17.364,5.187-31.226c1.052-6.211,1.922-11.584,2.245-14.121,1.043-8.2-1.47-51.745-1.47-51.745s-12.292-7.776-17.328-3.7-8.125,8.048.29,52.324c.639,3.358-1.139,12.137-1.747,21.627" transform="translate(-70.437 -388.771)"/><path class="aw" d="M108.214,653.118a157.257,157.257,0,0,0-.533,15.926c4.231-4.531,12.564-14.086,18.542-20.312,1.052-6.211,1.922-11.584,2.245-14.121,1.043-8.2-1.47-51.745-1.47-51.745s-12.292-7.776-17.328-3.7-8.125,8.048.29,52.324c.639,3.358-1.139,12.137-1.747,21.627" transform="translate(-70.437 -388.771)"/><path class="bc" d="M86.106,583.626s-.841,43.611-2.511,51.705-10.419,45.157-10.419,45.157-8.4.816-12.807-1.04c0,0,.178-17.142,1.609-27.221,1.337-9.416,3.783-18.032,3.4-21.43-4.989-44.791-1.6-48.514,3.732-52.191s16.991,5.02,16.991,5.02" transform="translate(-40.606 -388.579)"/><path class="ax" d="M75.569,603.428a8.465,8.465,0,0,1-2.625,10.328s-2.418,1.675-2.8-.481.049-1.407-.555-4.429.127-6.157,1.86-7.529Z" transform="translate(-46.665 -404.465)"/><path class="ax" d="M128.388,381.268s-3.29,5.338-2.591,10.1l-4.946,11.809-8.822-13.565a33.86,33.86,0,0,0,6.2-12.34Z" transform="translate(-75.354 -253.767)"/><path class="ax" d="M139.222,362.218s-12.24.6-12.506-6.746-3.6-12.218,5.55-12.919c7.527-.576,10.049,2.55,10.735,4.981s.757,14.263-3.778,14.684" transform="translate(-84.688 -230.365)"/><path class="ay" d="M64.9,476.159c2.632.229,6.255.511,10.651.761q1.317.075,2.724.146c13.271.664,18.532-1.516,18.532-1.516s.35-.286.229-1.844c-.624-8.02-2.342-10.379-2.145-11.905.441-3.43,8.589-31.442,8.589-31.442s.107-8.834-9.741-12.922a23.262,23.262,0,0,0-3.371-1.1,4.053,4.053,0,0,1-4.61,2.728,15.77,15.77,0,0,1-9.023-4.444c-.247,0-.344.01-.344.01a26.9,26.9,0,0,0-.805,2.919c-.785,3.477-1.235,7.132-3.349,9.876a74.789,74.789,0,0,0-5.391,7.988A66.293,66.293,0,0,0,63.57,441.8c-8.582,19.273-1.766,34.092,1.33,34.364" transform="translate(-39.951 -278.889)"/><path class="az" d="M71.11,517.268c2.632.229,6.255.511,10.651.761,1.153-21.6-7.769-42.289-7.769-42.289a7.7,7.7,0,0,0-.938.786A13.674,13.674,0,0,0,69.78,482.9c-2.563,9.807-.274,25.7,1.33,34.364" transform="translate(-46.162 -319.998)"/><path class="bd" d="M144.728,380.368s2.44,9.442-1.6,10.8-14.781.353-14.846-11.24c0,0,5.655,3.327,8.346,3.226s4.419-1.665,6.914-.466c0,0,.91-.066,1.183-2.317" transform="translate(-86.288 -255.549)"/><path class="ay" d="M70.259,414.651s-8.557.243-13.044,6.154c-3.438,4.529-6.957,28.74-6.935,32.382s4.041,23.72,6.239,25.891a8.234,8.234,0,0,0,3.3-.019,6.677,6.677,0,0,0,3.173-1.564s-1.22-22.373-1.233-24.472c-.018-3.039,9.373-21.7,9.373-21.7s4.875-8.883-.872-16.674" transform="translate(-33.82 -278.907)"/><path class="bd" d="M120.63,340.22a2.125,2.125,0,0,1,1.123-1.151c6.878-3.044,11.935.212,11.935.212-4.26-5.648-14.453-4.4-16.571.734-3.458,8.376,2.969,10.077,2.969,10.077s6.391-2.731,2.661-6.084a6.043,6.043,0,0,1-2.039-2.966,2.946,2.946,0,0,1-.078-.822" transform="translate(-78.089 -225.716)"/><path class="x" d="M163.581,392.589a2.754,2.754,0,0,1-2.218,1.229,2.6,2.6,0,0,1-2.074-1.229,12.093,12.093,0,0,1,4.291,0" transform="translate(-107.143 -263.932)"/></g></g></svg>