<svg id="Layer_1" data-name="Layer 1" xmlns="http://www.w3.org/2000/svg" xmlns:xlink="http://www.w3.org/1999/xlink" viewBox="0 0 711.55 311.31"><defs><clipPath id="clip-path" transform="translate(-35.22 -71.44)"><rect x="437.04" y="130.57" width="105.75" height="53.25" style="fill:none"/></clipPath><clipPath id="clip-path-2" transform="translate(-35.22 -71.44)"><rect x="336.48" y="71.5" width="105.75" height="53.25" style="fill:none"/></clipPath><clipPath id="clip-path-3" transform="translate(-35.22 -71.44)"><rect x="236.49" y="130.63" width="105.75" height="53.25" style="fill:none"/></clipPath><clipPath id="clip-path-4" transform="translate(-35.22 -71.44)"><rect x="135.93" y="71.57" width="105.75" height="53.25" style="fill:none"/></clipPath><clipPath id="clip-path-5" transform="translate(-35.22 -71.44)"><rect x="35.22" y="130.69" width="105.75" height="53.25" style="fill:none"/></clipPath><clipPath id="clip-path-6" transform="translate(-35.22 -71.44)"><rect x="46.42" y="85.76" width="82.21" height="82.21" style="fill:none"/></clipPath><clipPath id="clip-path-7" transform="translate(-35.22 -71.44)"><rect x="145.88" y="86.48" width="82.21" height="82.21" style="fill:none"/></clipPath><clipPath id="clip-path-8" transform="translate(-35.22 -71.44)"><rect x="247.71" y="86.01" width="82.21" height="82.21" style="fill:none"/></clipPath><clipPath id="clip-path-9" transform="translate(-35.22 -71.44)"><rect x="347.56" y="85.55" width="82.21" height="82.21" style="fill:none"/></clipPath><clipPath id="clip-path-10" transform="translate(-35.22 -71.44)"><rect x="448.21" y="85.49" width="82.21" height="82.21" style="fill:none"/></clipPath><clipPath id="clip-path-11" transform="translate(-35.22 -71.44)"><rect x="68.54" y="116.92" width="38.25" height="26.99" style="fill:none"/></clipPath><clipPath id="clip-path-12" transform="translate(-35.22 -71.44)"><rect x="79.94" y="110.18" width="15" height="8.74" style="fill:none"/></clipPath><clipPath id="clip-path-13" transform="translate(-35.22 -71.44)"><rect x="95.94" y="126.92" width="10.85" height="2" style="fill:none"/></clipPath><clipPath id="clip-path-14" transform="translate(-35.22 -71.44)"><rect x="538.79" y="71.44" width="105.75" height="53.25" style="fill:none"/></clipPath><clipPath id="clip-path-15" transform="translate(-35.22 -71.44)"><rect x="549.88" y="85.49" width="82.21" height="82.21" style="fill:none"/></clipPath><clipPath id="clip-path-16" transform="translate(-35.22 -71.44)"><rect x="169.22" y="106.1" width="36" height="42" style="fill:none"/></clipPath><clipPath id="clip-path-17" transform="translate(-35.22 -71.44)"><rect x="261.47" y="111.03" width="57.75" height="33.75" style="fill:none"/></clipPath><clipPath id="clip-path-18" transform="translate(-35.22 -71.44)"><rect x="375.4" y="131.88" width="27.8" height="17.11" style="fill:none"/></clipPath><clipPath id="clip-path-19" transform="translate(-35.22 -71.44)"><rect x="362.94" y="106.99" width="18" height="18.93" style="fill:none"/></clipPath><clipPath id="clip-path-20" transform="translate(-35.22 -71.44)"><rect x="360.05" y="126.92" width="19.89" height="17" style="fill:none"/></clipPath><clipPath id="clip-path-21" transform="translate(-35.22 -71.44)"><rect x="397.94" y="106.99" width="18" height="18.93" style="fill:none"/></clipPath><clipPath id="clip-path-22" transform="translate(-35.22 -71.44)"><rect x="399.47" y="127.51" width="19.06" height="15.79" style="fill:none"/></clipPath><clipPath id="clip-path-23" transform="translate(-35.22 -71.44)"><rect x="468.07" y="109.16" width="43.5" height="36.75" style="fill:none"/></clipPath><clipPath id="clip-path-24" transform="translate(-35.22 -71.44)"><rect x="563.35" y="99.92" width="47.6" height="52.29" style="fill:none"/></clipPath><clipPath id="clip-path-25" transform="translate(-35.22 -71.44)"><rect x="594.94" y="103.92" width="23.9" height="25" style="fill:none"/></clipPath><clipPath id="clip-path-26" transform="translate(-35.22 -71.44)"><rect x="641.03" y="128.42" width="105.75" height="53.25" style="fill:none"/></clipPath><clipPath id="clip-path-27" transform="translate(-35.22 -71.44)"><rect x="652.2" y="83.34" width="82.21" height="82.21" style="fill:none"/></clipPath><clipPath id="clip-path-28" transform="translate(-35.22 -71.44)"><rect x="698.94" y="99.71" width="12.16" height="12.21" style="fill:none"/></clipPath><clipPath id="clip-path-29" transform="translate(-35.22 -71.44)"><rect x="675.1" y="99.71" width="36" height="48" style="fill:none"/></clipPath></defs><g id="surface1"><g style="clip-path:url(#clip-path)"><path d="M437,130.57h5.69a47.19,47.19,0,1,0,94.38,0h5.68c0,29.36-23.72,53.25-52.87,53.25S437,159.93,437,130.57Z" transform="translate(-35.22 -71.44)" style="fill:#666"/></g><g style="clip-path:url(#clip-path-2)"><path d="M442.23,124.75h-5.69a47.19,47.19,0,1,0-94.38,0h-5.68c0-29.36,23.72-53.25,52.87-53.25S442.23,95.39,442.23,124.75Z" transform="translate(-35.22 -71.44)" style="fill:#a8a8a8"/></g><g style="clip-path:url(#clip-path-3)"><path d="M236.49,130.63h5.68a47.2,47.2,0,1,0,94.39,0h5.68c0,29.36-23.72,53.25-52.87,53.25S236.49,160,236.49,130.63Z" transform="translate(-35.22 -71.44)" style="fill:#666"/></g><g style="clip-path:url(#clip-path-4)"><path d="M241.68,124.82H236a47.19,47.19,0,1,0-94.38,0h-5.68c0-29.37,23.72-53.25,52.87-53.25S241.68,95.45,241.68,124.82Z" transform="translate(-35.22 -71.44)" style="fill:#a8a8a8"/></g><g style="clip-path:url(#clip-path-5)"><path d="M35.22,130.69h5.69a47.19,47.19,0,1,0,94.38,0H141c0,29.36-23.71,53.25-52.87,53.25S35.22,160.05,35.22,130.69Z" transform="translate(-35.22 -71.44)" style="fill:#666"/></g><g style="clip-path:url(#clip-path-6)"><path d="M128.91,126.86a41.1,41.1,0,1,1-41.1-41.1A41.11,41.11,0,0,1,128.91,126.86Z" transform="translate(-35.22 -71.44)" style="fill:#f3c65d"/></g><g style="clip-path:url(#clip-path-7)"><path d="M228.09,127.58A41.11,41.11,0,1,1,187,86.48,41.11,41.11,0,0,1,228.09,127.58Z" transform="translate(-35.22 -71.44)" style="fill:#68bec2"/></g><g style="clip-path:url(#clip-path-8)"><path d="M329.92,127.12A41.11,41.11,0,1,1,288.81,86,41.12,41.12,0,0,1,329.92,127.12Z" transform="translate(-35.22 -71.44)" style="fill:#3e3e3f"/></g><g style="clip-path:url(#clip-path-9)"><path d="M429.78,126.66a41.11,41.11,0,1,1-41.11-41.11A41.11,41.11,0,0,1,429.78,126.66Z" transform="translate(-35.22 -71.44)" style="fill:#db4350"/></g><g style="clip-path:url(#clip-path-10)"><path d="M530.42,126.59a41.11,41.11,0,1,1-41.11-41.1A41.1,41.1,0,0,1,530.42,126.59Z" transform="translate(-35.22 -71.44)" style="fill:#6b6c6e"/></g><g style="clip-path:url(#clip-path-11)"><path d="M106,142.29H69.33l.8.8v-25l-.8.79H106l-.79-.79v25a.79.79,0,0,0,1.58,0v-25a.8.8,0,0,0-.79-.8H69.33a.8.8,0,0,0-.79.8v25a.8.8,0,0,0,.79.8H106A.8.8,0,0,0,106,142.29Z" transform="translate(-35.22 -71.44)" style="fill:#fff"/></g><path d="M79.3,127.26H69.71c-.28,0-.28,1.59,0,1.59H79.3C79.58,128.85,79.58,127.26,79.3,127.26Z" transform="translate(-35.22 -71.44)" style="fill:#fff"/><path d="M82.5,132.32H78.24v-7.63H82.5Zm-2.56-1.7h.86v-4.23h-.86Z" transform="translate(-35.22 -71.44)" style="fill:#fff"/><path d="M97.32,132.32H93.06v-7.63h4.26Zm-2.56-1.7h.86v-4.23h-.86Z" transform="translate(-35.22 -71.44)" style="fill:#fff"/><g style="clip-path:url(#clip-path-12)"><path d="M82.18,117.54V111l-.8.8H93.91l-.79-.8v6.56a.8.8,0,0,0,1.59,0V111a.8.8,0,0,0-.8-.8H81.38a.81.81,0,0,0-.79.8v6.56A.8.8,0,0,0,82.18,117.54Z" transform="translate(-35.22 -71.44)" style="fill:#fff"/></g><path d="M94,127.26H81.94c-.35,0-.35,1.59,0,1.59H94C94.38,128.85,94.38,127.26,94,127.26Z" transform="translate(-35.22 -71.44)" style="fill:#fff"/><g style="clip-path:url(#clip-path-13)"><path d="M106.26,127.26H96.71c-.28,0-.28,1.59,0,1.59h9.55C106.54,128.85,106.54,127.26,106.26,127.26Z" transform="translate(-35.22 -71.44)" style="fill:#fff"/></g><g style="clip-path:url(#clip-path-14)"><path d="M644.54,124.69h-5.68a47.2,47.2,0,1,0-94.39,0h-5.68c0-29.37,23.72-53.25,52.88-53.25S644.54,95.32,644.54,124.69Z" transform="translate(-35.22 -71.44)" style="fill:#a8a8a8"/></g><g style="clip-path:url(#clip-path-15)"><path d="M632.09,126.59A41.11,41.11,0,1,1,591,85.49,41.11,41.11,0,0,1,632.09,126.59Z" transform="translate(-35.22 -71.44)" style="fill:#f1ae5a"/></g><g style="clip-path:url(#clip-path-16)"><path d="M171.48,106.1a2.25,2.25,0,0,0,0,4.5h2.42l1.76,6.66a11.23,11.23,0,0,0,5.13,6.81l1.57.93a.75.75,0,0,1,.36.64v2.88a.74.74,0,0,1-.35.63l-1.78,1.11a11.21,11.21,0,0,0-4.9,6.65l-1.79,6.69h-2.42a2.25,2.25,0,0,0,0,4.5H203a2.25,2.25,0,0,0,0-4.5h-2.43l-1.77-6.7a11.2,11.2,0,0,0-5-6.7l-1.71-1a.76.76,0,0,1-.36-.64v-2.75a.75.75,0,0,1,.36-.64l1.63-1a11.21,11.21,0,0,0,5.07-6.77l1.76-6.76H203a2.25,2.25,0,0,0,0-4.5Zm0,1.5H203a.75.75,0,0,1,0,1.5H171.48a.75.75,0,0,1,0-1.5Zm4,3H199L197.32,117a9.69,9.69,0,0,1-4.38,5.87l-1.63,1a2.28,2.28,0,0,0-1.09,1.93V126a14.11,14.11,0,0,1-6,0v-.38a2.27,2.27,0,0,0-1.1-1.94l-1.57-.92a9.69,9.69,0,0,1-4.44-5.9l-.87-3.28h14a.75.75,0,0,0,0-1.5H176l-.13,0Zm17.77,1.5a.75.75,0,0,0,0,1.5h3a.75.75,0,0,0,0-1.5Zm-9,15.46a15.66,15.66,0,0,0,6,0v.95a2.27,2.27,0,0,0,1.07,1.92l1.71,1a9.72,9.72,0,0,1,4.32,5.8l.56,2.13a.74.74,0,0,0-.16.44v1.5a.76.76,0,0,0,.75.75l.12,0,.4,1.52H175.46l.4-1.52.12,0a.76.76,0,0,0,.75-.75v-1.5a.74.74,0,0,0-.16-.44l.56-2.11a9.73,9.73,0,0,1,4.26-5.76l1.78-1.11a2.25,2.25,0,0,0,1.05-1.91Zm-4.49,11.54a.74.74,0,0,0-.75.75v1.5a.75.75,0,1,0,1.49,0v-1.5A.74.74,0,0,0,179.73,139.1Zm3.74,0a.75.75,0,0,0-.75.75v1.5a.75.75,0,0,0,1.5,0v-1.5A.74.74,0,0,0,183.47,139.1Zm3.75,0a.75.75,0,0,0-.75.75v1.5a.75.75,0,0,0,1.5,0v-1.5A.75.75,0,0,0,187.22,139.1Zm3.75,0a.75.75,0,0,0-.75.75v1.5a.75.75,0,0,0,1.5,0v-1.5A.75.75,0,0,0,191,139.1Zm3.75,0a.75.75,0,0,0-.75.75v1.5a.75.75,0,0,0,1.5,0v-1.5A.75.75,0,0,0,194.72,139.1Zm-23.24,6H203a.75.75,0,0,1,0,1.5H171.48a.75.75,0,0,1,0-1.5Z" transform="translate(-35.22 -71.44)" style="fill:#fff"/></g><path d="M310.22,115.87a2.59,2.59,0,0,0-2.7,2.61,2.7,2.7,0,0,0,5.4,0A2.59,2.59,0,0,0,310.22,115.87Z" transform="translate(-35.22 -71.44)" style="fill:#fff"/><path d="M290.35,122.77c-1.7,0-2.77,1.8-2.77,5.28s1.06,5.34,2.77,5.34,2.75-1.84,2.75-5.34S292.05,122.77,290.35,122.77Z" transform="translate(-35.22 -71.44)" style="fill:#fff"/><path d="M271.21,122.62c-1.69,0-2.76,1.8-2.76,5.27s1.06,5.34,2.76,5.34,2.76-1.83,2.76-5.34S272.92,122.62,271.21,122.62Z" transform="translate(-35.22 -71.44)" style="fill:#fff"/><g style="clip-path:url(#clip-path-17)"><path d="M318,111H262.71a1.2,1.2,0,0,0-1.2,1.2v31.34a1.21,1.21,0,0,0,1.2,1.21H318a1.21,1.21,0,0,0,1.21-1.21V112.23A1.21,1.21,0,0,0,318,111Zm-46.76,24.75c-3.69,0-5.92-2.92-5.92-7.89s2.25-7.84,5.92-7.84,5.92,2.89,5.92,7.85S274.9,135.78,271.21,135.78Zm10.73,6.59h-2.41V113.44h2.41Zm8.41-6.44c-3.7,0-5.93-2.92-5.93-7.88s2.26-7.84,5.93-7.84,5.91,2.88,5.91,7.84S294,135.93,290.35,135.93Zm10.81,6.44h-2.41V113.44h2.41Zm14.11-11.86-5.37,10.65h-3.23l5.48-10.48v-.2h-7.39V127.9h10.51Zm-5-6.78a5.43,5.43,0,0,1-4.92-2.7,9.21,9.21,0,0,1-1.25-5c0-.47,0-.91.06-1.34h2.95a8.45,8.45,0,0,0,0,1h.19a3.91,3.91,0,0,1,.72-1h6.33a4.93,4.93,0,0,1,1.66,3.78C316,121.53,313.58,123.73,310.25,123.73Z" transform="translate(-35.22 -71.44)" style="fill:#fff"/></g><path d="M398.1,119.77a9,9,0,0,1-3.38,7,8.75,8.75,0,0,1-7.66,1.56,8.84,8.84,0,1,1,11-8.55.61.61,0,0,0,1.21,0,10,10,0,1,0-9.64,10.06,10.14,10.14,0,0,0,9.64-10.06.61.61,0,0,0-1.21,0" transform="translate(-35.22 -71.44)" style="fill:#fff"/><g style="clip-path:url(#clip-path-18)"><path d="M376.71,148.41v-8.7a6.55,6.55,0,0,1,2.94-5.6,7.75,7.75,0,0,1,4.42-1h10.39a8.37,8.37,0,0,1,4.29.81,6.46,6.46,0,0,1,3.21,5.68v8.78a.61.61,0,0,0,1.21,0v-8.7a7.58,7.58,0,0,0-7.88-7.79H385.22a21.61,21.61,0,0,0-3.51.12,7.57,7.57,0,0,0-5.75,4.88c-.71,1.86-.45,4.12-.45,6.07v5.42a.6.6,0,0,0,1.2,0" transform="translate(-35.22 -71.44)" style="fill:#fff"/></g><g style="clip-path:url(#clip-path-19)"><path d="M377.42,123.2a8,8,0,1,1,2-11.28c.45.63,1.49,0,1-.61a9.27,9.27,0,0,0-7.51-4,9.1,9.1,0,0,0-7,3.29,9.4,9.4,0,0,0-2,7.6,9.28,9.28,0,0,0,4.38,6.32,9.17,9.17,0,0,0,9.7-.3c.64-.43,0-1.48-.61-1" transform="translate(-35.22 -71.44)" style="fill:#fff"/></g><g style="clip-path:url(#clip-path-20)"><path d="M361.49,142.69v-8.12a5.82,5.82,0,0,1,4.54-5.64,16.85,16.85,0,0,1,3.62-.11h9.06a.61.61,0,0,0,0-1.22h-8.95a24.84,24.84,0,0,0-3.56.08,7,7,0,0,0-5.64,4.93,18.4,18.4,0,0,0-.28,5.24v4.84a.61.61,0,0,0,1.21,0" transform="translate(-35.22 -71.44)" style="fill:#fff"/></g><g style="clip-path:url(#clip-path-21)"><path d="M400.79,124.25a9.17,9.17,0,0,0,8.71.8A9.25,9.25,0,0,0,407,107.42a9.22,9.22,0,0,0-8.67,3.89c-.46.63.59,1.24,1,.61a8,8,0,0,1,7.79-3.26,8,8,0,0,1,5.2,12.5,8,8,0,0,1-6.94,3.42,7.9,7.9,0,0,1-4.06-1.38c-.65-.43-1.25.62-.6,1" transform="translate(-35.22 -71.44)" style="fill:#fff"/></g><g style="clip-path:url(#clip-path-22)"><path d="M418.53,142.69v-8.12a7,7,0,0,0-3.93-6.29,9.47,9.47,0,0,0-4.34-.68H400.1a.61.61,0,0,0,0,1.22h9a21.15,21.15,0,0,1,3.56.08,5.81,5.81,0,0,1,4.71,5.67c0,2.71,0,5.41,0,8.12a.6.6,0,0,0,1.2,0" transform="translate(-35.22 -71.44)" style="fill:#fff"/></g><g style="clip-path:url(#clip-path-23)"><path d="M509.76,109.23a109.74,109.74,0,0,1-39.88,0,1.82,1.82,0,0,0-1.81,1.83v25.59a1.82,1.82,0,0,0,1.81,1.83A108.69,108.69,0,0,1,488,136.69v5.45h-5.44a3.65,3.65,0,0,0-3.63,3.66h21.75a3.64,3.64,0,0,0-3.62-3.66h-5.44V136.7a106.79,106.79,0,0,1,18.13,1.78,1.83,1.83,0,0,0,1.81-1.83V111.06A1.83,1.83,0,0,0,509.76,109.23Zm-23.57,19.2v-9.15l7.25,4.57Z" transform="translate(-35.22 -71.44)" style="fill:#fff"/></g><g style="clip-path:url(#clip-path-24)"><path d="M585.35,101.84,589,124.35a6,6,0,0,0,2.09,3.64l17.59,14.42a24.62,24.62,0,0,1-18.81,8.75c-11.22,0-23.38-8.09-24.91-23.54a22,22,0,0,1,4.13-15.2A25.84,25.84,0,0,1,585.35,101.84Zm-12.52,43.89a25.71,25.71,0,0,0,37-3.06.53.53,0,0,0-.08-.74l-18-14.75a4.89,4.89,0,0,1-1.72-3l-3.78-23a.51.51,0,0,0-.6-.43,25.61,25.61,0,0,0-9.35,3.52,28.75,28.75,0,0,0-8.07,7.56A23.11,23.11,0,0,0,564,127.72a27,27,0,0,0,8.87,18" transform="translate(-35.22 -71.44)" style="fill:#fff"/></g><path d="M608.53,103.46a22.88,22.88,0,0,0-19-5.62l3.72,22.73,15.33-17.11" transform="translate(-35.22 -71.44)" style="fill:#fff"/><g style="clip-path:url(#clip-path-25)"><path d="M615.13,110.66a22.69,22.69,0,0,0-4.65-5.84l-15.32,17.11,22.05,6.23a23.07,23.07,0,0,0-2.08-17.5" transform="translate(-35.22 -71.44)" style="fill:#fff"/></g><path d="M612.91,140.09a23.11,23.11,0,0,0,4.3-8.32l-22.05-6.23,17.75,14.55" transform="translate(-35.22 -71.44)" style="fill:#fff"/><g style="clip-path:url(#clip-path-26)"><path d="M641,128.42h5.68a47.19,47.19,0,1,0,94.38,0h5.69c0,29.36-23.72,53.25-52.88,53.25S641,157.78,641,128.42Z" transform="translate(-35.22 -71.44)" style="fill:#666"/></g><g style="clip-path:url(#clip-path-27)"><path d="M734.4,124.44a41.1,41.1,0,1,1-41.1-41.1A41.1,41.1,0,0,1,734.4,124.44Z" transform="translate(-35.22 -71.44)" style="fill:#68bec2"/></g><g style="clip-path:url(#clip-path-28)"><path d="M699.1,111.71h12l-12-12Z" transform="translate(-35.22 -71.44)" style="fill:#fff"/></g><path d="M695.1,133.71h6v4h-6Z" transform="translate(-35.22 -71.44)" style="fill:#fff"/><path d="M685.1,133.71h6v4h-6Z" transform="translate(-35.22 -71.44)" style="fill:#fff"/><path d="M685.1,125.71h6v4h-6Z" transform="translate(-35.22 -71.44)" style="fill:#fff"/><g style="clip-path:url(#clip-path-29)"><path d="M699.1,115.71a4,4,0,0,1-4-4v-12h-16a4,4,0,0,0-4,4v40a4,4,0,0,0,4,4h28a4,4,0,0,0,4-4v-28Zm-18-10h8v4h-8Zm0,8h8v4h-8Zm24,28h-24v-20h14v8h10Z" transform="translate(-35.22 -71.44)" style="fill:#fff"/></g></g><path d="M92.56,204.84c4.46,5.86-.43,12.36-6.23,11.07a6.43,6.43,0,0,1-4.84-4.83C80.21,205.28,86.7,200.39,92.56,204.84Z" transform="translate(-35.22 -71.44)" style="fill:#f3c65d"/><path d="M192,204.84c4.46,5.86-.42,12.36-6.23,11.07a6.44,6.44,0,0,1-4.83-4.83C179.62,205.28,186.12,200.39,192,204.84Z" transform="translate(-35.22 -71.44)" style="fill:#68bec2"/><path d="M295.09,204.84c4.46,5.86-.42,12.36-6.23,11.07a6.44,6.44,0,0,1-4.83-4.83C282.74,205.28,289.24,200.39,295.09,204.84Z" transform="translate(-35.22 -71.44)" style="fill:#3d3d3e"/><path d="M394.05,204.84c4.46,5.86-.43,12.36-6.23,11.07a6.43,6.43,0,0,1-4.84-4.83C381.7,205.28,388.19,200.39,394.05,204.84Z" transform="translate(-35.22 -71.44)" style="fill:#db4350"/><path d="M494.66,204.84c4.47,5.86-.42,12.36-6.23,11.07a6.44,6.44,0,0,1-4.83-4.83C482.31,205.28,488.81,200.39,494.66,204.84Z" transform="translate(-35.22 -71.44)" style="fill:#6b6c6e"/><path d="M697.85,204.84c4.46,5.86-.43,12.36-6.23,11.07a6.43,6.43,0,0,1-4.84-4.83C685.5,205.28,692,200.39,697.85,204.84Z" transform="translate(-35.22 -71.44)" style="fill:#68bec2"/><path d="M595.73,204.84c4.46,5.86-.43,12.36-6.23,11.07a6.42,6.42,0,0,1-4.83-4.83C583.38,205.28,589.87,200.39,595.73,204.84Z" transform="translate(-35.22 -71.44)" style="fill:#f1ae5a"/><text transform="translate(24.93 179.38)" style="font-size:24px;fill:#6b6c6e;font-family:BarlowCondensed-Bold, Barlow Condensed;font-weight:700"><tspan style="letter-spacing:-0.006001790364583333em">S</tspan><tspan x="10.51" y="0">TEP 1</tspan></text><text transform="translate(122.64 179.19)" style="font-size:24px;fill:#6b6c6e;font-family:BarlowCondensed-Bold, Barlow Condensed;font-weight:700"><tspan style="letter-spacing:-0.006001790364583333em">S</tspan><tspan x="10.51" y="0">TEP 2</tspan></text><text transform="translate(225.78 179.19)" style="font-size:24px;fill:#6b6c6e;font-family:BarlowCondensed-Bold, Barlow Condensed;font-weight:700"><tspan style="letter-spacing:-0.006001790364583333em">S</tspan><tspan x="10.51" y="0">TEP 3</tspan></text><text transform="translate(324.16 179.19)" style="font-size:24px;fill:#6b6c6e;font-family:BarlowCondensed-Bold, Barlow Condensed;font-weight:700"><tspan style="letter-spacing:-0.006001790364583333em">S</tspan><tspan x="10.51" y="0">TEP 4</tspan></text><text transform="translate(425.32 179.19)" style="font-size:24px;fill:#6b6c6e;font-family:BarlowCondensed-Bold, Barlow Condensed;font-weight:700"><tspan style="letter-spacing:-0.006001790364583333em">S</tspan><tspan x="10.51" y="0">TEP 5</tspan></text><text transform="translate(526.37 179.19)" style="font-size:24px;fill:#6b6c6e;font-family:BarlowCondensed-Bold, Barlow Condensed;font-weight:700"><tspan style="letter-spacing:-0.006001790364583333em">S</tspan><tspan x="10.51" y="0">TEP 6</tspan></text><text transform="translate(628.88 179.19)" style="font-size:24px;fill:#6b6c6e;font-family:BarlowCondensed-Bold, Barlow Condensed;font-weight:700"><tspan style="letter-spacing:-0.006001790364583333em">S</tspan><tspan x="10.51" y="0">TEP 7</tspan></text><text transform="translate(17.78 200.81)" style="font-size:14px;fill:#6b6c6e;font-family:Roboto-Regular, Roboto"><tspan style="letter-spacing:-0.00537109375em">P</tspan><tspan x="8.76" y="0">a</tspan><tspan x="16.37" y="0" style="letter-spacing:0.0244140625em">r</tspan><tspan x="21.45" y="0">ticipant </tspan><tspan x="0.86" y="18">submit the </tspan><tspan x="7.96" y="36">Concept </tspan><tspan x="-4.03" y="54">Plans in one </tspan><tspan x="15.95" y="72">of the </tspan><tspan x="8.76" y="90">Themes</tspan></text><text transform="translate(108.39 200.62)" style="font-size:14px;fill:#6b6c6e;font-family:Roboto-Regular, Roboto">Cities* invited <tspan x="9.04" y="19" style="letter-spacing:-0.009765625em">t</tspan><tspan x="13.48" y="19">o join as a </tspan><tspan x="0.87" y="38">pa</tspan><tspan x="16.34" y="38" style="letter-spacing:0.0244140625em">r</tspan><tspan x="21.42" y="38">tner </tspan><tspan x="49.34" y="38" style="letter-spacing:-0.009765625em">t</tspan><tspan x="53.77" y="38">o the </tspan><tspan x="12.97" y="57">challenge </tspan><tspan x="0.62" y="76">and share the </tspan><tspan x="2.57" y="95">mobility data</tspan></text><path d="M256.6,268.9a3.69,3.69,0,0,1-1.16,2.44,3.85,3.85,0,0,1-2.61.85,3.52,3.52,0,0,1-2.83-1.26,5.08,5.08,0,0,1-1.06-3.39v-1a5.65,5.65,0,0,1,.49-2.44,3.73,3.73,0,0,1,1.41-1.62,3.86,3.86,0,0,1,2.1-.56,3.61,3.61,0,0,1,2.55.88,3.68,3.68,0,0,1,1.11,2.45h-1.32a2.87,2.87,0,0,0-.74-1.73,2.27,2.27,0,0,0-1.6-.53,2.36,2.36,0,0,0-2,.93,4.31,4.31,0,0,0-.71,2.65v1a4.41,4.41,0,0,0,.67,2.58,2.21,2.21,0,0,0,1.9,1,2.48,2.48,0,0,0,1.68-.5,2.74,2.74,0,0,0,.77-1.72Z" transform="translate(-35.22 -71.44)" style="fill:#6b6c6e"/><path d="M257.86,268.29a4.34,4.34,0,0,1,.43-2,3.31,3.31,0,0,1,5.37-.76,4,4,0,0,1,.93,2.78v.09a4.35,4.35,0,0,1-.41,1.94,3.12,3.12,0,0,1-1.18,1.33,3.28,3.28,0,0,1-1.77.48,3.14,3.14,0,0,1-2.44-1,4,4,0,0,1-.93-2.77Zm1.27.15a3.19,3.19,0,0,0,.57,2,1.94,1.94,0,0,0,3.06,0,3.47,3.47,0,0,0,.57-2.12,3.12,3.12,0,0,0-.58-2,1.82,1.82,0,0,0-1.53-.76,1.8,1.8,0,0,0-1.51.75A3.38,3.38,0,0,0,259.13,268.44Z" transform="translate(-35.22 -71.44)" style="fill:#6b6c6e"/><path d="M267.38,264.66l0,.93a2.69,2.69,0,0,1,2.21-1.07c1.56,0,2.35.89,2.37,2.65v4.89h-1.27v-4.9a1.71,1.71,0,0,0-.36-1.18,1.46,1.46,0,0,0-1.12-.38,1.88,1.88,0,0,0-1.08.32,2.3,2.3,0,0,0-.73.87v5.27h-1.26v-7.4Z" transform="translate(-35.22 -71.44)" style="fill:#6b6c6e"/><path d="M276.87,271.16a1.82,1.82,0,0,0,1.18-.41,1.39,1.39,0,0,0,.56-1h1.2a2.3,2.3,0,0,1-.44,1.21,3,3,0,0,1-1.07.91,3.1,3.1,0,0,1-1.43.34,3,3,0,0,1-2.4-1,4,4,0,0,1-.89-2.76v-.22a4.51,4.51,0,0,1,.39-1.92,3.08,3.08,0,0,1,1.14-1.3,3.22,3.22,0,0,1,1.75-.47,3,3,0,0,1,2.07.75,2.68,2.68,0,0,1,.88,1.93h-1.2a1.7,1.7,0,0,0-.54-1.18,1.88,1.88,0,0,0-2.7.24,3.26,3.26,0,0,0-.53,2v.24a3.21,3.21,0,0,0,.53,2A1.77,1.77,0,0,0,276.87,271.16Z" transform="translate(-35.22 -71.44)" style="fill:#6b6c6e"/><path d="M284.3,272.19a3.27,3.27,0,0,1-2.45-1,3.67,3.67,0,0,1-.94-2.65v-.23a4.41,4.41,0,0,1,.42-2,3.26,3.26,0,0,1,1.18-1.36,3,3,0,0,1,1.63-.49,2.81,2.81,0,0,1,2.25,1,4.14,4.14,0,0,1,.8,2.72v.53h-5a2.69,2.69,0,0,0,.64,1.77,2,2,0,0,0,1.56.67,2.2,2.2,0,0,0,1.13-.27,3,3,0,0,0,.82-.73l.77.6A3.09,3.09,0,0,1,284.3,272.19Zm-.16-6.63a1.67,1.67,0,0,0-1.28.56,2.66,2.66,0,0,0-.64,1.56h3.7v-.09a2.45,2.45,0,0,0-.52-1.5A1.6,1.6,0,0,0,284.14,265.56Z" transform="translate(-35.22 -71.44)" style="fill:#6b6c6e"/><path d="M294.9,268.44a4.39,4.39,0,0,1-.78,2.72,2.46,2.46,0,0,1-2.09,1,2.71,2.71,0,0,1-2.12-.85v3.56h-1.26V264.66h1.15l.07.82a2.59,2.59,0,0,1,2.14-1,2.53,2.53,0,0,1,2.11,1,4.45,4.45,0,0,1,.78,2.79Zm-1.27-.14a3.3,3.3,0,0,0-.53-2,1.72,1.72,0,0,0-1.46-.72,1.87,1.87,0,0,0-1.73,1v3.53a1.88,1.88,0,0,0,1.74,1,1.72,1.72,0,0,0,1.45-.72A3.63,3.63,0,0,0,293.63,268.3Z" transform="translate(-35.22 -71.44)" style="fill:#6b6c6e"/><path d="M298.22,262.87v1.79h1.38v1h-1.38v4.59a1.05,1.05,0,0,0,.18.67.79.79,0,0,0,.63.22,3.31,3.31,0,0,0,.6-.08v1a3.65,3.65,0,0,1-1,.13,1.59,1.59,0,0,1-1.28-.51,2.25,2.25,0,0,1-.43-1.46v-4.58h-1.34v-1H297v-1.79Z" transform="translate(-35.22 -71.44)" style="fill:#6b6c6e"/><path d="M306.05,268.16v3.9h-1.31v-10h3.67a3.67,3.67,0,0,1,2.56.84,2.81,2.81,0,0,1,.93,2.21,2.77,2.77,0,0,1-.91,2.23,3.85,3.85,0,0,1-2.59.78Zm0-1.07h2.36a2.35,2.35,0,0,0,1.61-.5,1.79,1.79,0,0,0,.56-1.43,1.86,1.86,0,0,0-.56-1.43,2.19,2.19,0,0,0-1.53-.55h-2.44Z" transform="translate(-35.22 -71.44)" style="fill:#6b6c6e"/><path d="M314.75,272.06h-1.27v-10.5h1.27Z" transform="translate(-35.22 -71.44)" style="fill:#6b6c6e"/><path d="M321.34,272.06a3,3,0,0,1-.18-.78,2.82,2.82,0,0,1-2.11.91,2.59,2.59,0,0,1-1.79-.62,2,2,0,0,1-.7-1.56,2.1,2.1,0,0,1,.88-1.8,4.17,4.17,0,0,1,2.47-.64h1.23V267a1.39,1.39,0,0,0-.4-1.05,1.55,1.55,0,0,0-1.17-.4,1.87,1.87,0,0,0-1.13.34,1,1,0,0,0-.46.83h-1.27a1.77,1.77,0,0,1,.39-1.07,2.78,2.78,0,0,1,1.07-.82,3.59,3.59,0,0,1,1.48-.3,3,3,0,0,1,2,.64,2.27,2.27,0,0,1,.75,1.76v3.41a4.21,4.21,0,0,0,.26,1.62v.11Zm-2.1-1a2.28,2.28,0,0,0,1.13-.3,2,2,0,0,0,.77-.8v-1.52h-1c-1.55,0-2.33.45-2.33,1.36a1.19,1.19,0,0,0,.4.93A1.53,1.53,0,0,0,319.24,271.09Z" transform="translate(-35.22 -71.44)" style="fill:#6b6c6e"/><path d="M325.58,264.66l0,.93a2.72,2.72,0,0,1,2.22-1.07c1.56,0,2.35.89,2.36,2.65v4.89h-1.26v-4.9a1.67,1.67,0,0,0-.37-1.18,1.44,1.44,0,0,0-1.11-.38,1.88,1.88,0,0,0-1.08.32,2.22,2.22,0,0,0-.73.87v5.27h-1.26v-7.4Z" transform="translate(-35.22 -71.44)" style="fill:#6b6c6e"/><path d="M261.67,289.09a.92.92,0,0,0-.39-.79,3.66,3.66,0,0,0-1.34-.49,6.72,6.72,0,0,1-1.53-.49,2.15,2.15,0,0,1-.83-.69,1.6,1.6,0,0,1-.27-.94,1.93,1.93,0,0,1,.77-1.54,3,3,0,0,1,2-.63,3.1,3.1,0,0,1,2,.65,2.06,2.06,0,0,1,.79,1.66H261.6a1.13,1.13,0,0,0-.45-.89,1.64,1.64,0,0,0-1.11-.38,1.73,1.73,0,0,0-1.08.3,1,1,0,0,0-.39.79.76.76,0,0,0,.37.69,4.49,4.49,0,0,0,1.31.44,7,7,0,0,1,1.53.51,2.26,2.26,0,0,1,.87.71,1.72,1.72,0,0,1,.29,1,1.87,1.87,0,0,1-.8,1.58,3.32,3.32,0,0,1-2.06.6,3.73,3.73,0,0,1-1.57-.31,2.59,2.59,0,0,1-1.07-.88,2.17,2.17,0,0,1-.38-1.22h1.26a1.3,1.3,0,0,0,.51,1,2,2,0,0,0,1.25.37,2.1,2.1,0,0,0,1.16-.29A.88.88,0,0,0,261.67,289.09Z" transform="translate(-35.22 -71.44)" style="fill:#6b6c6e"/><path d="M265.85,284.56a2.69,2.69,0,0,1,2.18-1c1.57,0,2.36.89,2.37,2.65v4.89h-1.26v-4.9a1.72,1.72,0,0,0-.37-1.18,1.45,1.45,0,0,0-1.12-.38,1.88,1.88,0,0,0-1.08.32,2.19,2.19,0,0,0-.72.87v5.27h-1.27v-10.5h1.27Z" transform="translate(-35.22 -71.44)" style="fill:#6b6c6e"/><path d="M272,287.29a4.34,4.34,0,0,1,.43-2,3.31,3.31,0,0,1,5.37-.76,4,4,0,0,1,.93,2.78v.09a4.49,4.49,0,0,1-.41,1.94,3.12,3.12,0,0,1-1.18,1.33,3.31,3.31,0,0,1-1.77.48,3.14,3.14,0,0,1-2.44-1,4,4,0,0,1-.93-2.77Zm1.27.15a3.19,3.19,0,0,0,.57,2,1.94,1.94,0,0,0,3.06,0,3.47,3.47,0,0,0,.57-2.12,3.18,3.18,0,0,0-.58-2,1.92,1.92,0,0,0-3.05,0A3.44,3.44,0,0,0,273.23,287.44Z" transform="translate(-35.22 -71.44)" style="fill:#6b6c6e"/><path d="M283.85,284.79a4,4,0,0,0-.62,0,1.67,1.67,0,0,0-1.69,1.06v5.25h-1.26v-7.4h1.23l0,.85a2,2,0,0,1,1.76-1,1.3,1.3,0,0,1,.56.1Z" transform="translate(-35.22 -71.44)" style="fill:#6b6c6e"/><path d="M287.07,281.87v1.79h1.38v1h-1.38v4.59a1,1,0,0,0,.19.67.76.76,0,0,0,.63.22,3.54,3.54,0,0,0,.6-.08v1a3.7,3.7,0,0,1-1,.13,1.58,1.58,0,0,1-1.28-.51,2.19,2.19,0,0,1-.43-1.46v-4.58h-1.35v-1h1.35v-1.79Z" transform="translate(-35.22 -71.44)" style="fill:#6b6c6e"/><path d="M291.3,291.06H290v-10.5h1.26Z" transform="translate(-35.22 -71.44)" style="fill:#6b6c6e"/><path d="M293.33,281.7a.77.77,0,0,1,.19-.52.85.85,0,0,1,1.12,0,.73.73,0,0,1,.19.52.78.78,0,0,1-1.31.51A.76.76,0,0,1,293.33,281.7Zm1.37,9.36h-1.26v-7.4h1.26Z" transform="translate(-35.22 -71.44)" style="fill:#6b6c6e"/><path d="M301,289.09a.94.94,0,0,0-.38-.79,3.8,3.8,0,0,0-1.35-.49,6.72,6.72,0,0,1-1.53-.49,2.15,2.15,0,0,1-.83-.69,1.6,1.6,0,0,1-.27-.94,1.93,1.93,0,0,1,.77-1.54,3,3,0,0,1,2-.63,3.15,3.15,0,0,1,2.05.65,2.08,2.08,0,0,1,.78,1.66H301a1.15,1.15,0,0,0-.44-.89,1.69,1.69,0,0,0-1.12-.38,1.73,1.73,0,0,0-1.08.3,1,1,0,0,0-.38.79.77.77,0,0,0,.36.69,4.6,4.6,0,0,0,1.31.44,7,7,0,0,1,1.53.51,2.26,2.26,0,0,1,.87.71,1.72,1.72,0,0,1,.29,1,1.87,1.87,0,0,1-.8,1.58,3.3,3.3,0,0,1-2.05.6,3.74,3.74,0,0,1-1.58-.31,2.59,2.59,0,0,1-1.07-.88,2.17,2.17,0,0,1-.38-1.22h1.26a1.33,1.33,0,0,0,.51,1,2,2,0,0,0,1.26.37,2.08,2.08,0,0,0,1.15-.29A.88.88,0,0,0,301,289.09Z" transform="translate(-35.22 -71.44)" style="fill:#6b6c6e"/><path d="M305.66,281.87v1.79H307v1h-1.38v4.59a1.05,1.05,0,0,0,.18.67.79.79,0,0,0,.63.22,3.31,3.31,0,0,0,.6-.08v1a3.65,3.65,0,0,1-1,.13,1.56,1.56,0,0,1-1.27-.51,2.19,2.19,0,0,1-.43-1.46v-4.58h-1.35v-1h1.35v-1.79Z" transform="translate(-35.22 -71.44)" style="fill:#6b6c6e"/><path d="M311.59,291.19a3.25,3.25,0,0,1-2.45-1,3.67,3.67,0,0,1-.94-2.65v-.23a4.41,4.41,0,0,1,.42-2,3.31,3.31,0,0,1,1.17-1.36,3,3,0,0,1,1.64-.49,2.77,2.77,0,0,1,2.24,1,4.14,4.14,0,0,1,.8,2.72v.53h-5a2.64,2.64,0,0,0,.64,1.77,2,2,0,0,0,1.55.67,2.24,2.24,0,0,0,1.14-.27,2.8,2.8,0,0,0,.81-.73l.78.6A3.09,3.09,0,0,1,311.59,291.19Zm-.16-6.63a1.71,1.71,0,0,0-1.29.56,2.72,2.72,0,0,0-.64,1.56h3.71v-.09a2.45,2.45,0,0,0-.52-1.5A1.6,1.6,0,0,0,311.43,284.56Z" transform="translate(-35.22 -71.44)" style="fill:#6b6c6e"/><path d="M315.63,287.3a4.37,4.37,0,0,1,.8-2.74,2.74,2.74,0,0,1,4.17-.15v-3.85h1.27v10.5h-1.16l-.07-.8a2.57,2.57,0,0,1-2.11.93,2.51,2.51,0,0,1-2.09-1.05,4.39,4.39,0,0,1-.81-2.75Zm1.26.14a3.25,3.25,0,0,0,.52,2,1.7,1.7,0,0,0,1.44.71A1.84,1.84,0,0,0,320.6,289v-3.4a1.87,1.87,0,0,0-1.74-1,1.71,1.71,0,0,0-1.45.71A3.6,3.6,0,0,0,316.89,287.44Z" transform="translate(-35.22 -71.44)" style="fill:#6b6c6e"/><path d="M260.13,310.06a3,3,0,0,1-.18-.78,2.79,2.79,0,0,1-2.1.91,2.59,2.59,0,0,1-1.8-.62,2,2,0,0,1-.7-1.56,2.12,2.12,0,0,1,.88-1.8,4.19,4.19,0,0,1,2.47-.64h1.23V305a1.46,1.46,0,0,0-.39-1.06,1.62,1.62,0,0,0-1.17-.39,1.92,1.92,0,0,0-1.14.34,1,1,0,0,0-.45.83H255.5a1.78,1.78,0,0,1,.4-1.07,2.75,2.75,0,0,1,1.06-.82,3.63,3.63,0,0,1,1.48-.3,3,3,0,0,1,2,.64,2.32,2.32,0,0,1,.75,1.76v3.41a4.21,4.21,0,0,0,.26,1.62v.11Zm-2.1-1a2.25,2.25,0,0,0,1.13-.3,1.9,1.9,0,0,0,.77-.8v-1.52h-1c-1.55,0-2.32.45-2.32,1.36a1.16,1.16,0,0,0,.4.93A1.52,1.52,0,0,0,258,309.09Z" transform="translate(-35.22 -71.44)" style="fill:#6b6c6e"/><path d="M264.38,302.66l0,.93a2.69,2.69,0,0,1,2.21-1.07c1.57,0,2.35.89,2.37,2.65v4.89h-1.27v-4.9a1.67,1.67,0,0,0-.36-1.18,1.45,1.45,0,0,0-1.12-.38,1.88,1.88,0,0,0-1.08.32,2.19,2.19,0,0,0-.72.87v5.27h-1.27v-7.4Z" transform="translate(-35.22 -71.44)" style="fill:#6b6c6e"/><path d="M270.6,306.3a4.37,4.37,0,0,1,.8-2.74,2.74,2.74,0,0,1,4.17-.15v-3.85h1.27v10.5h-1.16l-.06-.8a2.59,2.59,0,0,1-2.12.93,2.53,2.53,0,0,1-2.09-1.05,4.39,4.39,0,0,1-.81-2.75Zm1.26.14a3.34,3.34,0,0,0,.52,2,1.7,1.7,0,0,0,1.44.71,1.83,1.83,0,0,0,1.75-1.08v-3.4a1.85,1.85,0,0,0-1.74-1,1.71,1.71,0,0,0-1.45.71A3.67,3.67,0,0,0,271.86,306.44Z" transform="translate(-35.22 -71.44)" style="fill:#6b6c6e"/><path d="M283.46,302.66l0,.82a2.72,2.72,0,0,1,2.2-1,2.13,2.13,0,0,1,2.11,1.19,2.76,2.76,0,0,1,1-.86,2.81,2.81,0,0,1,1.4-.33c1.62,0,2.44.86,2.47,2.58v5h-1.26v-4.88A1.66,1.66,0,0,0,291,304a1.58,1.58,0,0,0-1.21-.39,1.64,1.64,0,0,0-1.71,1.55v4.91h-1.27v-4.85a1.41,1.41,0,0,0-1.58-1.61,1.7,1.7,0,0,0-1.71,1.06v5.4h-1.26v-7.4Z" transform="translate(-35.22 -71.44)" style="fill:#6b6c6e"/><path d="M299.1,310.06a2.7,2.7,0,0,1-.17-.78,2.82,2.82,0,0,1-2.11.91,2.55,2.55,0,0,1-1.79-.62,2,2,0,0,1-.7-1.56,2.11,2.11,0,0,1,.87-1.8,4.21,4.21,0,0,1,2.48-.64h1.23V305a1.47,1.47,0,0,0-.4-1.06,1.59,1.59,0,0,0-1.17-.39,1.87,1.87,0,0,0-1.13.34,1,1,0,0,0-.46.83h-1.27a1.77,1.77,0,0,1,.39-1.07,2.71,2.71,0,0,1,1.07-.82,3.56,3.56,0,0,1,1.48-.3,3,3,0,0,1,2,.64,2.32,2.32,0,0,1,.75,1.76v3.41a4.21,4.21,0,0,0,.26,1.62v.11Zm-2.09-1a2.24,2.24,0,0,0,1.12-.3,1.93,1.93,0,0,0,.78-.8v-1.52h-1c-1.54,0-2.32.45-2.32,1.36a1.16,1.16,0,0,0,.4.93A1.53,1.53,0,0,0,297,309.09Z" transform="translate(-35.22 -71.44)" style="fill:#6b6c6e"/><path d="M303.87,300.87v1.79h1.38v1h-1.38v4.59a1.05,1.05,0,0,0,.18.67.79.79,0,0,0,.63.22,3.31,3.31,0,0,0,.6-.08v1a3.65,3.65,0,0,1-1,.13,1.59,1.59,0,0,1-1.28-.51,2.25,2.25,0,0,1-.43-1.46v-4.58h-1.34v-1h1.34v-1.79Z" transform="translate(-35.22 -71.44)" style="fill:#6b6c6e"/><path d="M309.69,309.16a1.87,1.87,0,0,0,1.19-.41,1.46,1.46,0,0,0,.56-1h1.19a2.3,2.3,0,0,1-.44,1.21,2.81,2.81,0,0,1-1.07.91,3.1,3.1,0,0,1-1.43.34,3,3,0,0,1-2.4-1,4,4,0,0,1-.89-2.75v-.22a4.51,4.51,0,0,1,.39-1.92,3.08,3.08,0,0,1,1.14-1.3,3.26,3.26,0,0,1,1.76-.47,2.94,2.94,0,0,1,2.06.75,2.62,2.62,0,0,1,.88,1.93h-1.19a1.75,1.75,0,0,0-.55-1.18,1.71,1.71,0,0,0-1.2-.46,1.77,1.77,0,0,0-1.5.7,3.26,3.26,0,0,0-.53,2v.24a3.21,3.21,0,0,0,.53,2A1.77,1.77,0,0,0,309.69,309.16Z" transform="translate(-35.22 -71.44)" style="fill:#6b6c6e"/><path d="M315.32,303.56a2.69,2.69,0,0,1,2.19-1c1.56,0,2.35.89,2.36,2.65v4.89h-1.26v-4.9a1.72,1.72,0,0,0-.37-1.18,1.45,1.45,0,0,0-1.12-.38,1.88,1.88,0,0,0-1.08.32,2.19,2.19,0,0,0-.72.87v5.27h-1.27v-10.5h1.27Z" transform="translate(-35.22 -71.44)" style="fill:#6b6c6e"/><path d="M324.4,306.34h-3.34v-1h3.34Z" transform="translate(-35.22 -71.44)" style="fill:#6b6c6e"/><path d="M250.16,321.66l0,.82a2.72,2.72,0,0,1,2.19-1,2.11,2.11,0,0,1,2.11,1.19,3,3,0,0,1,1-.86,2.84,2.84,0,0,1,1.4-.33c1.62,0,2.45.86,2.48,2.58v5h-1.27v-4.89a1.7,1.7,0,0,0-.36-1.18,1.61,1.61,0,0,0-1.22-.39,1.64,1.64,0,0,0-1.71,1.55v4.91h-1.27v-4.85a1.4,1.4,0,0,0-1.58-1.61,1.69,1.69,0,0,0-1.7,1.06v5.4H249v-7.4Z" transform="translate(-35.22 -71.44)" style="fill:#6b6c6e"/><path d="M265.81,329.06a3,3,0,0,1-.18-.78,2.82,2.82,0,0,1-2.1.91,2.59,2.59,0,0,1-1.8-.62A2,2,0,0,1,261,327a2.08,2.08,0,0,1,.88-1.79,4.12,4.12,0,0,1,2.47-.64h1.23V324a1.42,1.42,0,0,0-.4-1.06,1.58,1.58,0,0,0-1.16-.39,1.9,1.9,0,0,0-1.14.34,1,1,0,0,0-.46.83h-1.27a1.74,1.74,0,0,1,.39-1.07,2.78,2.78,0,0,1,1.07-.82,3.59,3.59,0,0,1,1.48-.3,3,3,0,0,1,2,.64,2.3,2.3,0,0,1,.76,1.76v3.41a4.1,4.1,0,0,0,.26,1.62v.11Zm-2.1-1a2.19,2.19,0,0,0,1.13-.31,1.85,1.85,0,0,0,.77-.8v-1.51h-1c-1.55,0-2.32.45-2.32,1.36a1.18,1.18,0,0,0,.39.93A1.56,1.56,0,0,0,263.71,328.09Z" transform="translate(-35.22 -71.44)" style="fill:#6b6c6e"/><path d="M270.92,325.63l-.79.83v2.6h-1.26v-10.5h1.26v6.35l.68-.82,2.3-2.43h1.54l-2.88,3.09,3.21,4.31H273.5Z" transform="translate(-35.22 -71.44)" style="fill:#6b6c6e"/><path d="M276,319.7a.73.73,0,0,1,.19-.52.7.7,0,0,1,.56-.21.73.73,0,0,1,.56.21.79.79,0,0,1,0,1,.73.73,0,0,1-.56.21.7.7,0,0,1-.56-.21A.72.72,0,0,1,276,319.7Zm1.37,9.36h-1.27v-7.4h1.27Z" transform="translate(-35.22 -71.44)" style="fill:#6b6c6e"/><path d="M280.55,321.66l0,.93a2.69,2.69,0,0,1,2.21-1.07c1.57,0,2.36.88,2.37,2.65v4.89H283.9v-4.9a1.67,1.67,0,0,0-.36-1.18,1.45,1.45,0,0,0-1.12-.38,1.88,1.88,0,0,0-1.08.32,2.19,2.19,0,0,0-.72.87v5.27h-1.27v-7.4Z" transform="translate(-35.22 -71.44)" style="fill:#6b6c6e"/><path d="M286.78,325.3a4.34,4.34,0,0,1,.8-2.76,2.75,2.75,0,0,1,4.23-.06l.06-.82H293v7.22a3,3,0,0,1-.85,2.26,3.15,3.15,0,0,1-2.28.83,3.93,3.93,0,0,1-1.57-.34,2.7,2.7,0,0,1-1.17-.94l.66-.76a2.47,2.47,0,0,0,2,1,2,2,0,0,0,1.44-.52,2,2,0,0,0,.51-1.47v-.63a2.59,2.59,0,0,1-2.07.87,2.52,2.52,0,0,1-2.1-1A4.55,4.55,0,0,1,286.78,325.3Zm1.27.14a3.36,3.36,0,0,0,.51,2,1.68,1.68,0,0,0,1.44.71,1.84,1.84,0,0,0,1.75-1.09v-3.37A1.87,1.87,0,0,0,290,322.6a1.65,1.65,0,0,0-1.44.71A3.6,3.6,0,0,0,288.05,325.44Z" transform="translate(-35.22 -71.44)" style="fill:#6b6c6e"/><path d="M301.47,329.19a3.22,3.22,0,0,1-2.45-1,3.63,3.63,0,0,1-.94-2.64v-.23a4.48,4.48,0,0,1,.42-2,3.35,3.35,0,0,1,1.17-1.35,3,3,0,0,1,1.64-.49,2.77,2.77,0,0,1,2.24,1,4.14,4.14,0,0,1,.8,2.72v.53h-5a2.64,2.64,0,0,0,.64,1.77,2,2,0,0,0,1.55.67,2.24,2.24,0,0,0,1.14-.27,3,3,0,0,0,.81-.73l.77.6A3.07,3.07,0,0,1,301.47,329.19Zm-.16-6.63a1.71,1.71,0,0,0-1.29.56,2.72,2.72,0,0,0-.64,1.56h3.71v-.1a2.42,2.42,0,0,0-.52-1.49A1.6,1.6,0,0,0,301.31,322.56Z" transform="translate(-35.22 -71.44)" style="fill:#6b6c6e"/><path d="M308.17,327.34l1.83-5.68h1.29l-2.65,7.4h-1l-2.68-7.4h1.3Z" transform="translate(-35.22 -71.44)" style="fill:#6b6c6e"/><path d="M315.58,329.19a3.22,3.22,0,0,1-2.45-1,3.63,3.63,0,0,1-.95-2.64v-.23a4.48,4.48,0,0,1,.42-2,3.45,3.45,0,0,1,1.18-1.35,3,3,0,0,1,1.64-.49,2.77,2.77,0,0,1,2.24,1,4.14,4.14,0,0,1,.8,2.72v.53h-5a2.64,2.64,0,0,0,.64,1.77,2,2,0,0,0,1.55.67,2.24,2.24,0,0,0,1.14-.27,3,3,0,0,0,.81-.73l.77.6A3.09,3.09,0,0,1,315.58,329.19Zm-.16-6.63a1.71,1.71,0,0,0-1.29.56,2.72,2.72,0,0,0-.64,1.56h3.71v-.1a2.42,2.42,0,0,0-.52-1.49A1.6,1.6,0,0,0,315.42,322.56Z" transform="translate(-35.22 -71.44)" style="fill:#6b6c6e"/><path d="M321.12,321.66l0,.93a2.71,2.71,0,0,1,2.22-1.07c1.56,0,2.35.88,2.36,2.65v4.89h-1.26v-4.9a1.72,1.72,0,0,0-.37-1.18,1.45,1.45,0,0,0-1.12-.38,1.88,1.88,0,0,0-1.08.32,2.19,2.19,0,0,0-.72.87v5.27h-1.27v-7.4Z" transform="translate(-35.22 -71.44)" style="fill:#6b6c6e"/><path d="M329.36,319.87v1.79h1.38v1h-1.38v4.59a1,1,0,0,0,.19.67.8.8,0,0,0,.63.22,3.54,3.54,0,0,0,.6-.08v1a3.7,3.7,0,0,1-1,.13,1.58,1.58,0,0,1-1.28-.51,2.19,2.19,0,0,1-.43-1.46v-4.58h-1.35v-1h1.35v-1.79Z" transform="translate(-35.22 -71.44)" style="fill:#6b6c6e"/><path d="M259.48,344.29a4.31,4.31,0,0,1,.43-2A3.17,3.17,0,0,1,261.1,341a3.24,3.24,0,0,1,1.74-.47,3.11,3.11,0,0,1,2.44,1.05,4,4,0,0,1,.93,2.78v.09a4.35,4.35,0,0,1-.41,1.94,3.18,3.18,0,0,1-1.18,1.33,3.28,3.28,0,0,1-1.77.48,3.14,3.14,0,0,1-2.44-1,4,4,0,0,1-.93-2.77Zm1.27.15a3.19,3.19,0,0,0,.57,2,1.94,1.94,0,0,0,3.06,0,3.47,3.47,0,0,0,.57-2.12,3.12,3.12,0,0,0-.58-2,1.82,1.82,0,0,0-1.53-.76,1.8,1.8,0,0,0-1.51.75A3.36,3.36,0,0,0,260.75,344.44Z" transform="translate(-35.22 -71.44)" style="fill:#6b6c6e"/><path d="M271.37,341.79a4,4,0,0,0-.62,0,1.67,1.67,0,0,0-1.69,1.06v5.25H267.8v-7.4H269l0,.85a2,2,0,0,1,1.76-1,1.17,1.17,0,0,1,.56.1Z" transform="translate(-35.22 -71.44)" style="fill:#6b6c6e"/><path d="M272.24,344.3a4.34,4.34,0,0,1,.8-2.76,2.75,2.75,0,0,1,4.23-.06l.06-.82h1.15v7.22a3,3,0,0,1-.85,2.26,3.15,3.15,0,0,1-2.28.83,3.93,3.93,0,0,1-1.57-.34,2.7,2.7,0,0,1-1.17-.94l.66-.76a2.47,2.47,0,0,0,2,1,2,2,0,0,0,1.44-.52,2,2,0,0,0,.51-1.47v-.63a2.59,2.59,0,0,1-2.07.87,2.52,2.52,0,0,1-2.1-1A4.55,4.55,0,0,1,272.24,344.3Zm1.27.14a3.36,3.36,0,0,0,.51,2,1.68,1.68,0,0,0,1.44.71,1.84,1.84,0,0,0,1.75-1.09v-3.37a1.87,1.87,0,0,0-1.74-1.06,1.65,1.65,0,0,0-1.44.71A3.6,3.6,0,0,0,273.51,344.44Z" transform="translate(-35.22 -71.44)" style="fill:#6b6c6e"/><path d="M285,348.06a2.34,2.34,0,0,1-.18-.78,2.82,2.82,0,0,1-2.11.91,2.57,2.57,0,0,1-1.79-.62,2,2,0,0,1-.7-1.57,2.08,2.08,0,0,1,.88-1.79,4.1,4.1,0,0,1,2.47-.64h1.23V343a1.42,1.42,0,0,0-.4-1.06,1.59,1.59,0,0,0-1.17-.39,1.87,1.87,0,0,0-1.13.34,1,1,0,0,0-.46.83h-1.27a1.74,1.74,0,0,1,.39-1.07,2.71,2.71,0,0,1,1.07-.82,3.59,3.59,0,0,1,1.48-.3,3,3,0,0,1,2,.64,2.29,2.29,0,0,1,.75,1.76v3.41a4.29,4.29,0,0,0,.26,1.62v.11Zm-2.1-1a2.21,2.21,0,0,0,1.13-.31,1.85,1.85,0,0,0,.77-.8v-1.51h-1c-1.55,0-2.33.45-2.33,1.36a1.19,1.19,0,0,0,.4.93A1.53,1.53,0,0,0,282.86,347.09Z" transform="translate(-35.22 -71.44)" style="fill:#6b6c6e"/><path d="M289.2,340.66l0,.93a2.72,2.72,0,0,1,2.22-1.07c1.56,0,2.35.88,2.36,2.65v4.89h-1.26v-4.9a1.72,1.72,0,0,0-.37-1.18,1.44,1.44,0,0,0-1.11-.38,1.88,1.88,0,0,0-1.08.32,2.22,2.22,0,0,0-.73.87v5.27H288v-7.4Z" transform="translate(-35.22 -71.44)" style="fill:#6b6c6e"/><path d="M295.74,338.7a.73.73,0,0,1,.19-.52.69.69,0,0,1,.55-.21.7.7,0,0,1,.56.21.73.73,0,0,1,.19.52.72.72,0,0,1-.19.51.7.7,0,0,1-.56.21.69.69,0,0,1-.55-.21A.72.72,0,0,1,295.74,338.7Zm1.36,9.36h-1.26v-7.4h1.26Z" transform="translate(-35.22 -71.44)" style="fill:#6b6c6e"/><path d="M300.32,347h4.32v1h-5.87v-.93l4.08-5.42h-4v-1h5.61v.89Z" transform="translate(-35.22 -71.44)" style="fill:#6b6c6e"/><path d="M309.14,348.19a3.22,3.22,0,0,1-2.45-1,3.63,3.63,0,0,1-.94-2.64v-.23a4.48,4.48,0,0,1,.42-2,3.35,3.35,0,0,1,1.17-1.35,3,3,0,0,1,1.64-.49,2.77,2.77,0,0,1,2.24,1,4.14,4.14,0,0,1,.8,2.72v.53h-5a2.64,2.64,0,0,0,.64,1.77,2,2,0,0,0,1.55.67,2.24,2.24,0,0,0,1.14-.27,3,3,0,0,0,.81-.73l.77.6A3.07,3.07,0,0,1,309.14,348.19Zm-.16-6.63a1.71,1.71,0,0,0-1.29.56,2.72,2.72,0,0,0-.64,1.56h3.71v-.1a2.42,2.42,0,0,0-.52-1.49A1.6,1.6,0,0,0,309,341.56Z" transform="translate(-35.22 -71.44)" style="fill:#6b6c6e"/><path d="M313.18,344.3a4.31,4.31,0,0,1,.8-2.74,2.74,2.74,0,0,1,4.17-.15v-3.85h1.27v10.5h-1.17l-.06-.8a2.57,2.57,0,0,1-2.11.93,2.51,2.51,0,0,1-2.09-1.05,4.39,4.39,0,0,1-.81-2.75Zm1.26.14a3.27,3.27,0,0,0,.52,2,1.69,1.69,0,0,0,1.44.71,1.84,1.84,0,0,0,1.75-1.08v-3.4a1.85,1.85,0,0,0-1.74-1,1.68,1.68,0,0,0-1.45.71A3.6,3.6,0,0,0,314.44,344.44Z" transform="translate(-35.22 -71.44)" style="fill:#6b6c6e"/><path d="M264.75,365.31l1.43-5.65h1.26l-2.15,7.4h-1l-1.8-5.61-1.75,5.61h-1l-2.15-7.4h1.26l1.46,5.54,1.72-5.54h1Z" transform="translate(-35.22 -71.44)" style="fill:#6b6c6e"/><path d="M268.73,357.7a.73.73,0,0,1,.19-.52.72.72,0,0,1,.56-.21.69.69,0,0,1,.75.73.72.72,0,0,1-.19.51.73.73,0,0,1-.56.21.69.69,0,0,1-.75-.72Zm1.37,9.36h-1.27v-7.4h1.27Z" transform="translate(-35.22 -71.44)" style="fill:#6b6c6e"/><path d="M273.84,357.87v1.79h1.38v1h-1.38v4.59a1.05,1.05,0,0,0,.18.67.83.83,0,0,0,.63.22,3.31,3.31,0,0,0,.6-.08v1a3.65,3.65,0,0,1-1,.13,1.59,1.59,0,0,1-1.28-.51,2.25,2.25,0,0,1-.43-1.46v-4.58h-1.34v-1h1.34v-1.79Z" transform="translate(-35.22 -71.44)" style="fill:#6b6c6e"/><path d="M278,360.55a2.71,2.71,0,0,1,2.19-1c1.56,0,2.35.88,2.36,2.65v4.89h-1.26v-4.9a1.72,1.72,0,0,0-.37-1.18,1.44,1.44,0,0,0-1.11-.38,1.86,1.86,0,0,0-1.08.32,2.22,2.22,0,0,0-.73.87v5.27H276.7v-10.5H278Z" transform="translate(-35.22 -71.44)" style="fill:#6b6c6e"/><path d="M295.39,363.9a3.65,3.65,0,0,1-1.16,2.43,3.81,3.81,0,0,1-2.61.86,3.52,3.52,0,0,1-2.83-1.26,5.1,5.1,0,0,1-1.06-3.39v-1a5.65,5.65,0,0,1,.49-2.44,3.73,3.73,0,0,1,1.41-1.62,3.88,3.88,0,0,1,2.1-.56,3.61,3.61,0,0,1,2.55.88,3.68,3.68,0,0,1,1.11,2.45h-1.32a2.87,2.87,0,0,0-.74-1.73,2.27,2.27,0,0,0-1.6-.53,2.36,2.36,0,0,0-2,.93,4.31,4.31,0,0,0-.71,2.65v1a4.33,4.33,0,0,0,.68,2.58,2.18,2.18,0,0,0,1.89,1,2.53,2.53,0,0,0,1.68-.5,2.69,2.69,0,0,0,.77-1.72Z" transform="translate(-35.22 -71.44)" style="fill:#6b6c6e"/><path d="M297,357.7a.73.73,0,0,1,.19-.52.72.72,0,0,1,.56-.21.73.73,0,0,1,.56.21.79.79,0,0,1,0,1,.73.73,0,0,1-.56.21.69.69,0,0,1-.75-.72Zm1.37,9.36h-1.27v-7.4h1.27Z" transform="translate(-35.22 -71.44)" style="fill:#6b6c6e"/><path d="M302.1,357.87v1.79h1.38v1H302.1v4.59a1.05,1.05,0,0,0,.18.67.83.83,0,0,0,.63.22,3.31,3.31,0,0,0,.6-.08v1a3.65,3.65,0,0,1-1,.13,1.59,1.59,0,0,1-1.28-.51,2.25,2.25,0,0,1-.43-1.46v-4.58h-1.34v-1h1.34v-1.79Z" transform="translate(-35.22 -71.44)" style="fill:#6b6c6e"/><path d="M305,357.7a.73.73,0,0,1,.19-.52.72.72,0,0,1,.56-.21.69.69,0,0,1,.75.73.72.72,0,0,1-.19.51.73.73,0,0,1-.56.21.69.69,0,0,1-.75-.72Zm1.37,9.36h-1.27v-7.4h1.27Z" transform="translate(-35.22 -71.44)" style="fill:#6b6c6e"/><path d="M311.42,367.19a3.2,3.2,0,0,1-2.44-1,3.63,3.63,0,0,1-1-2.64v-.23a4.48,4.48,0,0,1,.42-2,3.3,3.3,0,0,1,1.18-1.35,3,3,0,0,1,1.64-.49,2.79,2.79,0,0,1,2.24,1,4.14,4.14,0,0,1,.8,2.72v.53h-5a2.59,2.59,0,0,0,.64,1.77,2,2,0,0,0,1.55.67,2.24,2.24,0,0,0,1.14-.27,3,3,0,0,0,.81-.73l.77.6A3.09,3.09,0,0,1,311.42,367.19Zm-.15-6.63a1.7,1.7,0,0,0-1.29.56,2.66,2.66,0,0,0-.64,1.56H313v-.1a2.36,2.36,0,0,0-.52-1.49A1.59,1.59,0,0,0,311.27,360.56Z" transform="translate(-35.22 -71.44)" style="fill:#6b6c6e"/><path d="M320.08,365.09a.92.92,0,0,0-.39-.79,3.8,3.8,0,0,0-1.35-.49,6.62,6.62,0,0,1-1.52-.49,2.08,2.08,0,0,1-.83-.69,1.62,1.62,0,0,1-.27-.94,1.92,1.92,0,0,1,.76-1.54,3,3,0,0,1,2-.63,3.1,3.1,0,0,1,2,.65,2.07,2.07,0,0,1,.78,1.66H320a1.15,1.15,0,0,0-.44-.89,1.64,1.64,0,0,0-1.11-.38,1.73,1.73,0,0,0-1.08.3,1,1,0,0,0-.39.79.78.78,0,0,0,.36.69,4.6,4.6,0,0,0,1.31.44,6.75,6.75,0,0,1,1.54.51,2.26,2.26,0,0,1,.87.71,1.71,1.71,0,0,1,.28,1,1.87,1.87,0,0,1-.79,1.59,3.34,3.34,0,0,1-2.06.6,3.7,3.7,0,0,1-1.57-.31,2.52,2.52,0,0,1-1.07-.88,2.11,2.11,0,0,1-.39-1.22h1.27a1.3,1.3,0,0,0,.51,1,1.94,1.94,0,0,0,1.25.37,2.06,2.06,0,0,0,1.15-.29A.89.89,0,0,0,320.08,365.09Z" transform="translate(-35.22 -71.44)" style="fill:#6b6c6e"/><text transform="translate(322.46 200.62)" style="font-size:14px;fill:#6b6c6e;font-family:Roboto-Regular, Roboto">Cities and <tspan x="-6.66" y="19" style="letter-spacing:-0.00537109375em">P</tspan><tspan x="2.1" y="19">a</tspan><tspan x="9.71" y="19" style="letter-spacing:0.0244140625em">r</tspan><tspan x="14.79" y="19">ticipants </tspan><tspan x="-12.06" y="38">work </tspan><tspan x="21.75" y="38" style="letter-spacing:-0.009765625em">t</tspan><tspan x="26.18" y="38">ogether </tspan><tspan x="-1.36" y="57" style="letter-spacing:-0.009765625em">t</tspan><tspan x="3.07" y="57">o d</tspan><tspan x="22.42" y="57" style="letter-spacing:-0.00634765625em">e</tspan><tspan x="29.75" y="57">velop </tspan><tspan x="-10.08" y="76">the p</tspan><tspan x="20.94" y="76" style="letter-spacing:-0.009765625em">r</tspan><tspan x="25.54" y="76">oposed </tspan><tspan x="5.91" y="95">solution</tspan></text><path d="M455,262.1l3.26,8.12,3.25-8.12h1.7v10h-1.31v-3.88L462,264l-3.27,8.06h-1l-3.26-8,.13,4.16v3.88h-1.31v-10Z" transform="translate(-35.22 -71.44)" style="fill:#6b6c6e"/><path d="M468.36,272.19a3.23,3.23,0,0,1-2.44-1,3.68,3.68,0,0,1-.95-2.65v-.23a4.41,4.41,0,0,1,.42-2,3.34,3.34,0,0,1,1.18-1.36,3,3,0,0,1,1.64-.49,2.77,2.77,0,0,1,2.24,1,4.14,4.14,0,0,1,.8,2.72v.53h-5a2.64,2.64,0,0,0,.64,1.77,2,2,0,0,0,1.55.67,2.24,2.24,0,0,0,1.14-.27,2.8,2.8,0,0,0,.81-.73l.77.6A3.09,3.09,0,0,1,468.36,272.19Zm-.15-6.63a1.71,1.71,0,0,0-1.29.56,2.72,2.72,0,0,0-.64,1.56H470v-.09a2.39,2.39,0,0,0-.52-1.5A1.58,1.58,0,0,0,468.21,265.56Z" transform="translate(-35.22 -71.44)" style="fill:#6b6c6e"/><path d="M473.91,264.66l0,.93a2.69,2.69,0,0,1,2.21-1.07c1.57,0,2.35.89,2.37,2.65v4.89h-1.27v-4.9a1.67,1.67,0,0,0-.36-1.18,1.45,1.45,0,0,0-1.12-.38,1.88,1.88,0,0,0-1.08.32,2.19,2.19,0,0,0-.72.87v5.27h-1.27v-7.4Z" transform="translate(-35.22 -71.44)" style="fill:#6b6c6e"/><path d="M482.15,262.87v1.79h1.38v1h-1.38v4.59a1,1,0,0,0,.19.67.75.75,0,0,0,.62.22,3.51,3.51,0,0,0,.61-.08v1a3.76,3.76,0,0,1-1,.13,1.57,1.57,0,0,1-1.28-.51,2.19,2.19,0,0,1-.43-1.46v-4.58h-1.35v-1h1.35v-1.79Z" transform="translate(-35.22 -71.44)" style="fill:#6b6c6e"/><path d="M484.54,268.29a4.47,4.47,0,0,1,.42-2,3.28,3.28,0,0,1,1.19-1.33,3.2,3.2,0,0,1,1.74-.48,3.12,3.12,0,0,1,2.45,1.05,4,4,0,0,1,.93,2.78v.09a4.49,4.49,0,0,1-.41,1.94,3.08,3.08,0,0,1-1.19,1.33,3.25,3.25,0,0,1-1.76.48,3.14,3.14,0,0,1-2.44-1,4,4,0,0,1-.93-2.77Zm1.27.15a3.19,3.19,0,0,0,.57,2,1.94,1.94,0,0,0,3.06,0,3.47,3.47,0,0,0,.57-2.12,3.18,3.18,0,0,0-.58-2,1.92,1.92,0,0,0-3.05,0A3.44,3.44,0,0,0,485.81,268.44Z" transform="translate(-35.22 -71.44)" style="fill:#6b6c6e"/><path d="M496.43,265.79a4,4,0,0,0-.62,0,1.67,1.67,0,0,0-1.69,1.06v5.25h-1.26v-7.4h1.23l0,.85a2,2,0,0,1,1.76-1,1.33,1.33,0,0,1,.56.1Z" transform="translate(-35.22 -71.44)" style="fill:#6b6c6e"/><path d="M507.61,270.31l1.42-5.65h1.26l-2.15,7.4h-1l-1.8-5.61-1.75,5.61h-1l-2.14-7.4h1.25l1.46,5.54,1.72-5.54h1Z" transform="translate(-35.22 -71.44)" style="fill:#6b6c6e"/><path d="M511.59,262.7a.73.73,0,0,1,.19-.52.69.69,0,0,1,.55-.21.7.7,0,0,1,.56.21.73.73,0,0,1,.19.52.72.72,0,0,1-.19.51.7.7,0,0,1-.56.21.69.69,0,0,1-.55-.21A.72.72,0,0,1,511.59,262.7Zm1.36,9.36h-1.26v-7.4H513Z" transform="translate(-35.22 -71.44)" style="fill:#6b6c6e"/><path d="M516.69,262.87v1.79h1.38v1h-1.38v4.59a1,1,0,0,0,.19.67.76.76,0,0,0,.63.22,3.54,3.54,0,0,0,.6-.08v1a3.7,3.7,0,0,1-1,.13,1.58,1.58,0,0,1-1.28-.51,2.19,2.19,0,0,1-.43-1.46v-4.58h-1.35v-1h1.35v-1.79Z" transform="translate(-35.22 -71.44)" style="fill:#6b6c6e"/><path d="M520.82,265.56a2.69,2.69,0,0,1,2.18-1c1.57,0,2.35.89,2.37,2.65v4.89H524.1v-4.9a1.67,1.67,0,0,0-.36-1.18,1.45,1.45,0,0,0-1.12-.38,1.88,1.88,0,0,0-1.08.32,2.19,2.19,0,0,0-.72.87v5.27h-1.27v-10.5h1.27Z" transform="translate(-35.22 -71.44)" style="fill:#6b6c6e"/><path d="M475.09,290.16a1.87,1.87,0,0,0,1.19-.41,1.46,1.46,0,0,0,.56-1H478a2.37,2.37,0,0,1-.43,1.21,2.92,2.92,0,0,1-1.08.91,3.1,3.1,0,0,1-1.43.34,3,3,0,0,1-2.4-1,4,4,0,0,1-.89-2.75v-.22a4.37,4.37,0,0,1,.4-1.92,3,3,0,0,1,1.13-1.3,3.26,3.26,0,0,1,1.76-.47,2.92,2.92,0,0,1,2.06.75,2.64,2.64,0,0,1,.88,1.93h-1.19a1.75,1.75,0,0,0-.55-1.18,1.69,1.69,0,0,0-1.2-.46,1.77,1.77,0,0,0-1.5.7,3.26,3.26,0,0,0-.53,2v.24a3.21,3.21,0,0,0,.53,2A1.77,1.77,0,0,0,475.09,290.16Z" transform="translate(-35.22 -71.44)" style="fill:#6b6c6e"/><path d="M479.46,281.7a.73.73,0,0,1,.19-.52.72.72,0,0,1,.56-.21.73.73,0,0,1,.56.21.79.79,0,0,1,0,1,.73.73,0,0,1-.56.21.69.69,0,0,1-.75-.72Zm1.37,9.36h-1.27v-7.4h1.27Z" transform="translate(-35.22 -71.44)" style="fill:#6b6c6e"/><path d="M484.57,281.87v1.79H486v1h-1.38v4.59a1.05,1.05,0,0,0,.18.67.78.78,0,0,0,.63.22,3.31,3.31,0,0,0,.6-.08v1a3.65,3.65,0,0,1-1,.13,1.59,1.59,0,0,1-1.28-.51,2.25,2.25,0,0,1-.43-1.46v-4.58H482v-1h1.34v-1.79Z" transform="translate(-35.22 -71.44)" style="fill:#6b6c6e"/><path d="M487.43,281.7a.77.77,0,0,1,.19-.52.72.72,0,0,1,.56-.21.69.69,0,0,1,.75.73.72.72,0,0,1-.19.51.73.73,0,0,1-.56.21.72.72,0,0,1-.56-.21A.76.76,0,0,1,487.43,281.7Zm1.37,9.36h-1.26v-7.4h1.26Z" transform="translate(-35.22 -71.44)" style="fill:#6b6c6e"/><path d="M493.89,291.19a3.23,3.23,0,0,1-2.44-1,3.68,3.68,0,0,1-.95-2.65v-.23a4.41,4.41,0,0,1,.42-2A3.26,3.26,0,0,1,492.1,284a3,3,0,0,1,1.64-.49,2.79,2.79,0,0,1,2.24,1,4.14,4.14,0,0,1,.8,2.72v.53h-5a2.59,2.59,0,0,0,.64,1.77,2,2,0,0,0,1.55.67,2.24,2.24,0,0,0,1.14-.27,2.8,2.8,0,0,0,.81-.73l.77.6A3.09,3.09,0,0,1,493.89,291.19Zm-.15-6.63a1.7,1.7,0,0,0-1.29.56,2.66,2.66,0,0,0-.64,1.56h3.7v-.09a2.39,2.39,0,0,0-.52-1.5A1.59,1.59,0,0,0,493.74,284.56Z" transform="translate(-35.22 -71.44)" style="fill:#6b6c6e"/><path d="M502.55,289.09a.92.92,0,0,0-.39-.79,3.8,3.8,0,0,0-1.35-.49,6.62,6.62,0,0,1-1.52-.49,2.08,2.08,0,0,1-.83-.69,1.6,1.6,0,0,1-.27-.94,1.92,1.92,0,0,1,.76-1.54,3,3,0,0,1,2-.63,3.1,3.1,0,0,1,2,.65,2.08,2.08,0,0,1,.78,1.66h-1.27a1.15,1.15,0,0,0-.44-.89,1.64,1.64,0,0,0-1.11-.38,1.73,1.73,0,0,0-1.08.3,1,1,0,0,0-.39.79.77.77,0,0,0,.36.69,4.6,4.6,0,0,0,1.31.44,7.28,7.28,0,0,1,1.54.51,2.26,2.26,0,0,1,.87.71,1.72,1.72,0,0,1,.28,1,1.86,1.86,0,0,1-.79,1.58,3.34,3.34,0,0,1-2.06.6,3.7,3.7,0,0,1-1.57-.31,2.52,2.52,0,0,1-1.07-.88,2.11,2.11,0,0,1-.39-1.22h1.27a1.3,1.3,0,0,0,.51,1,1.94,1.94,0,0,0,1.25.37,2.06,2.06,0,0,0,1.15-.29A.89.89,0,0,0,502.55,289.09Z" transform="translate(-35.22 -71.44)" style="fill:#6b6c6e"/><path d="M505.42,293l-.72-.49a3.33,3.33,0,0,0,.67-1.85v-1.14h1.24v1a3.19,3.19,0,0,1-.34,1.38A3.34,3.34,0,0,1,505.42,293Z" transform="translate(-35.22 -71.44)" style="fill:#6b6c6e"/><path d="M453,302.66l0,.93a2.69,2.69,0,0,1,2.21-1.07c1.57,0,2.35.89,2.37,2.65v4.89h-1.27v-4.9A1.67,1.67,0,0,0,456,304a1.45,1.45,0,0,0-1.12-.38,1.88,1.88,0,0,0-1.08.32,2.3,2.3,0,0,0-.73.87v5.27H451.8v-7.4Z" transform="translate(-35.22 -71.44)" style="fill:#6b6c6e"/><path d="M464.09,310.06a3,3,0,0,1-.18-.78,2.8,2.8,0,0,1-2.1.91,2.59,2.59,0,0,1-1.8-.62,2,2,0,0,1-.7-1.56,2.12,2.12,0,0,1,.88-1.8,4.19,4.19,0,0,1,2.47-.64h1.23V305a1.46,1.46,0,0,0-.39-1.06,1.62,1.62,0,0,0-1.17-.39,1.92,1.92,0,0,0-1.14.34,1,1,0,0,0-.46.83h-1.27a1.72,1.72,0,0,1,.4-1.07,2.68,2.68,0,0,1,1.06-.82,3.63,3.63,0,0,1,1.48-.3,3,3,0,0,1,2,.64,2.32,2.32,0,0,1,.75,1.76v3.41a4,4,0,0,0,.26,1.62v.11Zm-2.1-1a2.28,2.28,0,0,0,1.13-.3,1.9,1.9,0,0,0,.77-.8v-1.52h-1c-1.55,0-2.32.45-2.32,1.36a1.18,1.18,0,0,0,.39.93A1.56,1.56,0,0,0,462,309.09Z" transform="translate(-35.22 -71.44)" style="fill:#6b6c6e"/><path d="M468.86,300.87v1.79h1.38v1h-1.38v4.59a1.05,1.05,0,0,0,.18.67.76.76,0,0,0,.63.22,3.31,3.31,0,0,0,.6-.08v1a3.7,3.7,0,0,1-1,.13,1.59,1.59,0,0,1-1.28-.51,2.19,2.19,0,0,1-.43-1.46v-4.58h-1.35v-1h1.35v-1.79Z" transform="translate(-35.22 -71.44)" style="fill:#6b6c6e"/><path d="M471.72,300.7a.73.73,0,0,1,.19-.52.69.69,0,0,1,.55-.21.74.74,0,0,1,.57.21.79.79,0,0,1,0,1,.74.74,0,0,1-.57.21.69.69,0,0,1-.55-.21A.72.72,0,0,1,471.72,300.7Zm1.37,9.36h-1.27v-7.4h1.27Z" transform="translate(-35.22 -71.44)" style="fill:#6b6c6e"/><path d="M474.78,306.29a4.47,4.47,0,0,1,.42-2,3.18,3.18,0,0,1,2.93-1.81,3.13,3.13,0,0,1,2.45,1.05,4,4,0,0,1,.93,2.78v.09a4.49,4.49,0,0,1-.41,1.94,3.08,3.08,0,0,1-1.19,1.33,3.25,3.25,0,0,1-1.76.48,3.12,3.12,0,0,1-2.44-1,4,4,0,0,1-.93-2.77Zm1.27.15a3.19,3.19,0,0,0,.57,2,1.94,1.94,0,0,0,3.06,0,3.47,3.47,0,0,0,.56-2.12,3.18,3.18,0,0,0-.57-2,1.84,1.84,0,0,0-1.54-.76,1.81,1.81,0,0,0-1.51.75A3.42,3.42,0,0,0,476.05,306.44Z" transform="translate(-35.22 -71.44)" style="fill:#6b6c6e"/><path d="M484.29,302.66l0,.93a2.72,2.72,0,0,1,2.22-1.07c1.56,0,2.35.89,2.36,2.65v4.89h-1.26v-4.9a1.72,1.72,0,0,0-.37-1.18,1.45,1.45,0,0,0-1.12-.38,1.88,1.88,0,0,0-1.08.32,2.19,2.19,0,0,0-.72.87v5.27h-1.27v-7.4Z" transform="translate(-35.22 -71.44)" style="fill:#6b6c6e"/><path d="M495.39,310.06a2.34,2.34,0,0,1-.18-.78,2.82,2.82,0,0,1-2.11.91,2.57,2.57,0,0,1-1.79-.62,2,2,0,0,1-.7-1.56,2.1,2.1,0,0,1,.88-1.8,4.17,4.17,0,0,1,2.47-.64h1.23V305a1.42,1.42,0,0,0-.4-1.06,1.59,1.59,0,0,0-1.17-.39,1.87,1.87,0,0,0-1.13.34,1,1,0,0,0-.46.83h-1.27a1.77,1.77,0,0,1,.39-1.07,2.71,2.71,0,0,1,1.07-.82,3.59,3.59,0,0,1,1.48-.3,3,3,0,0,1,2,.64,2.32,2.32,0,0,1,.75,1.76v3.41a4.21,4.21,0,0,0,.26,1.62v.11Zm-2.1-1a2.3,2.3,0,0,0,1.13-.3,2,2,0,0,0,.77-.8v-1.52h-1c-1.55,0-2.33.45-2.33,1.36a1.16,1.16,0,0,0,.4.93A1.53,1.53,0,0,0,493.29,309.09Z" transform="translate(-35.22 -71.44)" style="fill:#6b6c6e"/><path d="M499.81,310.06h-1.27v-10.5h1.27Z" transform="translate(-35.22 -71.44)" style="fill:#6b6c6e"/><path d="M509.86,310.06a2.7,2.7,0,0,1-.17-.78,2.82,2.82,0,0,1-2.11.91,2.55,2.55,0,0,1-1.79-.62,2,2,0,0,1-.7-1.56,2.11,2.11,0,0,1,.87-1.8,4.21,4.21,0,0,1,2.48-.64h1.23V305a1.47,1.47,0,0,0-.4-1.06,1.59,1.59,0,0,0-1.17-.39,1.87,1.87,0,0,0-1.13.34,1,1,0,0,0-.46.83h-1.27a1.77,1.77,0,0,1,.39-1.07,2.71,2.71,0,0,1,1.07-.82,3.56,3.56,0,0,1,1.48-.3,3,3,0,0,1,2,.64,2.32,2.32,0,0,1,.75,1.76v3.41a4.21,4.21,0,0,0,.26,1.62v.11Zm-2.09-1a2.24,2.24,0,0,0,1.12-.3,1.93,1.93,0,0,0,.78-.8v-1.52h-1c-1.54,0-2.32.45-2.32,1.36a1.16,1.16,0,0,0,.4.93A1.53,1.53,0,0,0,507.77,309.09Z" transform="translate(-35.22 -71.44)" style="fill:#6b6c6e"/><path d="M514.11,302.66l0,.93a2.71,2.71,0,0,1,2.22-1.07c1.56,0,2.35.89,2.36,2.65v4.89h-1.26v-4.9a1.72,1.72,0,0,0-.37-1.18,1.45,1.45,0,0,0-1.12-.38,1.88,1.88,0,0,0-1.08.32,2.19,2.19,0,0,0-.72.87v5.27h-1.27v-7.4Z" transform="translate(-35.22 -71.44)" style="fill:#6b6c6e"/><path d="M520.33,306.3a4.32,4.32,0,0,1,.81-2.74,2.54,2.54,0,0,1,2.11-1,2.58,2.58,0,0,1,2.06.89v-3.85h1.26v10.5h-1.16l-.06-.8a2.58,2.58,0,0,1-2.11.93,2.53,2.53,0,0,1-2.1-1.05,4.39,4.39,0,0,1-.81-2.75Zm1.26.14a3.34,3.34,0,0,0,.52,2,1.7,1.7,0,0,0,1.44.71,1.85,1.85,0,0,0,1.76-1.08v-3.4a1.87,1.87,0,0,0-1.75-1,1.71,1.71,0,0,0-1.45.71A3.67,3.67,0,0,0,521.59,306.44Z" transform="translate(-35.22 -71.44)" style="fill:#6b6c6e"/><path d="M451.23,319.7a.73.73,0,0,1,.19-.52A.72.72,0,0,1,452,319a.69.69,0,0,1,.75.73.72.72,0,0,1-.19.51.73.73,0,0,1-.56.21.69.69,0,0,1-.75-.72Zm1.37,9.36h-1.27v-7.4h1.27Z" transform="translate(-35.22 -71.44)" style="fill:#6b6c6e"/><path d="M455.82,321.66l0,.93a2.71,2.71,0,0,1,2.22-1.07c1.56,0,2.35.88,2.36,2.65v4.89h-1.26v-4.9a1.72,1.72,0,0,0-.37-1.18,1.45,1.45,0,0,0-1.12-.38,1.88,1.88,0,0,0-1.08.32,2.19,2.19,0,0,0-.72.87v5.27h-1.27v-7.4Z" transform="translate(-35.22 -71.44)" style="fill:#6b6c6e"/><path d="M464.06,319.87v1.79h1.38v1h-1.38v4.59a1,1,0,0,0,.19.67.8.8,0,0,0,.63.22,3.54,3.54,0,0,0,.6-.08v1a3.7,3.7,0,0,1-1,.13,1.58,1.58,0,0,1-1.28-.51,2.19,2.19,0,0,1-.43-1.46v-4.58h-1.35v-1h1.35v-1.79Z" transform="translate(-35.22 -71.44)" style="fill:#6b6c6e"/><path d="M470,329.19a3.24,3.24,0,0,1-2.45-1,3.63,3.63,0,0,1-.94-2.64v-.23a4.48,4.48,0,0,1,.42-2A3.3,3.3,0,0,1,468.2,322a3,3,0,0,1,1.63-.49,2.81,2.81,0,0,1,2.25,1,4.14,4.14,0,0,1,.8,2.72v.53h-5a2.69,2.69,0,0,0,.64,1.77,2,2,0,0,0,1.56.67,2.2,2.2,0,0,0,1.13-.27,3.15,3.15,0,0,0,.82-.73l.77.6A3.09,3.09,0,0,1,470,329.19Zm-.16-6.63a1.67,1.67,0,0,0-1.28.56,2.66,2.66,0,0,0-.64,1.56h3.7v-.1a2.42,2.42,0,0,0-.52-1.49A1.6,1.6,0,0,0,469.83,322.56Z" transform="translate(-35.22 -71.44)" style="fill:#6b6c6e"/><path d="M477.91,322.79a4,4,0,0,0-.62,0,1.67,1.67,0,0,0-1.69,1.06v5.25h-1.26v-7.4h1.23l0,.85a2,2,0,0,1,1.76-1,1.17,1.17,0,0,1,.56.1Z" transform="translate(-35.22 -71.44)" style="fill:#6b6c6e"/><path d="M480.27,321.66l0,.93a2.72,2.72,0,0,1,2.22-1.07c1.56,0,2.35.88,2.36,2.65v4.89h-1.26v-4.9a1.72,1.72,0,0,0-.37-1.18,1.45,1.45,0,0,0-1.12-.38,1.91,1.91,0,0,0-1.08.32,2.19,2.19,0,0,0-.72.87v5.27h-1.26v-7.4Z" transform="translate(-35.22 -71.44)" style="fill:#6b6c6e"/><path d="M491.37,329.06a2.34,2.34,0,0,1-.18-.78,2.82,2.82,0,0,1-2.11.91,2.57,2.57,0,0,1-1.79-.62,2,2,0,0,1-.7-1.57,2.08,2.08,0,0,1,.88-1.79,4.1,4.1,0,0,1,2.47-.64h1.23V324a1.42,1.42,0,0,0-.4-1.06,1.59,1.59,0,0,0-1.17-.39,1.87,1.87,0,0,0-1.13.34,1,1,0,0,0-.46.83h-1.27a1.74,1.74,0,0,1,.39-1.07,2.71,2.71,0,0,1,1.07-.82,3.59,3.59,0,0,1,1.48-.3,3,3,0,0,1,2,.64,2.29,2.29,0,0,1,.75,1.76v3.41a4.29,4.29,0,0,0,.26,1.62v.11Zm-2.1-1a2.21,2.21,0,0,0,1.13-.31,1.85,1.85,0,0,0,.77-.8v-1.51h-1c-1.55,0-2.33.45-2.33,1.36a1.19,1.19,0,0,0,.4.93A1.53,1.53,0,0,0,489.27,328.09Z" transform="translate(-35.22 -71.44)" style="fill:#6b6c6e"/><path d="M496.13,319.87v1.79h1.38v1h-1.38v4.59a1,1,0,0,0,.19.67.79.79,0,0,0,.62.22,3.51,3.51,0,0,0,.61-.08v1a3.76,3.76,0,0,1-1,.13,1.57,1.57,0,0,1-1.28-.51,2.19,2.19,0,0,1-.43-1.46v-4.58h-1.35v-1h1.35v-1.79Z" transform="translate(-35.22 -71.44)" style="fill:#6b6c6e"/><path d="M499,319.7a.77.77,0,0,1,.18-.52.85.85,0,0,1,1.12,0,.73.73,0,0,1,.19.52.78.78,0,0,1-1.31.51A.76.76,0,0,1,499,319.7Zm1.36,9.36H499.1v-7.4h1.26Z" transform="translate(-35.22 -71.44)" style="fill:#6b6c6e"/><path d="M502.05,325.29a4.31,4.31,0,0,1,.43-2,3.17,3.17,0,0,1,1.19-1.34,3.29,3.29,0,0,1,1.74-.47,3.1,3.1,0,0,1,2.44,1.05,4,4,0,0,1,.93,2.78v.09a4.35,4.35,0,0,1-.41,1.94,3.18,3.18,0,0,1-1.18,1.33,3.26,3.26,0,0,1-1.77.48,3.15,3.15,0,0,1-2.44-1,4,4,0,0,1-.93-2.77Zm1.27.15a3.19,3.19,0,0,0,.57,2,1.94,1.94,0,0,0,3.06,0,3.47,3.47,0,0,0,.57-2.12,3.12,3.12,0,0,0-.58-2,1.91,1.91,0,0,0-3,0A3.36,3.36,0,0,0,503.32,325.44Z" transform="translate(-35.22 -71.44)" style="fill:#6b6c6e"/><path d="M511.57,321.66l0,.93a2.69,2.69,0,0,1,2.21-1.07c1.57,0,2.35.88,2.37,2.65v4.89h-1.27v-4.9a1.67,1.67,0,0,0-.36-1.18,1.45,1.45,0,0,0-1.12-.38,1.88,1.88,0,0,0-1.08.32,2.3,2.3,0,0,0-.73.87v5.27h-1.26v-7.4Z" transform="translate(-35.22 -71.44)" style="fill:#6b6c6e"/><path d="M522.66,329.06a3,3,0,0,1-.18-.78,2.8,2.8,0,0,1-2.1.91,2.59,2.59,0,0,1-1.8-.62,2,2,0,0,1-.7-1.57,2.1,2.1,0,0,1,.88-1.79,4.12,4.12,0,0,1,2.47-.64h1.23V324a1.46,1.46,0,0,0-.39-1.06,1.62,1.62,0,0,0-1.17-.39,1.92,1.92,0,0,0-1.14.34,1,1,0,0,0-.46.83H518a1.7,1.7,0,0,1,.4-1.07,2.68,2.68,0,0,1,1.06-.82,3.63,3.63,0,0,1,1.48-.3,3,3,0,0,1,2,.64,2.32,2.32,0,0,1,.75,1.76v3.41A4.1,4.1,0,0,0,524,329v.11Zm-2.1-1a2.19,2.19,0,0,0,1.13-.31,1.8,1.8,0,0,0,.77-.8v-1.51h-1c-1.55,0-2.32.45-2.32,1.36a1.18,1.18,0,0,0,.39.93A1.56,1.56,0,0,0,520.56,328.09Z" transform="translate(-35.22 -71.44)" style="fill:#6b6c6e"/><path d="M527.08,329.06h-1.26v-10.5h1.26Z" transform="translate(-35.22 -71.44)" style="fill:#6b6c6e"/><path d="M470,348.19a3.22,3.22,0,0,1-2.45-1,3.63,3.63,0,0,1-.94-2.64v-.23a4.48,4.48,0,0,1,.42-2,3.35,3.35,0,0,1,1.17-1.35,3,3,0,0,1,1.64-.49,2.77,2.77,0,0,1,2.24,1,4.09,4.09,0,0,1,.8,2.72v.53h-5a2.64,2.64,0,0,0,.64,1.77,2,2,0,0,0,1.56.67,2.22,2.22,0,0,0,1.13-.27,3,3,0,0,0,.81-.73l.78.6A3.09,3.09,0,0,1,470,348.19Zm-.16-6.63a1.71,1.71,0,0,0-1.29.56,2.72,2.72,0,0,0-.64,1.56h3.71v-.1a2.42,2.42,0,0,0-.52-1.49A1.6,1.6,0,0,0,469.83,341.56Z" transform="translate(-35.22 -71.44)" style="fill:#6b6c6e"/><path d="M476.82,343.36l1.64-2.7h1.47l-2.42,3.66,2.5,3.74h-1.46l-1.71-2.77-1.71,2.77h-1.47l2.49-3.74-2.42-3.66h1.47Z" transform="translate(-35.22 -71.44)" style="fill:#6b6c6e"/><path d="M487.52,344.44a4.45,4.45,0,0,1-.77,2.72,2.47,2.47,0,0,1-2.09,1,2.7,2.7,0,0,1-2.12-.85v3.56h-1.27V340.66h1.16l.06.82a2.6,2.6,0,0,1,2.15-1,2.53,2.53,0,0,1,2.11,1,4.51,4.51,0,0,1,.77,2.79Zm-1.26-.14a3.23,3.23,0,0,0-.54-2,1.71,1.71,0,0,0-1.46-.72,1.87,1.87,0,0,0-1.72,1v3.54a1.87,1.87,0,0,0,1.73,1,1.72,1.72,0,0,0,1.45-.72A3.55,3.55,0,0,0,486.26,344.3Z" transform="translate(-35.22 -71.44)" style="fill:#6b6c6e"/><path d="M492.2,348.19a3.22,3.22,0,0,1-2.45-1,3.63,3.63,0,0,1-.94-2.64v-.23a4.48,4.48,0,0,1,.42-2A3.35,3.35,0,0,1,490.4,341a3,3,0,0,1,1.64-.49,2.77,2.77,0,0,1,2.24,1,4.09,4.09,0,0,1,.8,2.72v.53h-5a2.64,2.64,0,0,0,.64,1.77,2,2,0,0,0,1.56.67,2.22,2.22,0,0,0,1.13-.27,3,3,0,0,0,.81-.73l.78.6A3.09,3.09,0,0,1,492.2,348.19Zm-.16-6.63a1.71,1.71,0,0,0-1.29.56,2.72,2.72,0,0,0-.64,1.56h3.71v-.1a2.42,2.42,0,0,0-.52-1.49A1.6,1.6,0,0,0,492,341.56Z" transform="translate(-35.22 -71.44)" style="fill:#6b6c6e"/><path d="M500.12,341.79a4,4,0,0,0-.62,0,1.67,1.67,0,0,0-1.69,1.06v5.25h-1.27v-7.4h1.24l0,.85a2,2,0,0,1,1.76-1,1.19,1.19,0,0,1,.56.1Z" transform="translate(-35.22 -71.44)" style="fill:#6b6c6e"/><path d="M503.34,338.87v1.79h1.38v1h-1.38v4.59a1.05,1.05,0,0,0,.18.67.83.83,0,0,0,.63.22,3.31,3.31,0,0,0,.6-.08v1a3.65,3.65,0,0,1-1,.13,1.56,1.56,0,0,1-1.27-.51,2.19,2.19,0,0,1-.43-1.46v-4.58h-1.35v-1h1.35v-1.79Z" transform="translate(-35.22 -71.44)" style="fill:#6b6c6e"/><path d="M510.5,346.09a.91.91,0,0,0-.38-.79,3.8,3.8,0,0,0-1.35-.49,6.46,6.46,0,0,1-1.52-.49,2.11,2.11,0,0,1-.84-.69,1.62,1.62,0,0,1-.27-.94,1.93,1.93,0,0,1,.77-1.54,3,3,0,0,1,2-.63,3.12,3.12,0,0,1,2,.65,2.07,2.07,0,0,1,.78,1.66h-1.27a1.15,1.15,0,0,0-.44-.89,1.68,1.68,0,0,0-1.11-.38,1.73,1.73,0,0,0-1.08.3,1,1,0,0,0-.39.79.78.78,0,0,0,.36.69,4.6,4.6,0,0,0,1.31.44,6.49,6.49,0,0,1,1.53.51,2.18,2.18,0,0,1,.87.71,1.71,1.71,0,0,1,.29,1,1.89,1.89,0,0,1-.79,1.59,3.34,3.34,0,0,1-2.06.6,3.7,3.7,0,0,1-1.57-.31,2.46,2.46,0,0,1-1.07-.88,2.11,2.11,0,0,1-.39-1.22h1.26a1.37,1.37,0,0,0,.51,1,2,2,0,0,0,1.26.37,2.06,2.06,0,0,0,1.15-.29A.88.88,0,0,0,510.5,346.09Z" transform="translate(-35.22 -71.44)" style="fill:#6b6c6e"/><text transform="translate(519.34 200.62)" style="font-size:14px;fill:#6b6c6e;font-family:Roboto-Regular, Roboto">Refinement <tspan x="-1.85" y="19">of p</tspan><tspan x="22.32" y="19" style="letter-spacing:-0.009765625em">r</tspan><tspan x="26.92" y="19">oposed </tspan><tspan x="10.71" y="38">solution</tspan></text><path d="M659.94,267.62a6.11,6.11,0,0,1-2.46-1.19,2.3,2.3,0,0,1-.77-1.75,2.39,2.39,0,0,1,.94-1.94,3.7,3.7,0,0,1,2.44-.77,4.1,4.1,0,0,1,1.83.39,3.05,3.05,0,0,1,1.25,1.1,2.81,2.81,0,0,1,.44,1.52h-1.32a1.79,1.79,0,0,0-.58-1.42,2.3,2.3,0,0,0-1.62-.52,2.36,2.36,0,0,0-1.51.43,1.42,1.42,0,0,0-.54,1.19,1.3,1.3,0,0,0,.51,1,5.27,5.27,0,0,0,1.76.77,8,8,0,0,1,1.94.77,2.9,2.9,0,0,1,1,1,2.45,2.45,0,0,1,.34,1.32,2.35,2.35,0,0,1-1,1.94,4,4,0,0,1-2.52.72,4.69,4.69,0,0,1-1.91-.39,3.19,3.19,0,0,1-1.37-1.08,2.61,2.61,0,0,1-.48-1.55h1.31a1.74,1.74,0,0,0,.67,1.43,2.81,2.81,0,0,0,1.78.52,2.56,2.56,0,0,0,1.59-.42,1.39,1.39,0,0,0,.56-1.16,1.35,1.35,0,0,0-.51-1.13A6,6,0,0,0,659.94,267.62Z" transform="translate(-35.22 -71.44)" style="fill:#6b6c6e"/><path d="M669.68,271.33a2.72,2.72,0,0,1-2.17.86,2.31,2.31,0,0,1-1.8-.68,3,3,0,0,1-.63-2v-4.81h1.27v4.78c0,1.12.45,1.68,1.37,1.68a1.88,1.88,0,0,0,1.92-1.08v-5.38h1.27v7.4h-1.2Z" transform="translate(-35.22 -71.44)" style="fill:#6b6c6e"/><path d="M679.09,268.44a4.37,4.37,0,0,1-.78,2.72,2.48,2.48,0,0,1-2.09,1,2.59,2.59,0,0,1-2.17-1l-.06.86h-1.16v-10.5h1.26v3.91a2.59,2.59,0,0,1,2.12-1,2.5,2.5,0,0,1,2.11,1,4.55,4.55,0,0,1,.77,2.79Zm-1.26-.14a3.46,3.46,0,0,0-.5-2,1.65,1.65,0,0,0-1.44-.7,1.86,1.86,0,0,0-1.8,1.16V270a1.92,1.92,0,0,0,1.82,1.16,1.64,1.64,0,0,0,1.41-.7A3.62,3.62,0,0,0,677.83,268.3Z" transform="translate(-35.22 -71.44)" style="fill:#6b6c6e"/><path d="M681.87,264.66l0,.82a2.72,2.72,0,0,1,2.19-1,2.11,2.11,0,0,1,2.11,1.19,3,3,0,0,1,1-.86,2.87,2.87,0,0,1,1.4-.33c1.63,0,2.45.86,2.48,2.58v5h-1.27v-4.88a1.71,1.71,0,0,0-.36-1.19,1.61,1.61,0,0,0-1.22-.39,1.64,1.64,0,0,0-1.71,1.55v4.91h-1.27v-4.85a1.4,1.4,0,0,0-1.58-1.61,1.69,1.69,0,0,0-1.7,1.06v5.4h-1.26v-7.4Z" transform="translate(-35.22 -71.44)" style="fill:#6b6c6e"/><path d="M693,262.7a.73.73,0,0,1,.19-.52.7.7,0,0,1,.56-.21.73.73,0,0,1,.56.21.79.79,0,0,1,0,1,.73.73,0,0,1-.56.21.7.7,0,0,1-.56-.21A.72.72,0,0,1,693,262.7Zm1.37,9.36h-1.27v-7.4h1.27Z" transform="translate(-35.22 -71.44)" style="fill:#6b6c6e"/><path d="M700.66,270.09a.92.92,0,0,0-.39-.79,3.74,3.74,0,0,0-1.34-.49,6.72,6.72,0,0,1-1.53-.49,2.15,2.15,0,0,1-.83-.69,1.6,1.6,0,0,1-.27-.94,1.9,1.9,0,0,1,.77-1.54,3,3,0,0,1,2-.63,3.1,3.1,0,0,1,2,.65,2.08,2.08,0,0,1,.78,1.66h-1.27a1.12,1.12,0,0,0-.44-.89,1.64,1.64,0,0,0-1.11-.38,1.73,1.73,0,0,0-1.08.3,1,1,0,0,0-.39.79.77.77,0,0,0,.36.69,4.72,4.72,0,0,0,1.31.44,7.09,7.09,0,0,1,1.54.51,2.26,2.26,0,0,1,.87.71,1.72,1.72,0,0,1,.28,1,1.89,1.89,0,0,1-.79,1.59,3.38,3.38,0,0,1-2.06.59,3.73,3.73,0,0,1-1.57-.31,2.52,2.52,0,0,1-1.07-.88,2.11,2.11,0,0,1-.39-1.22h1.27a1.3,1.3,0,0,0,.51,1,1.94,1.94,0,0,0,1.25.37,2.06,2.06,0,0,0,1.15-.29A.89.89,0,0,0,700.66,270.09Z" transform="translate(-35.22 -71.44)" style="fill:#6b6c6e"/><path d="M707.88,270.09a.92.92,0,0,0-.39-.79,3.8,3.8,0,0,0-1.35-.49,6.62,6.62,0,0,1-1.52-.49,2.08,2.08,0,0,1-.83-.69,1.6,1.6,0,0,1-.27-.94,1.9,1.9,0,0,1,.77-1.54,3,3,0,0,1,2-.63,3.1,3.1,0,0,1,2,.65,2.08,2.08,0,0,1,.78,1.66H707.8a1.12,1.12,0,0,0-.44-.89,1.64,1.64,0,0,0-1.11-.38,1.73,1.73,0,0,0-1.08.3,1,1,0,0,0-.39.79.77.77,0,0,0,.36.69,4.6,4.6,0,0,0,1.31.44,7.28,7.28,0,0,1,1.54.51,2.26,2.26,0,0,1,.87.71,1.72,1.72,0,0,1,.28,1,1.89,1.89,0,0,1-.79,1.59,3.4,3.4,0,0,1-2.06.59,3.7,3.7,0,0,1-1.57-.31,2.52,2.52,0,0,1-1.07-.88,2.11,2.11,0,0,1-.39-1.22h1.27a1.3,1.3,0,0,0,.51,1,1.94,1.94,0,0,0,1.25.37,2.06,2.06,0,0,0,1.15-.29A.89.89,0,0,0,707.88,270.09Z" transform="translate(-35.22 -71.44)" style="fill:#6b6c6e"/><path d="M710.8,262.7a.77.77,0,0,1,.18-.52.85.85,0,0,1,1.12,0,.73.73,0,0,1,.19.52.78.78,0,0,1-1.31.51A.76.76,0,0,1,710.8,262.7Zm1.36,9.36H710.9v-7.4h1.26Z" transform="translate(-35.22 -71.44)" style="fill:#6b6c6e"/><path d="M713.85,268.29a4.34,4.34,0,0,1,.43-2,3.14,3.14,0,0,1,1.19-1.33,3.2,3.2,0,0,1,1.74-.48,3.1,3.1,0,0,1,2.44,1.05,4,4,0,0,1,.93,2.78v.09a4.35,4.35,0,0,1-.41,1.94,3.06,3.06,0,0,1-1.18,1.33,3.26,3.26,0,0,1-1.77.48,3.12,3.12,0,0,1-2.43-1,4,4,0,0,1-.94-2.77Zm1.27.15a3.19,3.19,0,0,0,.57,2,1.84,1.84,0,0,0,1.53.74,1.81,1.81,0,0,0,1.53-.75,3.47,3.47,0,0,0,.57-2.12,3.12,3.12,0,0,0-.58-2,1.91,1.91,0,0,0-3,0A3.38,3.38,0,0,0,715.12,268.44Z" transform="translate(-35.22 -71.44)" style="fill:#6b6c6e"/><path d="M723.37,264.66l0,.93a2.69,2.69,0,0,1,2.21-1.07c1.57,0,2.35.89,2.37,2.65v4.89h-1.27v-4.9a1.67,1.67,0,0,0-.36-1.18,1.45,1.45,0,0,0-1.12-.38,1.88,1.88,0,0,0-1.08.32,2.19,2.19,0,0,0-.72.87v5.27h-1.27v-7.4Z" transform="translate(-35.22 -71.44)" style="fill:#6b6c6e"/><path d="M669.92,287.29a4.48,4.48,0,0,1,.43-2,3.18,3.18,0,0,1,2.93-1.81,3.1,3.1,0,0,1,2.44,1.05,4,4,0,0,1,.94,2.78v.09a4.35,4.35,0,0,1-.42,1.94,3.06,3.06,0,0,1-1.18,1.33,3.26,3.26,0,0,1-1.77.48,3.12,3.12,0,0,1-2.43-1,4,4,0,0,1-.94-2.77Zm1.28.15a3.19,3.19,0,0,0,.57,2,1.94,1.94,0,0,0,3.06,0,3.54,3.54,0,0,0,.56-2.12,3.18,3.18,0,0,0-.57-2,1.84,1.84,0,0,0-1.54-.76,1.81,1.81,0,0,0-1.51.75A3.44,3.44,0,0,0,671.2,287.44Z" transform="translate(-35.22 -71.44)" style="fill:#6b6c6e"/><path d="M678.87,291.06v-6.42H677.7v-1h1.17v-.76a2.55,2.55,0,0,1,.63-1.84,2.4,2.4,0,0,1,1.8-.65,3.26,3.26,0,0,1,.87.12l-.07,1a3.74,3.74,0,0,0-.68-.06,1.25,1.25,0,0,0-1,.36,1.47,1.47,0,0,0-.33,1v.78h1.58v1h-1.58v6.42Z" transform="translate(-35.22 -71.44)" style="fill:#6b6c6e"/><path d="M692.26,286.66h-4.18v4.4h-1.31v-10h6.16v1.08h-4.85v3.41h4.18Z" transform="translate(-35.22 -71.44)" style="fill:#6b6c6e"/><path d="M694.31,281.7a.77.77,0,0,1,.19-.52.85.85,0,0,1,1.12,0,.73.73,0,0,1,.19.52.78.78,0,0,1-1.31.51A.76.76,0,0,1,694.31,281.7Zm1.37,9.36h-1.26v-7.4h1.26Z" transform="translate(-35.22 -71.44)" style="fill:#6b6c6e"/><path d="M698.9,283.66l0,.93a2.72,2.72,0,0,1,2.22-1.07c1.56,0,2.35.89,2.36,2.65v4.89h-1.26v-4.9a1.72,1.72,0,0,0-.37-1.18,1.45,1.45,0,0,0-1.12-.38,1.88,1.88,0,0,0-1.08.32,2.19,2.19,0,0,0-.72.87v5.27h-1.26v-7.4Z" transform="translate(-35.22 -71.44)" style="fill:#6b6c6e"/><path d="M710,291.06a2.34,2.34,0,0,1-.18-.78,2.82,2.82,0,0,1-2.11.91,2.57,2.57,0,0,1-1.79-.62,2,2,0,0,1-.7-1.56,2.1,2.1,0,0,1,.88-1.8,4.17,4.17,0,0,1,2.47-.64h1.23V286a1.39,1.39,0,0,0-.4-1.05,1.55,1.55,0,0,0-1.17-.4,1.87,1.87,0,0,0-1.13.34,1,1,0,0,0-.46.83h-1.27a1.77,1.77,0,0,1,.39-1.07,2.71,2.71,0,0,1,1.07-.82,3.59,3.59,0,0,1,1.48-.3,3,3,0,0,1,2,.64,2.34,2.34,0,0,1,.75,1.76v3.41a4.21,4.21,0,0,0,.26,1.62v.11Zm-2.1-1a2.3,2.3,0,0,0,1.13-.3,2,2,0,0,0,.77-.8v-1.52h-1c-1.55,0-2.33.45-2.33,1.36a1.19,1.19,0,0,0,.4.93A1.53,1.53,0,0,0,707.9,290.09Z" transform="translate(-35.22 -71.44)" style="fill:#6b6c6e"/><path d="M714.42,291.06h-1.27v-10.5h1.27Z" transform="translate(-35.22 -71.44)" style="fill:#6b6c6e"/><path d="M670.94,305.62a6.11,6.11,0,0,1-2.46-1.19,2.3,2.3,0,0,1-.77-1.75,2.42,2.42,0,0,1,.94-1.94,3.71,3.71,0,0,1,2.45-.77,4.09,4.09,0,0,1,1.82.39,3,3,0,0,1,1.25,1.1,2.81,2.81,0,0,1,.44,1.52h-1.32a1.82,1.82,0,0,0-.57-1.42,2.34,2.34,0,0,0-1.62-.52,2.37,2.37,0,0,0-1.52.43,1.42,1.42,0,0,0-.54,1.19,1.3,1.3,0,0,0,.51,1,5.27,5.27,0,0,0,1.76.77,7.86,7.86,0,0,1,1.94.77,2.82,2.82,0,0,1,1,1,2.45,2.45,0,0,1,.34,1.32,2.31,2.31,0,0,1-.94,1.93,4,4,0,0,1-2.52.73,4.71,4.71,0,0,1-1.92-.39,3.19,3.19,0,0,1-1.37-1.08,2.61,2.61,0,0,1-.48-1.55h1.32a1.73,1.73,0,0,0,.66,1.43,2.82,2.82,0,0,0,1.79.52,2.6,2.6,0,0,0,1.59-.42,1.39,1.39,0,0,0,.55-1.16,1.35,1.35,0,0,0-.51-1.13A5.8,5.8,0,0,0,670.94,305.62Z" transform="translate(-35.22 -71.44)" style="fill:#6b6c6e"/><path d="M675.78,306.29a4.34,4.34,0,0,1,.43-2,3.31,3.31,0,0,1,5.37-.76,4,4,0,0,1,.93,2.78v.09a4.35,4.35,0,0,1-.41,1.94,3.12,3.12,0,0,1-1.18,1.33,3.31,3.31,0,0,1-1.77.48,3.14,3.14,0,0,1-2.44-1,4,4,0,0,1-.93-2.77Zm1.27.15a3.19,3.19,0,0,0,.57,2,1.94,1.94,0,0,0,3.06,0,3.47,3.47,0,0,0,.57-2.12,3.12,3.12,0,0,0-.58-2,1.82,1.82,0,0,0-1.53-.76,1.8,1.8,0,0,0-1.51.75A3.36,3.36,0,0,0,677.05,306.44Z" transform="translate(-35.22 -71.44)" style="fill:#6b6c6e"/><path d="M685.47,310.06h-1.26v-10.5h1.26Z" transform="translate(-35.22 -71.44)" style="fill:#6b6c6e"/><path d="M692.06,309.33a2.69,2.69,0,0,1-2.16.86,2.35,2.35,0,0,1-1.81-.68,3,3,0,0,1-.62-2v-4.81h1.26v4.78c0,1.12.46,1.68,1.37,1.68A1.89,1.89,0,0,0,692,308v-5.38h1.26v7.4h-1.2Z" transform="translate(-35.22 -71.44)" style="fill:#6b6c6e"/><path d="M696.93,300.87v1.79h1.38v1h-1.38v4.59a1.05,1.05,0,0,0,.18.67.79.79,0,0,0,.63.22,3.31,3.31,0,0,0,.6-.08v1a3.65,3.65,0,0,1-1,.13,1.56,1.56,0,0,1-1.27-.51,2.19,2.19,0,0,1-.43-1.46v-4.58h-1.35v-1h1.35v-1.79Z" transform="translate(-35.22 -71.44)" style="fill:#6b6c6e"/><path d="M699.79,300.7a.77.77,0,0,1,.19-.52.85.85,0,0,1,1.12,0,.73.73,0,0,1,.19.52.78.78,0,0,1-1.31.51A.76.76,0,0,1,699.79,300.7Zm1.37,9.36H699.9v-7.4h1.26Z" transform="translate(-35.22 -71.44)" style="fill:#6b6c6e"/><path d="M702.85,306.29a4.34,4.34,0,0,1,.43-2,3.31,3.31,0,0,1,5.37-.76,4,4,0,0,1,.93,2.78v.09a4.35,4.35,0,0,1-.41,1.94,3.12,3.12,0,0,1-1.18,1.33,3.31,3.31,0,0,1-1.77.48,3.14,3.14,0,0,1-2.44-1,4,4,0,0,1-.93-2.77Zm1.27.15a3.19,3.19,0,0,0,.57,2,1.94,1.94,0,0,0,3.06,0,3.47,3.47,0,0,0,.57-2.12,3.12,3.12,0,0,0-.58-2,1.82,1.82,0,0,0-1.53-.76,1.8,1.8,0,0,0-1.51.75A3.36,3.36,0,0,0,704.12,306.44Z" transform="translate(-35.22 -71.44)" style="fill:#6b6c6e"/><path d="M712.37,302.66l0,.93a2.69,2.69,0,0,1,2.21-1.07c1.56,0,2.35.89,2.37,2.65v4.89h-1.27v-4.9a1.71,1.71,0,0,0-.36-1.18,1.46,1.46,0,0,0-1.12-.38,1.88,1.88,0,0,0-1.08.32,2.3,2.3,0,0,0-.73.87v5.27h-1.26v-7.4Z" transform="translate(-35.22 -71.44)" style="fill:#6b6c6e"/></svg>